G04 EAGLE Gerber RS-274X export*
G75*
%MOMM*%
%FSLAX34Y34*%
%LPD*%
%INBottom Copper*%
%IPPOS*%
%AMOC8*
5,1,8,0,0,1.08239X$1,22.5*%
G01*
%ADD10C,0.152400*%
%ADD11C,2.514600*%
%ADD12C,1.981200*%
%ADD13R,1.879600X1.879600*%
%ADD14C,1.879600*%
%ADD15P,1.649562X8X22.500000*%
%ADD16P,1.429621X8X22.500000*%
%ADD17P,1.429621X8X202.500000*%
%ADD18C,2.159000*%
%ADD19C,1.320800*%
%ADD20P,1.814519X8X22.500000*%
%ADD21C,1.270000*%

G36*
X115127Y10178D02*
X115127Y10178D01*
X115277Y10190D01*
X115300Y10198D01*
X115324Y10201D01*
X115465Y10251D01*
X115609Y10297D01*
X115629Y10310D01*
X115652Y10318D01*
X115779Y10400D01*
X115907Y10477D01*
X115924Y10494D01*
X115945Y10507D01*
X116050Y10616D01*
X116157Y10720D01*
X116170Y10740D01*
X116187Y10758D01*
X116264Y10887D01*
X116345Y11013D01*
X116353Y11036D01*
X116366Y11057D01*
X116412Y11200D01*
X116462Y11342D01*
X116465Y11366D01*
X116472Y11389D01*
X116484Y11538D01*
X116501Y11688D01*
X116498Y11712D01*
X116500Y11736D01*
X116478Y11884D01*
X116460Y12034D01*
X116451Y12062D01*
X116448Y12081D01*
X116431Y12124D01*
X116385Y12267D01*
X115569Y14236D01*
X115569Y272387D01*
X115555Y272512D01*
X115548Y272638D01*
X115535Y272685D01*
X115529Y272733D01*
X115487Y272852D01*
X115452Y272973D01*
X115428Y273015D01*
X115412Y273061D01*
X115343Y273167D01*
X115282Y273277D01*
X115242Y273324D01*
X115223Y273354D01*
X115188Y273387D01*
X115123Y273464D01*
X96229Y292358D01*
X92800Y295787D01*
X91059Y299989D01*
X91059Y329811D01*
X92800Y334013D01*
X96229Y337442D01*
X115123Y356336D01*
X115202Y356435D01*
X115286Y356529D01*
X115310Y356572D01*
X115340Y356609D01*
X115394Y356724D01*
X115455Y356834D01*
X115468Y356881D01*
X115489Y356924D01*
X115515Y357048D01*
X115550Y357170D01*
X115555Y357230D01*
X115562Y357265D01*
X115561Y357313D01*
X115569Y357413D01*
X115569Y375275D01*
X115555Y375401D01*
X115548Y375527D01*
X115535Y375573D01*
X115529Y375621D01*
X115487Y375740D01*
X115452Y375862D01*
X115428Y375904D01*
X115412Y375949D01*
X115343Y376056D01*
X115315Y376106D01*
X115315Y385890D01*
X115340Y385921D01*
X115394Y386035D01*
X115455Y386146D01*
X115468Y386192D01*
X115489Y386236D01*
X115515Y386359D01*
X115550Y386481D01*
X115555Y386542D01*
X115562Y386577D01*
X115561Y386625D01*
X115569Y386725D01*
X115569Y400675D01*
X115555Y400801D01*
X115548Y400927D01*
X115535Y400973D01*
X115529Y401021D01*
X115487Y401140D01*
X115452Y401262D01*
X115428Y401304D01*
X115412Y401349D01*
X115343Y401456D01*
X115315Y401506D01*
X115315Y411290D01*
X115340Y411321D01*
X115394Y411435D01*
X115455Y411546D01*
X115468Y411592D01*
X115489Y411636D01*
X115515Y411759D01*
X115550Y411881D01*
X115555Y411942D01*
X115562Y411977D01*
X115561Y412025D01*
X115569Y412125D01*
X115569Y426075D01*
X115555Y426201D01*
X115548Y426327D01*
X115535Y426373D01*
X115529Y426421D01*
X115487Y426540D01*
X115452Y426662D01*
X115428Y426704D01*
X115412Y426749D01*
X115343Y426856D01*
X115315Y426906D01*
X115315Y436690D01*
X115340Y436721D01*
X115394Y436835D01*
X115455Y436946D01*
X115468Y436992D01*
X115489Y437036D01*
X115515Y437159D01*
X115550Y437281D01*
X115555Y437342D01*
X115562Y437377D01*
X115561Y437425D01*
X115569Y437525D01*
X115569Y451475D01*
X115555Y451601D01*
X115548Y451727D01*
X115535Y451773D01*
X115529Y451821D01*
X115487Y451940D01*
X115452Y452062D01*
X115428Y452104D01*
X115412Y452149D01*
X115343Y452256D01*
X115315Y452306D01*
X115315Y462040D01*
X122160Y468885D01*
X131840Y468885D01*
X138685Y462040D01*
X138685Y452310D01*
X138660Y452279D01*
X138606Y452165D01*
X138545Y452054D01*
X138532Y452008D01*
X138511Y451964D01*
X138485Y451841D01*
X138450Y451719D01*
X138445Y451658D01*
X138438Y451623D01*
X138439Y451575D01*
X138431Y451475D01*
X138431Y437525D01*
X138445Y437399D01*
X138452Y437273D01*
X138465Y437227D01*
X138471Y437179D01*
X138513Y437060D01*
X138548Y436938D01*
X138572Y436896D01*
X138588Y436851D01*
X138657Y436744D01*
X138685Y436694D01*
X138685Y426910D01*
X138660Y426879D01*
X138606Y426765D01*
X138545Y426654D01*
X138532Y426608D01*
X138511Y426564D01*
X138485Y426441D01*
X138450Y426319D01*
X138445Y426258D01*
X138438Y426223D01*
X138439Y426175D01*
X138431Y426075D01*
X138431Y412125D01*
X138445Y411999D01*
X138452Y411873D01*
X138465Y411827D01*
X138471Y411779D01*
X138513Y411660D01*
X138548Y411538D01*
X138572Y411496D01*
X138588Y411451D01*
X138657Y411344D01*
X138685Y411294D01*
X138685Y401510D01*
X138660Y401479D01*
X138606Y401365D01*
X138545Y401254D01*
X138532Y401208D01*
X138511Y401164D01*
X138485Y401041D01*
X138450Y400919D01*
X138445Y400858D01*
X138438Y400823D01*
X138439Y400775D01*
X138431Y400675D01*
X138431Y386725D01*
X138445Y386599D01*
X138452Y386473D01*
X138465Y386427D01*
X138471Y386379D01*
X138513Y386260D01*
X138548Y386138D01*
X138572Y386096D01*
X138588Y386051D01*
X138657Y385944D01*
X138685Y385894D01*
X138685Y376110D01*
X138660Y376079D01*
X138606Y375965D01*
X138545Y375854D01*
X138532Y375808D01*
X138511Y375764D01*
X138485Y375641D01*
X138450Y375519D01*
X138445Y375458D01*
X138438Y375423D01*
X138439Y375375D01*
X138431Y375275D01*
X138431Y349774D01*
X136690Y345573D01*
X132779Y341661D01*
X132717Y341583D01*
X132647Y341510D01*
X132608Y341446D01*
X132562Y341388D01*
X132519Y341297D01*
X132468Y341211D01*
X132445Y341140D01*
X132413Y341073D01*
X132392Y340975D01*
X132362Y340879D01*
X132356Y340805D01*
X132340Y340732D01*
X132342Y340632D01*
X132334Y340532D01*
X132345Y340458D01*
X132346Y340384D01*
X132370Y340287D01*
X132385Y340187D01*
X132413Y340118D01*
X132431Y340046D01*
X132477Y339956D01*
X132514Y339863D01*
X132556Y339802D01*
X132591Y339736D01*
X132656Y339659D01*
X132713Y339577D01*
X132768Y339527D01*
X132816Y339471D01*
X132897Y339411D01*
X132972Y339344D01*
X133037Y339308D01*
X133097Y339263D01*
X133189Y339224D01*
X133277Y339175D01*
X133348Y339155D01*
X133417Y339125D01*
X133515Y339108D01*
X133612Y339080D01*
X133712Y339072D01*
X133760Y339064D01*
X133795Y339066D01*
X133856Y339061D01*
X136181Y339061D01*
X142326Y337414D01*
X147835Y334233D01*
X152333Y329735D01*
X155514Y324226D01*
X157161Y318081D01*
X157161Y311719D01*
X155514Y305574D01*
X152333Y300065D01*
X147835Y295567D01*
X142326Y292386D01*
X136181Y290739D01*
X133856Y290739D01*
X133756Y290728D01*
X133656Y290726D01*
X133584Y290708D01*
X133510Y290699D01*
X133415Y290666D01*
X133318Y290641D01*
X133252Y290607D01*
X133182Y290582D01*
X133097Y290527D01*
X133008Y290481D01*
X132951Y290433D01*
X132889Y290393D01*
X132819Y290321D01*
X132743Y290256D01*
X132698Y290196D01*
X132647Y290142D01*
X132595Y290056D01*
X132535Y289975D01*
X132506Y289907D01*
X132468Y289843D01*
X132437Y289747D01*
X132397Y289655D01*
X132384Y289582D01*
X132362Y289511D01*
X132354Y289411D01*
X132336Y289312D01*
X132340Y289238D01*
X132334Y289164D01*
X132349Y289064D01*
X132354Y288964D01*
X132374Y288893D01*
X132385Y288819D01*
X132422Y288726D01*
X132450Y288629D01*
X132487Y288564D01*
X132514Y288495D01*
X132571Y288413D01*
X132620Y288325D01*
X132686Y288249D01*
X132713Y288209D01*
X132739Y288185D01*
X132779Y288139D01*
X136690Y284227D01*
X138431Y280026D01*
X138431Y29464D01*
X138434Y29438D01*
X138432Y29412D01*
X138454Y29265D01*
X138471Y29118D01*
X138479Y29093D01*
X138483Y29067D01*
X138538Y28929D01*
X138588Y28790D01*
X138602Y28768D01*
X138612Y28743D01*
X138697Y28622D01*
X138777Y28497D01*
X138796Y28479D01*
X138811Y28457D01*
X138921Y28358D01*
X139028Y28255D01*
X139050Y28241D01*
X139070Y28224D01*
X139200Y28152D01*
X139327Y28076D01*
X139352Y28068D01*
X139375Y28055D01*
X139518Y28015D01*
X139659Y27970D01*
X139685Y27968D01*
X139710Y27960D01*
X139954Y27941D01*
X393843Y27941D01*
X393943Y27952D01*
X394043Y27954D01*
X394115Y27972D01*
X394189Y27981D01*
X394283Y28014D01*
X394381Y28039D01*
X394447Y28073D01*
X394517Y28098D01*
X394601Y28153D01*
X394691Y28199D01*
X394747Y28247D01*
X394810Y28287D01*
X394880Y28359D01*
X394956Y28424D01*
X395000Y28484D01*
X395052Y28538D01*
X395104Y28624D01*
X395163Y28705D01*
X395193Y28773D01*
X395231Y28837D01*
X395261Y28933D01*
X395301Y29025D01*
X395314Y29098D01*
X395337Y29169D01*
X395345Y29269D01*
X395363Y29368D01*
X395359Y29442D01*
X395365Y29516D01*
X395350Y29616D01*
X395345Y29716D01*
X395324Y29787D01*
X395313Y29861D01*
X395276Y29954D01*
X395248Y30051D01*
X395212Y30116D01*
X395185Y30185D01*
X395127Y30267D01*
X395078Y30355D01*
X395013Y30431D01*
X394986Y30471D01*
X394959Y30495D01*
X394920Y30541D01*
X392937Y32524D01*
X392937Y43676D01*
X400824Y51563D01*
X411976Y51563D01*
X418023Y45516D01*
X418043Y45500D01*
X418060Y45480D01*
X418180Y45392D01*
X418296Y45300D01*
X418320Y45288D01*
X418341Y45273D01*
X418477Y45214D01*
X418611Y45151D01*
X418637Y45145D01*
X418661Y45135D01*
X418807Y45109D01*
X418952Y45077D01*
X418978Y45078D01*
X419004Y45073D01*
X419152Y45081D01*
X419300Y45083D01*
X419326Y45090D01*
X419352Y45091D01*
X419494Y45132D01*
X419638Y45168D01*
X419661Y45180D01*
X419687Y45188D01*
X419816Y45260D01*
X419948Y45328D01*
X419968Y45345D01*
X419991Y45358D01*
X420177Y45516D01*
X426224Y51563D01*
X437376Y51563D01*
X443423Y45516D01*
X443443Y45500D01*
X443460Y45480D01*
X443580Y45392D01*
X443696Y45300D01*
X443720Y45288D01*
X443741Y45273D01*
X443877Y45214D01*
X444011Y45151D01*
X444037Y45145D01*
X444061Y45135D01*
X444207Y45109D01*
X444352Y45077D01*
X444378Y45078D01*
X444404Y45073D01*
X444552Y45081D01*
X444700Y45083D01*
X444726Y45090D01*
X444752Y45091D01*
X444894Y45132D01*
X445038Y45168D01*
X445061Y45180D01*
X445087Y45188D01*
X445216Y45260D01*
X445348Y45328D01*
X445368Y45345D01*
X445391Y45358D01*
X445577Y45516D01*
X451624Y51563D01*
X462776Y51563D01*
X468823Y45516D01*
X468843Y45500D01*
X468860Y45480D01*
X468980Y45392D01*
X469096Y45300D01*
X469120Y45288D01*
X469141Y45273D01*
X469277Y45214D01*
X469411Y45151D01*
X469437Y45145D01*
X469461Y45135D01*
X469607Y45109D01*
X469752Y45077D01*
X469778Y45078D01*
X469804Y45073D01*
X469952Y45081D01*
X470100Y45083D01*
X470126Y45090D01*
X470152Y45091D01*
X470294Y45132D01*
X470438Y45168D01*
X470461Y45180D01*
X470487Y45188D01*
X470616Y45260D01*
X470748Y45328D01*
X470768Y45345D01*
X470791Y45358D01*
X470977Y45516D01*
X477024Y51563D01*
X488176Y51563D01*
X494223Y45516D01*
X494243Y45500D01*
X494260Y45480D01*
X494380Y45392D01*
X494496Y45300D01*
X494520Y45288D01*
X494541Y45273D01*
X494677Y45214D01*
X494811Y45151D01*
X494837Y45145D01*
X494861Y45135D01*
X495007Y45109D01*
X495152Y45077D01*
X495178Y45078D01*
X495204Y45073D01*
X495352Y45081D01*
X495500Y45083D01*
X495526Y45090D01*
X495552Y45091D01*
X495694Y45132D01*
X495838Y45168D01*
X495861Y45180D01*
X495887Y45188D01*
X496016Y45260D01*
X496148Y45328D01*
X496168Y45345D01*
X496191Y45358D01*
X496377Y45516D01*
X502424Y51563D01*
X513576Y51563D01*
X521419Y43720D01*
X521439Y43704D01*
X521456Y43684D01*
X521576Y43596D01*
X521692Y43504D01*
X521716Y43492D01*
X521737Y43477D01*
X521873Y43418D01*
X522007Y43355D01*
X522033Y43349D01*
X522057Y43339D01*
X522203Y43312D01*
X522348Y43281D01*
X522374Y43282D01*
X522400Y43277D01*
X522548Y43285D01*
X522696Y43287D01*
X522722Y43294D01*
X522748Y43295D01*
X522890Y43336D01*
X523034Y43372D01*
X523058Y43384D01*
X523083Y43392D01*
X523212Y43464D01*
X523344Y43532D01*
X523364Y43549D01*
X523387Y43562D01*
X523573Y43720D01*
X528876Y49023D01*
X530901Y49023D01*
X530901Y39076D01*
X530902Y39061D01*
X530902Y39050D01*
X530903Y39041D01*
X530902Y39024D01*
X530924Y38877D01*
X530941Y38730D01*
X530949Y38705D01*
X530953Y38679D01*
X531008Y38542D01*
X531058Y38402D01*
X531072Y38380D01*
X531082Y38355D01*
X531167Y38234D01*
X531247Y38109D01*
X531260Y38097D01*
X531215Y38050D01*
X531201Y38027D01*
X531184Y38008D01*
X531112Y37878D01*
X531036Y37751D01*
X531028Y37726D01*
X531015Y37703D01*
X530975Y37560D01*
X530930Y37419D01*
X530927Y37393D01*
X530920Y37368D01*
X530901Y37124D01*
X530901Y27177D01*
X528876Y27177D01*
X523573Y32480D01*
X523553Y32496D01*
X523536Y32516D01*
X523416Y32604D01*
X523300Y32696D01*
X523276Y32708D01*
X523255Y32723D01*
X523119Y32782D01*
X522985Y32845D01*
X522959Y32851D01*
X522935Y32861D01*
X522789Y32888D01*
X522644Y32919D01*
X522618Y32918D01*
X522592Y32923D01*
X522444Y32915D01*
X522296Y32913D01*
X522270Y32906D01*
X522244Y32905D01*
X522102Y32864D01*
X521958Y32828D01*
X521935Y32816D01*
X521909Y32808D01*
X521780Y32736D01*
X521648Y32668D01*
X521628Y32651D01*
X521605Y32638D01*
X521419Y32480D01*
X519877Y30938D01*
X519798Y30839D01*
X519714Y30745D01*
X519690Y30703D01*
X519660Y30665D01*
X519606Y30551D01*
X519545Y30440D01*
X519532Y30393D01*
X519511Y30350D01*
X519485Y30226D01*
X519450Y30104D01*
X519445Y30044D01*
X519438Y30009D01*
X519439Y29961D01*
X519431Y29861D01*
X519431Y14236D01*
X518615Y12267D01*
X518574Y12122D01*
X518528Y11979D01*
X518526Y11955D01*
X518519Y11932D01*
X518512Y11781D01*
X518500Y11632D01*
X518504Y11608D01*
X518502Y11584D01*
X518529Y11436D01*
X518552Y11287D01*
X518561Y11265D01*
X518565Y11241D01*
X518625Y11103D01*
X518680Y10963D01*
X518694Y10943D01*
X518704Y10921D01*
X518794Y10800D01*
X518879Y10677D01*
X518897Y10661D01*
X518912Y10641D01*
X519027Y10544D01*
X519138Y10444D01*
X519159Y10432D01*
X519178Y10416D01*
X519311Y10348D01*
X519443Y10275D01*
X519466Y10269D01*
X519488Y10258D01*
X519633Y10221D01*
X519779Y10180D01*
X519808Y10178D01*
X519826Y10173D01*
X519873Y10173D01*
X520022Y10161D01*
X610076Y10161D01*
X610176Y10172D01*
X610276Y10174D01*
X610349Y10192D01*
X610423Y10201D01*
X610517Y10234D01*
X610614Y10259D01*
X610681Y10293D01*
X610751Y10318D01*
X610835Y10373D01*
X610924Y10419D01*
X610981Y10467D01*
X611043Y10507D01*
X611113Y10579D01*
X611190Y10644D01*
X611234Y10704D01*
X611286Y10758D01*
X611337Y10844D01*
X611397Y10925D01*
X611426Y10993D01*
X611464Y11057D01*
X611495Y11153D01*
X611535Y11245D01*
X611548Y11318D01*
X611571Y11389D01*
X611579Y11489D01*
X611597Y11588D01*
X611593Y11662D01*
X611599Y11736D01*
X611584Y11836D01*
X611579Y11936D01*
X611558Y12007D01*
X611547Y12081D01*
X611510Y12174D01*
X611482Y12271D01*
X611446Y12336D01*
X611418Y12405D01*
X611361Y12487D01*
X611312Y12575D01*
X611247Y12651D01*
X611219Y12691D01*
X611193Y12715D01*
X611153Y12761D01*
X600231Y23683D01*
X600132Y23762D01*
X600038Y23846D01*
X599996Y23870D01*
X599958Y23900D01*
X599844Y23954D01*
X599733Y24015D01*
X599687Y24028D01*
X599643Y24049D01*
X599520Y24075D01*
X599398Y24110D01*
X599337Y24115D01*
X599303Y24122D01*
X599255Y24121D01*
X599154Y24129D01*
X584466Y24129D01*
X583520Y24521D01*
X583518Y24522D01*
X583516Y24523D01*
X583351Y24569D01*
X583185Y24617D01*
X583183Y24617D01*
X583181Y24618D01*
X582937Y24637D01*
X578624Y24637D01*
X570781Y32480D01*
X570761Y32496D01*
X570744Y32516D01*
X570624Y32604D01*
X570508Y32696D01*
X570484Y32708D01*
X570463Y32723D01*
X570327Y32782D01*
X570193Y32845D01*
X570167Y32851D01*
X570143Y32861D01*
X569997Y32888D01*
X569852Y32919D01*
X569826Y32918D01*
X569800Y32923D01*
X569652Y32915D01*
X569504Y32913D01*
X569478Y32906D01*
X569452Y32905D01*
X569310Y32864D01*
X569166Y32828D01*
X569142Y32816D01*
X569117Y32808D01*
X568988Y32736D01*
X568856Y32668D01*
X568836Y32651D01*
X568813Y32638D01*
X568627Y32480D01*
X563324Y27177D01*
X561299Y27177D01*
X561299Y37124D01*
X561296Y37150D01*
X561298Y37176D01*
X561276Y37323D01*
X561259Y37470D01*
X561251Y37495D01*
X561247Y37521D01*
X561192Y37658D01*
X561142Y37798D01*
X561128Y37820D01*
X561118Y37845D01*
X561033Y37966D01*
X560953Y38091D01*
X560940Y38103D01*
X560985Y38150D01*
X560999Y38173D01*
X561016Y38192D01*
X561088Y38322D01*
X561164Y38449D01*
X561172Y38474D01*
X561185Y38497D01*
X561225Y38640D01*
X561270Y38781D01*
X561272Y38807D01*
X561280Y38832D01*
X561299Y39076D01*
X561299Y49023D01*
X563324Y49023D01*
X568627Y43720D01*
X568647Y43704D01*
X568664Y43684D01*
X568784Y43596D01*
X568900Y43504D01*
X568924Y43492D01*
X568945Y43477D01*
X569081Y43418D01*
X569215Y43355D01*
X569241Y43349D01*
X569265Y43339D01*
X569411Y43312D01*
X569556Y43281D01*
X569582Y43282D01*
X569608Y43277D01*
X569756Y43285D01*
X569904Y43287D01*
X569930Y43294D01*
X569956Y43295D01*
X570098Y43336D01*
X570242Y43372D01*
X570265Y43384D01*
X570291Y43392D01*
X570420Y43464D01*
X570552Y43532D01*
X570572Y43549D01*
X570595Y43562D01*
X570781Y43720D01*
X578624Y51563D01*
X589776Y51563D01*
X593902Y47437D01*
X594001Y47358D01*
X594095Y47274D01*
X594137Y47250D01*
X594175Y47220D01*
X594289Y47166D01*
X594400Y47105D01*
X594447Y47092D01*
X594490Y47071D01*
X594614Y47045D01*
X594736Y47010D01*
X594796Y47005D01*
X594831Y46998D01*
X594879Y46999D01*
X594979Y46991D01*
X606794Y46991D01*
X610995Y45250D01*
X618937Y37309D01*
X619015Y37246D01*
X619088Y37176D01*
X619152Y37138D01*
X619210Y37092D01*
X619301Y37049D01*
X619387Y36998D01*
X619458Y36975D01*
X619525Y36943D01*
X619623Y36922D01*
X619719Y36891D01*
X619793Y36885D01*
X619866Y36870D01*
X619966Y36871D01*
X620066Y36863D01*
X620140Y36874D01*
X620214Y36876D01*
X620311Y36900D01*
X620411Y36915D01*
X620480Y36942D01*
X620552Y36961D01*
X620642Y37007D01*
X620735Y37044D01*
X620796Y37086D01*
X620862Y37120D01*
X620939Y37185D01*
X621021Y37243D01*
X621071Y37298D01*
X621127Y37346D01*
X621187Y37427D01*
X621254Y37501D01*
X621290Y37567D01*
X621335Y37626D01*
X621374Y37719D01*
X621423Y37806D01*
X621443Y37878D01*
X621473Y37946D01*
X621490Y38045D01*
X621518Y38142D01*
X621526Y38242D01*
X621534Y38289D01*
X621532Y38325D01*
X621537Y38386D01*
X621537Y43676D01*
X623123Y45262D01*
X623202Y45361D01*
X623286Y45455D01*
X623310Y45497D01*
X623340Y45535D01*
X623394Y45649D01*
X623455Y45760D01*
X623468Y45807D01*
X623489Y45850D01*
X623515Y45974D01*
X623550Y46096D01*
X623555Y46156D01*
X623562Y46191D01*
X623561Y46239D01*
X623569Y46339D01*
X623569Y147034D01*
X623555Y147160D01*
X623548Y147286D01*
X623535Y147332D01*
X623529Y147380D01*
X623487Y147499D01*
X623452Y147621D01*
X623428Y147663D01*
X623412Y147709D01*
X623343Y147815D01*
X623282Y147925D01*
X623242Y147971D01*
X623223Y148001D01*
X623188Y148035D01*
X623123Y148111D01*
X563949Y207285D01*
X563910Y207316D01*
X563876Y207354D01*
X563774Y207424D01*
X563676Y207502D01*
X563631Y207523D01*
X563589Y207552D01*
X563474Y207598D01*
X563361Y207651D01*
X563312Y207661D01*
X563265Y207680D01*
X563142Y207698D01*
X563021Y207724D01*
X562970Y207723D01*
X562920Y207730D01*
X562796Y207720D01*
X562672Y207718D01*
X562623Y207706D01*
X562573Y207702D01*
X562455Y207663D01*
X562334Y207633D01*
X562289Y207610D01*
X562241Y207594D01*
X562135Y207530D01*
X562024Y207473D01*
X561986Y207441D01*
X561943Y207415D01*
X561854Y207328D01*
X561759Y207248D01*
X561729Y207207D01*
X561693Y207172D01*
X561626Y207067D01*
X561552Y206967D01*
X561532Y206921D01*
X561505Y206879D01*
X561463Y206761D01*
X561414Y206647D01*
X561405Y206598D01*
X561388Y206550D01*
X561374Y206427D01*
X561352Y206304D01*
X561355Y206254D01*
X561349Y206204D01*
X561364Y206080D01*
X561370Y205956D01*
X561384Y205908D01*
X561390Y205858D01*
X561465Y205625D01*
X561576Y205358D01*
X561576Y199042D01*
X559159Y193207D01*
X554693Y188741D01*
X548858Y186324D01*
X542542Y186324D01*
X536707Y188741D01*
X532241Y193207D01*
X529824Y199042D01*
X529824Y205358D01*
X532241Y211193D01*
X536707Y215659D01*
X542542Y218076D01*
X548858Y218076D01*
X549125Y217965D01*
X549173Y217951D01*
X549219Y217930D01*
X549341Y217904D01*
X549460Y217869D01*
X549510Y217867D01*
X549560Y217856D01*
X549684Y217858D01*
X549808Y217852D01*
X549858Y217861D01*
X549908Y217862D01*
X550029Y217893D01*
X550151Y217915D01*
X550197Y217935D01*
X550246Y217947D01*
X550357Y218004D01*
X550471Y218054D01*
X550511Y218084D01*
X550556Y218107D01*
X550651Y218188D01*
X550750Y218262D01*
X550783Y218300D01*
X550821Y218333D01*
X550895Y218433D01*
X550976Y218528D01*
X550999Y218573D01*
X551028Y218613D01*
X551078Y218727D01*
X551134Y218838D01*
X551147Y218887D01*
X551166Y218933D01*
X551188Y219055D01*
X551219Y219176D01*
X551219Y219226D01*
X551228Y219276D01*
X551222Y219400D01*
X551224Y219525D01*
X551213Y219574D01*
X551210Y219624D01*
X551176Y219744D01*
X551149Y219865D01*
X551128Y219911D01*
X551114Y219959D01*
X551053Y220067D01*
X551000Y220180D01*
X550968Y220219D01*
X550944Y220263D01*
X550785Y220449D01*
X550782Y220452D01*
X402111Y369123D01*
X402012Y369202D01*
X401918Y369286D01*
X401876Y369310D01*
X401838Y369340D01*
X401724Y369394D01*
X401613Y369455D01*
X401567Y369468D01*
X401523Y369489D01*
X401400Y369515D01*
X401278Y369550D01*
X401217Y369555D01*
X401183Y369562D01*
X401135Y369561D01*
X401034Y369569D01*
X259725Y369569D01*
X259599Y369555D01*
X259473Y369548D01*
X259427Y369535D01*
X259379Y369529D01*
X259260Y369487D01*
X259138Y369452D01*
X259096Y369428D01*
X259051Y369412D01*
X258944Y369343D01*
X258894Y369315D01*
X249160Y369315D01*
X248082Y370393D01*
X247983Y370472D01*
X247889Y370556D01*
X247847Y370580D01*
X247809Y370610D01*
X247695Y370664D01*
X247584Y370725D01*
X247538Y370738D01*
X247494Y370759D01*
X247371Y370785D01*
X247249Y370820D01*
X247188Y370825D01*
X247153Y370832D01*
X247105Y370831D01*
X247005Y370839D01*
X246646Y370839D01*
X245431Y371343D01*
X245402Y371351D01*
X245218Y371413D01*
X243942Y371732D01*
X243396Y372136D01*
X243341Y372168D01*
X243290Y372208D01*
X243124Y372293D01*
X243094Y372310D01*
X243085Y372313D01*
X243072Y372320D01*
X242445Y372580D01*
X241515Y373509D01*
X241491Y373528D01*
X241345Y373656D01*
X240288Y374439D01*
X239939Y375021D01*
X239900Y375072D01*
X239868Y375129D01*
X239792Y375218D01*
X239788Y375224D01*
X239783Y375228D01*
X239748Y375270D01*
X239726Y375298D01*
X239719Y375304D01*
X239710Y375315D01*
X25870Y589155D01*
X24129Y593356D01*
X24129Y694042D01*
X24121Y694118D01*
X24122Y694194D01*
X24101Y694291D01*
X24089Y694388D01*
X24064Y694460D01*
X24047Y694535D01*
X24005Y694624D01*
X23972Y694716D01*
X23930Y694780D01*
X23898Y694849D01*
X23836Y694926D01*
X23783Y695009D01*
X23728Y695062D01*
X23680Y695122D01*
X23603Y695183D01*
X23532Y695251D01*
X23467Y695290D01*
X23407Y695338D01*
X23273Y695406D01*
X23233Y695430D01*
X23215Y695436D01*
X23189Y695449D01*
X20988Y696361D01*
X16022Y701327D01*
X13334Y707815D01*
X13334Y739985D01*
X16022Y746473D01*
X20988Y751439D01*
X27476Y754127D01*
X34500Y754127D01*
X40988Y751439D01*
X45954Y746473D01*
X48642Y739985D01*
X48642Y707815D01*
X47107Y704110D01*
X47106Y704108D01*
X47105Y704106D01*
X47059Y703944D01*
X47011Y703774D01*
X47011Y703772D01*
X47010Y703770D01*
X46991Y703527D01*
X46991Y600996D01*
X47005Y600870D01*
X47012Y600744D01*
X47025Y600698D01*
X47031Y600650D01*
X47073Y600531D01*
X47108Y600409D01*
X47132Y600367D01*
X47148Y600321D01*
X47217Y600215D01*
X47278Y600105D01*
X47318Y600059D01*
X47337Y600029D01*
X47372Y599995D01*
X47437Y599919D01*
X65979Y581377D01*
X66057Y581314D01*
X66130Y581244D01*
X66194Y581206D01*
X66252Y581160D01*
X66343Y581117D01*
X66429Y581066D01*
X66500Y581043D01*
X66567Y581011D01*
X66665Y580990D01*
X66761Y580959D01*
X66835Y580953D01*
X66908Y580938D01*
X67008Y580939D01*
X67108Y580931D01*
X67182Y580942D01*
X67256Y580944D01*
X67353Y580968D01*
X67453Y580983D01*
X67522Y581010D01*
X67594Y581029D01*
X67684Y581075D01*
X67777Y581112D01*
X67838Y581154D01*
X67904Y581188D01*
X67981Y581253D01*
X68063Y581311D01*
X68113Y581366D01*
X68169Y581414D01*
X68229Y581495D01*
X68296Y581569D01*
X68332Y581635D01*
X68377Y581694D01*
X68416Y581787D01*
X68465Y581874D01*
X68485Y581946D01*
X68515Y582014D01*
X68532Y582113D01*
X68560Y582210D01*
X68568Y582310D01*
X68576Y582357D01*
X68574Y582393D01*
X68579Y582454D01*
X68579Y651244D01*
X70320Y655445D01*
X112583Y697709D01*
X112662Y697808D01*
X112746Y697902D01*
X112770Y697944D01*
X112800Y697982D01*
X112854Y698096D01*
X112915Y698207D01*
X112928Y698253D01*
X112949Y698297D01*
X112975Y698420D01*
X113010Y698542D01*
X113015Y698603D01*
X113022Y698637D01*
X113021Y698685D01*
X113029Y698786D01*
X113029Y719794D01*
X113026Y719821D01*
X113028Y719864D01*
X112937Y721840D01*
X112938Y721843D01*
X112971Y721980D01*
X113010Y722117D01*
X113013Y722157D01*
X113019Y722182D01*
X113019Y722231D01*
X113029Y722361D01*
X113029Y722364D01*
X113786Y724191D01*
X113794Y724217D01*
X113811Y724256D01*
X114484Y726116D01*
X114486Y726118D01*
X114569Y726233D01*
X114657Y726345D01*
X114675Y726380D01*
X114690Y726401D01*
X114709Y726447D01*
X114768Y726562D01*
X114818Y726683D01*
X114819Y726685D01*
X114820Y726687D01*
X114866Y726852D01*
X114914Y727018D01*
X114914Y727020D01*
X114915Y727022D01*
X114934Y727266D01*
X114934Y739985D01*
X117622Y746473D01*
X122588Y751439D01*
X129076Y754127D01*
X136100Y754127D01*
X142588Y751439D01*
X147554Y746473D01*
X150242Y739985D01*
X150242Y707815D01*
X147554Y701327D01*
X144788Y698561D01*
X144726Y698483D01*
X144656Y698410D01*
X144618Y698346D01*
X144572Y698288D01*
X144529Y698197D01*
X144477Y698111D01*
X144454Y698040D01*
X144423Y697973D01*
X144402Y697875D01*
X144371Y697779D01*
X144365Y697705D01*
X144349Y697632D01*
X144351Y697532D01*
X144343Y697432D01*
X144354Y697358D01*
X144355Y697284D01*
X144380Y697186D01*
X144395Y697087D01*
X144422Y697018D01*
X144440Y696946D01*
X144486Y696857D01*
X144523Y696763D01*
X144566Y696702D01*
X144600Y696636D01*
X144665Y696560D01*
X144722Y696477D01*
X144777Y696427D01*
X144826Y696371D01*
X144907Y696311D01*
X144981Y696244D01*
X145046Y696208D01*
X145106Y696163D01*
X145198Y696124D01*
X145286Y696075D01*
X145358Y696055D01*
X145426Y696025D01*
X145525Y696008D01*
X145622Y695980D01*
X145722Y695972D01*
X145769Y695964D01*
X145805Y695966D01*
X145865Y695961D01*
X162923Y695961D01*
X162949Y695964D01*
X162974Y695962D01*
X163122Y695984D01*
X163270Y696001D01*
X163294Y696009D01*
X163319Y696013D01*
X163457Y696068D01*
X163598Y696118D01*
X163619Y696132D01*
X163643Y696141D01*
X163765Y696226D01*
X163890Y696307D01*
X163908Y696326D01*
X163929Y696340D01*
X164029Y696451D01*
X164133Y696558D01*
X164146Y696580D01*
X164163Y696599D01*
X164235Y696729D01*
X164312Y696857D01*
X164319Y696881D01*
X164332Y696904D01*
X164372Y697047D01*
X164418Y697189D01*
X164420Y697214D01*
X164427Y697239D01*
X164434Y697388D01*
X164446Y697536D01*
X164442Y697561D01*
X164443Y697587D01*
X164416Y697733D01*
X164394Y697881D01*
X164385Y697905D01*
X164380Y697930D01*
X164320Y698066D01*
X164265Y698205D01*
X164251Y698226D01*
X164240Y698249D01*
X164151Y698369D01*
X164066Y698491D01*
X164047Y698508D01*
X164032Y698528D01*
X163851Y698692D01*
X162225Y699940D01*
X160824Y701340D01*
X159619Y702912D01*
X158628Y704628D01*
X157870Y706459D01*
X157357Y708372D01*
X157098Y710336D01*
X157098Y720853D01*
X170688Y720853D01*
X170714Y720856D01*
X170740Y720854D01*
X170887Y720876D01*
X171034Y720893D01*
X171059Y720901D01*
X171085Y720905D01*
X171223Y720960D01*
X171362Y721010D01*
X171384Y721024D01*
X171409Y721034D01*
X171530Y721119D01*
X171655Y721199D01*
X171673Y721218D01*
X171695Y721233D01*
X171794Y721343D01*
X171897Y721450D01*
X171911Y721472D01*
X171928Y721492D01*
X172000Y721622D01*
X172076Y721749D01*
X172084Y721774D01*
X172097Y721797D01*
X172137Y721939D01*
X172182Y722081D01*
X172184Y722107D01*
X172191Y722132D01*
X172211Y722376D01*
X172211Y723901D01*
X172213Y723901D01*
X172213Y722376D01*
X172216Y722350D01*
X172214Y722324D01*
X172236Y722177D01*
X172253Y722030D01*
X172262Y722005D01*
X172265Y721979D01*
X172320Y721841D01*
X172370Y721702D01*
X172385Y721680D01*
X172394Y721655D01*
X172479Y721534D01*
X172559Y721409D01*
X172578Y721391D01*
X172593Y721369D01*
X172703Y721270D01*
X172810Y721167D01*
X172832Y721153D01*
X172852Y721136D01*
X172982Y721064D01*
X173109Y720988D01*
X173134Y720980D01*
X173157Y720967D01*
X173300Y720927D01*
X173441Y720882D01*
X173467Y720880D01*
X173492Y720872D01*
X173736Y720853D01*
X187326Y720853D01*
X187326Y710336D01*
X187067Y708372D01*
X186554Y706459D01*
X185796Y704628D01*
X184805Y702912D01*
X184599Y702643D01*
X184599Y702642D01*
X184598Y702642D01*
X183600Y701340D01*
X182199Y699940D01*
X180573Y698692D01*
X180555Y698675D01*
X180534Y698661D01*
X180430Y698554D01*
X180323Y698450D01*
X180309Y698429D01*
X180291Y698410D01*
X180215Y698282D01*
X180134Y698157D01*
X180126Y698133D01*
X180112Y698111D01*
X180067Y697969D01*
X180017Y697829D01*
X180014Y697803D01*
X180006Y697779D01*
X179994Y697631D01*
X179977Y697483D01*
X179980Y697457D01*
X179978Y697432D01*
X180000Y697285D01*
X180018Y697136D01*
X180026Y697112D01*
X180030Y697087D01*
X180085Y696949D01*
X180135Y696808D01*
X180149Y696787D01*
X180159Y696763D01*
X180244Y696641D01*
X180325Y696516D01*
X180343Y696498D01*
X180358Y696477D01*
X180468Y696377D01*
X180575Y696274D01*
X180597Y696261D01*
X180616Y696244D01*
X180747Y696171D01*
X180875Y696095D01*
X180899Y696088D01*
X180921Y696075D01*
X181065Y696035D01*
X181207Y695989D01*
X181232Y695987D01*
X181257Y695980D01*
X181501Y695961D01*
X190214Y695961D01*
X190340Y695975D01*
X190466Y695982D01*
X190512Y695995D01*
X190560Y696001D01*
X190679Y696043D01*
X190801Y696078D01*
X190843Y696102D01*
X190889Y696118D01*
X190995Y696187D01*
X191105Y696248D01*
X191151Y696288D01*
X191181Y696307D01*
X191215Y696342D01*
X191291Y696407D01*
X216088Y721204D01*
X216167Y721303D01*
X216251Y721397D01*
X216275Y721439D01*
X216305Y721477D01*
X216359Y721591D01*
X216420Y721702D01*
X216433Y721748D01*
X216454Y721792D01*
X216480Y721915D01*
X216515Y722037D01*
X216520Y722098D01*
X216527Y722132D01*
X216526Y722180D01*
X216534Y722281D01*
X216534Y739985D01*
X219222Y746473D01*
X224188Y751439D01*
X230676Y754127D01*
X237700Y754127D01*
X244188Y751439D01*
X249154Y746473D01*
X251842Y739985D01*
X251842Y707815D01*
X249154Y701327D01*
X244188Y696361D01*
X237700Y693673D01*
X230676Y693673D01*
X224696Y696151D01*
X224622Y696172D01*
X224552Y696202D01*
X224456Y696219D01*
X224361Y696246D01*
X224284Y696250D01*
X224209Y696263D01*
X224111Y696258D01*
X224013Y696263D01*
X223937Y696249D01*
X223861Y696246D01*
X223767Y696218D01*
X223670Y696201D01*
X223600Y696170D01*
X223526Y696149D01*
X223440Y696101D01*
X223350Y696062D01*
X223289Y696016D01*
X223222Y695979D01*
X223108Y695882D01*
X223070Y695854D01*
X223058Y695839D01*
X223036Y695820D01*
X206727Y679511D01*
X206664Y679433D01*
X206594Y679360D01*
X206556Y679296D01*
X206510Y679238D01*
X206467Y679147D01*
X206416Y679061D01*
X206393Y678990D01*
X206361Y678923D01*
X206340Y678825D01*
X206309Y678729D01*
X206303Y678655D01*
X206288Y678582D01*
X206289Y678482D01*
X206281Y678382D01*
X206292Y678308D01*
X206294Y678234D01*
X206318Y678137D01*
X206333Y678037D01*
X206360Y677968D01*
X206379Y677896D01*
X206425Y677806D01*
X206462Y677713D01*
X206504Y677652D01*
X206538Y677586D01*
X206603Y677509D01*
X206661Y677427D01*
X206716Y677377D01*
X206764Y677321D01*
X206845Y677261D01*
X206919Y677194D01*
X206985Y677158D01*
X207044Y677113D01*
X207137Y677074D01*
X207224Y677025D01*
X207296Y677005D01*
X207364Y676975D01*
X207463Y676958D01*
X207560Y676930D01*
X207660Y676922D01*
X207707Y676914D01*
X207743Y676916D01*
X207804Y676911D01*
X368014Y676911D01*
X368140Y676925D01*
X368266Y676932D01*
X368312Y676945D01*
X368360Y676951D01*
X368479Y676993D01*
X368601Y677028D01*
X368643Y677052D01*
X368689Y677068D01*
X368795Y677137D01*
X368905Y677198D01*
X368951Y677238D01*
X368981Y677257D01*
X369015Y677292D01*
X369091Y677357D01*
X429067Y737333D01*
X429146Y737432D01*
X429230Y737526D01*
X429254Y737568D01*
X429284Y737606D01*
X429338Y737720D01*
X429399Y737831D01*
X429412Y737877D01*
X429433Y737921D01*
X429459Y738044D01*
X429494Y738166D01*
X429499Y738227D01*
X429506Y738261D01*
X429505Y738309D01*
X429513Y738410D01*
X429513Y749487D01*
X431795Y754995D01*
X436011Y759211D01*
X441519Y761493D01*
X447481Y761493D01*
X452989Y759211D01*
X457205Y754995D01*
X459487Y749487D01*
X459487Y723713D01*
X457205Y718205D01*
X452989Y713989D01*
X450267Y712861D01*
X450223Y712837D01*
X450176Y712820D01*
X450071Y712752D01*
X449962Y712692D01*
X449925Y712658D01*
X449883Y712631D01*
X449796Y712541D01*
X449704Y712458D01*
X449676Y712416D01*
X449641Y712380D01*
X449577Y712273D01*
X449506Y712171D01*
X449488Y712124D01*
X449462Y712081D01*
X449424Y711963D01*
X449378Y711847D01*
X449371Y711797D01*
X449356Y711749D01*
X449346Y711625D01*
X449327Y711502D01*
X449332Y711452D01*
X449328Y711402D01*
X449346Y711279D01*
X449356Y711155D01*
X449372Y711107D01*
X449379Y711057D01*
X449425Y710942D01*
X449463Y710823D01*
X449489Y710780D01*
X449508Y710733D01*
X449579Y710631D01*
X449643Y710525D01*
X449678Y710488D01*
X449707Y710447D01*
X449799Y710364D01*
X449886Y710275D01*
X449928Y710247D01*
X449966Y710214D01*
X450075Y710154D01*
X450179Y710086D01*
X450227Y710069D01*
X450271Y710045D01*
X450391Y710011D01*
X450508Y709970D01*
X450558Y709964D01*
X450606Y709950D01*
X450850Y709931D01*
X519684Y709931D01*
X519710Y709934D01*
X519736Y709932D01*
X519883Y709954D01*
X520030Y709971D01*
X520055Y709979D01*
X520081Y709983D01*
X520219Y710038D01*
X520358Y710088D01*
X520380Y710102D01*
X520405Y710112D01*
X520526Y710197D01*
X520651Y710277D01*
X520669Y710296D01*
X520691Y710311D01*
X520790Y710421D01*
X520893Y710528D01*
X520907Y710550D01*
X520924Y710570D01*
X520996Y710700D01*
X521072Y710827D01*
X521080Y710852D01*
X521093Y710875D01*
X521133Y711018D01*
X521178Y711159D01*
X521180Y711185D01*
X521188Y711210D01*
X521207Y711454D01*
X521207Y714181D01*
X523489Y719689D01*
X527705Y723905D01*
X533213Y726187D01*
X558987Y726187D01*
X564495Y723905D01*
X568711Y719689D01*
X570993Y714181D01*
X570993Y708219D01*
X568711Y702711D01*
X564495Y698495D01*
X558987Y696213D01*
X547910Y696213D01*
X547784Y696199D01*
X547658Y696192D01*
X547612Y696179D01*
X547564Y696173D01*
X547445Y696131D01*
X547323Y696096D01*
X547281Y696072D01*
X547235Y696056D01*
X547129Y695987D01*
X547019Y695926D01*
X546973Y695886D01*
X546943Y695867D01*
X546909Y695832D01*
X546833Y695767D01*
X539875Y688810D01*
X535674Y687069D01*
X449866Y687069D01*
X449740Y687055D01*
X449614Y687048D01*
X449568Y687035D01*
X449520Y687029D01*
X449401Y686987D01*
X449279Y686952D01*
X449237Y686928D01*
X449191Y686912D01*
X449085Y686843D01*
X448975Y686782D01*
X448929Y686742D01*
X448899Y686723D01*
X448865Y686688D01*
X448789Y686623D01*
X403605Y641439D01*
X400448Y638282D01*
X400432Y638262D01*
X400412Y638245D01*
X400323Y638125D01*
X400231Y638009D01*
X400220Y637986D01*
X400204Y637965D01*
X400146Y637828D01*
X400082Y637694D01*
X400077Y637669D01*
X400066Y637645D01*
X400040Y637498D01*
X400009Y637354D01*
X400009Y637327D01*
X400005Y637302D01*
X400012Y637153D01*
X400015Y637005D01*
X400021Y636980D01*
X400023Y636953D01*
X400064Y636811D01*
X400100Y636667D01*
X400112Y636644D01*
X400119Y636619D01*
X400192Y636489D01*
X400260Y636357D01*
X400277Y636337D01*
X400289Y636314D01*
X400448Y636128D01*
X402823Y633753D01*
X402843Y633737D01*
X402860Y633717D01*
X402980Y633629D01*
X403096Y633536D01*
X403120Y633525D01*
X403141Y633510D01*
X403277Y633451D01*
X403411Y633388D01*
X403437Y633382D01*
X403461Y633372D01*
X403607Y633345D01*
X403752Y633314D01*
X403778Y633315D01*
X403804Y633310D01*
X403952Y633318D01*
X404100Y633320D01*
X404126Y633327D01*
X404152Y633328D01*
X404294Y633369D01*
X404438Y633405D01*
X404461Y633417D01*
X404487Y633424D01*
X404616Y633497D01*
X404748Y633565D01*
X404768Y633582D01*
X404791Y633595D01*
X404977Y633753D01*
X408398Y637174D01*
X413720Y639379D01*
X419480Y639379D01*
X424802Y637174D01*
X428223Y633753D01*
X428243Y633737D01*
X428260Y633717D01*
X428380Y633629D01*
X428496Y633536D01*
X428520Y633525D01*
X428541Y633510D01*
X428677Y633451D01*
X428811Y633388D01*
X428837Y633382D01*
X428861Y633372D01*
X429007Y633345D01*
X429152Y633314D01*
X429178Y633315D01*
X429204Y633310D01*
X429352Y633318D01*
X429500Y633320D01*
X429526Y633327D01*
X429552Y633328D01*
X429694Y633369D01*
X429838Y633405D01*
X429861Y633417D01*
X429887Y633424D01*
X430016Y633497D01*
X430148Y633565D01*
X430168Y633582D01*
X430191Y633595D01*
X430377Y633753D01*
X433798Y637174D01*
X439120Y639379D01*
X444880Y639379D01*
X450202Y637174D01*
X453623Y633753D01*
X453643Y633737D01*
X453660Y633717D01*
X453780Y633629D01*
X453896Y633536D01*
X453920Y633525D01*
X453941Y633510D01*
X454077Y633451D01*
X454211Y633388D01*
X454237Y633382D01*
X454261Y633372D01*
X454407Y633345D01*
X454552Y633314D01*
X454578Y633315D01*
X454604Y633310D01*
X454752Y633318D01*
X454900Y633320D01*
X454926Y633327D01*
X454952Y633328D01*
X455094Y633369D01*
X455238Y633405D01*
X455261Y633417D01*
X455287Y633424D01*
X455416Y633497D01*
X455548Y633565D01*
X455568Y633582D01*
X455591Y633595D01*
X455777Y633753D01*
X459198Y637174D01*
X464520Y639379D01*
X470280Y639379D01*
X475602Y637174D01*
X479023Y633753D01*
X479043Y633737D01*
X479060Y633717D01*
X479180Y633629D01*
X479296Y633536D01*
X479320Y633525D01*
X479341Y633510D01*
X479477Y633451D01*
X479611Y633388D01*
X479637Y633382D01*
X479661Y633372D01*
X479807Y633345D01*
X479952Y633314D01*
X479978Y633315D01*
X480004Y633310D01*
X480152Y633318D01*
X480300Y633320D01*
X480326Y633327D01*
X480352Y633328D01*
X480494Y633369D01*
X480638Y633405D01*
X480661Y633417D01*
X480687Y633424D01*
X480816Y633497D01*
X480948Y633565D01*
X480968Y633582D01*
X480991Y633595D01*
X481177Y633753D01*
X484598Y637174D01*
X489920Y639379D01*
X495680Y639379D01*
X501002Y637174D01*
X504423Y633753D01*
X504443Y633737D01*
X504460Y633717D01*
X504580Y633629D01*
X504696Y633536D01*
X504720Y633525D01*
X504741Y633510D01*
X504877Y633451D01*
X505011Y633388D01*
X505037Y633382D01*
X505061Y633372D01*
X505207Y633345D01*
X505352Y633314D01*
X505378Y633315D01*
X505404Y633310D01*
X505552Y633318D01*
X505700Y633320D01*
X505726Y633327D01*
X505752Y633328D01*
X505894Y633369D01*
X506038Y633405D01*
X506061Y633417D01*
X506087Y633424D01*
X506216Y633497D01*
X506348Y633565D01*
X506368Y633582D01*
X506391Y633595D01*
X506577Y633753D01*
X509998Y637174D01*
X515320Y639379D01*
X521080Y639379D01*
X526402Y637174D01*
X529823Y633753D01*
X529843Y633737D01*
X529860Y633717D01*
X529980Y633629D01*
X530096Y633536D01*
X530120Y633525D01*
X530141Y633510D01*
X530277Y633451D01*
X530411Y633388D01*
X530437Y633382D01*
X530461Y633372D01*
X530607Y633345D01*
X530752Y633314D01*
X530778Y633315D01*
X530804Y633310D01*
X530952Y633318D01*
X531100Y633320D01*
X531126Y633327D01*
X531152Y633328D01*
X531294Y633369D01*
X531438Y633405D01*
X531461Y633417D01*
X531487Y633424D01*
X531616Y633497D01*
X531748Y633565D01*
X531768Y633582D01*
X531791Y633595D01*
X531977Y633753D01*
X535398Y637174D01*
X540720Y639379D01*
X546480Y639379D01*
X551802Y637174D01*
X555874Y633102D01*
X556405Y631821D01*
X556451Y631737D01*
X556489Y631650D01*
X556536Y631586D01*
X556574Y631517D01*
X556638Y631446D01*
X556695Y631369D01*
X556755Y631317D01*
X556808Y631258D01*
X556887Y631204D01*
X556960Y631142D01*
X557030Y631105D01*
X557095Y631060D01*
X557184Y631025D01*
X557269Y630981D01*
X557345Y630961D01*
X557419Y630932D01*
X557514Y630918D01*
X557606Y630895D01*
X557686Y630893D01*
X557764Y630882D01*
X557859Y630890D01*
X557955Y630888D01*
X558032Y630904D01*
X558111Y630910D01*
X558202Y630940D01*
X558296Y630960D01*
X558368Y630993D01*
X558443Y631018D01*
X558525Y631067D01*
X558611Y631107D01*
X558674Y631156D01*
X558742Y631197D01*
X558810Y631264D01*
X558885Y631323D01*
X558956Y631406D01*
X558992Y631440D01*
X559009Y631468D01*
X559044Y631509D01*
X559894Y632678D01*
X561222Y634006D01*
X562743Y635111D01*
X564417Y635964D01*
X566204Y636545D01*
X566461Y636585D01*
X566461Y625916D01*
X566464Y625890D01*
X566462Y625864D01*
X566484Y625717D01*
X566501Y625570D01*
X566509Y625545D01*
X566513Y625519D01*
X566568Y625382D01*
X566618Y625242D01*
X566632Y625220D01*
X566642Y625195D01*
X566727Y625074D01*
X566807Y624949D01*
X566826Y624931D01*
X566841Y624909D01*
X566857Y624895D01*
X566775Y624810D01*
X566761Y624787D01*
X566744Y624768D01*
X566672Y624638D01*
X566596Y624511D01*
X566588Y624486D01*
X566575Y624463D01*
X566535Y624320D01*
X566490Y624179D01*
X566487Y624153D01*
X566480Y624128D01*
X566461Y623884D01*
X566461Y612386D01*
X566475Y612260D01*
X566482Y612134D01*
X566495Y612088D01*
X566501Y612040D01*
X566543Y611921D01*
X566578Y611799D01*
X566602Y611757D01*
X566618Y611711D01*
X566687Y611605D01*
X566748Y611495D01*
X566788Y611449D01*
X566807Y611419D01*
X566842Y611385D01*
X566907Y611309D01*
X599919Y578297D01*
X600018Y578218D01*
X600112Y578134D01*
X600154Y578110D01*
X600192Y578080D01*
X600306Y578026D01*
X600417Y577965D01*
X600463Y577952D01*
X600507Y577931D01*
X600630Y577905D01*
X600752Y577870D01*
X600813Y577865D01*
X600847Y577858D01*
X600895Y577859D01*
X600996Y577851D01*
X602161Y577851D01*
X609601Y570411D01*
X609601Y559889D01*
X602161Y552449D01*
X591145Y552449D01*
X591045Y552438D01*
X590945Y552436D01*
X590872Y552418D01*
X590798Y552409D01*
X590704Y552376D01*
X590607Y552351D01*
X590540Y552317D01*
X590470Y552292D01*
X590386Y552237D01*
X590297Y552191D01*
X590240Y552143D01*
X590178Y552103D01*
X590108Y552031D01*
X590031Y551966D01*
X589987Y551906D01*
X589935Y551852D01*
X589884Y551766D01*
X589824Y551685D01*
X589795Y551617D01*
X589757Y551553D01*
X589726Y551457D01*
X589686Y551365D01*
X589673Y551292D01*
X589650Y551221D01*
X589642Y551121D01*
X589624Y551022D01*
X589628Y550948D01*
X589622Y550874D01*
X589637Y550774D01*
X589642Y550674D01*
X589663Y550603D01*
X589674Y550529D01*
X589711Y550436D01*
X589739Y550339D01*
X589775Y550274D01*
X589803Y550205D01*
X589860Y550123D01*
X589909Y550035D01*
X589974Y549959D01*
X590002Y549919D01*
X590011Y549911D01*
X590013Y549908D01*
X590032Y549891D01*
X590068Y549849D01*
X593890Y546026D01*
X595631Y541825D01*
X595631Y529447D01*
X595642Y529347D01*
X595644Y529247D01*
X595662Y529175D01*
X595671Y529101D01*
X595704Y529007D01*
X595729Y528909D01*
X595763Y528843D01*
X595788Y528773D01*
X595843Y528689D01*
X595889Y528599D01*
X595937Y528543D01*
X595977Y528480D01*
X596049Y528410D01*
X596114Y528334D01*
X596174Y528290D01*
X596228Y528238D01*
X596314Y528186D01*
X596395Y528127D01*
X596463Y528097D01*
X596527Y528059D01*
X596623Y528029D01*
X596715Y527989D01*
X596788Y527976D01*
X596859Y527953D01*
X596959Y527945D01*
X597058Y527927D01*
X597132Y527931D01*
X597206Y527925D01*
X597306Y527940D01*
X597406Y527945D01*
X597477Y527966D01*
X597551Y527977D01*
X597644Y528014D01*
X597741Y528042D01*
X597806Y528078D01*
X597875Y528105D01*
X597957Y528163D01*
X598045Y528212D01*
X598121Y528277D01*
X598161Y528304D01*
X598185Y528331D01*
X598231Y528370D01*
X604024Y534163D01*
X615176Y534163D01*
X621223Y528116D01*
X621243Y528100D01*
X621260Y528080D01*
X621380Y527992D01*
X621496Y527900D01*
X621520Y527888D01*
X621541Y527873D01*
X621677Y527814D01*
X621811Y527751D01*
X621837Y527745D01*
X621861Y527735D01*
X622007Y527709D01*
X622152Y527677D01*
X622178Y527678D01*
X622204Y527673D01*
X622352Y527681D01*
X622500Y527683D01*
X622526Y527690D01*
X622552Y527691D01*
X622694Y527732D01*
X622838Y527768D01*
X622861Y527780D01*
X622887Y527788D01*
X623016Y527860D01*
X623148Y527928D01*
X623168Y527945D01*
X623191Y527958D01*
X623377Y528116D01*
X629424Y534163D01*
X640576Y534163D01*
X646623Y528116D01*
X646643Y528100D01*
X646660Y528080D01*
X646780Y527992D01*
X646896Y527900D01*
X646920Y527888D01*
X646941Y527873D01*
X647077Y527814D01*
X647211Y527751D01*
X647237Y527745D01*
X647261Y527735D01*
X647407Y527709D01*
X647552Y527677D01*
X647578Y527678D01*
X647604Y527673D01*
X647752Y527681D01*
X647900Y527683D01*
X647926Y527690D01*
X647952Y527691D01*
X648094Y527732D01*
X648238Y527768D01*
X648261Y527780D01*
X648287Y527788D01*
X648416Y527860D01*
X648548Y527928D01*
X648568Y527945D01*
X648591Y527958D01*
X648777Y528116D01*
X654824Y534163D01*
X665976Y534163D01*
X672023Y528116D01*
X672043Y528100D01*
X672060Y528080D01*
X672180Y527992D01*
X672296Y527900D01*
X672320Y527888D01*
X672341Y527873D01*
X672477Y527814D01*
X672611Y527751D01*
X672637Y527745D01*
X672661Y527735D01*
X672807Y527709D01*
X672952Y527677D01*
X672978Y527678D01*
X673004Y527673D01*
X673152Y527681D01*
X673300Y527683D01*
X673326Y527690D01*
X673352Y527691D01*
X673494Y527732D01*
X673638Y527768D01*
X673661Y527780D01*
X673687Y527788D01*
X673816Y527860D01*
X673948Y527928D01*
X673968Y527945D01*
X673991Y527958D01*
X674177Y528116D01*
X680224Y534163D01*
X691376Y534163D01*
X697423Y528116D01*
X697443Y528100D01*
X697460Y528080D01*
X697580Y527992D01*
X697696Y527900D01*
X697720Y527888D01*
X697741Y527873D01*
X697877Y527814D01*
X698011Y527751D01*
X698037Y527745D01*
X698061Y527735D01*
X698207Y527709D01*
X698352Y527677D01*
X698378Y527678D01*
X698404Y527673D01*
X698552Y527681D01*
X698700Y527683D01*
X698726Y527690D01*
X698752Y527691D01*
X698894Y527732D01*
X699038Y527768D01*
X699061Y527780D01*
X699087Y527788D01*
X699216Y527860D01*
X699348Y527928D01*
X699368Y527945D01*
X699391Y527958D01*
X699577Y528116D01*
X705624Y534163D01*
X716776Y534163D01*
X722823Y528116D01*
X722843Y528100D01*
X722860Y528080D01*
X722980Y527992D01*
X723096Y527900D01*
X723120Y527888D01*
X723141Y527873D01*
X723277Y527814D01*
X723411Y527751D01*
X723437Y527745D01*
X723461Y527735D01*
X723607Y527709D01*
X723752Y527677D01*
X723778Y527678D01*
X723804Y527673D01*
X723952Y527681D01*
X724100Y527683D01*
X724126Y527690D01*
X724152Y527691D01*
X724294Y527732D01*
X724438Y527768D01*
X724461Y527780D01*
X724487Y527788D01*
X724616Y527860D01*
X724748Y527928D01*
X724768Y527945D01*
X724791Y527958D01*
X724977Y528116D01*
X731024Y534163D01*
X742176Y534163D01*
X748223Y528116D01*
X748243Y528100D01*
X748260Y528080D01*
X748380Y527992D01*
X748496Y527900D01*
X748520Y527888D01*
X748541Y527873D01*
X748677Y527814D01*
X748811Y527751D01*
X748837Y527745D01*
X748861Y527735D01*
X749007Y527709D01*
X749152Y527677D01*
X749178Y527678D01*
X749204Y527673D01*
X749352Y527681D01*
X749500Y527683D01*
X749526Y527690D01*
X749552Y527691D01*
X749694Y527732D01*
X749838Y527768D01*
X749861Y527780D01*
X749887Y527788D01*
X750016Y527860D01*
X750148Y527928D01*
X750168Y527945D01*
X750191Y527958D01*
X750377Y528116D01*
X756424Y534163D01*
X767576Y534163D01*
X768289Y533450D01*
X768368Y533388D01*
X768440Y533318D01*
X768504Y533280D01*
X768562Y533234D01*
X768653Y533191D01*
X768739Y533139D01*
X768810Y533117D01*
X768877Y533085D01*
X768975Y533064D01*
X769071Y533033D01*
X769145Y533027D01*
X769218Y533011D01*
X769318Y533013D01*
X769418Y533005D01*
X769492Y533016D01*
X769566Y533017D01*
X769663Y533042D01*
X769763Y533057D01*
X769832Y533084D01*
X769904Y533102D01*
X769993Y533148D01*
X770087Y533185D01*
X770148Y533228D01*
X770214Y533262D01*
X770290Y533327D01*
X770373Y533384D01*
X770423Y533440D01*
X770479Y533488D01*
X770539Y533569D01*
X770606Y533643D01*
X770642Y533708D01*
X770687Y533768D01*
X770726Y533860D01*
X770775Y533948D01*
X770795Y534020D01*
X770825Y534088D01*
X770842Y534187D01*
X770870Y534284D01*
X770878Y534384D01*
X770886Y534431D01*
X770884Y534467D01*
X770889Y534527D01*
X770889Y671576D01*
X770886Y671602D01*
X770888Y671628D01*
X770866Y671775D01*
X770849Y671922D01*
X770841Y671947D01*
X770837Y671973D01*
X770782Y672111D01*
X770732Y672250D01*
X770718Y672272D01*
X770708Y672297D01*
X770623Y672418D01*
X770543Y672543D01*
X770524Y672561D01*
X770509Y672583D01*
X770399Y672682D01*
X770292Y672785D01*
X770270Y672799D01*
X770250Y672816D01*
X770120Y672888D01*
X769993Y672964D01*
X769968Y672972D01*
X769945Y672985D01*
X769802Y673025D01*
X769661Y673070D01*
X769635Y673072D01*
X769610Y673080D01*
X769366Y673099D01*
X691146Y673099D01*
X686945Y674840D01*
X683515Y678269D01*
X665964Y695820D01*
X665904Y695868D01*
X665851Y695923D01*
X665768Y695976D01*
X665691Y696037D01*
X665622Y696070D01*
X665558Y696111D01*
X665465Y696144D01*
X665376Y696186D01*
X665302Y696202D01*
X665229Y696228D01*
X665131Y696239D01*
X665035Y696259D01*
X664959Y696258D01*
X664883Y696266D01*
X664785Y696255D01*
X664687Y696253D01*
X664613Y696235D01*
X664537Y696226D01*
X664395Y696180D01*
X664349Y696168D01*
X664332Y696160D01*
X664304Y696151D01*
X658324Y693673D01*
X651300Y693673D01*
X644812Y696361D01*
X639846Y701327D01*
X637158Y707815D01*
X637158Y739985D01*
X639846Y746473D01*
X644812Y751439D01*
X651300Y754127D01*
X658324Y754127D01*
X664812Y751439D01*
X669778Y746473D01*
X672466Y739985D01*
X672466Y722281D01*
X672480Y722155D01*
X672487Y722029D01*
X672500Y721983D01*
X672506Y721935D01*
X672548Y721816D01*
X672583Y721694D01*
X672607Y721652D01*
X672623Y721606D01*
X672692Y721500D01*
X672753Y721390D01*
X672793Y721344D01*
X672812Y721314D01*
X672847Y721280D01*
X672912Y721204D01*
X697709Y696407D01*
X697808Y696328D01*
X697902Y696244D01*
X697944Y696220D01*
X697982Y696190D01*
X698096Y696136D01*
X698207Y696075D01*
X698253Y696062D01*
X698297Y696041D01*
X698420Y696015D01*
X698542Y695980D01*
X698603Y695975D01*
X698637Y695968D01*
X698685Y695969D01*
X698786Y695961D01*
X703511Y695961D01*
X703611Y695972D01*
X703711Y695974D01*
X703783Y695992D01*
X703857Y696001D01*
X703951Y696034D01*
X704049Y696059D01*
X704115Y696093D01*
X704185Y696118D01*
X704269Y696173D01*
X704359Y696219D01*
X704415Y696267D01*
X704478Y696307D01*
X704548Y696379D01*
X704624Y696444D01*
X704668Y696504D01*
X704720Y696558D01*
X704772Y696644D01*
X704831Y696725D01*
X704861Y696793D01*
X704899Y696857D01*
X704929Y696953D01*
X704969Y697045D01*
X704982Y697118D01*
X705005Y697189D01*
X705013Y697289D01*
X705031Y697388D01*
X705027Y697462D01*
X705033Y697536D01*
X705018Y697636D01*
X705013Y697736D01*
X704992Y697807D01*
X704981Y697881D01*
X704944Y697974D01*
X704916Y698071D01*
X704880Y698136D01*
X704853Y698205D01*
X704795Y698287D01*
X704746Y698375D01*
X704681Y698451D01*
X704654Y698491D01*
X704627Y698515D01*
X704588Y698561D01*
X701822Y701327D01*
X699134Y707815D01*
X699134Y739985D01*
X701822Y746473D01*
X706788Y751439D01*
X713276Y754127D01*
X720300Y754127D01*
X726788Y751439D01*
X731754Y746473D01*
X734442Y739985D01*
X734442Y707815D01*
X731754Y701327D01*
X728988Y698561D01*
X728926Y698483D01*
X728856Y698410D01*
X728818Y698346D01*
X728772Y698288D01*
X728729Y698197D01*
X728677Y698111D01*
X728654Y698040D01*
X728623Y697973D01*
X728602Y697875D01*
X728571Y697779D01*
X728565Y697705D01*
X728549Y697632D01*
X728551Y697532D01*
X728543Y697432D01*
X728554Y697358D01*
X728555Y697284D01*
X728580Y697186D01*
X728595Y697087D01*
X728622Y697018D01*
X728640Y696946D01*
X728686Y696857D01*
X728723Y696763D01*
X728766Y696702D01*
X728800Y696636D01*
X728865Y696560D01*
X728922Y696477D01*
X728977Y696427D01*
X729026Y696371D01*
X729107Y696311D01*
X729181Y696244D01*
X729246Y696208D01*
X729306Y696163D01*
X729398Y696124D01*
X729486Y696075D01*
X729558Y696055D01*
X729626Y696025D01*
X729725Y696008D01*
X729822Y695980D01*
X729922Y695972D01*
X729969Y695964D01*
X730005Y695966D01*
X730065Y695961D01*
X743135Y695961D01*
X743235Y695972D01*
X743335Y695974D01*
X743407Y695992D01*
X743481Y696001D01*
X743575Y696034D01*
X743673Y696059D01*
X743739Y696093D01*
X743809Y696118D01*
X743893Y696173D01*
X743983Y696219D01*
X744039Y696267D01*
X744102Y696307D01*
X744172Y696379D01*
X744248Y696444D01*
X744292Y696504D01*
X744344Y696558D01*
X744396Y696644D01*
X744455Y696725D01*
X744485Y696793D01*
X744523Y696857D01*
X744553Y696953D01*
X744593Y697045D01*
X744606Y697118D01*
X744629Y697189D01*
X744637Y697289D01*
X744655Y697388D01*
X744651Y697462D01*
X744657Y697536D01*
X744642Y697636D01*
X744637Y697736D01*
X744616Y697807D01*
X744605Y697881D01*
X744568Y697974D01*
X744540Y698071D01*
X744504Y698136D01*
X744477Y698205D01*
X744419Y698287D01*
X744370Y698375D01*
X744305Y698451D01*
X744278Y698491D01*
X744251Y698515D01*
X744212Y698561D01*
X741446Y701327D01*
X738758Y707815D01*
X738758Y739985D01*
X741446Y746473D01*
X746412Y751439D01*
X752900Y754127D01*
X759924Y754127D01*
X766412Y751439D01*
X771378Y746473D01*
X774066Y739985D01*
X774066Y727361D01*
X774080Y727235D01*
X774087Y727109D01*
X774100Y727063D01*
X774106Y727015D01*
X774148Y726896D01*
X774183Y726774D01*
X774207Y726732D01*
X774223Y726686D01*
X774292Y726580D01*
X774353Y726470D01*
X774393Y726424D01*
X774412Y726394D01*
X774447Y726360D01*
X774512Y726284D01*
X792010Y708785D01*
X793751Y704584D01*
X793751Y697484D01*
X793754Y697458D01*
X793752Y697432D01*
X793774Y697285D01*
X793791Y697138D01*
X793799Y697113D01*
X793803Y697087D01*
X793858Y696949D01*
X793908Y696810D01*
X793922Y696788D01*
X793932Y696763D01*
X794017Y696642D01*
X794097Y696517D01*
X794116Y696499D01*
X794131Y696477D01*
X794241Y696378D01*
X794348Y696275D01*
X794370Y696261D01*
X794390Y696244D01*
X794520Y696172D01*
X794647Y696096D01*
X794672Y696088D01*
X794695Y696075D01*
X794838Y696035D01*
X794979Y695990D01*
X795005Y695988D01*
X795030Y695980D01*
X795274Y695961D01*
X805111Y695961D01*
X805211Y695972D01*
X805311Y695974D01*
X805383Y695992D01*
X805457Y696001D01*
X805551Y696034D01*
X805649Y696059D01*
X805715Y696093D01*
X805785Y696118D01*
X805869Y696173D01*
X805959Y696219D01*
X806015Y696267D01*
X806078Y696307D01*
X806148Y696379D01*
X806224Y696444D01*
X806268Y696504D01*
X806320Y696558D01*
X806372Y696644D01*
X806431Y696725D01*
X806461Y696793D01*
X806499Y696857D01*
X806529Y696953D01*
X806569Y697045D01*
X806582Y697118D01*
X806605Y697189D01*
X806613Y697289D01*
X806631Y697388D01*
X806627Y697462D01*
X806633Y697536D01*
X806618Y697636D01*
X806613Y697736D01*
X806592Y697807D01*
X806581Y697881D01*
X806544Y697974D01*
X806516Y698071D01*
X806480Y698136D01*
X806453Y698205D01*
X806395Y698287D01*
X806346Y698375D01*
X806281Y698451D01*
X806254Y698491D01*
X806227Y698515D01*
X806188Y698561D01*
X803422Y701327D01*
X800734Y707815D01*
X800734Y739985D01*
X803422Y746473D01*
X808388Y751439D01*
X814876Y754127D01*
X821900Y754127D01*
X828388Y751439D01*
X833354Y746473D01*
X836042Y739985D01*
X836042Y713645D01*
X836053Y713545D01*
X836055Y713444D01*
X836073Y713372D01*
X836082Y713298D01*
X836115Y713204D01*
X836140Y713107D01*
X836174Y713040D01*
X836199Y712970D01*
X836254Y712886D01*
X836300Y712797D01*
X836348Y712740D01*
X836388Y712678D01*
X836460Y712608D01*
X836525Y712531D01*
X836585Y712487D01*
X836639Y712435D01*
X836725Y712384D01*
X836806Y712324D01*
X836874Y712295D01*
X836938Y712257D01*
X837034Y712226D01*
X837126Y712186D01*
X837199Y712173D01*
X837270Y712150D01*
X837370Y712142D01*
X837469Y712124D01*
X837543Y712128D01*
X837617Y712122D01*
X837717Y712137D01*
X837817Y712142D01*
X837888Y712163D01*
X837962Y712174D01*
X838055Y712211D01*
X838152Y712239D01*
X838217Y712275D01*
X838286Y712303D01*
X838368Y712360D01*
X838456Y712409D01*
X838532Y712474D01*
X838572Y712502D01*
X838596Y712528D01*
X838642Y712568D01*
X839912Y713838D01*
X839991Y713937D01*
X840075Y714031D01*
X840099Y714073D01*
X840129Y714111D01*
X840183Y714225D01*
X840244Y714336D01*
X840257Y714382D01*
X840278Y714426D01*
X840304Y714549D01*
X840339Y714671D01*
X840344Y714731D01*
X840351Y714766D01*
X840350Y714815D01*
X840358Y714915D01*
X840358Y739985D01*
X843046Y746473D01*
X848012Y751439D01*
X854500Y754127D01*
X861524Y754127D01*
X868012Y751439D01*
X872978Y746473D01*
X875666Y739985D01*
X875666Y707815D01*
X872978Y701327D01*
X872860Y701209D01*
X872844Y701189D01*
X872824Y701172D01*
X872736Y701052D01*
X872644Y700936D01*
X872633Y700913D01*
X872617Y700891D01*
X872558Y700755D01*
X872495Y700621D01*
X872489Y700595D01*
X872479Y700571D01*
X872453Y700425D01*
X872422Y700280D01*
X872422Y700254D01*
X872417Y700228D01*
X872425Y700080D01*
X872427Y699932D01*
X872434Y699907D01*
X872435Y699880D01*
X872476Y699738D01*
X872512Y699594D01*
X872524Y699571D01*
X872532Y699545D01*
X872604Y699416D01*
X872672Y699284D01*
X872689Y699264D01*
X872702Y699241D01*
X872860Y699055D01*
X875509Y696407D01*
X875608Y696328D01*
X875702Y696244D01*
X875744Y696220D01*
X875782Y696190D01*
X875896Y696136D01*
X876007Y696075D01*
X876053Y696062D01*
X876097Y696041D01*
X876220Y696015D01*
X876342Y695980D01*
X876403Y695975D01*
X876437Y695968D01*
X876485Y695969D01*
X876586Y695961D01*
X906711Y695961D01*
X906811Y695972D01*
X906911Y695974D01*
X906983Y695992D01*
X907057Y696001D01*
X907151Y696034D01*
X907249Y696059D01*
X907315Y696093D01*
X907385Y696118D01*
X907469Y696173D01*
X907559Y696219D01*
X907615Y696267D01*
X907678Y696307D01*
X907748Y696379D01*
X907824Y696444D01*
X907868Y696504D01*
X907920Y696558D01*
X907972Y696644D01*
X908031Y696725D01*
X908061Y696793D01*
X908099Y696857D01*
X908129Y696953D01*
X908169Y697045D01*
X908182Y697118D01*
X908205Y697189D01*
X908213Y697289D01*
X908231Y697388D01*
X908227Y697462D01*
X908233Y697536D01*
X908218Y697636D01*
X908213Y697736D01*
X908192Y697807D01*
X908181Y697881D01*
X908144Y697974D01*
X908116Y698071D01*
X908080Y698136D01*
X908053Y698205D01*
X907995Y698287D01*
X907946Y698375D01*
X907881Y698451D01*
X907854Y698491D01*
X907827Y698515D01*
X907788Y698561D01*
X905022Y701327D01*
X902334Y707815D01*
X902334Y739985D01*
X905022Y746473D01*
X909988Y751439D01*
X916476Y754127D01*
X923500Y754127D01*
X929988Y751439D01*
X934954Y746473D01*
X937642Y739985D01*
X937642Y724813D01*
X937648Y724763D01*
X937645Y724712D01*
X937667Y724590D01*
X937682Y724467D01*
X937699Y724419D01*
X937708Y724370D01*
X937757Y724256D01*
X937799Y724139D01*
X937826Y724096D01*
X937847Y724050D01*
X937921Y723950D01*
X937988Y723846D01*
X938024Y723811D01*
X938054Y723770D01*
X938149Y723690D01*
X938239Y723604D01*
X938282Y723578D01*
X938320Y723545D01*
X938431Y723488D01*
X938538Y723425D01*
X938586Y723409D01*
X938631Y723386D01*
X938752Y723356D01*
X938870Y723318D01*
X938920Y723314D01*
X938969Y723302D01*
X939093Y723300D01*
X939217Y723291D01*
X939267Y723298D01*
X939317Y723297D01*
X939439Y723324D01*
X939562Y723342D01*
X939609Y723361D01*
X939658Y723372D01*
X939770Y723425D01*
X939886Y723471D01*
X939927Y723500D01*
X939973Y723521D01*
X940070Y723599D01*
X940172Y723670D01*
X940206Y723707D01*
X940245Y723739D01*
X940322Y723836D01*
X940405Y723929D01*
X940430Y723973D01*
X940461Y724012D01*
X940499Y724086D01*
X940500Y724088D01*
X940507Y724102D01*
X940572Y724230D01*
X940586Y724262D01*
X940591Y724281D01*
X940604Y724310D01*
X941336Y726262D01*
X941364Y726299D01*
X941457Y726417D01*
X941470Y726442D01*
X941481Y726458D01*
X941500Y726501D01*
X941531Y726561D01*
X941575Y726617D01*
X941641Y726685D01*
X941654Y726707D01*
X941675Y726731D01*
X941699Y726773D01*
X941729Y726811D01*
X941777Y726912D01*
X941820Y726984D01*
X941826Y727003D01*
X941844Y727036D01*
X941857Y727082D01*
X941878Y727126D01*
X941903Y727245D01*
X941926Y727316D01*
X941927Y727331D01*
X941939Y727371D01*
X941944Y727432D01*
X941951Y727466D01*
X941950Y727514D01*
X941958Y727615D01*
X941958Y739985D01*
X944646Y746473D01*
X949612Y751439D01*
X956100Y754127D01*
X963124Y754127D01*
X969612Y751439D01*
X974578Y746473D01*
X977266Y739985D01*
X977266Y707815D01*
X974578Y701327D01*
X969612Y696361D01*
X963124Y693673D01*
X959390Y693673D01*
X959264Y693659D01*
X959138Y693652D01*
X959092Y693639D01*
X959044Y693633D01*
X958925Y693591D01*
X958803Y693556D01*
X958761Y693532D01*
X958715Y693516D01*
X958609Y693447D01*
X958499Y693386D01*
X958453Y693346D01*
X958423Y693327D01*
X958389Y693292D01*
X958313Y693227D01*
X939925Y674840D01*
X935724Y673099D01*
X868946Y673099D01*
X864745Y674840D01*
X850072Y689512D01*
X850052Y689529D01*
X850035Y689549D01*
X849915Y689637D01*
X849799Y689729D01*
X849775Y689740D01*
X849754Y689756D01*
X849618Y689815D01*
X849484Y689878D01*
X849458Y689883D01*
X849434Y689894D01*
X849288Y689920D01*
X849143Y689951D01*
X849117Y689951D01*
X849091Y689956D01*
X848943Y689948D01*
X848795Y689945D01*
X848769Y689939D01*
X848743Y689938D01*
X848601Y689897D01*
X848457Y689860D01*
X848434Y689848D01*
X848408Y689841D01*
X848279Y689769D01*
X848147Y689701D01*
X848127Y689684D01*
X848104Y689671D01*
X847918Y689512D01*
X833245Y674840D01*
X829044Y673099D01*
X795274Y673099D01*
X795248Y673096D01*
X795222Y673098D01*
X795075Y673076D01*
X794928Y673059D01*
X794903Y673051D01*
X794877Y673047D01*
X794739Y672992D01*
X794600Y672942D01*
X794578Y672928D01*
X794553Y672918D01*
X794432Y672833D01*
X794307Y672753D01*
X794289Y672734D01*
X794267Y672719D01*
X794168Y672609D01*
X794065Y672502D01*
X794051Y672480D01*
X794034Y672460D01*
X793962Y672330D01*
X793886Y672203D01*
X793878Y672178D01*
X793865Y672155D01*
X793825Y672012D01*
X793780Y671871D01*
X793778Y671845D01*
X793770Y671820D01*
X793751Y671576D01*
X793751Y504456D01*
X792010Y500255D01*
X723077Y431321D01*
X722998Y431222D01*
X722914Y431128D01*
X722890Y431086D01*
X722860Y431048D01*
X722806Y430934D01*
X722745Y430823D01*
X722732Y430777D01*
X722711Y430733D01*
X722685Y430610D01*
X722650Y430488D01*
X722645Y430427D01*
X722638Y430393D01*
X722639Y430345D01*
X722631Y430244D01*
X722631Y412633D01*
X722642Y412533D01*
X722644Y412433D01*
X722662Y412361D01*
X722671Y412287D01*
X722704Y412192D01*
X722729Y412095D01*
X722763Y412029D01*
X722788Y411959D01*
X722843Y411874D01*
X722889Y411785D01*
X722937Y411728D01*
X722977Y411666D01*
X723049Y411596D01*
X723114Y411519D01*
X723174Y411475D01*
X723228Y411424D01*
X723314Y411372D01*
X723395Y411312D01*
X723463Y411283D01*
X723527Y411245D01*
X723623Y411214D01*
X723715Y411174D01*
X723788Y411161D01*
X723859Y411138D01*
X723959Y411130D01*
X724058Y411113D01*
X724132Y411116D01*
X724206Y411111D01*
X724306Y411125D01*
X724406Y411131D01*
X724477Y411151D01*
X724551Y411162D01*
X724644Y411199D01*
X724741Y411227D01*
X724806Y411263D01*
X724875Y411291D01*
X724957Y411348D01*
X725045Y411397D01*
X725121Y411462D01*
X725161Y411490D01*
X725185Y411516D01*
X725231Y411556D01*
X731760Y418085D01*
X741490Y418085D01*
X741521Y418060D01*
X741635Y418006D01*
X741746Y417945D01*
X741792Y417932D01*
X741836Y417911D01*
X741959Y417885D01*
X742081Y417850D01*
X742142Y417845D01*
X742177Y417838D01*
X742225Y417839D01*
X742325Y417831D01*
X858234Y417831D01*
X858360Y417845D01*
X858486Y417852D01*
X858532Y417865D01*
X858580Y417871D01*
X858699Y417913D01*
X858821Y417948D01*
X858863Y417972D01*
X858909Y417988D01*
X859015Y418057D01*
X859125Y418118D01*
X859171Y418158D01*
X859201Y418177D01*
X859235Y418212D01*
X859311Y418277D01*
X907925Y466890D01*
X912126Y468631D01*
X915224Y468631D01*
X915373Y468648D01*
X915523Y468660D01*
X915546Y468668D01*
X915570Y468671D01*
X915711Y468721D01*
X915854Y468767D01*
X915875Y468780D01*
X915898Y468788D01*
X916024Y468870D01*
X916153Y468947D01*
X916170Y468964D01*
X916191Y468977D01*
X916296Y469086D01*
X916403Y469190D01*
X916416Y469210D01*
X916433Y469228D01*
X916510Y469357D01*
X916591Y469483D01*
X916599Y469506D01*
X916612Y469527D01*
X916658Y469670D01*
X916708Y469812D01*
X916711Y469836D01*
X916718Y469859D01*
X916730Y470008D01*
X916747Y470158D01*
X916744Y470182D01*
X916746Y470206D01*
X916724Y470355D01*
X916706Y470504D01*
X916697Y470532D01*
X916694Y470551D01*
X916677Y470595D01*
X916631Y470737D01*
X915415Y473672D01*
X915415Y491528D01*
X917194Y495823D01*
X920481Y499110D01*
X924776Y500889D01*
X929424Y500889D01*
X933719Y499110D01*
X937006Y495823D01*
X938393Y492475D01*
X938441Y492387D01*
X938482Y492295D01*
X938526Y492235D01*
X938562Y492170D01*
X938629Y492096D01*
X938689Y492015D01*
X938746Y491967D01*
X938796Y491912D01*
X938879Y491855D01*
X938955Y491790D01*
X939022Y491756D01*
X939083Y491714D01*
X939176Y491677D01*
X939266Y491631D01*
X939338Y491613D01*
X939407Y491586D01*
X939506Y491571D01*
X939604Y491547D01*
X939678Y491546D01*
X939752Y491535D01*
X939852Y491543D01*
X939952Y491542D01*
X940025Y491558D01*
X940099Y491564D01*
X940195Y491595D01*
X940293Y491616D01*
X940360Y491648D01*
X940431Y491671D01*
X940517Y491723D01*
X940608Y491766D01*
X940666Y491812D01*
X940729Y491851D01*
X940802Y491921D01*
X940880Y491983D01*
X940926Y492042D01*
X940979Y492094D01*
X941034Y492178D01*
X941096Y492257D01*
X941142Y492346D01*
X941168Y492387D01*
X941180Y492421D01*
X941207Y492475D01*
X942594Y495823D01*
X945881Y499110D01*
X950176Y500889D01*
X954824Y500889D01*
X959119Y499110D01*
X962406Y495823D01*
X964185Y491528D01*
X964185Y473672D01*
X964047Y473339D01*
X964046Y473337D01*
X964045Y473335D01*
X963998Y473168D01*
X963951Y473003D01*
X963951Y473001D01*
X963950Y472999D01*
X963931Y472756D01*
X963931Y454926D01*
X962190Y450725D01*
X960524Y449059D01*
X960508Y449038D01*
X960488Y449021D01*
X960400Y448902D01*
X960308Y448786D01*
X960296Y448762D01*
X960281Y448741D01*
X960222Y448605D01*
X960159Y448471D01*
X960153Y448445D01*
X960143Y448421D01*
X960116Y448275D01*
X960085Y448130D01*
X960086Y448104D01*
X960081Y448078D01*
X960089Y447929D01*
X960091Y447781D01*
X960098Y447756D01*
X960099Y447730D01*
X960140Y447587D01*
X960176Y447443D01*
X960188Y447420D01*
X960196Y447395D01*
X960268Y447265D01*
X960336Y447134D01*
X960353Y447114D01*
X960366Y447091D01*
X960524Y446905D01*
X962406Y445023D01*
X964185Y440728D01*
X964185Y422872D01*
X964047Y422538D01*
X964046Y422536D01*
X964045Y422535D01*
X963997Y422364D01*
X963951Y422203D01*
X963951Y422201D01*
X963950Y422199D01*
X963931Y421956D01*
X963931Y404126D01*
X962190Y399925D01*
X960524Y398259D01*
X960508Y398238D01*
X960488Y398221D01*
X960400Y398102D01*
X960308Y397986D01*
X960296Y397962D01*
X960281Y397941D01*
X960222Y397805D01*
X960159Y397671D01*
X960153Y397645D01*
X960143Y397621D01*
X960116Y397475D01*
X960085Y397330D01*
X960086Y397304D01*
X960081Y397278D01*
X960089Y397129D01*
X960091Y396981D01*
X960098Y396956D01*
X960099Y396930D01*
X960140Y396787D01*
X960176Y396643D01*
X960188Y396620D01*
X960196Y396595D01*
X960268Y396465D01*
X960336Y396334D01*
X960353Y396314D01*
X960366Y396291D01*
X960524Y396105D01*
X962406Y394223D01*
X964185Y389928D01*
X964185Y372072D01*
X964047Y371738D01*
X964046Y371736D01*
X964045Y371735D01*
X963998Y371568D01*
X963993Y371552D01*
X963966Y371466D01*
X963965Y371452D01*
X963951Y371403D01*
X963951Y371401D01*
X963950Y371399D01*
X963931Y371156D01*
X963931Y353326D01*
X962190Y349125D01*
X960524Y347459D01*
X960508Y347438D01*
X960488Y347421D01*
X960400Y347302D01*
X960308Y347186D01*
X960296Y347162D01*
X960281Y347141D01*
X960222Y347005D01*
X960159Y346871D01*
X960153Y346845D01*
X960143Y346821D01*
X960116Y346675D01*
X960085Y346530D01*
X960086Y346504D01*
X960081Y346478D01*
X960089Y346329D01*
X960091Y346181D01*
X960098Y346156D01*
X960099Y346130D01*
X960140Y345987D01*
X960176Y345843D01*
X960188Y345820D01*
X960196Y345795D01*
X960268Y345665D01*
X960336Y345534D01*
X960353Y345514D01*
X960366Y345491D01*
X960524Y345305D01*
X962406Y343423D01*
X964185Y339128D01*
X964185Y321272D01*
X964047Y320939D01*
X964046Y320937D01*
X964045Y320935D01*
X963998Y320768D01*
X963951Y320603D01*
X963951Y320601D01*
X963950Y320599D01*
X963931Y320356D01*
X963931Y302526D01*
X962190Y298325D01*
X958975Y295110D01*
X954774Y293369D01*
X921413Y293369D01*
X921288Y293355D01*
X921162Y293348D01*
X921115Y293335D01*
X921067Y293329D01*
X920948Y293287D01*
X920827Y293252D01*
X920785Y293228D01*
X920739Y293212D01*
X920633Y293143D01*
X920523Y293082D01*
X920476Y293042D01*
X920446Y293023D01*
X920413Y292988D01*
X920336Y292923D01*
X902113Y274700D01*
X897911Y272959D01*
X868089Y272959D01*
X863887Y274700D01*
X820264Y318323D01*
X820165Y318402D01*
X820071Y318486D01*
X820028Y318510D01*
X819991Y318540D01*
X819876Y318594D01*
X819766Y318655D01*
X819719Y318668D01*
X819676Y318689D01*
X819552Y318715D01*
X819430Y318750D01*
X819370Y318755D01*
X819335Y318762D01*
X819287Y318761D01*
X819187Y318769D01*
X818525Y318769D01*
X818399Y318755D01*
X818273Y318748D01*
X818227Y318735D01*
X818179Y318729D01*
X818060Y318687D01*
X817938Y318652D01*
X817896Y318628D01*
X817851Y318612D01*
X817744Y318543D01*
X817694Y318515D01*
X807960Y318515D01*
X801115Y325360D01*
X801115Y335040D01*
X807644Y341569D01*
X807707Y341647D01*
X807776Y341720D01*
X807815Y341784D01*
X807861Y341842D01*
X807904Y341933D01*
X807955Y342019D01*
X807978Y342090D01*
X808010Y342157D01*
X808031Y342255D01*
X808062Y342351D01*
X808067Y342425D01*
X808083Y342498D01*
X808081Y342598D01*
X808089Y342698D01*
X808078Y342772D01*
X808077Y342846D01*
X808053Y342943D01*
X808038Y343043D01*
X808010Y343112D01*
X807992Y343184D01*
X807946Y343274D01*
X807909Y343367D01*
X807867Y343428D01*
X807833Y343494D01*
X807767Y343571D01*
X807710Y343653D01*
X807655Y343703D01*
X807607Y343759D01*
X807526Y343819D01*
X807451Y343886D01*
X807386Y343922D01*
X807326Y343967D01*
X807234Y344006D01*
X807146Y344055D01*
X807075Y344075D01*
X807006Y344105D01*
X806908Y344122D01*
X806811Y344150D01*
X806711Y344158D01*
X806663Y344166D01*
X806628Y344164D01*
X806567Y344169D01*
X793125Y344169D01*
X792999Y344155D01*
X792873Y344148D01*
X792827Y344135D01*
X792779Y344129D01*
X792660Y344087D01*
X792538Y344052D01*
X792496Y344028D01*
X792451Y344012D01*
X792344Y343943D01*
X792294Y343915D01*
X782560Y343915D01*
X775715Y350760D01*
X775715Y360440D01*
X782244Y366969D01*
X782307Y367047D01*
X782376Y367120D01*
X782415Y367184D01*
X782461Y367242D01*
X782504Y367333D01*
X782555Y367419D01*
X782578Y367490D01*
X782610Y367557D01*
X782631Y367655D01*
X782662Y367751D01*
X782667Y367825D01*
X782683Y367898D01*
X782681Y367998D01*
X782689Y368098D01*
X782678Y368172D01*
X782677Y368246D01*
X782653Y368343D01*
X782638Y368443D01*
X782610Y368512D01*
X782592Y368584D01*
X782546Y368674D01*
X782509Y368767D01*
X782467Y368828D01*
X782433Y368894D01*
X782367Y368971D01*
X782310Y369053D01*
X782255Y369103D01*
X782207Y369159D01*
X782126Y369219D01*
X782051Y369286D01*
X781986Y369322D01*
X781926Y369367D01*
X781834Y369406D01*
X781746Y369455D01*
X781675Y369475D01*
X781606Y369505D01*
X781508Y369522D01*
X781411Y369550D01*
X781311Y369558D01*
X781263Y369566D01*
X781228Y369564D01*
X781167Y369569D01*
X767725Y369569D01*
X767599Y369555D01*
X767473Y369548D01*
X767427Y369535D01*
X767379Y369529D01*
X767260Y369487D01*
X767138Y369452D01*
X767096Y369428D01*
X767051Y369412D01*
X766944Y369343D01*
X766894Y369315D01*
X757160Y369315D01*
X750315Y376160D01*
X750315Y385840D01*
X756844Y392369D01*
X756907Y392447D01*
X756976Y392520D01*
X757015Y392584D01*
X757061Y392642D01*
X757104Y392733D01*
X757155Y392819D01*
X757178Y392890D01*
X757210Y392957D01*
X757231Y393055D01*
X757262Y393151D01*
X757267Y393225D01*
X757283Y393298D01*
X757281Y393398D01*
X757289Y393498D01*
X757278Y393572D01*
X757277Y393646D01*
X757253Y393743D01*
X757238Y393843D01*
X757210Y393912D01*
X757192Y393984D01*
X757146Y394074D01*
X757109Y394167D01*
X757067Y394228D01*
X757033Y394294D01*
X756967Y394371D01*
X756910Y394453D01*
X756855Y394503D01*
X756807Y394559D01*
X756726Y394619D01*
X756651Y394686D01*
X756586Y394722D01*
X756526Y394767D01*
X756434Y394806D01*
X756346Y394855D01*
X756275Y394875D01*
X756206Y394905D01*
X756108Y394922D01*
X756011Y394950D01*
X755911Y394958D01*
X755863Y394966D01*
X755828Y394964D01*
X755767Y394969D01*
X742325Y394969D01*
X742199Y394955D01*
X742073Y394948D01*
X742027Y394935D01*
X741979Y394929D01*
X741860Y394887D01*
X741738Y394852D01*
X741696Y394828D01*
X741651Y394812D01*
X741544Y394743D01*
X741494Y394715D01*
X731760Y394715D01*
X725231Y401244D01*
X725153Y401307D01*
X725080Y401376D01*
X725016Y401415D01*
X724958Y401461D01*
X724867Y401504D01*
X724781Y401555D01*
X724710Y401578D01*
X724643Y401610D01*
X724545Y401631D01*
X724449Y401662D01*
X724375Y401667D01*
X724302Y401683D01*
X724202Y401681D01*
X724102Y401689D01*
X724028Y401678D01*
X723954Y401677D01*
X723857Y401653D01*
X723757Y401638D01*
X723688Y401610D01*
X723616Y401592D01*
X723526Y401546D01*
X723433Y401509D01*
X723372Y401467D01*
X723306Y401433D01*
X723229Y401367D01*
X723147Y401310D01*
X723097Y401255D01*
X723041Y401207D01*
X722981Y401126D01*
X722914Y401051D01*
X722878Y400986D01*
X722833Y400926D01*
X722794Y400834D01*
X722745Y400746D01*
X722725Y400675D01*
X722695Y400606D01*
X722678Y400508D01*
X722650Y400411D01*
X722642Y400311D01*
X722634Y400263D01*
X722636Y400228D01*
X722631Y400167D01*
X722631Y236506D01*
X722645Y236380D01*
X722652Y236254D01*
X722665Y236208D01*
X722671Y236160D01*
X722713Y236041D01*
X722748Y235919D01*
X722772Y235877D01*
X722788Y235831D01*
X722857Y235725D01*
X722918Y235615D01*
X722958Y235569D01*
X722977Y235539D01*
X723012Y235505D01*
X723077Y235429D01*
X759279Y199226D01*
X759315Y199198D01*
X759345Y199164D01*
X759451Y199090D01*
X759552Y199010D01*
X759593Y198990D01*
X759631Y198964D01*
X759750Y198916D01*
X759867Y198861D01*
X759912Y198851D01*
X759954Y198834D01*
X760082Y198815D01*
X760208Y198788D01*
X760253Y198788D01*
X760298Y198781D01*
X760427Y198791D01*
X760556Y198794D01*
X760600Y198805D01*
X760646Y198808D01*
X760769Y198847D01*
X760894Y198879D01*
X760935Y198899D01*
X760978Y198913D01*
X761089Y198979D01*
X761204Y199038D01*
X761239Y199068D01*
X761278Y199091D01*
X761371Y199180D01*
X761395Y199201D01*
X772101Y199201D01*
X772101Y188505D01*
X772090Y188496D01*
X772013Y188392D01*
X771931Y188293D01*
X771910Y188252D01*
X771883Y188215D01*
X771832Y188097D01*
X771774Y187981D01*
X771763Y187937D01*
X771745Y187895D01*
X771722Y187768D01*
X771692Y187643D01*
X771691Y187597D01*
X771683Y187552D01*
X771690Y187423D01*
X771689Y187294D01*
X771699Y187250D01*
X771701Y187204D01*
X771737Y187080D01*
X771765Y186954D01*
X771785Y186913D01*
X771798Y186869D01*
X771861Y186757D01*
X771917Y186640D01*
X771946Y186605D01*
X771968Y186565D01*
X772126Y186379D01*
X809790Y148715D01*
X811531Y144514D01*
X811531Y89760D01*
X811542Y89660D01*
X811544Y89560D01*
X811562Y89487D01*
X811571Y89414D01*
X811604Y89319D01*
X811629Y89222D01*
X811663Y89156D01*
X811688Y89086D01*
X811743Y89001D01*
X811789Y88912D01*
X811837Y88855D01*
X811877Y88793D01*
X811949Y88723D01*
X812014Y88646D01*
X812074Y88602D01*
X812128Y88551D01*
X812214Y88499D01*
X812295Y88439D01*
X812363Y88410D01*
X812427Y88372D01*
X812523Y88341D01*
X812615Y88301D01*
X812688Y88288D01*
X812759Y88265D01*
X812859Y88257D01*
X812958Y88240D01*
X813032Y88243D01*
X813106Y88237D01*
X813206Y88252D01*
X813306Y88258D01*
X813377Y88278D01*
X813451Y88289D01*
X813544Y88326D01*
X813641Y88354D01*
X813706Y88390D01*
X813775Y88418D01*
X813857Y88475D01*
X813945Y88524D01*
X814021Y88589D01*
X814061Y88617D01*
X814085Y88643D01*
X814131Y88683D01*
X816107Y90659D01*
X821942Y93076D01*
X828258Y93076D01*
X834093Y90659D01*
X838559Y86193D01*
X840976Y80358D01*
X840976Y74042D01*
X838559Y68207D01*
X834093Y63741D01*
X828258Y61324D01*
X821942Y61324D01*
X816107Y63741D01*
X814131Y65717D01*
X814053Y65780D01*
X813980Y65849D01*
X813916Y65888D01*
X813858Y65934D01*
X813767Y65977D01*
X813681Y66028D01*
X813610Y66051D01*
X813543Y66083D01*
X813445Y66104D01*
X813349Y66135D01*
X813275Y66141D01*
X813202Y66156D01*
X813102Y66154D01*
X813002Y66163D01*
X812928Y66151D01*
X812854Y66150D01*
X812757Y66126D01*
X812657Y66111D01*
X812588Y66083D01*
X812516Y66065D01*
X812427Y66019D01*
X812333Y65982D01*
X812272Y65940D01*
X812206Y65906D01*
X812130Y65840D01*
X812047Y65783D01*
X811997Y65728D01*
X811941Y65680D01*
X811881Y65599D01*
X811814Y65524D01*
X811778Y65459D01*
X811733Y65399D01*
X811694Y65307D01*
X811645Y65219D01*
X811625Y65148D01*
X811595Y65079D01*
X811578Y64981D01*
X811550Y64884D01*
X811542Y64784D01*
X811534Y64736D01*
X811536Y64701D01*
X811531Y64640D01*
X811531Y42176D01*
X809790Y37975D01*
X806361Y34545D01*
X784577Y12761D01*
X784514Y12683D01*
X784444Y12610D01*
X784406Y12546D01*
X784360Y12488D01*
X784317Y12397D01*
X784266Y12311D01*
X784243Y12240D01*
X784211Y12173D01*
X784190Y12075D01*
X784159Y11979D01*
X784153Y11905D01*
X784138Y11832D01*
X784139Y11732D01*
X784131Y11632D01*
X784142Y11558D01*
X784144Y11484D01*
X784168Y11387D01*
X784183Y11287D01*
X784210Y11218D01*
X784229Y11146D01*
X784275Y11056D01*
X784312Y10963D01*
X784354Y10902D01*
X784388Y10836D01*
X784453Y10759D01*
X784511Y10677D01*
X784566Y10627D01*
X784614Y10571D01*
X784695Y10511D01*
X784769Y10444D01*
X784835Y10408D01*
X784894Y10363D01*
X784987Y10324D01*
X785074Y10275D01*
X785146Y10255D01*
X785214Y10225D01*
X785313Y10208D01*
X785410Y10180D01*
X785510Y10172D01*
X785557Y10164D01*
X785593Y10166D01*
X785654Y10161D01*
X988316Y10161D01*
X988342Y10164D01*
X988368Y10162D01*
X988515Y10184D01*
X988662Y10201D01*
X988687Y10209D01*
X988713Y10213D01*
X988851Y10268D01*
X988990Y10318D01*
X989012Y10332D01*
X989037Y10342D01*
X989158Y10427D01*
X989283Y10507D01*
X989301Y10526D01*
X989323Y10541D01*
X989422Y10651D01*
X989525Y10758D01*
X989539Y10780D01*
X989556Y10800D01*
X989628Y10930D01*
X989704Y11057D01*
X989712Y11082D01*
X989725Y11105D01*
X989765Y11248D01*
X989810Y11389D01*
X989812Y11415D01*
X989820Y11440D01*
X989839Y11684D01*
X989839Y321166D01*
X989833Y321221D01*
X989835Y321276D01*
X989813Y321393D01*
X989799Y321512D01*
X989781Y321564D01*
X989770Y321619D01*
X989722Y321728D01*
X989682Y321840D01*
X989652Y321887D01*
X989629Y321937D01*
X989558Y322033D01*
X989493Y322133D01*
X989453Y322171D01*
X989420Y322216D01*
X989328Y322292D01*
X989242Y322375D01*
X989195Y322404D01*
X989152Y322439D01*
X989046Y322493D01*
X988943Y322554D01*
X988890Y322571D01*
X988841Y322596D01*
X988725Y322624D01*
X988611Y322660D01*
X988556Y322665D01*
X988502Y322678D01*
X988383Y322679D01*
X988264Y322688D01*
X988209Y322680D01*
X988153Y322680D01*
X988037Y322654D01*
X987919Y322636D01*
X987867Y322616D01*
X987813Y322604D01*
X987706Y322552D01*
X987595Y322508D01*
X987550Y322476D01*
X987500Y322452D01*
X987407Y322377D01*
X987309Y322309D01*
X987272Y322268D01*
X987229Y322233D01*
X987156Y322139D01*
X987076Y322050D01*
X987049Y322001D01*
X987015Y321958D01*
X986965Y321849D01*
X986907Y321745D01*
X986892Y321692D01*
X986869Y321641D01*
X986836Y321505D01*
X986375Y320086D01*
X985721Y318803D01*
X984875Y317639D01*
X983857Y316621D01*
X982693Y315775D01*
X981410Y315121D01*
X980042Y314676D01*
X979931Y314659D01*
X979931Y329692D01*
X979928Y329718D01*
X979930Y329744D01*
X979908Y329891D01*
X979891Y330038D01*
X979883Y330063D01*
X979879Y330089D01*
X979836Y330196D01*
X979857Y330272D01*
X979902Y330413D01*
X979904Y330439D01*
X979912Y330464D01*
X979931Y330708D01*
X979931Y345741D01*
X980042Y345724D01*
X981410Y345279D01*
X982693Y344625D01*
X983857Y343779D01*
X984875Y342761D01*
X985721Y341597D01*
X986375Y340314D01*
X986830Y338915D01*
X986833Y338888D01*
X986873Y338776D01*
X986905Y338661D01*
X986931Y338612D01*
X986950Y338560D01*
X987015Y338460D01*
X987072Y338355D01*
X987109Y338314D01*
X987139Y338267D01*
X987225Y338184D01*
X987304Y338095D01*
X987350Y338064D01*
X987390Y338025D01*
X987492Y337964D01*
X987590Y337895D01*
X987641Y337875D01*
X987689Y337846D01*
X987802Y337810D01*
X987913Y337765D01*
X987968Y337757D01*
X988021Y337740D01*
X988140Y337730D01*
X988258Y337712D01*
X988313Y337716D01*
X988368Y337712D01*
X988486Y337730D01*
X988605Y337739D01*
X988658Y337755D01*
X988713Y337764D01*
X988824Y337808D01*
X988937Y337843D01*
X988985Y337872D01*
X989037Y337892D01*
X989135Y337960D01*
X989237Y338021D01*
X989277Y338060D01*
X989323Y338091D01*
X989403Y338180D01*
X989489Y338262D01*
X989519Y338309D01*
X989556Y338350D01*
X989614Y338455D01*
X989679Y338554D01*
X989698Y338606D01*
X989725Y338655D01*
X989757Y338770D01*
X989798Y338882D01*
X989805Y338937D01*
X989820Y338990D01*
X989838Y339215D01*
X989839Y339228D01*
X989839Y339231D01*
X989839Y339234D01*
X989839Y371966D01*
X989833Y372021D01*
X989835Y372076D01*
X989813Y372193D01*
X989799Y372312D01*
X989781Y372364D01*
X989770Y372419D01*
X989722Y372528D01*
X989682Y372640D01*
X989652Y372687D01*
X989629Y372737D01*
X989558Y372833D01*
X989493Y372933D01*
X989453Y372971D01*
X989420Y373016D01*
X989328Y373092D01*
X989242Y373175D01*
X989195Y373204D01*
X989152Y373239D01*
X989046Y373293D01*
X988943Y373354D01*
X988890Y373371D01*
X988841Y373396D01*
X988725Y373424D01*
X988611Y373460D01*
X988556Y373465D01*
X988502Y373478D01*
X988383Y373479D01*
X988264Y373488D01*
X988209Y373480D01*
X988153Y373480D01*
X988037Y373454D01*
X987919Y373436D01*
X987867Y373416D01*
X987813Y373404D01*
X987706Y373352D01*
X987595Y373308D01*
X987550Y373276D01*
X987500Y373252D01*
X987407Y373177D01*
X987309Y373109D01*
X987272Y373068D01*
X987229Y373033D01*
X987156Y372939D01*
X987076Y372850D01*
X987049Y372801D01*
X987015Y372758D01*
X986965Y372649D01*
X986907Y372545D01*
X986892Y372492D01*
X986869Y372441D01*
X986836Y372305D01*
X986375Y370886D01*
X985721Y369603D01*
X984875Y368439D01*
X983857Y367421D01*
X982693Y366575D01*
X981410Y365921D01*
X980042Y365476D01*
X979931Y365459D01*
X979931Y380492D01*
X979928Y380518D01*
X979930Y380544D01*
X979908Y380691D01*
X979891Y380838D01*
X979883Y380863D01*
X979879Y380889D01*
X979836Y380996D01*
X979857Y381072D01*
X979902Y381213D01*
X979904Y381239D01*
X979912Y381264D01*
X979931Y381508D01*
X979931Y396541D01*
X980042Y396524D01*
X981410Y396079D01*
X982693Y395425D01*
X983857Y394579D01*
X984875Y393561D01*
X985721Y392397D01*
X986375Y391114D01*
X986830Y389715D01*
X986833Y389688D01*
X986873Y389576D01*
X986905Y389461D01*
X986931Y389412D01*
X986950Y389360D01*
X987015Y389260D01*
X987072Y389155D01*
X987109Y389114D01*
X987139Y389067D01*
X987225Y388984D01*
X987304Y388895D01*
X987350Y388864D01*
X987390Y388825D01*
X987492Y388764D01*
X987590Y388695D01*
X987641Y388675D01*
X987689Y388646D01*
X987802Y388610D01*
X987913Y388565D01*
X987968Y388557D01*
X988021Y388540D01*
X988140Y388530D01*
X988258Y388512D01*
X988313Y388516D01*
X988368Y388512D01*
X988486Y388530D01*
X988605Y388539D01*
X988658Y388555D01*
X988713Y388564D01*
X988824Y388608D01*
X988937Y388643D01*
X988985Y388672D01*
X989037Y388692D01*
X989135Y388760D01*
X989237Y388821D01*
X989277Y388860D01*
X989323Y388891D01*
X989403Y388980D01*
X989489Y389062D01*
X989519Y389109D01*
X989556Y389150D01*
X989614Y389255D01*
X989679Y389354D01*
X989698Y389406D01*
X989725Y389455D01*
X989757Y389570D01*
X989798Y389682D01*
X989805Y389737D01*
X989820Y389790D01*
X989838Y390015D01*
X989839Y390028D01*
X989839Y390031D01*
X989839Y390034D01*
X989839Y422766D01*
X989833Y422821D01*
X989835Y422876D01*
X989813Y422994D01*
X989799Y423112D01*
X989781Y423164D01*
X989770Y423219D01*
X989722Y423328D01*
X989682Y423440D01*
X989652Y423487D01*
X989629Y423537D01*
X989558Y423633D01*
X989493Y423733D01*
X989453Y423771D01*
X989420Y423816D01*
X989328Y423892D01*
X989242Y423975D01*
X989195Y424003D01*
X989152Y424039D01*
X989045Y424093D01*
X988943Y424154D01*
X988890Y424171D01*
X988841Y424196D01*
X988725Y424224D01*
X988611Y424260D01*
X988556Y424265D01*
X988502Y424278D01*
X988383Y424278D01*
X988264Y424288D01*
X988209Y424280D01*
X988154Y424280D01*
X988037Y424254D01*
X987919Y424236D01*
X987868Y424216D01*
X987814Y424204D01*
X987706Y424152D01*
X987595Y424108D01*
X987550Y424076D01*
X987500Y424052D01*
X987407Y423977D01*
X987309Y423909D01*
X987272Y423868D01*
X987229Y423833D01*
X987156Y423739D01*
X987076Y423650D01*
X987049Y423601D01*
X987015Y423558D01*
X986965Y423449D01*
X986907Y423345D01*
X986892Y423292D01*
X986869Y423241D01*
X986836Y423105D01*
X986375Y421686D01*
X985721Y420403D01*
X984875Y419239D01*
X983857Y418221D01*
X982693Y417375D01*
X981410Y416721D01*
X980042Y416276D01*
X979931Y416259D01*
X979931Y431292D01*
X979928Y431318D01*
X979930Y431344D01*
X979908Y431491D01*
X979891Y431638D01*
X979883Y431663D01*
X979879Y431689D01*
X979836Y431796D01*
X979857Y431872D01*
X979902Y432013D01*
X979904Y432039D01*
X979912Y432064D01*
X979931Y432308D01*
X979931Y447341D01*
X980042Y447324D01*
X981410Y446879D01*
X982693Y446225D01*
X983857Y445379D01*
X984875Y444361D01*
X985721Y443197D01*
X986375Y441914D01*
X986830Y440515D01*
X986833Y440488D01*
X986873Y440376D01*
X986905Y440261D01*
X986931Y440212D01*
X986950Y440160D01*
X987015Y440060D01*
X987072Y439955D01*
X987109Y439914D01*
X987139Y439867D01*
X987225Y439784D01*
X987305Y439695D01*
X987350Y439664D01*
X987390Y439625D01*
X987492Y439564D01*
X987590Y439495D01*
X987641Y439475D01*
X987689Y439446D01*
X987803Y439410D01*
X987913Y439365D01*
X987968Y439357D01*
X988021Y439340D01*
X988140Y439330D01*
X988258Y439312D01*
X988313Y439316D01*
X988368Y439312D01*
X988486Y439330D01*
X988605Y439339D01*
X988658Y439355D01*
X988713Y439364D01*
X988824Y439408D01*
X988938Y439444D01*
X988985Y439472D01*
X989037Y439492D01*
X989135Y439560D01*
X989237Y439621D01*
X989277Y439660D01*
X989323Y439691D01*
X989403Y439780D01*
X989489Y439863D01*
X989519Y439909D01*
X989556Y439950D01*
X989614Y440054D01*
X989679Y440155D01*
X989698Y440207D01*
X989725Y440255D01*
X989757Y440370D01*
X989798Y440482D01*
X989805Y440537D01*
X989820Y440591D01*
X989838Y440816D01*
X989839Y440828D01*
X989839Y440831D01*
X989839Y440834D01*
X989839Y473566D01*
X989833Y473621D01*
X989835Y473676D01*
X989813Y473794D01*
X989799Y473912D01*
X989781Y473964D01*
X989770Y474019D01*
X989722Y474128D01*
X989682Y474240D01*
X989652Y474287D01*
X989629Y474337D01*
X989558Y474433D01*
X989493Y474533D01*
X989453Y474571D01*
X989420Y474616D01*
X989328Y474692D01*
X989242Y474775D01*
X989195Y474803D01*
X989152Y474839D01*
X989045Y474893D01*
X988943Y474954D01*
X988890Y474971D01*
X988841Y474996D01*
X988725Y475024D01*
X988611Y475060D01*
X988556Y475065D01*
X988502Y475078D01*
X988383Y475079D01*
X988264Y475088D01*
X988209Y475080D01*
X988154Y475080D01*
X988037Y475054D01*
X987919Y475036D01*
X987868Y475016D01*
X987814Y475004D01*
X987706Y474952D01*
X987595Y474908D01*
X987550Y474876D01*
X987500Y474852D01*
X987407Y474777D01*
X987309Y474709D01*
X987272Y474668D01*
X987229Y474633D01*
X987156Y474538D01*
X987076Y474450D01*
X987049Y474401D01*
X987015Y474358D01*
X986965Y474249D01*
X986907Y474145D01*
X986892Y474092D01*
X986869Y474041D01*
X986836Y473905D01*
X986375Y472486D01*
X985721Y471203D01*
X984875Y470039D01*
X983857Y469021D01*
X982693Y468175D01*
X981410Y467521D01*
X980042Y467076D01*
X979931Y467059D01*
X979931Y482092D01*
X979928Y482118D01*
X979930Y482144D01*
X979908Y482291D01*
X979891Y482438D01*
X979883Y482463D01*
X979879Y482489D01*
X979836Y482596D01*
X979857Y482672D01*
X979902Y482813D01*
X979904Y482839D01*
X979912Y482864D01*
X979931Y483108D01*
X979931Y498141D01*
X980042Y498124D01*
X981410Y497679D01*
X982693Y497025D01*
X983857Y496179D01*
X984875Y495161D01*
X985721Y493997D01*
X986375Y492714D01*
X986830Y491315D01*
X986833Y491288D01*
X986873Y491176D01*
X986905Y491061D01*
X986931Y491012D01*
X986950Y490960D01*
X987015Y490860D01*
X987072Y490755D01*
X987109Y490714D01*
X987139Y490667D01*
X987225Y490584D01*
X987305Y490495D01*
X987350Y490464D01*
X987390Y490425D01*
X987492Y490364D01*
X987590Y490295D01*
X987641Y490275D01*
X987689Y490246D01*
X987803Y490210D01*
X987913Y490165D01*
X987968Y490157D01*
X988021Y490140D01*
X988140Y490130D01*
X988258Y490112D01*
X988313Y490116D01*
X988368Y490112D01*
X988486Y490130D01*
X988605Y490139D01*
X988658Y490155D01*
X988713Y490164D01*
X988824Y490208D01*
X988938Y490244D01*
X988985Y490272D01*
X989037Y490292D01*
X989135Y490360D01*
X989237Y490421D01*
X989277Y490460D01*
X989323Y490491D01*
X989403Y490580D01*
X989489Y490663D01*
X989519Y490709D01*
X989556Y490750D01*
X989614Y490854D01*
X989679Y490955D01*
X989698Y491007D01*
X989725Y491055D01*
X989757Y491170D01*
X989798Y491282D01*
X989805Y491337D01*
X989820Y491391D01*
X989838Y491616D01*
X989839Y491628D01*
X989839Y491631D01*
X989839Y491634D01*
X989839Y788316D01*
X989836Y788342D01*
X989838Y788368D01*
X989816Y788515D01*
X989799Y788662D01*
X989791Y788687D01*
X989787Y788713D01*
X989732Y788851D01*
X989682Y788990D01*
X989668Y789012D01*
X989658Y789037D01*
X989573Y789158D01*
X989493Y789283D01*
X989474Y789301D01*
X989459Y789323D01*
X989349Y789422D01*
X989242Y789525D01*
X989220Y789539D01*
X989200Y789556D01*
X989070Y789628D01*
X988943Y789704D01*
X988918Y789712D01*
X988895Y789725D01*
X988752Y789765D01*
X988611Y789810D01*
X988585Y789812D01*
X988560Y789820D01*
X988316Y789839D01*
X11684Y789839D01*
X11658Y789836D01*
X11632Y789838D01*
X11485Y789816D01*
X11338Y789799D01*
X11313Y789791D01*
X11287Y789787D01*
X11149Y789732D01*
X11010Y789682D01*
X10988Y789668D01*
X10963Y789658D01*
X10842Y789573D01*
X10717Y789493D01*
X10699Y789474D01*
X10677Y789459D01*
X10578Y789349D01*
X10475Y789242D01*
X10461Y789220D01*
X10444Y789200D01*
X10372Y789070D01*
X10296Y788943D01*
X10288Y788918D01*
X10275Y788895D01*
X10235Y788752D01*
X10190Y788611D01*
X10188Y788585D01*
X10180Y788560D01*
X10161Y788316D01*
X10161Y11684D01*
X10164Y11658D01*
X10162Y11632D01*
X10184Y11485D01*
X10201Y11338D01*
X10209Y11313D01*
X10213Y11287D01*
X10268Y11149D01*
X10318Y11010D01*
X10332Y10988D01*
X10342Y10963D01*
X10427Y10842D01*
X10507Y10717D01*
X10526Y10699D01*
X10541Y10677D01*
X10651Y10578D01*
X10758Y10475D01*
X10780Y10461D01*
X10800Y10444D01*
X10930Y10372D01*
X11057Y10296D01*
X11082Y10288D01*
X11105Y10275D01*
X11248Y10235D01*
X11389Y10190D01*
X11415Y10188D01*
X11440Y10180D01*
X11684Y10161D01*
X114978Y10161D01*
X115127Y10178D01*
G37*
G36*
X777138Y38148D02*
X777138Y38148D01*
X777238Y38153D01*
X777309Y38174D01*
X777383Y38185D01*
X777476Y38222D01*
X777573Y38250D01*
X777638Y38286D01*
X777707Y38314D01*
X777789Y38371D01*
X777877Y38420D01*
X777953Y38485D01*
X777993Y38513D01*
X778017Y38539D01*
X778063Y38579D01*
X788223Y48739D01*
X788293Y48827D01*
X788305Y48839D01*
X788309Y48845D01*
X788386Y48932D01*
X788410Y48974D01*
X788440Y49012D01*
X788494Y49126D01*
X788555Y49237D01*
X788568Y49283D01*
X788589Y49327D01*
X788615Y49450D01*
X788650Y49572D01*
X788655Y49633D01*
X788662Y49667D01*
X788661Y49715D01*
X788669Y49816D01*
X788669Y64640D01*
X788658Y64740D01*
X788656Y64840D01*
X788638Y64913D01*
X788629Y64986D01*
X788596Y65081D01*
X788571Y65178D01*
X788537Y65244D01*
X788512Y65314D01*
X788457Y65399D01*
X788411Y65488D01*
X788363Y65545D01*
X788323Y65607D01*
X788251Y65677D01*
X788186Y65754D01*
X788126Y65798D01*
X788072Y65849D01*
X787986Y65901D01*
X787905Y65961D01*
X787837Y65990D01*
X787773Y66028D01*
X787677Y66059D01*
X787585Y66099D01*
X787512Y66112D01*
X787441Y66135D01*
X787341Y66143D01*
X787242Y66160D01*
X787168Y66157D01*
X787094Y66163D01*
X786994Y66148D01*
X786894Y66142D01*
X786823Y66122D01*
X786749Y66111D01*
X786656Y66074D01*
X786559Y66046D01*
X786494Y66010D01*
X786425Y65982D01*
X786343Y65925D01*
X786255Y65876D01*
X786179Y65811D01*
X786139Y65783D01*
X786115Y65757D01*
X786069Y65717D01*
X784093Y63741D01*
X778258Y61324D01*
X771942Y61324D01*
X766107Y63741D01*
X761641Y68207D01*
X759224Y74042D01*
X759224Y80358D01*
X761641Y86193D01*
X766107Y90659D01*
X771942Y93076D01*
X778258Y93076D01*
X784093Y90659D01*
X786069Y88683D01*
X786147Y88620D01*
X786220Y88551D01*
X786284Y88512D01*
X786342Y88466D01*
X786433Y88423D01*
X786519Y88372D01*
X786590Y88349D01*
X786657Y88317D01*
X786755Y88296D01*
X786851Y88265D01*
X786925Y88259D01*
X786998Y88244D01*
X787098Y88246D01*
X787198Y88237D01*
X787272Y88249D01*
X787346Y88250D01*
X787443Y88274D01*
X787543Y88289D01*
X787612Y88317D01*
X787684Y88335D01*
X787773Y88381D01*
X787867Y88418D01*
X787928Y88460D01*
X787994Y88494D01*
X788070Y88560D01*
X788153Y88617D01*
X788203Y88672D01*
X788259Y88720D01*
X788319Y88801D01*
X788386Y88876D01*
X788422Y88941D01*
X788467Y89001D01*
X788506Y89093D01*
X788555Y89181D01*
X788575Y89252D01*
X788605Y89321D01*
X788622Y89419D01*
X788650Y89516D01*
X788658Y89616D01*
X788666Y89664D01*
X788664Y89699D01*
X788669Y89760D01*
X788669Y136874D01*
X788655Y137000D01*
X788648Y137126D01*
X788635Y137172D01*
X788629Y137220D01*
X788587Y137339D01*
X788552Y137461D01*
X788528Y137503D01*
X788512Y137549D01*
X788443Y137655D01*
X788382Y137765D01*
X788342Y137811D01*
X788323Y137841D01*
X788288Y137875D01*
X788223Y137951D01*
X701510Y224665D01*
X699769Y228866D01*
X699769Y323967D01*
X699767Y323986D01*
X699768Y324002D01*
X699758Y324074D01*
X699756Y324167D01*
X699738Y324239D01*
X699729Y324313D01*
X699696Y324408D01*
X699671Y324505D01*
X699637Y324571D01*
X699612Y324641D01*
X699557Y324726D01*
X699511Y324815D01*
X699463Y324872D01*
X699423Y324934D01*
X699351Y325004D01*
X699286Y325081D01*
X699226Y325125D01*
X699172Y325176D01*
X699086Y325228D01*
X699005Y325288D01*
X698937Y325317D01*
X698873Y325355D01*
X698777Y325386D01*
X698685Y325426D01*
X698612Y325439D01*
X698541Y325462D01*
X698441Y325470D01*
X698342Y325487D01*
X698268Y325484D01*
X698194Y325489D01*
X698094Y325475D01*
X697994Y325469D01*
X697923Y325449D01*
X697849Y325438D01*
X697756Y325401D01*
X697659Y325373D01*
X697594Y325337D01*
X697525Y325309D01*
X697443Y325252D01*
X697355Y325203D01*
X697280Y325139D01*
X697262Y325127D01*
X697259Y325124D01*
X697239Y325110D01*
X697215Y325084D01*
X697169Y325044D01*
X690640Y318515D01*
X680960Y318515D01*
X674115Y325360D01*
X674115Y335090D01*
X674140Y335121D01*
X674194Y335235D01*
X674255Y335346D01*
X674268Y335392D01*
X674289Y335436D01*
X674315Y335559D01*
X674350Y335681D01*
X674355Y335742D01*
X674362Y335777D01*
X674361Y335825D01*
X674369Y335925D01*
X674369Y349367D01*
X674358Y349467D01*
X674356Y349567D01*
X674338Y349639D01*
X674329Y349713D01*
X674296Y349808D01*
X674271Y349905D01*
X674237Y349971D01*
X674212Y350041D01*
X674157Y350126D01*
X674111Y350215D01*
X674063Y350272D01*
X674023Y350334D01*
X673951Y350404D01*
X673886Y350481D01*
X673826Y350525D01*
X673772Y350576D01*
X673686Y350628D01*
X673605Y350688D01*
X673537Y350717D01*
X673473Y350755D01*
X673377Y350786D01*
X673285Y350826D01*
X673212Y350839D01*
X673141Y350862D01*
X673041Y350870D01*
X672942Y350887D01*
X672868Y350884D01*
X672794Y350889D01*
X672694Y350875D01*
X672594Y350869D01*
X672523Y350849D01*
X672449Y350838D01*
X672356Y350801D01*
X672259Y350773D01*
X672194Y350737D01*
X672125Y350709D01*
X672043Y350652D01*
X671955Y350603D01*
X671879Y350538D01*
X671839Y350510D01*
X671815Y350484D01*
X671769Y350444D01*
X665240Y343915D01*
X655560Y343915D01*
X648715Y350760D01*
X648715Y360490D01*
X648740Y360521D01*
X648794Y360635D01*
X648855Y360746D01*
X648868Y360792D01*
X648889Y360836D01*
X648915Y360959D01*
X648950Y361081D01*
X648955Y361142D01*
X648962Y361177D01*
X648961Y361225D01*
X648969Y361325D01*
X648969Y374767D01*
X648958Y374867D01*
X648956Y374967D01*
X648938Y375039D01*
X648929Y375113D01*
X648896Y375208D01*
X648871Y375305D01*
X648837Y375371D01*
X648812Y375441D01*
X648757Y375526D01*
X648711Y375615D01*
X648663Y375672D01*
X648623Y375734D01*
X648551Y375804D01*
X648486Y375881D01*
X648426Y375925D01*
X648372Y375976D01*
X648286Y376028D01*
X648205Y376088D01*
X648137Y376117D01*
X648073Y376155D01*
X647977Y376186D01*
X647885Y376226D01*
X647812Y376239D01*
X647741Y376262D01*
X647641Y376270D01*
X647542Y376287D01*
X647468Y376284D01*
X647394Y376289D01*
X647294Y376275D01*
X647194Y376269D01*
X647123Y376249D01*
X647049Y376238D01*
X646956Y376201D01*
X646859Y376173D01*
X646794Y376137D01*
X646725Y376109D01*
X646643Y376052D01*
X646555Y376003D01*
X646479Y375938D01*
X646439Y375910D01*
X646415Y375884D01*
X646369Y375844D01*
X639840Y369315D01*
X630160Y369315D01*
X623315Y376160D01*
X623315Y385890D01*
X623340Y385921D01*
X623394Y386035D01*
X623455Y386146D01*
X623468Y386192D01*
X623489Y386236D01*
X623515Y386359D01*
X623550Y386481D01*
X623555Y386542D01*
X623562Y386577D01*
X623561Y386625D01*
X623569Y386725D01*
X623569Y400167D01*
X623558Y400267D01*
X623556Y400367D01*
X623538Y400439D01*
X623529Y400513D01*
X623496Y400608D01*
X623471Y400705D01*
X623437Y400771D01*
X623412Y400841D01*
X623357Y400926D01*
X623311Y401015D01*
X623263Y401072D01*
X623223Y401134D01*
X623151Y401204D01*
X623086Y401281D01*
X623026Y401325D01*
X622972Y401376D01*
X622886Y401428D01*
X622805Y401488D01*
X622737Y401517D01*
X622673Y401555D01*
X622577Y401586D01*
X622485Y401626D01*
X622412Y401639D01*
X622341Y401662D01*
X622241Y401670D01*
X622142Y401687D01*
X622068Y401684D01*
X621994Y401689D01*
X621894Y401675D01*
X621794Y401669D01*
X621723Y401649D01*
X621649Y401638D01*
X621556Y401601D01*
X621459Y401573D01*
X621394Y401537D01*
X621325Y401509D01*
X621243Y401452D01*
X621155Y401403D01*
X621079Y401338D01*
X621039Y401310D01*
X621015Y401284D01*
X620969Y401244D01*
X614440Y394715D01*
X604760Y394715D01*
X597915Y401560D01*
X597915Y411290D01*
X597940Y411321D01*
X597994Y411435D01*
X598055Y411546D01*
X598068Y411592D01*
X598089Y411636D01*
X598115Y411759D01*
X598150Y411881D01*
X598155Y411942D01*
X598162Y411977D01*
X598161Y412025D01*
X598169Y412125D01*
X598169Y511953D01*
X598158Y512053D01*
X598156Y512153D01*
X598138Y512225D01*
X598129Y512299D01*
X598096Y512393D01*
X598071Y512491D01*
X598037Y512557D01*
X598012Y512627D01*
X597957Y512711D01*
X597911Y512801D01*
X597863Y512857D01*
X597823Y512920D01*
X597751Y512990D01*
X597686Y513066D01*
X597626Y513110D01*
X597572Y513162D01*
X597486Y513214D01*
X597405Y513273D01*
X597337Y513303D01*
X597273Y513341D01*
X597177Y513371D01*
X597085Y513411D01*
X597012Y513424D01*
X596941Y513447D01*
X596841Y513455D01*
X596742Y513473D01*
X596668Y513469D01*
X596594Y513475D01*
X596494Y513460D01*
X596394Y513455D01*
X596323Y513434D01*
X596249Y513423D01*
X596156Y513386D01*
X596059Y513358D01*
X595994Y513322D01*
X595925Y513295D01*
X595843Y513237D01*
X595755Y513188D01*
X595679Y513123D01*
X595639Y513096D01*
X595615Y513069D01*
X595569Y513030D01*
X589776Y507237D01*
X578624Y507237D01*
X570737Y515124D01*
X570737Y526276D01*
X572323Y527862D01*
X572402Y527961D01*
X572486Y528055D01*
X572510Y528097D01*
X572540Y528135D01*
X572594Y528249D01*
X572655Y528360D01*
X572668Y528407D01*
X572689Y528450D01*
X572715Y528574D01*
X572750Y528696D01*
X572755Y528756D01*
X572762Y528791D01*
X572761Y528839D01*
X572769Y528939D01*
X572769Y534185D01*
X572768Y534200D01*
X572768Y534211D01*
X572760Y534270D01*
X572755Y534311D01*
X572748Y534437D01*
X572735Y534483D01*
X572729Y534531D01*
X572687Y534650D01*
X572652Y534772D01*
X572628Y534814D01*
X572612Y534860D01*
X572543Y534966D01*
X572482Y535076D01*
X572442Y535122D01*
X572423Y535152D01*
X572388Y535186D01*
X572323Y535262D01*
X558353Y549232D01*
X558275Y549295D01*
X558202Y549365D01*
X558138Y549403D01*
X558080Y549449D01*
X557989Y549492D01*
X557903Y549543D01*
X557832Y549566D01*
X557765Y549598D01*
X557667Y549619D01*
X557571Y549650D01*
X557497Y549656D01*
X557424Y549671D01*
X557324Y549670D01*
X557224Y549678D01*
X557150Y549667D01*
X557076Y549665D01*
X556979Y549641D01*
X556879Y549626D01*
X556810Y549599D01*
X556738Y549580D01*
X556648Y549534D01*
X556555Y549497D01*
X556494Y549455D01*
X556428Y549421D01*
X556351Y549356D01*
X556269Y549298D01*
X556219Y549243D01*
X556163Y549195D01*
X556103Y549114D01*
X556036Y549040D01*
X556000Y548974D01*
X555955Y548915D01*
X555916Y548822D01*
X555867Y548735D01*
X555847Y548663D01*
X555817Y548595D01*
X555800Y548496D01*
X555772Y548399D01*
X555764Y548299D01*
X555756Y548252D01*
X555758Y548216D01*
X555753Y548155D01*
X555753Y528177D01*
X555767Y528052D01*
X555774Y527926D01*
X555787Y527879D01*
X555793Y527831D01*
X555835Y527712D01*
X555870Y527591D01*
X555894Y527549D01*
X555910Y527503D01*
X555979Y527397D01*
X556040Y527287D01*
X556080Y527240D01*
X556099Y527210D01*
X556134Y527177D01*
X556199Y527100D01*
X557023Y526276D01*
X557023Y515124D01*
X549136Y507237D01*
X537984Y507237D01*
X531937Y513284D01*
X531917Y513300D01*
X531900Y513320D01*
X531780Y513408D01*
X531664Y513500D01*
X531640Y513512D01*
X531619Y513527D01*
X531483Y513586D01*
X531349Y513649D01*
X531323Y513655D01*
X531299Y513665D01*
X531153Y513691D01*
X531008Y513723D01*
X530982Y513722D01*
X530956Y513727D01*
X530808Y513719D01*
X530660Y513717D01*
X530634Y513710D01*
X530608Y513709D01*
X530466Y513668D01*
X530322Y513632D01*
X530299Y513620D01*
X530273Y513612D01*
X530144Y513540D01*
X530012Y513472D01*
X529992Y513455D01*
X529969Y513442D01*
X529783Y513284D01*
X523736Y507237D01*
X512584Y507237D01*
X506537Y513284D01*
X506517Y513300D01*
X506500Y513320D01*
X506380Y513408D01*
X506264Y513500D01*
X506240Y513512D01*
X506219Y513527D01*
X506083Y513586D01*
X505949Y513649D01*
X505923Y513655D01*
X505899Y513665D01*
X505753Y513691D01*
X505608Y513723D01*
X505582Y513722D01*
X505556Y513727D01*
X505408Y513719D01*
X505260Y513717D01*
X505234Y513710D01*
X505208Y513709D01*
X505066Y513668D01*
X504922Y513632D01*
X504899Y513620D01*
X504873Y513612D01*
X504744Y513540D01*
X504612Y513472D01*
X504592Y513455D01*
X504569Y513442D01*
X504383Y513284D01*
X498336Y507237D01*
X487184Y507237D01*
X481137Y513284D01*
X481117Y513300D01*
X481100Y513320D01*
X480980Y513408D01*
X480864Y513500D01*
X480840Y513512D01*
X480819Y513527D01*
X480683Y513586D01*
X480549Y513649D01*
X480523Y513655D01*
X480499Y513665D01*
X480353Y513691D01*
X480208Y513723D01*
X480182Y513722D01*
X480156Y513727D01*
X480008Y513719D01*
X479860Y513717D01*
X479834Y513710D01*
X479808Y513709D01*
X479666Y513668D01*
X479522Y513632D01*
X479499Y513620D01*
X479473Y513612D01*
X479344Y513540D01*
X479212Y513472D01*
X479192Y513455D01*
X479169Y513442D01*
X478983Y513284D01*
X472936Y507237D01*
X461784Y507237D01*
X455737Y513284D01*
X455717Y513300D01*
X455700Y513320D01*
X455580Y513408D01*
X455464Y513500D01*
X455440Y513512D01*
X455419Y513527D01*
X455283Y513586D01*
X455149Y513649D01*
X455123Y513655D01*
X455099Y513665D01*
X454953Y513691D01*
X454808Y513723D01*
X454782Y513722D01*
X454756Y513727D01*
X454608Y513719D01*
X454460Y513717D01*
X454434Y513710D01*
X454408Y513709D01*
X454266Y513668D01*
X454122Y513632D01*
X454099Y513620D01*
X454073Y513612D01*
X453944Y513540D01*
X453812Y513472D01*
X453792Y513455D01*
X453769Y513442D01*
X453583Y513284D01*
X447536Y507237D01*
X436384Y507237D01*
X430337Y513284D01*
X430317Y513300D01*
X430300Y513320D01*
X430180Y513408D01*
X430064Y513500D01*
X430040Y513512D01*
X430019Y513527D01*
X429883Y513586D01*
X429749Y513649D01*
X429723Y513655D01*
X429699Y513665D01*
X429553Y513691D01*
X429408Y513723D01*
X429382Y513722D01*
X429356Y513727D01*
X429208Y513719D01*
X429060Y513717D01*
X429034Y513710D01*
X429008Y513709D01*
X428866Y513668D01*
X428722Y513632D01*
X428699Y513620D01*
X428673Y513612D01*
X428544Y513540D01*
X428412Y513472D01*
X428392Y513455D01*
X428369Y513442D01*
X428183Y513284D01*
X422136Y507237D01*
X410984Y507237D01*
X403141Y515080D01*
X403121Y515096D01*
X403104Y515116D01*
X402984Y515204D01*
X402868Y515296D01*
X402844Y515308D01*
X402823Y515323D01*
X402687Y515382D01*
X402553Y515445D01*
X402527Y515451D01*
X402503Y515461D01*
X402357Y515488D01*
X402212Y515519D01*
X402186Y515518D01*
X402160Y515523D01*
X402012Y515515D01*
X401864Y515513D01*
X401838Y515506D01*
X401812Y515505D01*
X401670Y515464D01*
X401526Y515428D01*
X401502Y515416D01*
X401477Y515408D01*
X401348Y515336D01*
X401216Y515268D01*
X401196Y515251D01*
X401173Y515238D01*
X400987Y515080D01*
X395684Y509777D01*
X393659Y509777D01*
X393659Y519724D01*
X393656Y519750D01*
X393658Y519776D01*
X393636Y519923D01*
X393619Y520070D01*
X393611Y520095D01*
X393607Y520121D01*
X393552Y520258D01*
X393502Y520398D01*
X393488Y520420D01*
X393478Y520445D01*
X393393Y520566D01*
X393313Y520691D01*
X393300Y520703D01*
X393345Y520750D01*
X393359Y520773D01*
X393376Y520792D01*
X393448Y520922D01*
X393524Y521049D01*
X393532Y521074D01*
X393545Y521097D01*
X393585Y521240D01*
X393630Y521381D01*
X393632Y521407D01*
X393640Y521432D01*
X393659Y521676D01*
X393659Y531623D01*
X395684Y531623D01*
X400987Y526320D01*
X401007Y526304D01*
X401024Y526284D01*
X401144Y526196D01*
X401260Y526104D01*
X401284Y526092D01*
X401305Y526077D01*
X401441Y526018D01*
X401575Y525955D01*
X401601Y525949D01*
X401625Y525939D01*
X401771Y525912D01*
X401916Y525881D01*
X401942Y525882D01*
X401968Y525877D01*
X402116Y525885D01*
X402264Y525887D01*
X402290Y525894D01*
X402316Y525895D01*
X402458Y525936D01*
X402602Y525972D01*
X402625Y525984D01*
X402651Y525992D01*
X402780Y526064D01*
X402912Y526132D01*
X402932Y526149D01*
X402955Y526162D01*
X403141Y526320D01*
X404714Y527894D01*
X404793Y527993D01*
X404878Y528086D01*
X404901Y528129D01*
X404931Y528167D01*
X404985Y528281D01*
X405046Y528391D01*
X405059Y528438D01*
X405080Y528482D01*
X405106Y528605D01*
X405141Y528727D01*
X405146Y528787D01*
X405153Y528822D01*
X405152Y528871D01*
X405161Y528971D01*
X405161Y545846D01*
X405158Y545872D01*
X405160Y545898D01*
X405138Y546045D01*
X405121Y546192D01*
X405112Y546217D01*
X405108Y546243D01*
X405053Y546381D01*
X405003Y546520D01*
X404989Y546542D01*
X404979Y546567D01*
X404895Y546688D01*
X404814Y546813D01*
X404795Y546831D01*
X404780Y546853D01*
X404670Y546952D01*
X404563Y547055D01*
X404541Y547069D01*
X404521Y547086D01*
X404392Y547158D01*
X404264Y547234D01*
X404239Y547242D01*
X404216Y547255D01*
X404074Y547295D01*
X403932Y547340D01*
X403906Y547342D01*
X403881Y547350D01*
X403637Y547369D01*
X372376Y547369D01*
X368175Y549110D01*
X365281Y552003D01*
X365182Y552082D01*
X365088Y552166D01*
X365046Y552190D01*
X365008Y552220D01*
X364894Y552274D01*
X364783Y552335D01*
X364737Y552348D01*
X364693Y552369D01*
X364570Y552395D01*
X364448Y552430D01*
X364387Y552435D01*
X364353Y552442D01*
X364305Y552441D01*
X364204Y552449D01*
X363039Y552449D01*
X355599Y559889D01*
X355599Y570411D01*
X357449Y572261D01*
X357512Y572339D01*
X357582Y572412D01*
X357620Y572476D01*
X357666Y572534D01*
X357709Y572625D01*
X357760Y572711D01*
X357783Y572782D01*
X357815Y572849D01*
X357836Y572947D01*
X357867Y573043D01*
X357873Y573117D01*
X357888Y573190D01*
X357887Y573290D01*
X357895Y573390D01*
X357884Y573464D01*
X357882Y573538D01*
X357858Y573635D01*
X357843Y573735D01*
X357815Y573804D01*
X357797Y573876D01*
X357751Y573965D01*
X357714Y574059D01*
X357672Y574120D01*
X357638Y574186D01*
X357573Y574262D01*
X357515Y574345D01*
X357460Y574395D01*
X357412Y574451D01*
X357331Y574511D01*
X357257Y574578D01*
X357191Y574614D01*
X357132Y574659D01*
X357039Y574698D01*
X356951Y574747D01*
X356880Y574767D01*
X356812Y574797D01*
X356713Y574814D01*
X356616Y574842D01*
X356516Y574850D01*
X356469Y574858D01*
X356433Y574856D01*
X356372Y574861D01*
X296479Y574861D01*
X292278Y576602D01*
X271156Y597723D01*
X271057Y597802D01*
X270963Y597886D01*
X270921Y597910D01*
X270883Y597940D01*
X270769Y597994D01*
X270658Y598055D01*
X270612Y598068D01*
X270568Y598089D01*
X270445Y598115D01*
X270323Y598150D01*
X270262Y598155D01*
X270227Y598162D01*
X270179Y598161D01*
X270079Y598169D01*
X264426Y598169D01*
X260225Y599910D01*
X257939Y602195D01*
X254365Y605769D01*
X254248Y605862D01*
X254133Y605960D01*
X254111Y605971D01*
X254092Y605986D01*
X253956Y606050D01*
X253823Y606118D01*
X253799Y606124D01*
X253777Y606135D01*
X253630Y606166D01*
X253484Y606203D01*
X253460Y606203D01*
X253437Y606208D01*
X253287Y606205D01*
X253136Y606208D01*
X253112Y606202D01*
X253088Y606202D01*
X252943Y606165D01*
X252795Y606133D01*
X252774Y606123D01*
X252750Y606117D01*
X252616Y606048D01*
X252481Y605984D01*
X252462Y605968D01*
X252440Y605957D01*
X252326Y605860D01*
X252208Y605766D01*
X252193Y605747D01*
X252175Y605732D01*
X252086Y605611D01*
X251992Y605493D01*
X251979Y605467D01*
X251968Y605451D01*
X251949Y605408D01*
X251881Y605275D01*
X250990Y603125D01*
X247775Y599910D01*
X243574Y598169D01*
X232921Y598169D01*
X232795Y598155D01*
X232669Y598148D01*
X232623Y598135D01*
X232575Y598129D01*
X232456Y598087D01*
X232334Y598052D01*
X232292Y598028D01*
X232247Y598012D01*
X232140Y597943D01*
X232030Y597882D01*
X231984Y597842D01*
X231954Y597823D01*
X231923Y597791D01*
X231920Y597789D01*
X231914Y597783D01*
X231844Y597723D01*
X228502Y594382D01*
X224301Y592641D01*
X171594Y592641D01*
X167392Y594382D01*
X157482Y604292D01*
X155741Y608494D01*
X155741Y610283D01*
X155727Y610407D01*
X155721Y610532D01*
X155707Y610580D01*
X155701Y610629D01*
X155659Y610747D01*
X155625Y610867D01*
X155601Y610910D01*
X155584Y610957D01*
X155516Y611062D01*
X155455Y611171D01*
X155422Y611208D01*
X155395Y611250D01*
X155305Y611337D01*
X155221Y611429D01*
X155180Y611458D01*
X155144Y611492D01*
X155037Y611556D01*
X154934Y611627D01*
X154888Y611645D01*
X154845Y611671D01*
X154726Y611709D01*
X154610Y611755D01*
X154560Y611762D01*
X154513Y611777D01*
X154389Y611787D01*
X154265Y611805D01*
X154215Y611801D01*
X154166Y611805D01*
X154042Y611787D01*
X153918Y611776D01*
X153870Y611761D01*
X153821Y611753D01*
X153705Y611707D01*
X153586Y611669D01*
X153543Y611643D01*
X153497Y611625D01*
X153395Y611553D01*
X153287Y611489D01*
X153252Y611454D01*
X153211Y611426D01*
X153128Y611333D01*
X153038Y611246D01*
X153002Y611194D01*
X152978Y611167D01*
X152955Y611125D01*
X152899Y611044D01*
X152333Y610065D01*
X147835Y605567D01*
X142326Y602386D01*
X136181Y600739D01*
X129819Y600739D01*
X123674Y602386D01*
X118165Y605567D01*
X113667Y610065D01*
X112063Y612842D01*
X111989Y612943D01*
X111921Y613048D01*
X111885Y613082D01*
X111856Y613122D01*
X111760Y613203D01*
X111670Y613290D01*
X111628Y613315D01*
X111590Y613348D01*
X111478Y613405D01*
X111371Y613469D01*
X111324Y613484D01*
X111280Y613507D01*
X111158Y613537D01*
X111039Y613575D01*
X110990Y613579D01*
X110941Y613591D01*
X110816Y613593D01*
X110692Y613603D01*
X110643Y613596D01*
X110593Y613596D01*
X110471Y613570D01*
X110347Y613551D01*
X110301Y613533D01*
X110252Y613522D01*
X110139Y613469D01*
X110023Y613423D01*
X109983Y613394D01*
X109938Y613373D01*
X109840Y613295D01*
X109737Y613224D01*
X109704Y613187D01*
X109665Y613156D01*
X109587Y613058D01*
X109504Y612965D01*
X109480Y612921D01*
X109449Y612882D01*
X109396Y612769D01*
X109335Y612660D01*
X109322Y612612D01*
X109300Y612567D01*
X109274Y612445D01*
X109240Y612324D01*
X109235Y612262D01*
X109228Y612226D01*
X109229Y612178D01*
X109221Y612081D01*
X109221Y592106D01*
X109235Y591980D01*
X109242Y591854D01*
X109255Y591808D01*
X109261Y591760D01*
X109303Y591641D01*
X109338Y591519D01*
X109362Y591477D01*
X109378Y591431D01*
X109447Y591325D01*
X109508Y591215D01*
X109548Y591169D01*
X109567Y591139D01*
X109602Y591105D01*
X109667Y591029D01*
X239715Y460981D01*
X239793Y460918D01*
X239866Y460848D01*
X239930Y460810D01*
X239988Y460764D01*
X240079Y460721D01*
X240165Y460670D01*
X240236Y460647D01*
X240303Y460615D01*
X240401Y460594D01*
X240497Y460563D01*
X240571Y460557D01*
X240644Y460542D01*
X240744Y460543D01*
X240844Y460535D01*
X240918Y460546D01*
X240992Y460548D01*
X241089Y460572D01*
X241189Y460587D01*
X241258Y460614D01*
X241330Y460633D01*
X241420Y460679D01*
X241513Y460716D01*
X241574Y460758D01*
X241640Y460792D01*
X241717Y460857D01*
X241799Y460915D01*
X241849Y460970D01*
X241905Y461018D01*
X241965Y461099D01*
X242032Y461173D01*
X242068Y461239D01*
X242113Y461298D01*
X242152Y461391D01*
X242201Y461478D01*
X242221Y461550D01*
X242251Y461618D01*
X242268Y461717D01*
X242296Y461814D01*
X242304Y461914D01*
X242312Y461961D01*
X242310Y461997D01*
X242314Y462038D01*
X249160Y468885D01*
X258890Y468885D01*
X258921Y468860D01*
X259035Y468806D01*
X259146Y468745D01*
X259192Y468732D01*
X259236Y468711D01*
X259359Y468685D01*
X259481Y468650D01*
X259542Y468645D01*
X259577Y468638D01*
X259625Y468639D01*
X259725Y468631D01*
X446774Y468631D01*
X450975Y466890D01*
X720890Y196975D01*
X722631Y192774D01*
X722631Y46847D01*
X722642Y46747D01*
X722644Y46647D01*
X722662Y46575D01*
X722671Y46501D01*
X722704Y46407D01*
X722729Y46309D01*
X722763Y46243D01*
X722788Y46173D01*
X722843Y46089D01*
X722889Y45999D01*
X722937Y45943D01*
X722977Y45880D01*
X723049Y45810D01*
X723114Y45734D01*
X723174Y45690D01*
X723228Y45638D01*
X723314Y45586D01*
X723395Y45527D01*
X723463Y45497D01*
X723527Y45459D01*
X723623Y45429D01*
X723715Y45389D01*
X723788Y45376D01*
X723859Y45353D01*
X723959Y45345D01*
X724058Y45327D01*
X724132Y45331D01*
X724206Y45325D01*
X724306Y45340D01*
X724406Y45345D01*
X724477Y45366D01*
X724551Y45377D01*
X724644Y45414D01*
X724741Y45442D01*
X724806Y45478D01*
X724875Y45505D01*
X724957Y45563D01*
X725045Y45612D01*
X725121Y45677D01*
X725161Y45704D01*
X725185Y45731D01*
X725231Y45770D01*
X731024Y51563D01*
X742176Y51563D01*
X748223Y45516D01*
X748243Y45500D01*
X748260Y45480D01*
X748380Y45392D01*
X748496Y45300D01*
X748520Y45288D01*
X748541Y45273D01*
X748677Y45214D01*
X748811Y45151D01*
X748837Y45145D01*
X748861Y45135D01*
X749007Y45109D01*
X749152Y45077D01*
X749178Y45078D01*
X749204Y45073D01*
X749352Y45081D01*
X749500Y45083D01*
X749526Y45090D01*
X749552Y45091D01*
X749694Y45132D01*
X749838Y45168D01*
X749861Y45180D01*
X749887Y45188D01*
X750016Y45260D01*
X750148Y45328D01*
X750168Y45345D01*
X750191Y45358D01*
X750377Y45516D01*
X756424Y51563D01*
X767576Y51563D01*
X775463Y43676D01*
X775463Y39656D01*
X775474Y39556D01*
X775476Y39456D01*
X775494Y39383D01*
X775503Y39309D01*
X775536Y39215D01*
X775561Y39118D01*
X775595Y39051D01*
X775620Y38981D01*
X775675Y38897D01*
X775721Y38808D01*
X775769Y38751D01*
X775809Y38689D01*
X775881Y38619D01*
X775946Y38542D01*
X776006Y38498D01*
X776060Y38446D01*
X776146Y38395D01*
X776227Y38335D01*
X776295Y38306D01*
X776359Y38268D01*
X776455Y38237D01*
X776547Y38197D01*
X776620Y38184D01*
X776691Y38161D01*
X776791Y38153D01*
X776890Y38135D01*
X776964Y38139D01*
X777038Y38133D01*
X777138Y38148D01*
G37*
%LPC*%
G36*
X319772Y236219D02*
X319772Y236219D01*
X317625Y237109D01*
X315981Y238752D01*
X315092Y240900D01*
X315092Y252481D01*
X317383Y256451D01*
X321352Y258742D01*
X332934Y258742D01*
X335081Y257853D01*
X335481Y257453D01*
X335482Y257452D01*
X335483Y257451D01*
X335616Y257346D01*
X335754Y257236D01*
X335755Y257236D01*
X335756Y257235D01*
X335909Y257163D01*
X336069Y257087D01*
X336070Y257087D01*
X336072Y257087D01*
X336243Y257050D01*
X336410Y257014D01*
X336411Y257014D01*
X336412Y257014D01*
X336595Y257017D01*
X336758Y257020D01*
X336759Y257020D01*
X336761Y257020D01*
X336934Y257064D01*
X337096Y257105D01*
X337097Y257106D01*
X337099Y257106D01*
X337320Y257211D01*
X339972Y258742D01*
X345039Y258742D01*
X346840Y257702D01*
X346841Y257702D01*
X346842Y257701D01*
X347007Y257630D01*
X347159Y257564D01*
X347161Y257564D01*
X347162Y257563D01*
X347333Y257532D01*
X347502Y257501D01*
X347504Y257502D01*
X347505Y257501D01*
X347673Y257510D01*
X347850Y257519D01*
X347852Y257519D01*
X347853Y257519D01*
X348013Y257565D01*
X348185Y257615D01*
X348187Y257615D01*
X348188Y257616D01*
X348340Y257701D01*
X348490Y257784D01*
X348491Y257785D01*
X348492Y257786D01*
X348555Y257840D01*
X348725Y257910D01*
X348792Y257947D01*
X348863Y257975D01*
X348944Y258032D01*
X349030Y258079D01*
X349087Y258131D01*
X349149Y258174D01*
X349215Y258247D01*
X349288Y258314D01*
X349332Y258376D01*
X349383Y258433D01*
X349430Y258519D01*
X349486Y258600D01*
X349514Y258671D01*
X349551Y258738D01*
X349578Y258833D01*
X349614Y258924D01*
X349625Y259000D01*
X349646Y259074D01*
X349658Y259222D01*
X349665Y259269D01*
X349663Y259288D01*
X349666Y259317D01*
X349666Y259480D01*
X350555Y261628D01*
X352199Y263271D01*
X354346Y264161D01*
X356671Y264161D01*
X358818Y263271D01*
X359381Y262708D01*
X359402Y262692D01*
X359419Y262672D01*
X359538Y262584D01*
X359654Y262491D01*
X359678Y262480D01*
X359699Y262465D01*
X359835Y262406D01*
X359969Y262343D01*
X359995Y262337D01*
X360019Y262327D01*
X360166Y262300D01*
X360310Y262269D01*
X360336Y262270D01*
X360362Y262265D01*
X360511Y262273D01*
X360659Y262275D01*
X360684Y262282D01*
X360710Y262283D01*
X360852Y262324D01*
X360997Y262360D01*
X361020Y262372D01*
X361045Y262379D01*
X361174Y262452D01*
X361306Y262520D01*
X361326Y262537D01*
X361349Y262550D01*
X361535Y262708D01*
X362099Y263271D01*
X364246Y264161D01*
X366570Y264161D01*
X368718Y263271D01*
X370361Y261628D01*
X371232Y259526D01*
X371293Y259416D01*
X371347Y259303D01*
X371378Y259264D01*
X371401Y259221D01*
X371486Y259128D01*
X371564Y259030D01*
X371603Y258999D01*
X371635Y258963D01*
X371739Y258892D01*
X371837Y258814D01*
X371882Y258793D01*
X371922Y258765D01*
X372039Y258719D01*
X372153Y258665D01*
X372201Y258655D01*
X372246Y258637D01*
X372371Y258619D01*
X372494Y258593D01*
X372543Y258594D01*
X372591Y258586D01*
X372716Y258597D01*
X372842Y258599D01*
X372890Y258611D01*
X372938Y258615D01*
X373058Y258654D01*
X373180Y258685D01*
X373236Y258711D01*
X373270Y258722D01*
X373303Y258742D01*
X378385Y258742D01*
X381496Y256946D01*
X381635Y256886D01*
X381772Y256821D01*
X381795Y256817D01*
X381816Y256807D01*
X381965Y256780D01*
X382113Y256749D01*
X382136Y256749D01*
X382159Y256745D01*
X382310Y256752D01*
X382461Y256755D01*
X382484Y256761D01*
X382507Y256762D01*
X382652Y256804D01*
X382799Y256841D01*
X382824Y256853D01*
X382842Y256858D01*
X382883Y256881D01*
X383020Y256946D01*
X386312Y258847D01*
X386353Y258866D01*
X386446Y258899D01*
X386510Y258941D01*
X386579Y258974D01*
X386656Y259035D01*
X386739Y259088D01*
X386792Y259143D01*
X386852Y259191D01*
X386913Y259268D01*
X386981Y259339D01*
X387020Y259405D01*
X387068Y259465D01*
X387136Y259598D01*
X387160Y259638D01*
X387166Y259656D01*
X387179Y259682D01*
X387985Y261628D01*
X389628Y263271D01*
X391776Y264161D01*
X394100Y264161D01*
X396248Y263271D01*
X397891Y261628D01*
X398781Y259480D01*
X398781Y240900D01*
X397891Y238752D01*
X396248Y237109D01*
X394100Y236219D01*
X386131Y236219D01*
X383020Y238016D01*
X382881Y238076D01*
X382745Y238140D01*
X382721Y238145D01*
X382700Y238154D01*
X382552Y238181D01*
X382404Y238213D01*
X382380Y238212D01*
X382357Y238216D01*
X382206Y238209D01*
X382055Y238206D01*
X382032Y238200D01*
X382009Y238199D01*
X381864Y238157D01*
X381717Y238120D01*
X381692Y238108D01*
X381674Y238103D01*
X381633Y238080D01*
X381496Y238016D01*
X378385Y236219D01*
X373318Y236219D01*
X369916Y238184D01*
X369778Y238243D01*
X369641Y238308D01*
X369618Y238313D01*
X369596Y238322D01*
X369448Y238349D01*
X369300Y238381D01*
X369276Y238380D01*
X369253Y238384D01*
X369103Y238377D01*
X368952Y238374D01*
X368929Y238368D01*
X368905Y238367D01*
X368760Y238326D01*
X368614Y238288D01*
X368588Y238276D01*
X368570Y238271D01*
X368529Y238249D01*
X368393Y238184D01*
X364990Y236219D01*
X360634Y236219D01*
X358406Y237142D01*
X358361Y237178D01*
X358360Y237178D01*
X358358Y237179D01*
X358202Y237253D01*
X358046Y237327D01*
X358044Y237327D01*
X358043Y237328D01*
X357869Y237365D01*
X357705Y237400D01*
X357704Y237400D01*
X357702Y237400D01*
X357526Y237397D01*
X357357Y237394D01*
X357355Y237394D01*
X357354Y237394D01*
X357187Y237351D01*
X357019Y237309D01*
X357017Y237309D01*
X357016Y237308D01*
X356795Y237203D01*
X355091Y236219D01*
X350734Y236219D01*
X348536Y237130D01*
X348405Y237234D01*
X348404Y237234D01*
X348403Y237235D01*
X348247Y237308D01*
X348090Y237382D01*
X348089Y237383D01*
X348088Y237383D01*
X347910Y237421D01*
X347749Y237456D01*
X347748Y237456D01*
X347747Y237456D01*
X347564Y237453D01*
X347401Y237450D01*
X347400Y237450D01*
X347398Y237449D01*
X347229Y237407D01*
X347063Y237365D01*
X347062Y237364D01*
X347060Y237364D01*
X346840Y237259D01*
X345039Y236219D01*
X339972Y236219D01*
X337320Y237750D01*
X337318Y237751D01*
X337317Y237752D01*
X337160Y237820D01*
X337000Y237889D01*
X336999Y237889D01*
X336997Y237890D01*
X336818Y237922D01*
X336657Y237951D01*
X336656Y237951D01*
X336654Y237952D01*
X336483Y237943D01*
X336309Y237934D01*
X336307Y237934D01*
X336306Y237934D01*
X336146Y237887D01*
X335974Y237838D01*
X335973Y237837D01*
X335971Y237837D01*
X335817Y237750D01*
X335669Y237668D01*
X335668Y237668D01*
X335667Y237667D01*
X335481Y237508D01*
X335081Y237109D01*
X332934Y236219D01*
X330609Y236219D01*
X329645Y236619D01*
X329524Y236653D01*
X329405Y236696D01*
X329357Y236701D01*
X329310Y236714D01*
X329184Y236720D01*
X329058Y236735D01*
X329010Y236729D01*
X328962Y236731D01*
X328838Y236709D01*
X328712Y236694D01*
X328654Y236675D01*
X328619Y236669D01*
X328575Y236649D01*
X328479Y236619D01*
X327515Y236219D01*
X325191Y236219D01*
X324227Y236619D01*
X324105Y236653D01*
X323986Y236696D01*
X323938Y236701D01*
X323891Y236714D01*
X323765Y236720D01*
X323640Y236735D01*
X323592Y236729D01*
X323543Y236731D01*
X323419Y236709D01*
X323293Y236694D01*
X323236Y236675D01*
X323200Y236669D01*
X323156Y236649D01*
X323061Y236619D01*
X322097Y236219D01*
X319772Y236219D01*
G37*
%LPD*%
%LPC*%
G36*
X309384Y507237D02*
X309384Y507237D01*
X301497Y515124D01*
X301497Y526276D01*
X309384Y534163D01*
X320536Y534163D01*
X326583Y528116D01*
X326603Y528100D01*
X326620Y528080D01*
X326740Y527992D01*
X326856Y527900D01*
X326880Y527888D01*
X326901Y527873D01*
X327037Y527814D01*
X327171Y527751D01*
X327197Y527745D01*
X327221Y527735D01*
X327367Y527709D01*
X327512Y527677D01*
X327538Y527678D01*
X327564Y527673D01*
X327712Y527681D01*
X327860Y527683D01*
X327886Y527690D01*
X327912Y527691D01*
X328054Y527732D01*
X328198Y527768D01*
X328221Y527780D01*
X328247Y527788D01*
X328376Y527860D01*
X328508Y527928D01*
X328528Y527945D01*
X328551Y527958D01*
X328737Y528116D01*
X334784Y534163D01*
X345936Y534163D01*
X351983Y528116D01*
X352003Y528100D01*
X352020Y528080D01*
X352140Y527992D01*
X352256Y527900D01*
X352280Y527888D01*
X352301Y527873D01*
X352437Y527814D01*
X352571Y527751D01*
X352597Y527745D01*
X352621Y527735D01*
X352767Y527709D01*
X352912Y527677D01*
X352938Y527678D01*
X352964Y527673D01*
X353112Y527681D01*
X353260Y527683D01*
X353286Y527690D01*
X353312Y527691D01*
X353454Y527732D01*
X353598Y527768D01*
X353621Y527780D01*
X353647Y527788D01*
X353776Y527860D01*
X353908Y527928D01*
X353928Y527945D01*
X353951Y527958D01*
X354137Y528116D01*
X360184Y534163D01*
X371336Y534163D01*
X379179Y526320D01*
X379199Y526304D01*
X379216Y526284D01*
X379336Y526196D01*
X379452Y526104D01*
X379476Y526092D01*
X379497Y526077D01*
X379633Y526018D01*
X379767Y525955D01*
X379793Y525949D01*
X379817Y525939D01*
X379963Y525912D01*
X380108Y525881D01*
X380134Y525882D01*
X380160Y525877D01*
X380308Y525885D01*
X380456Y525887D01*
X380482Y525894D01*
X380508Y525895D01*
X380650Y525936D01*
X380794Y525972D01*
X380818Y525984D01*
X380843Y525992D01*
X380972Y526064D01*
X381104Y526132D01*
X381124Y526149D01*
X381147Y526162D01*
X381333Y526320D01*
X386636Y531623D01*
X388661Y531623D01*
X388661Y521676D01*
X388664Y521650D01*
X388662Y521624D01*
X388684Y521477D01*
X388701Y521330D01*
X388709Y521305D01*
X388713Y521279D01*
X388768Y521142D01*
X388818Y521002D01*
X388832Y520980D01*
X388842Y520955D01*
X388927Y520834D01*
X389007Y520709D01*
X389020Y520697D01*
X388975Y520650D01*
X388961Y520627D01*
X388944Y520608D01*
X388872Y520478D01*
X388796Y520351D01*
X388788Y520326D01*
X388775Y520303D01*
X388735Y520160D01*
X388690Y520019D01*
X388687Y519993D01*
X388680Y519968D01*
X388661Y519724D01*
X388661Y509777D01*
X386636Y509777D01*
X381333Y515080D01*
X381313Y515096D01*
X381296Y515116D01*
X381176Y515204D01*
X381060Y515296D01*
X381036Y515308D01*
X381015Y515323D01*
X380879Y515382D01*
X380745Y515445D01*
X380719Y515451D01*
X380695Y515461D01*
X380549Y515488D01*
X380404Y515519D01*
X380378Y515518D01*
X380352Y515523D01*
X380204Y515515D01*
X380056Y515513D01*
X380030Y515506D01*
X380004Y515505D01*
X379862Y515464D01*
X379718Y515428D01*
X379695Y515416D01*
X379669Y515408D01*
X379540Y515336D01*
X379408Y515268D01*
X379388Y515251D01*
X379365Y515238D01*
X379179Y515080D01*
X371336Y507237D01*
X360184Y507237D01*
X354137Y513284D01*
X354117Y513300D01*
X354100Y513320D01*
X353980Y513408D01*
X353864Y513500D01*
X353840Y513512D01*
X353819Y513527D01*
X353683Y513586D01*
X353549Y513649D01*
X353523Y513655D01*
X353499Y513665D01*
X353353Y513691D01*
X353208Y513723D01*
X353182Y513722D01*
X353156Y513727D01*
X353008Y513719D01*
X352860Y513717D01*
X352834Y513710D01*
X352808Y513709D01*
X352666Y513668D01*
X352522Y513632D01*
X352499Y513620D01*
X352473Y513612D01*
X352344Y513540D01*
X352212Y513472D01*
X352192Y513455D01*
X352169Y513442D01*
X351983Y513284D01*
X345936Y507237D01*
X334784Y507237D01*
X328737Y513284D01*
X328717Y513300D01*
X328700Y513320D01*
X328580Y513408D01*
X328464Y513500D01*
X328440Y513512D01*
X328419Y513527D01*
X328283Y513586D01*
X328149Y513649D01*
X328123Y513655D01*
X328099Y513665D01*
X327953Y513691D01*
X327808Y513723D01*
X327782Y513722D01*
X327756Y513727D01*
X327608Y513719D01*
X327460Y513717D01*
X327434Y513710D01*
X327408Y513709D01*
X327266Y513668D01*
X327122Y513632D01*
X327099Y513620D01*
X327073Y513612D01*
X326944Y513540D01*
X326812Y513472D01*
X326792Y513455D01*
X326769Y513442D01*
X326583Y513284D01*
X320536Y507237D01*
X309384Y507237D01*
G37*
%LPD*%
%LPC*%
G36*
X611676Y693673D02*
X611676Y693673D01*
X605188Y696361D01*
X600222Y701327D01*
X597534Y707815D01*
X597534Y739985D01*
X600222Y746473D01*
X605188Y751439D01*
X611676Y754127D01*
X618700Y754127D01*
X625188Y751439D01*
X630154Y746473D01*
X632842Y739985D01*
X632842Y707815D01*
X630154Y701327D01*
X625188Y696361D01*
X618700Y693673D01*
X611676Y693673D01*
G37*
%LPD*%
%LPC*%
G36*
X332276Y693673D02*
X332276Y693673D01*
X325788Y696361D01*
X320822Y701327D01*
X318134Y707815D01*
X318134Y739985D01*
X320822Y746473D01*
X325788Y751439D01*
X332276Y754127D01*
X339300Y754127D01*
X345788Y751439D01*
X350754Y746473D01*
X353442Y739985D01*
X353442Y707815D01*
X350754Y701327D01*
X345788Y696361D01*
X339300Y693673D01*
X332276Y693673D01*
G37*
%LPD*%
%LPC*%
G36*
X879819Y600739D02*
X879819Y600739D01*
X873674Y602386D01*
X868165Y605567D01*
X863667Y610065D01*
X860486Y615574D01*
X858839Y621719D01*
X858839Y628081D01*
X860486Y634226D01*
X863667Y639735D01*
X868165Y644233D01*
X873674Y647414D01*
X879819Y649061D01*
X886181Y649061D01*
X892326Y647414D01*
X897835Y644233D01*
X902333Y639735D01*
X905514Y634226D01*
X907161Y628081D01*
X907161Y621719D01*
X905514Y615574D01*
X902333Y610065D01*
X897835Y605567D01*
X892326Y602386D01*
X886181Y600739D01*
X879819Y600739D01*
G37*
%LPD*%
%LPC*%
G36*
X213142Y61324D02*
X213142Y61324D01*
X207307Y63741D01*
X202841Y68207D01*
X200424Y74042D01*
X200424Y80358D01*
X202841Y86193D01*
X207307Y90659D01*
X213142Y93076D01*
X219458Y93076D01*
X225293Y90659D01*
X229759Y86193D01*
X232176Y80358D01*
X232176Y74042D01*
X229759Y68207D01*
X225293Y63741D01*
X219458Y61324D01*
X213142Y61324D01*
G37*
%LPD*%
%LPC*%
G36*
X492542Y61324D02*
X492542Y61324D01*
X486707Y63741D01*
X482241Y68207D01*
X479824Y74042D01*
X479824Y80358D01*
X482241Y86193D01*
X486707Y90659D01*
X492542Y93076D01*
X498858Y93076D01*
X504693Y90659D01*
X509159Y86193D01*
X511576Y80358D01*
X511576Y74042D01*
X509159Y68207D01*
X504693Y63741D01*
X498858Y61324D01*
X492542Y61324D01*
G37*
%LPD*%
%LPC*%
G36*
X542542Y61324D02*
X542542Y61324D01*
X536707Y63741D01*
X532241Y68207D01*
X529824Y74042D01*
X529824Y80358D01*
X532241Y86193D01*
X536707Y90659D01*
X542542Y93076D01*
X548858Y93076D01*
X554693Y90659D01*
X559159Y86193D01*
X561576Y80358D01*
X561576Y74042D01*
X559159Y68207D01*
X554693Y63741D01*
X548858Y61324D01*
X542542Y61324D01*
G37*
%LPD*%
%LPC*%
G36*
X263142Y186324D02*
X263142Y186324D01*
X257307Y188741D01*
X252841Y193207D01*
X250424Y199042D01*
X250424Y205358D01*
X252841Y211193D01*
X257307Y215659D01*
X263142Y218076D01*
X269458Y218076D01*
X275293Y215659D01*
X279759Y211193D01*
X282176Y205358D01*
X282176Y199042D01*
X279759Y193207D01*
X275293Y188741D01*
X269458Y186324D01*
X263142Y186324D01*
G37*
%LPD*%
%LPC*%
G36*
X821942Y186324D02*
X821942Y186324D01*
X816107Y188741D01*
X811641Y193207D01*
X809224Y199042D01*
X809224Y205358D01*
X811641Y211193D01*
X816107Y215659D01*
X821942Y218076D01*
X828258Y218076D01*
X834093Y215659D01*
X838559Y211193D01*
X840976Y205358D01*
X840976Y199042D01*
X838559Y193207D01*
X834093Y188741D01*
X828258Y186324D01*
X821942Y186324D01*
G37*
%LPD*%
%LPC*%
G36*
X263142Y61324D02*
X263142Y61324D01*
X257307Y63741D01*
X252841Y68207D01*
X250424Y74042D01*
X250424Y80358D01*
X252841Y86193D01*
X257307Y90659D01*
X263142Y93076D01*
X269458Y93076D01*
X275293Y90659D01*
X279759Y86193D01*
X282176Y80358D01*
X282176Y74042D01*
X279759Y68207D01*
X275293Y63741D01*
X269458Y61324D01*
X263142Y61324D01*
G37*
%LPD*%
G36*
X189042Y624396D02*
X189042Y624396D01*
X189068Y624394D01*
X189215Y624416D01*
X189362Y624433D01*
X189387Y624442D01*
X189413Y624446D01*
X189551Y624500D01*
X189690Y624550D01*
X189712Y624565D01*
X189737Y624574D01*
X189858Y624659D01*
X189983Y624739D01*
X190001Y624758D01*
X190023Y624773D01*
X190122Y624883D01*
X190225Y624990D01*
X190239Y625013D01*
X190256Y625032D01*
X190328Y625162D01*
X190404Y625289D01*
X190412Y625314D01*
X190425Y625337D01*
X190465Y625480D01*
X190510Y625621D01*
X190512Y625647D01*
X190520Y625672D01*
X190539Y625916D01*
X190539Y636839D01*
X197733Y636839D01*
X198379Y636666D01*
X198958Y636331D01*
X199369Y635920D01*
X199447Y635858D01*
X199520Y635788D01*
X199584Y635750D01*
X199642Y635704D01*
X199733Y635661D01*
X199819Y635609D01*
X199890Y635586D01*
X199957Y635555D01*
X200055Y635534D01*
X200151Y635503D01*
X200225Y635497D01*
X200298Y635481D01*
X200398Y635483D01*
X200498Y635475D01*
X200572Y635486D01*
X200646Y635487D01*
X200744Y635512D01*
X200843Y635527D01*
X200912Y635554D01*
X200984Y635572D01*
X201073Y635618D01*
X201167Y635655D01*
X201228Y635698D01*
X201294Y635732D01*
X201371Y635797D01*
X201453Y635854D01*
X201503Y635909D01*
X201559Y635958D01*
X201619Y636039D01*
X201686Y636113D01*
X201722Y636178D01*
X201767Y636238D01*
X201806Y636330D01*
X201855Y636418D01*
X201875Y636490D01*
X201905Y636558D01*
X201922Y636657D01*
X201950Y636754D01*
X201958Y636854D01*
X201966Y636901D01*
X201964Y636937D01*
X201969Y636997D01*
X201969Y647474D01*
X203821Y651943D01*
X203862Y652088D01*
X203908Y652231D01*
X203910Y652255D01*
X203916Y652278D01*
X203924Y652429D01*
X203936Y652578D01*
X203932Y652602D01*
X203933Y652626D01*
X203906Y652774D01*
X203884Y652923D01*
X203875Y652945D01*
X203871Y652969D01*
X203811Y653107D01*
X203755Y653247D01*
X203741Y653267D01*
X203732Y653289D01*
X203642Y653410D01*
X203556Y653533D01*
X203538Y653549D01*
X203524Y653569D01*
X203409Y653666D01*
X203297Y653766D01*
X203276Y653778D01*
X203258Y653794D01*
X203124Y653862D01*
X202992Y653935D01*
X202969Y653941D01*
X202948Y653952D01*
X202802Y653989D01*
X202657Y654030D01*
X202628Y654032D01*
X202609Y654037D01*
X202562Y654037D01*
X202413Y654049D01*
X198985Y654049D01*
X198860Y654035D01*
X198733Y654028D01*
X198687Y654015D01*
X198639Y654009D01*
X198520Y653967D01*
X198399Y653932D01*
X198357Y653908D01*
X198311Y653892D01*
X198205Y653823D01*
X198094Y653762D01*
X198048Y653722D01*
X198018Y653703D01*
X197985Y653668D01*
X197908Y653603D01*
X183744Y639439D01*
X183682Y639361D01*
X183612Y639288D01*
X183574Y639224D01*
X183528Y639166D01*
X183485Y639075D01*
X183433Y638989D01*
X183410Y638918D01*
X183379Y638851D01*
X183357Y638753D01*
X183327Y638657D01*
X183321Y638583D01*
X183305Y638510D01*
X183307Y638410D01*
X183299Y638310D01*
X183310Y638236D01*
X183311Y638162D01*
X183336Y638065D01*
X183351Y637965D01*
X183378Y637896D01*
X183396Y637824D01*
X183442Y637734D01*
X183479Y637641D01*
X183522Y637580D01*
X183556Y637514D01*
X183621Y637437D01*
X183678Y637355D01*
X183733Y637305D01*
X183782Y637249D01*
X183862Y637189D01*
X183937Y637122D01*
X184002Y637086D01*
X184062Y637041D01*
X184154Y637002D01*
X184242Y636953D01*
X184314Y636933D01*
X184382Y636903D01*
X184481Y636886D01*
X184577Y636858D01*
X184678Y636850D01*
X184725Y636842D01*
X184761Y636844D01*
X184821Y636839D01*
X185461Y636839D01*
X185461Y625916D01*
X185464Y625890D01*
X185462Y625864D01*
X185484Y625717D01*
X185501Y625570D01*
X185509Y625545D01*
X185513Y625519D01*
X185568Y625382D01*
X185618Y625242D01*
X185632Y625220D01*
X185642Y625195D01*
X185727Y625074D01*
X185807Y624949D01*
X185826Y624931D01*
X185841Y624909D01*
X185951Y624810D01*
X186058Y624707D01*
X186080Y624693D01*
X186100Y624676D01*
X186230Y624604D01*
X186357Y624528D01*
X186382Y624520D01*
X186405Y624507D01*
X186548Y624467D01*
X186689Y624422D01*
X186715Y624420D01*
X186740Y624413D01*
X186984Y624393D01*
X189016Y624393D01*
X189042Y624396D01*
G37*
%LPC*%
G36*
X73659Y726947D02*
X73659Y726947D01*
X73659Y751303D01*
X75480Y750815D01*
X77311Y750057D01*
X79027Y749066D01*
X80599Y747861D01*
X82000Y746460D01*
X83205Y744888D01*
X84196Y743172D01*
X84954Y741341D01*
X85467Y739428D01*
X85726Y737464D01*
X85726Y726947D01*
X73659Y726947D01*
G37*
%LPD*%
%LPC*%
G36*
X378459Y726947D02*
X378459Y726947D01*
X378459Y751303D01*
X380280Y750815D01*
X382111Y750057D01*
X383827Y749066D01*
X385399Y747861D01*
X386800Y746460D01*
X388005Y744888D01*
X388996Y743172D01*
X389754Y741341D01*
X390267Y739428D01*
X390526Y737464D01*
X390526Y726947D01*
X378459Y726947D01*
G37*
%LPD*%
%LPC*%
G36*
X276859Y726947D02*
X276859Y726947D01*
X276859Y751303D01*
X278680Y750815D01*
X280511Y750057D01*
X282227Y749066D01*
X283799Y747861D01*
X285200Y746460D01*
X286405Y744888D01*
X287396Y743172D01*
X288154Y741341D01*
X288667Y739428D01*
X288926Y737464D01*
X288926Y726947D01*
X276859Y726947D01*
G37*
%LPD*%
%LPC*%
G36*
X175259Y726947D02*
X175259Y726947D01*
X175259Y751303D01*
X177080Y750815D01*
X178911Y750057D01*
X180627Y749066D01*
X182199Y747861D01*
X183600Y746460D01*
X184805Y744888D01*
X185796Y743172D01*
X186554Y741341D01*
X187067Y739428D01*
X187326Y737464D01*
X187326Y726947D01*
X175259Y726947D01*
G37*
%LPD*%
%LPC*%
G36*
X73659Y720853D02*
X73659Y720853D01*
X85726Y720853D01*
X85726Y710336D01*
X85467Y708372D01*
X84954Y706459D01*
X84196Y704628D01*
X83205Y702912D01*
X82999Y702643D01*
X82999Y702642D01*
X82998Y702642D01*
X82000Y701340D01*
X80599Y699939D01*
X79027Y698734D01*
X77311Y697743D01*
X75480Y696985D01*
X73659Y696497D01*
X73659Y720853D01*
G37*
%LPD*%
%LPC*%
G36*
X378459Y720853D02*
X378459Y720853D01*
X390526Y720853D01*
X390526Y710336D01*
X390267Y708372D01*
X389754Y706459D01*
X388996Y704628D01*
X388005Y702912D01*
X387799Y702643D01*
X387799Y702642D01*
X387798Y702642D01*
X386800Y701340D01*
X385399Y699939D01*
X383827Y698734D01*
X382111Y697743D01*
X380280Y696985D01*
X378459Y696497D01*
X378459Y720853D01*
G37*
%LPD*%
%LPC*%
G36*
X276859Y720853D02*
X276859Y720853D01*
X288926Y720853D01*
X288926Y710336D01*
X288667Y708372D01*
X288154Y706459D01*
X287396Y704628D01*
X286405Y702912D01*
X286199Y702643D01*
X286199Y702642D01*
X286198Y702642D01*
X285200Y701340D01*
X283799Y699939D01*
X282227Y698734D01*
X280511Y697743D01*
X278680Y696985D01*
X276859Y696497D01*
X276859Y720853D01*
G37*
%LPD*%
%LPC*%
G36*
X55498Y726947D02*
X55498Y726947D01*
X55498Y737464D01*
X55757Y739428D01*
X56270Y741341D01*
X57028Y743172D01*
X58019Y744888D01*
X58077Y744964D01*
X59224Y746460D01*
X60625Y747861D01*
X62197Y749066D01*
X63913Y750057D01*
X65744Y750815D01*
X67565Y751303D01*
X67565Y726947D01*
X55498Y726947D01*
G37*
%LPD*%
%LPC*%
G36*
X157098Y726947D02*
X157098Y726947D01*
X157098Y737464D01*
X157357Y739428D01*
X157870Y741341D01*
X158628Y743172D01*
X159619Y744888D01*
X159677Y744964D01*
X160824Y746460D01*
X162225Y747861D01*
X163797Y749066D01*
X165513Y750057D01*
X167344Y750815D01*
X169165Y751303D01*
X169165Y726947D01*
X157098Y726947D01*
G37*
%LPD*%
%LPC*%
G36*
X258698Y726947D02*
X258698Y726947D01*
X258698Y737464D01*
X258957Y739428D01*
X259470Y741341D01*
X260228Y743172D01*
X261219Y744888D01*
X261277Y744964D01*
X262424Y746460D01*
X263825Y747861D01*
X265397Y749066D01*
X267113Y750057D01*
X268944Y750815D01*
X270765Y751303D01*
X270765Y726947D01*
X258698Y726947D01*
G37*
%LPD*%
%LPC*%
G36*
X360298Y726947D02*
X360298Y726947D01*
X360298Y737464D01*
X360557Y739428D01*
X361070Y741341D01*
X361828Y743172D01*
X362819Y744888D01*
X362877Y744964D01*
X364024Y746460D01*
X365425Y747861D01*
X366997Y749066D01*
X368713Y750057D01*
X370544Y750815D01*
X372365Y751303D01*
X372365Y726947D01*
X360298Y726947D01*
G37*
%LPD*%
%LPC*%
G36*
X268944Y696985D02*
X268944Y696985D01*
X267113Y697743D01*
X265397Y698734D01*
X263825Y699939D01*
X262424Y701340D01*
X261219Y702912D01*
X260228Y704628D01*
X259470Y706459D01*
X258957Y708372D01*
X258698Y710336D01*
X258698Y720853D01*
X270765Y720853D01*
X270765Y696497D01*
X268944Y696985D01*
G37*
%LPD*%
%LPC*%
G36*
X370544Y696985D02*
X370544Y696985D01*
X368713Y697743D01*
X366997Y698734D01*
X365425Y699939D01*
X364024Y701340D01*
X362819Y702912D01*
X361828Y704628D01*
X361070Y706459D01*
X360557Y708372D01*
X360298Y710336D01*
X360298Y720853D01*
X372365Y720853D01*
X372365Y696497D01*
X370544Y696985D01*
G37*
%LPD*%
%LPC*%
G36*
X65744Y696985D02*
X65744Y696985D01*
X63913Y697743D01*
X62197Y698734D01*
X60625Y699939D01*
X59224Y701340D01*
X58019Y702912D01*
X57028Y704628D01*
X56270Y706459D01*
X55757Y708372D01*
X55498Y710336D01*
X55498Y720853D01*
X67565Y720853D01*
X67565Y696497D01*
X65744Y696985D01*
G37*
%LPD*%
%LPC*%
G36*
X549147Y765047D02*
X549147Y765047D01*
X549147Y774447D01*
X556986Y774447D01*
X558921Y774140D01*
X560784Y773535D01*
X562530Y772645D01*
X564114Y771494D01*
X565500Y770108D01*
X566651Y768524D01*
X567541Y766778D01*
X568103Y765047D01*
X549147Y765047D01*
G37*
%LPD*%
%LPC*%
G36*
X524097Y765047D02*
X524097Y765047D01*
X524659Y766778D01*
X525549Y768524D01*
X526700Y770108D01*
X528086Y771494D01*
X529670Y772645D01*
X531416Y773535D01*
X533279Y774140D01*
X535214Y774447D01*
X543053Y774447D01*
X543053Y765047D01*
X524097Y765047D01*
G37*
%LPD*%
%LPC*%
G36*
X549147Y749553D02*
X549147Y749553D01*
X549147Y758953D01*
X568103Y758953D01*
X567541Y757222D01*
X566651Y755476D01*
X565500Y753892D01*
X564114Y752506D01*
X562530Y751355D01*
X560784Y750465D01*
X558921Y749860D01*
X556986Y749553D01*
X549147Y749553D01*
G37*
%LPD*%
%LPC*%
G36*
X535214Y749553D02*
X535214Y749553D01*
X533279Y749860D01*
X531416Y750465D01*
X529670Y751355D01*
X528086Y752506D01*
X526700Y753892D01*
X525549Y755476D01*
X524659Y757222D01*
X524097Y758953D01*
X543053Y758953D01*
X543053Y749553D01*
X535214Y749553D01*
G37*
%LPD*%
%LPC*%
G36*
X968755Y484631D02*
X968755Y484631D01*
X968755Y489924D01*
X968980Y491346D01*
X969425Y492714D01*
X970079Y493997D01*
X970925Y495161D01*
X971943Y496179D01*
X973107Y497025D01*
X974390Y497679D01*
X975758Y498124D01*
X975869Y498141D01*
X975869Y484631D01*
X968755Y484631D01*
G37*
%LPD*%
%LPC*%
G36*
X968755Y433831D02*
X968755Y433831D01*
X968755Y439124D01*
X968980Y440546D01*
X969425Y441914D01*
X970079Y443197D01*
X970925Y444361D01*
X971943Y445379D01*
X973107Y446225D01*
X974390Y446879D01*
X975758Y447324D01*
X975869Y447341D01*
X975869Y433831D01*
X968755Y433831D01*
G37*
%LPD*%
%LPC*%
G36*
X968755Y383031D02*
X968755Y383031D01*
X968755Y388324D01*
X968980Y389746D01*
X969425Y391114D01*
X970079Y392397D01*
X970925Y393561D01*
X971943Y394579D01*
X973107Y395425D01*
X974390Y396079D01*
X975758Y396524D01*
X975869Y396541D01*
X975869Y383031D01*
X968755Y383031D01*
G37*
%LPD*%
%LPC*%
G36*
X968755Y332231D02*
X968755Y332231D01*
X968755Y337524D01*
X968980Y338946D01*
X969425Y340314D01*
X970079Y341597D01*
X970925Y342761D01*
X971943Y343779D01*
X973107Y344625D01*
X974390Y345279D01*
X975758Y345724D01*
X975869Y345741D01*
X975869Y332231D01*
X968755Y332231D01*
G37*
%LPD*%
%LPC*%
G36*
X975758Y467076D02*
X975758Y467076D01*
X974390Y467521D01*
X973107Y468175D01*
X971943Y469021D01*
X970925Y470039D01*
X970079Y471203D01*
X969425Y472486D01*
X968980Y473854D01*
X968755Y475276D01*
X968755Y480569D01*
X975869Y480569D01*
X975869Y467059D01*
X975758Y467076D01*
G37*
%LPD*%
%LPC*%
G36*
X975758Y416276D02*
X975758Y416276D01*
X974390Y416721D01*
X973107Y417375D01*
X971943Y418221D01*
X970925Y419239D01*
X970079Y420403D01*
X969425Y421686D01*
X968980Y423054D01*
X968755Y424476D01*
X968755Y429769D01*
X975869Y429769D01*
X975869Y416259D01*
X975758Y416276D01*
G37*
%LPD*%
%LPC*%
G36*
X975758Y365476D02*
X975758Y365476D01*
X974390Y365921D01*
X973107Y366575D01*
X971943Y367421D01*
X970925Y368439D01*
X970079Y369603D01*
X969425Y370886D01*
X968980Y372254D01*
X968755Y373676D01*
X968755Y378969D01*
X975869Y378969D01*
X975869Y365459D01*
X975758Y365476D01*
G37*
%LPD*%
%LPC*%
G36*
X975758Y314676D02*
X975758Y314676D01*
X974390Y315121D01*
X973107Y315775D01*
X971943Y316621D01*
X970925Y317639D01*
X970079Y318803D01*
X969425Y320086D01*
X968980Y321454D01*
X968755Y322876D01*
X968755Y328169D01*
X975869Y328169D01*
X975869Y314659D01*
X975758Y314676D01*
G37*
%LPD*%
%LPC*%
G36*
X219299Y205199D02*
X219299Y205199D01*
X219299Y215227D01*
X219423Y215207D01*
X221419Y214559D01*
X223289Y213606D01*
X224988Y212372D01*
X226472Y210888D01*
X227706Y209189D01*
X228659Y207319D01*
X229307Y205323D01*
X229327Y205199D01*
X219299Y205199D01*
G37*
%LPD*%
%LPC*%
G36*
X498699Y205199D02*
X498699Y205199D01*
X498699Y215227D01*
X498823Y215207D01*
X500819Y214559D01*
X502689Y213606D01*
X504388Y212372D01*
X505872Y210888D01*
X507106Y209189D01*
X508059Y207319D01*
X508707Y205323D01*
X508727Y205199D01*
X498699Y205199D01*
G37*
%LPD*%
%LPC*%
G36*
X778099Y205199D02*
X778099Y205199D01*
X778099Y215227D01*
X778223Y215207D01*
X780219Y214559D01*
X782089Y213606D01*
X783788Y212372D01*
X785272Y210888D01*
X786506Y209189D01*
X787459Y207319D01*
X788107Y205323D01*
X788127Y205199D01*
X778099Y205199D01*
G37*
%LPD*%
%LPC*%
G36*
X482673Y205199D02*
X482673Y205199D01*
X482693Y205323D01*
X483341Y207319D01*
X484294Y209189D01*
X485528Y210888D01*
X487012Y212372D01*
X488711Y213606D01*
X490581Y214559D01*
X492577Y215207D01*
X492701Y215227D01*
X492701Y205199D01*
X482673Y205199D01*
G37*
%LPD*%
%LPC*%
G36*
X762073Y205199D02*
X762073Y205199D01*
X762093Y205323D01*
X762741Y207319D01*
X763694Y209189D01*
X764928Y210888D01*
X766412Y212372D01*
X768111Y213606D01*
X769981Y214559D01*
X771977Y215207D01*
X772101Y215227D01*
X772101Y205199D01*
X762073Y205199D01*
G37*
%LPD*%
%LPC*%
G36*
X203273Y205199D02*
X203273Y205199D01*
X203293Y205323D01*
X203941Y207319D01*
X204894Y209189D01*
X206128Y210888D01*
X207612Y212372D01*
X209311Y213606D01*
X211181Y214559D01*
X213177Y215207D01*
X213301Y215227D01*
X213301Y205199D01*
X203273Y205199D01*
G37*
%LPD*%
%LPC*%
G36*
X498699Y199201D02*
X498699Y199201D01*
X508727Y199201D01*
X508707Y199077D01*
X508059Y197081D01*
X507106Y195211D01*
X505872Y193512D01*
X504388Y192028D01*
X502689Y190794D01*
X500819Y189841D01*
X498823Y189193D01*
X498699Y189173D01*
X498699Y199201D01*
G37*
%LPD*%
%LPC*%
G36*
X219299Y199201D02*
X219299Y199201D01*
X229327Y199201D01*
X229307Y199077D01*
X228659Y197081D01*
X227706Y195211D01*
X226472Y193512D01*
X224988Y192028D01*
X223289Y190794D01*
X221419Y189841D01*
X219423Y189193D01*
X219299Y189173D01*
X219299Y199201D01*
G37*
%LPD*%
%LPC*%
G36*
X778099Y199201D02*
X778099Y199201D01*
X788127Y199201D01*
X788107Y199077D01*
X787459Y197081D01*
X786506Y195211D01*
X785272Y193512D01*
X783788Y192028D01*
X782089Y190794D01*
X780219Y189841D01*
X778223Y189193D01*
X778099Y189173D01*
X778099Y199201D01*
G37*
%LPD*%
%LPC*%
G36*
X213177Y189193D02*
X213177Y189193D01*
X211181Y189841D01*
X209311Y190794D01*
X207612Y192028D01*
X206128Y193512D01*
X204894Y195211D01*
X203941Y197081D01*
X203293Y199077D01*
X203273Y199201D01*
X213301Y199201D01*
X213301Y189173D01*
X213177Y189193D01*
G37*
%LPD*%
%LPC*%
G36*
X492577Y189193D02*
X492577Y189193D01*
X490581Y189841D01*
X488711Y190794D01*
X487012Y192028D01*
X485528Y193512D01*
X484294Y195211D01*
X483341Y197081D01*
X482693Y199077D01*
X482673Y199201D01*
X492701Y199201D01*
X492701Y189173D01*
X492577Y189193D01*
G37*
%LPD*%
%LPC*%
G36*
X571539Y627439D02*
X571539Y627439D01*
X571539Y636585D01*
X571796Y636545D01*
X573583Y635964D01*
X575257Y635111D01*
X576778Y634006D01*
X578106Y632678D01*
X579211Y631157D01*
X580064Y629483D01*
X580645Y627696D01*
X580685Y627439D01*
X571539Y627439D01*
G37*
%LPD*%
%LPC*%
G36*
X571539Y622361D02*
X571539Y622361D01*
X580685Y622361D01*
X580645Y622104D01*
X580064Y620317D01*
X579211Y618643D01*
X578106Y617122D01*
X576778Y615794D01*
X575257Y614689D01*
X573583Y613836D01*
X571796Y613255D01*
X571539Y613215D01*
X571539Y622361D01*
G37*
%LPD*%
%LPC*%
G36*
X535899Y40599D02*
X535899Y40599D01*
X535899Y49023D01*
X537924Y49023D01*
X544323Y42624D01*
X544323Y40599D01*
X535899Y40599D01*
G37*
%LPD*%
%LPC*%
G36*
X547877Y40599D02*
X547877Y40599D01*
X547877Y42624D01*
X554276Y49023D01*
X556301Y49023D01*
X556301Y40599D01*
X547877Y40599D01*
G37*
%LPD*%
%LPC*%
G36*
X535899Y27177D02*
X535899Y27177D01*
X535899Y35601D01*
X544323Y35601D01*
X544323Y33576D01*
X537924Y27177D01*
X535899Y27177D01*
G37*
%LPD*%
%LPC*%
G36*
X554276Y27177D02*
X554276Y27177D01*
X547877Y33576D01*
X547877Y35601D01*
X556301Y35601D01*
X556301Y27177D01*
X554276Y27177D01*
G37*
%LPD*%
%LPC*%
G36*
X546099Y761999D02*
X546099Y761999D01*
X546099Y762001D01*
X546101Y762001D01*
X546101Y761999D01*
X546099Y761999D01*
G37*
%LPD*%
%LPC*%
G36*
X375411Y723899D02*
X375411Y723899D01*
X375411Y723901D01*
X375413Y723901D01*
X375413Y723899D01*
X375411Y723899D01*
G37*
%LPD*%
%LPC*%
G36*
X70611Y723899D02*
X70611Y723899D01*
X70611Y723901D01*
X70613Y723901D01*
X70613Y723899D01*
X70611Y723899D01*
G37*
%LPD*%
%LPC*%
G36*
X273811Y723899D02*
X273811Y723899D01*
X273811Y723901D01*
X273813Y723901D01*
X273813Y723899D01*
X273811Y723899D01*
G37*
%LPD*%
D10*
X392938Y258318D02*
X392938Y242062D01*
X388422Y242062D01*
X388318Y242064D01*
X388215Y242070D01*
X388111Y242080D01*
X388008Y242094D01*
X387906Y242112D01*
X387805Y242133D01*
X387704Y242159D01*
X387605Y242188D01*
X387506Y242221D01*
X387409Y242258D01*
X387314Y242299D01*
X387220Y242343D01*
X387128Y242391D01*
X387038Y242442D01*
X386949Y242497D01*
X386863Y242555D01*
X386780Y242617D01*
X386698Y242681D01*
X386620Y242749D01*
X386544Y242819D01*
X386470Y242892D01*
X386400Y242969D01*
X386332Y243047D01*
X386268Y243129D01*
X386206Y243212D01*
X386148Y243298D01*
X386093Y243387D01*
X386042Y243477D01*
X385994Y243569D01*
X385950Y243663D01*
X385909Y243758D01*
X385872Y243855D01*
X385839Y243954D01*
X385810Y244053D01*
X385784Y244154D01*
X385763Y244255D01*
X385745Y244357D01*
X385731Y244460D01*
X385721Y244564D01*
X385715Y244667D01*
X385713Y244771D01*
X385713Y250190D01*
X385715Y250291D01*
X385721Y250392D01*
X385730Y250493D01*
X385743Y250594D01*
X385760Y250694D01*
X385781Y250793D01*
X385805Y250891D01*
X385833Y250988D01*
X385865Y251085D01*
X385900Y251180D01*
X385939Y251273D01*
X385981Y251365D01*
X386027Y251456D01*
X386076Y251545D01*
X386128Y251631D01*
X386184Y251716D01*
X386242Y251799D01*
X386304Y251879D01*
X386369Y251957D01*
X386436Y252033D01*
X386506Y252106D01*
X386579Y252176D01*
X386655Y252243D01*
X386733Y252308D01*
X386813Y252370D01*
X386896Y252428D01*
X386981Y252484D01*
X387068Y252536D01*
X387156Y252585D01*
X387247Y252631D01*
X387339Y252673D01*
X387432Y252712D01*
X387527Y252747D01*
X387624Y252779D01*
X387721Y252807D01*
X387819Y252831D01*
X387918Y252852D01*
X388018Y252869D01*
X388119Y252882D01*
X388220Y252891D01*
X388321Y252897D01*
X388422Y252899D01*
X392938Y252899D01*
X379464Y249287D02*
X379464Y245674D01*
X379464Y249287D02*
X379462Y249406D01*
X379456Y249526D01*
X379446Y249645D01*
X379432Y249763D01*
X379415Y249882D01*
X379393Y249999D01*
X379368Y250116D01*
X379338Y250231D01*
X379305Y250346D01*
X379268Y250460D01*
X379228Y250572D01*
X379183Y250683D01*
X379135Y250792D01*
X379084Y250900D01*
X379029Y251006D01*
X378970Y251110D01*
X378908Y251212D01*
X378843Y251312D01*
X378774Y251410D01*
X378702Y251506D01*
X378627Y251599D01*
X378550Y251689D01*
X378469Y251777D01*
X378385Y251862D01*
X378298Y251944D01*
X378209Y252024D01*
X378117Y252100D01*
X378023Y252174D01*
X377926Y252244D01*
X377828Y252311D01*
X377727Y252375D01*
X377623Y252435D01*
X377518Y252492D01*
X377411Y252545D01*
X377303Y252595D01*
X377193Y252641D01*
X377081Y252683D01*
X376968Y252722D01*
X376854Y252757D01*
X376739Y252788D01*
X376622Y252816D01*
X376505Y252839D01*
X376388Y252859D01*
X376269Y252875D01*
X376150Y252887D01*
X376031Y252895D01*
X375912Y252899D01*
X375792Y252899D01*
X375673Y252895D01*
X375554Y252887D01*
X375435Y252875D01*
X375316Y252859D01*
X375199Y252839D01*
X375082Y252816D01*
X374965Y252788D01*
X374850Y252757D01*
X374736Y252722D01*
X374623Y252683D01*
X374511Y252641D01*
X374401Y252595D01*
X374293Y252545D01*
X374186Y252492D01*
X374081Y252435D01*
X373977Y252375D01*
X373876Y252311D01*
X373778Y252244D01*
X373681Y252174D01*
X373587Y252100D01*
X373495Y252024D01*
X373406Y251944D01*
X373319Y251862D01*
X373235Y251777D01*
X373154Y251689D01*
X373077Y251599D01*
X373002Y251506D01*
X372930Y251410D01*
X372861Y251312D01*
X372796Y251212D01*
X372734Y251110D01*
X372675Y251006D01*
X372620Y250900D01*
X372569Y250792D01*
X372521Y250683D01*
X372476Y250572D01*
X372436Y250460D01*
X372399Y250346D01*
X372366Y250231D01*
X372336Y250116D01*
X372311Y249999D01*
X372289Y249882D01*
X372272Y249763D01*
X372258Y249645D01*
X372248Y249526D01*
X372242Y249406D01*
X372240Y249287D01*
X372239Y249287D02*
X372239Y245674D01*
X372240Y245674D02*
X372242Y245555D01*
X372248Y245435D01*
X372258Y245316D01*
X372272Y245198D01*
X372289Y245079D01*
X372311Y244962D01*
X372336Y244845D01*
X372366Y244730D01*
X372399Y244615D01*
X372436Y244501D01*
X372476Y244389D01*
X372521Y244278D01*
X372569Y244169D01*
X372620Y244061D01*
X372675Y243955D01*
X372734Y243851D01*
X372796Y243749D01*
X372861Y243649D01*
X372930Y243551D01*
X373002Y243455D01*
X373077Y243362D01*
X373154Y243272D01*
X373235Y243184D01*
X373319Y243099D01*
X373406Y243017D01*
X373495Y242937D01*
X373587Y242861D01*
X373681Y242787D01*
X373778Y242717D01*
X373876Y242650D01*
X373977Y242586D01*
X374081Y242526D01*
X374186Y242469D01*
X374293Y242416D01*
X374401Y242366D01*
X374511Y242320D01*
X374623Y242278D01*
X374736Y242239D01*
X374850Y242204D01*
X374965Y242173D01*
X375082Y242145D01*
X375199Y242122D01*
X375316Y242102D01*
X375435Y242086D01*
X375554Y242074D01*
X375673Y242066D01*
X375792Y242062D01*
X375912Y242062D01*
X376031Y242066D01*
X376150Y242074D01*
X376269Y242086D01*
X376388Y242102D01*
X376505Y242122D01*
X376622Y242145D01*
X376739Y242173D01*
X376854Y242204D01*
X376968Y242239D01*
X377081Y242278D01*
X377193Y242320D01*
X377303Y242366D01*
X377411Y242416D01*
X377518Y242469D01*
X377623Y242526D01*
X377727Y242586D01*
X377828Y242650D01*
X377926Y242717D01*
X378023Y242787D01*
X378117Y242861D01*
X378209Y242937D01*
X378298Y243017D01*
X378385Y243099D01*
X378469Y243184D01*
X378550Y243272D01*
X378627Y243362D01*
X378702Y243455D01*
X378774Y243551D01*
X378843Y243649D01*
X378908Y243749D01*
X378970Y243851D01*
X379029Y243955D01*
X379084Y244061D01*
X379135Y244169D01*
X379183Y244278D01*
X379228Y244389D01*
X379268Y244501D01*
X379305Y244615D01*
X379338Y244730D01*
X379368Y244845D01*
X379393Y244962D01*
X379415Y245079D01*
X379432Y245198D01*
X379446Y245316D01*
X379456Y245435D01*
X379462Y245555D01*
X379464Y245674D01*
X367214Y252899D02*
X361796Y252899D01*
X365408Y258318D02*
X365408Y244771D01*
X365406Y244670D01*
X365400Y244569D01*
X365391Y244468D01*
X365378Y244367D01*
X365361Y244267D01*
X365340Y244168D01*
X365316Y244070D01*
X365288Y243973D01*
X365256Y243876D01*
X365221Y243781D01*
X365182Y243688D01*
X365140Y243596D01*
X365094Y243505D01*
X365045Y243416D01*
X364993Y243330D01*
X364937Y243245D01*
X364879Y243162D01*
X364817Y243082D01*
X364752Y243004D01*
X364685Y242928D01*
X364615Y242855D01*
X364542Y242785D01*
X364466Y242718D01*
X364388Y242653D01*
X364308Y242591D01*
X364225Y242533D01*
X364140Y242477D01*
X364054Y242425D01*
X363965Y242376D01*
X363874Y242330D01*
X363782Y242288D01*
X363689Y242249D01*
X363594Y242214D01*
X363497Y242182D01*
X363400Y242154D01*
X363302Y242130D01*
X363203Y242109D01*
X363103Y242092D01*
X363002Y242079D01*
X362901Y242070D01*
X362800Y242064D01*
X362699Y242062D01*
X361796Y242062D01*
X357315Y252899D02*
X351896Y252899D01*
X355508Y258318D02*
X355508Y244771D01*
X355506Y244670D01*
X355500Y244569D01*
X355491Y244468D01*
X355478Y244367D01*
X355461Y244267D01*
X355440Y244168D01*
X355416Y244070D01*
X355388Y243973D01*
X355356Y243876D01*
X355321Y243781D01*
X355282Y243688D01*
X355240Y243596D01*
X355194Y243505D01*
X355145Y243416D01*
X355093Y243330D01*
X355037Y243245D01*
X354979Y243162D01*
X354917Y243082D01*
X354852Y243004D01*
X354785Y242928D01*
X354715Y242855D01*
X354642Y242785D01*
X354566Y242718D01*
X354488Y242653D01*
X354408Y242591D01*
X354325Y242533D01*
X354240Y242477D01*
X354154Y242425D01*
X354065Y242376D01*
X353974Y242330D01*
X353882Y242288D01*
X353789Y242249D01*
X353694Y242214D01*
X353597Y242182D01*
X353500Y242154D01*
X353402Y242130D01*
X353303Y242109D01*
X353203Y242092D01*
X353102Y242079D01*
X353001Y242070D01*
X352900Y242064D01*
X352799Y242062D01*
X351896Y242062D01*
X346118Y245674D02*
X346118Y249287D01*
X346117Y249287D02*
X346115Y249406D01*
X346109Y249526D01*
X346099Y249645D01*
X346085Y249763D01*
X346068Y249882D01*
X346046Y249999D01*
X346021Y250116D01*
X345991Y250231D01*
X345958Y250346D01*
X345921Y250460D01*
X345881Y250572D01*
X345836Y250683D01*
X345788Y250792D01*
X345737Y250900D01*
X345682Y251006D01*
X345623Y251110D01*
X345561Y251212D01*
X345496Y251312D01*
X345427Y251410D01*
X345355Y251506D01*
X345280Y251599D01*
X345203Y251689D01*
X345122Y251777D01*
X345038Y251862D01*
X344951Y251944D01*
X344862Y252024D01*
X344770Y252100D01*
X344676Y252174D01*
X344579Y252244D01*
X344481Y252311D01*
X344380Y252375D01*
X344276Y252435D01*
X344171Y252492D01*
X344064Y252545D01*
X343956Y252595D01*
X343846Y252641D01*
X343734Y252683D01*
X343621Y252722D01*
X343507Y252757D01*
X343392Y252788D01*
X343275Y252816D01*
X343158Y252839D01*
X343041Y252859D01*
X342922Y252875D01*
X342803Y252887D01*
X342684Y252895D01*
X342565Y252899D01*
X342445Y252899D01*
X342326Y252895D01*
X342207Y252887D01*
X342088Y252875D01*
X341969Y252859D01*
X341852Y252839D01*
X341735Y252816D01*
X341618Y252788D01*
X341503Y252757D01*
X341389Y252722D01*
X341276Y252683D01*
X341164Y252641D01*
X341054Y252595D01*
X340946Y252545D01*
X340839Y252492D01*
X340734Y252435D01*
X340630Y252375D01*
X340529Y252311D01*
X340431Y252244D01*
X340334Y252174D01*
X340240Y252100D01*
X340148Y252024D01*
X340059Y251944D01*
X339972Y251862D01*
X339888Y251777D01*
X339807Y251689D01*
X339730Y251599D01*
X339655Y251506D01*
X339583Y251410D01*
X339514Y251312D01*
X339449Y251212D01*
X339387Y251110D01*
X339328Y251006D01*
X339273Y250900D01*
X339222Y250792D01*
X339174Y250683D01*
X339129Y250572D01*
X339089Y250460D01*
X339052Y250346D01*
X339019Y250231D01*
X338989Y250116D01*
X338964Y249999D01*
X338942Y249882D01*
X338925Y249763D01*
X338911Y249645D01*
X338901Y249526D01*
X338895Y249406D01*
X338893Y249287D01*
X338893Y245674D01*
X338895Y245555D01*
X338901Y245435D01*
X338911Y245316D01*
X338925Y245198D01*
X338942Y245079D01*
X338964Y244962D01*
X338989Y244845D01*
X339019Y244730D01*
X339052Y244615D01*
X339089Y244501D01*
X339129Y244389D01*
X339174Y244278D01*
X339222Y244169D01*
X339273Y244061D01*
X339328Y243955D01*
X339387Y243851D01*
X339449Y243749D01*
X339514Y243649D01*
X339583Y243551D01*
X339655Y243455D01*
X339730Y243362D01*
X339807Y243272D01*
X339888Y243184D01*
X339972Y243099D01*
X340059Y243017D01*
X340148Y242937D01*
X340240Y242861D01*
X340334Y242787D01*
X340431Y242717D01*
X340529Y242650D01*
X340630Y242586D01*
X340734Y242526D01*
X340839Y242469D01*
X340946Y242416D01*
X341054Y242366D01*
X341164Y242320D01*
X341276Y242278D01*
X341389Y242239D01*
X341503Y242204D01*
X341618Y242173D01*
X341735Y242145D01*
X341852Y242122D01*
X341969Y242102D01*
X342088Y242086D01*
X342207Y242074D01*
X342326Y242066D01*
X342445Y242062D01*
X342565Y242062D01*
X342684Y242066D01*
X342803Y242074D01*
X342922Y242086D01*
X343041Y242102D01*
X343158Y242122D01*
X343275Y242145D01*
X343392Y242173D01*
X343507Y242204D01*
X343621Y242239D01*
X343734Y242278D01*
X343846Y242320D01*
X343956Y242366D01*
X344064Y242416D01*
X344171Y242469D01*
X344276Y242526D01*
X344380Y242586D01*
X344481Y242650D01*
X344579Y242717D01*
X344676Y242787D01*
X344770Y242861D01*
X344862Y242937D01*
X344951Y243017D01*
X345038Y243099D01*
X345122Y243184D01*
X345203Y243272D01*
X345280Y243362D01*
X345355Y243455D01*
X345427Y243551D01*
X345496Y243649D01*
X345561Y243749D01*
X345623Y243851D01*
X345682Y243955D01*
X345737Y244061D01*
X345788Y244169D01*
X345836Y244278D01*
X345881Y244389D01*
X345921Y244501D01*
X345958Y244615D01*
X345991Y244730D01*
X346021Y244845D01*
X346046Y244962D01*
X346068Y245079D01*
X346085Y245198D01*
X346099Y245316D01*
X346109Y245435D01*
X346115Y245555D01*
X346117Y245674D01*
X331772Y242062D02*
X331772Y252899D01*
X323644Y252899D01*
X323543Y252897D01*
X323442Y252891D01*
X323341Y252882D01*
X323240Y252869D01*
X323140Y252852D01*
X323041Y252831D01*
X322943Y252807D01*
X322846Y252779D01*
X322749Y252747D01*
X322654Y252712D01*
X322561Y252673D01*
X322469Y252631D01*
X322378Y252585D01*
X322290Y252536D01*
X322203Y252484D01*
X322118Y252428D01*
X322035Y252370D01*
X321955Y252308D01*
X321877Y252243D01*
X321801Y252176D01*
X321728Y252106D01*
X321658Y252033D01*
X321591Y251957D01*
X321526Y251879D01*
X321464Y251799D01*
X321406Y251716D01*
X321350Y251631D01*
X321298Y251545D01*
X321249Y251456D01*
X321203Y251365D01*
X321161Y251273D01*
X321122Y251180D01*
X321087Y251085D01*
X321055Y250988D01*
X321027Y250891D01*
X321003Y250793D01*
X320982Y250694D01*
X320965Y250594D01*
X320952Y250493D01*
X320943Y250392D01*
X320937Y250291D01*
X320935Y250190D01*
X320934Y250190D02*
X320934Y242062D01*
X326353Y242062D02*
X326353Y252899D01*
D11*
X70612Y711327D02*
X70612Y736473D01*
X30988Y736473D02*
X30988Y711327D01*
X172212Y711327D02*
X172212Y736473D01*
X132588Y736473D02*
X132588Y711327D01*
X273812Y711327D02*
X273812Y736473D01*
X234188Y736473D02*
X234188Y711327D01*
X375412Y711327D02*
X375412Y736473D01*
X335788Y736473D02*
X335788Y711327D01*
D12*
X444500Y726694D02*
X444500Y746506D01*
X536194Y711200D02*
X556006Y711200D01*
X556006Y762000D02*
X536194Y762000D01*
D11*
X654812Y736473D02*
X654812Y711327D01*
X615188Y711327D02*
X615188Y736473D01*
X756412Y736473D02*
X756412Y711327D01*
X716788Y711327D02*
X716788Y736473D01*
X858012Y736473D02*
X858012Y711327D01*
X818388Y711327D02*
X818388Y736473D01*
X959612Y736473D02*
X959612Y711327D01*
X919988Y711327D02*
X919988Y736473D01*
D13*
X188000Y624900D03*
D14*
X213400Y624900D03*
X238800Y624900D03*
X264200Y624900D03*
X289600Y624900D03*
X315000Y624900D03*
X340400Y624900D03*
X365800Y624900D03*
X391200Y624900D03*
X416600Y624900D03*
X442000Y624900D03*
X467400Y624900D03*
X492800Y624900D03*
X518200Y624900D03*
X543600Y624900D03*
X569000Y624900D03*
D15*
X368300Y565150D03*
X596900Y565150D03*
D16*
X609600Y406400D03*
X736600Y406400D03*
X635000Y381000D03*
X762000Y381000D03*
X660400Y355600D03*
X787400Y355600D03*
X685800Y330200D03*
X812800Y330200D03*
D17*
X254000Y381000D03*
X127000Y381000D03*
X254000Y406400D03*
X127000Y406400D03*
X254000Y431800D03*
X127000Y431800D03*
X254000Y457200D03*
X127000Y457200D03*
D18*
X216300Y77200D03*
X266300Y77200D03*
X266300Y202200D03*
X216300Y202200D03*
X495700Y77200D03*
X545700Y77200D03*
X545700Y202200D03*
X495700Y202200D03*
X775100Y77200D03*
X825100Y77200D03*
X825100Y202200D03*
X775100Y202200D03*
D19*
X952500Y475996D02*
X952500Y489204D01*
X927100Y489204D02*
X927100Y475996D01*
X977900Y475996D02*
X977900Y489204D01*
X952500Y438404D02*
X952500Y425196D01*
X927100Y425196D02*
X927100Y438404D01*
X977900Y438404D02*
X977900Y425196D01*
X952500Y387604D02*
X952500Y374396D01*
X927100Y374396D02*
X927100Y387604D01*
X977900Y387604D02*
X977900Y374396D01*
X952500Y336804D02*
X952500Y323596D01*
X927100Y323596D02*
X927100Y336804D01*
X977900Y336804D02*
X977900Y323596D01*
D20*
X660400Y520700D03*
X635000Y38100D03*
X685800Y520700D03*
X711200Y520700D03*
X736600Y520700D03*
X762000Y520700D03*
X635000Y520700D03*
X609600Y520700D03*
X584200Y520700D03*
X543560Y520700D03*
X518160Y520700D03*
X492760Y520700D03*
X467360Y520700D03*
X441960Y520700D03*
X416560Y520700D03*
X391160Y520700D03*
X365760Y520700D03*
X660400Y38100D03*
X685800Y38100D03*
X711200Y38100D03*
X736600Y38100D03*
X762000Y38100D03*
X584200Y38100D03*
X558800Y38100D03*
X533400Y38100D03*
X508000Y38100D03*
X482600Y38100D03*
X457200Y38100D03*
X340360Y520700D03*
X314960Y520700D03*
X431800Y38100D03*
X406400Y38100D03*
D21*
X543600Y618450D02*
X543600Y624900D01*
X543600Y618450D02*
X596900Y565150D01*
X374650Y558800D02*
X368300Y565150D01*
X374650Y558800D02*
X414083Y558800D01*
X416591Y556291D01*
X416591Y520731D01*
X416560Y520700D01*
X373380Y665480D02*
X444500Y736600D01*
X167172Y639032D02*
X167172Y610768D01*
X173868Y604072D01*
X222027Y604072D01*
X193620Y665480D02*
X373380Y665480D01*
X193620Y665480D02*
X167172Y639032D01*
X222027Y604072D02*
X227555Y609600D01*
X241300Y609600D01*
X241300Y622400D01*
X238800Y624900D01*
X441960Y520700D02*
X444500Y523240D01*
X444500Y553527D01*
X275445Y609600D02*
X266700Y609600D01*
X298753Y586292D02*
X411735Y586292D01*
X298753Y586292D02*
X275445Y609600D01*
X411735Y586292D02*
X444500Y553527D01*
X266700Y609600D02*
X264200Y612100D01*
X264200Y624900D01*
X315000Y624900D02*
X315000Y612100D01*
X323028Y604072D02*
X419100Y604072D01*
X323028Y604072D02*
X315000Y612100D01*
X419100Y604072D02*
X467360Y555812D01*
X467360Y520700D01*
X440222Y623122D02*
X442000Y624900D01*
X440222Y623122D02*
X440222Y608095D01*
X493522Y554795D02*
X493522Y521462D01*
X492760Y520700D01*
X493522Y554795D02*
X440222Y608095D01*
X467400Y606062D02*
X467400Y624900D01*
X467400Y606062D02*
X518922Y554540D01*
X518922Y521462D01*
X518160Y520700D01*
X492800Y605806D02*
X492800Y624900D01*
X492800Y605806D02*
X544322Y554284D01*
X544322Y521462D01*
X543560Y520700D01*
X518200Y605551D02*
X518200Y624900D01*
X584200Y539551D02*
X584200Y520700D01*
X584200Y539551D02*
X518200Y605551D01*
X736600Y406400D02*
X863600Y406400D01*
X914400Y457200D01*
X952500Y457200D01*
X952500Y482600D01*
X609600Y520700D02*
X609600Y406400D01*
X635000Y381000D02*
X635000Y520700D01*
X569000Y624900D02*
X569000Y694020D01*
X577342Y702362D01*
X577342Y730758D01*
X546100Y762000D01*
X977900Y330200D02*
X977900Y302260D01*
X906780Y231140D01*
X808990Y231140D01*
X782320Y204470D01*
X775100Y202200D01*
X660400Y355600D02*
X660400Y520700D01*
X685800Y520700D02*
X685800Y330200D01*
X870362Y284390D02*
X895638Y284390D01*
X824552Y330200D02*
X812800Y330200D01*
X824552Y330200D02*
X870362Y284390D01*
X895638Y284390D02*
X916048Y304800D01*
X952500Y304800D01*
X952500Y330200D01*
X952500Y355600D02*
X787400Y355600D01*
X952500Y355600D02*
X952500Y381000D01*
X876300Y381000D02*
X762000Y381000D01*
X876300Y381000D02*
X901700Y406400D01*
X952500Y406400D01*
X952500Y431800D01*
X604520Y35560D02*
X586740Y35560D01*
X604520Y35560D02*
X622300Y17780D01*
X773430Y17780D01*
X800100Y44450D01*
X800100Y142240D01*
X711200Y231140D01*
X711200Y435610D01*
X782320Y506730D01*
X782320Y684530D02*
X782320Y702310D01*
X782320Y684530D02*
X782320Y506730D01*
X782320Y702310D02*
X764540Y720090D01*
X584200Y38100D02*
X586740Y35560D01*
X764540Y720090D02*
X756412Y723900D01*
X693420Y684530D02*
X657860Y720090D01*
X693420Y684530D02*
X782320Y684530D01*
X657860Y720090D02*
X654812Y723900D01*
X853440Y720090D02*
X853440Y711200D01*
X826770Y684530D01*
X782320Y684530D01*
X853440Y720090D02*
X858012Y723900D01*
X951230Y720090D02*
X951230Y702310D01*
X933450Y684530D01*
X871220Y684530D01*
X853440Y702310D01*
X951230Y720090D02*
X959612Y723900D01*
X858012Y723900D02*
X853440Y702310D01*
X635000Y152400D02*
X635000Y38100D01*
X635000Y152400D02*
X406400Y381000D01*
X254000Y381000D01*
X35560Y595630D02*
X35560Y720090D01*
X35560Y595630D02*
X248920Y382270D01*
X35560Y720090D02*
X30988Y723900D01*
X248920Y382270D02*
X254000Y381000D01*
X254000Y406400D02*
X419100Y406400D01*
X660400Y165100D01*
X660400Y38100D01*
X124460Y693420D02*
X124460Y720090D01*
X124460Y693420D02*
X80010Y648970D01*
X80010Y577850D01*
X248920Y408940D01*
X124460Y720090D02*
X132588Y723900D01*
X248920Y408940D02*
X254000Y406400D01*
X685800Y177800D02*
X685800Y38100D01*
X685800Y177800D02*
X431800Y431800D01*
X254000Y431800D01*
X195580Y684530D02*
X231140Y720090D01*
X195580Y684530D02*
X142240Y684530D01*
X97790Y640080D01*
X97790Y586740D01*
X248920Y435610D01*
X231140Y720090D02*
X234188Y723900D01*
X248920Y435610D02*
X254000Y431800D01*
X254000Y457200D02*
X444500Y457200D01*
X711200Y190500D01*
X711200Y38100D01*
X508000Y38100D02*
X508000Y16510D01*
X127000Y16510D01*
X102490Y302262D02*
X102490Y327538D01*
X127000Y277752D02*
X127000Y16510D01*
X127000Y352048D02*
X127000Y381000D01*
X102490Y302262D02*
X127000Y277752D01*
X102490Y327538D02*
X127000Y352048D01*
X127000Y381000D02*
X127000Y406400D01*
X127000Y431800D01*
X127000Y457200D01*
X533400Y698500D02*
X546100Y711200D01*
X533400Y698500D02*
X444500Y698500D01*
X393700Y647700D01*
X215900Y647700D01*
X213400Y645200D01*
X213400Y624900D01*
M02*
