G04 EAGLE Gerber RS-274X export*
G75*
%MOMM*%
%FSLAX34Y34*%
%LPD*%
%INTop Copper*%
%IPPOS*%
%AMOC8*
5,1,8,0,0,1.08239X$1,22.5*%
G01*
%ADD10C,0.152400*%
%ADD11C,2.514600*%
%ADD12C,1.981200*%
%ADD13R,1.879600X1.879600*%
%ADD14C,1.879600*%
%ADD15P,1.649562X8X22.500000*%
%ADD16P,1.429621X8X22.500000*%
%ADD17P,1.429621X8X202.500000*%
%ADD18C,2.159000*%
%ADD19C,1.320800*%
%ADD20P,1.814519X8X22.500000*%
%ADD21C,1.270000*%

G36*
X988342Y10164D02*
X988342Y10164D01*
X988368Y10162D01*
X988515Y10184D01*
X988662Y10201D01*
X988687Y10209D01*
X988713Y10213D01*
X988851Y10268D01*
X988990Y10318D01*
X989012Y10332D01*
X989037Y10342D01*
X989158Y10427D01*
X989283Y10507D01*
X989301Y10526D01*
X989323Y10541D01*
X989422Y10651D01*
X989525Y10758D01*
X989539Y10780D01*
X989556Y10800D01*
X989628Y10930D01*
X989704Y11057D01*
X989712Y11082D01*
X989725Y11105D01*
X989765Y11248D01*
X989810Y11389D01*
X989812Y11415D01*
X989820Y11440D01*
X989839Y11684D01*
X989839Y321166D01*
X989833Y321221D01*
X989835Y321276D01*
X989813Y321393D01*
X989799Y321512D01*
X989781Y321564D01*
X989770Y321619D01*
X989722Y321728D01*
X989682Y321840D01*
X989652Y321887D01*
X989629Y321937D01*
X989558Y322033D01*
X989493Y322133D01*
X989453Y322171D01*
X989420Y322216D01*
X989328Y322292D01*
X989242Y322375D01*
X989195Y322404D01*
X989152Y322439D01*
X989046Y322493D01*
X988943Y322554D01*
X988890Y322571D01*
X988841Y322596D01*
X988725Y322624D01*
X988611Y322660D01*
X988556Y322665D01*
X988502Y322678D01*
X988383Y322679D01*
X988264Y322688D01*
X988209Y322680D01*
X988153Y322680D01*
X988037Y322654D01*
X987919Y322636D01*
X987867Y322616D01*
X987813Y322604D01*
X987706Y322552D01*
X987595Y322508D01*
X987550Y322476D01*
X987500Y322452D01*
X987407Y322377D01*
X987309Y322309D01*
X987272Y322268D01*
X987229Y322233D01*
X987156Y322139D01*
X987076Y322050D01*
X987049Y322001D01*
X987015Y321958D01*
X986965Y321849D01*
X986907Y321745D01*
X986892Y321692D01*
X986869Y321641D01*
X986836Y321505D01*
X986375Y320086D01*
X985721Y318803D01*
X984875Y317639D01*
X983857Y316621D01*
X982693Y315775D01*
X981410Y315121D01*
X980042Y314676D01*
X979931Y314659D01*
X979931Y329692D01*
X979928Y329718D01*
X979930Y329744D01*
X979908Y329891D01*
X979891Y330038D01*
X979883Y330063D01*
X979879Y330089D01*
X979836Y330196D01*
X979857Y330272D01*
X979902Y330413D01*
X979904Y330439D01*
X979912Y330464D01*
X979931Y330708D01*
X979931Y345741D01*
X980042Y345724D01*
X981410Y345279D01*
X982693Y344625D01*
X983857Y343779D01*
X984875Y342761D01*
X985721Y341597D01*
X986375Y340314D01*
X986830Y338915D01*
X986833Y338888D01*
X986873Y338776D01*
X986905Y338661D01*
X986931Y338612D01*
X986950Y338560D01*
X987015Y338460D01*
X987072Y338355D01*
X987109Y338314D01*
X987139Y338267D01*
X987225Y338184D01*
X987305Y338095D01*
X987350Y338063D01*
X987390Y338025D01*
X987492Y337964D01*
X987590Y337895D01*
X987641Y337875D01*
X987689Y337846D01*
X987802Y337810D01*
X987913Y337765D01*
X987968Y337757D01*
X988021Y337740D01*
X988140Y337730D01*
X988258Y337712D01*
X988313Y337716D01*
X988368Y337712D01*
X988486Y337730D01*
X988605Y337739D01*
X988658Y337755D01*
X988713Y337764D01*
X988824Y337808D01*
X988938Y337844D01*
X988985Y337872D01*
X989037Y337892D01*
X989135Y337960D01*
X989237Y338021D01*
X989277Y338060D01*
X989323Y338091D01*
X989403Y338180D01*
X989489Y338262D01*
X989519Y338309D01*
X989556Y338350D01*
X989614Y338454D01*
X989679Y338554D01*
X989698Y338607D01*
X989725Y338655D01*
X989757Y338770D01*
X989798Y338882D01*
X989805Y338937D01*
X989820Y338990D01*
X989838Y339215D01*
X989839Y339228D01*
X989839Y339231D01*
X989839Y339234D01*
X989839Y371966D01*
X989833Y372021D01*
X989835Y372076D01*
X989813Y372193D01*
X989799Y372312D01*
X989781Y372364D01*
X989770Y372419D01*
X989722Y372528D01*
X989682Y372640D01*
X989652Y372687D01*
X989629Y372737D01*
X989558Y372833D01*
X989493Y372933D01*
X989453Y372971D01*
X989420Y373016D01*
X989328Y373092D01*
X989242Y373175D01*
X989195Y373204D01*
X989152Y373239D01*
X989046Y373293D01*
X988943Y373354D01*
X988890Y373371D01*
X988841Y373396D01*
X988725Y373424D01*
X988611Y373460D01*
X988556Y373465D01*
X988502Y373478D01*
X988383Y373479D01*
X988264Y373488D01*
X988209Y373480D01*
X988153Y373480D01*
X988037Y373454D01*
X987919Y373436D01*
X987867Y373416D01*
X987813Y373404D01*
X987706Y373352D01*
X987595Y373308D01*
X987550Y373276D01*
X987500Y373252D01*
X987407Y373177D01*
X987309Y373109D01*
X987272Y373068D01*
X987229Y373033D01*
X987156Y372939D01*
X987076Y372850D01*
X987049Y372801D01*
X987015Y372758D01*
X986965Y372649D01*
X986907Y372545D01*
X986892Y372492D01*
X986869Y372441D01*
X986836Y372305D01*
X986375Y370886D01*
X985721Y369603D01*
X984875Y368439D01*
X983857Y367421D01*
X982693Y366575D01*
X981410Y365921D01*
X980042Y365476D01*
X979931Y365459D01*
X979931Y380492D01*
X979928Y380518D01*
X979930Y380544D01*
X979908Y380691D01*
X979891Y380838D01*
X979883Y380863D01*
X979879Y380889D01*
X979836Y380996D01*
X979857Y381072D01*
X979902Y381213D01*
X979904Y381239D01*
X979912Y381264D01*
X979931Y381508D01*
X979931Y396541D01*
X980042Y396524D01*
X981410Y396079D01*
X982693Y395425D01*
X983857Y394579D01*
X984875Y393561D01*
X985721Y392397D01*
X986375Y391114D01*
X986830Y389715D01*
X986833Y389688D01*
X986873Y389576D01*
X986905Y389461D01*
X986931Y389412D01*
X986950Y389360D01*
X987015Y389260D01*
X987072Y389155D01*
X987109Y389114D01*
X987139Y389067D01*
X987225Y388984D01*
X987304Y388895D01*
X987350Y388864D01*
X987390Y388825D01*
X987492Y388764D01*
X987590Y388695D01*
X987641Y388675D01*
X987689Y388646D01*
X987802Y388610D01*
X987913Y388565D01*
X987968Y388557D01*
X988021Y388540D01*
X988140Y388530D01*
X988258Y388512D01*
X988313Y388516D01*
X988368Y388512D01*
X988486Y388530D01*
X988605Y388539D01*
X988658Y388555D01*
X988713Y388564D01*
X988824Y388608D01*
X988937Y388643D01*
X988985Y388672D01*
X989037Y388692D01*
X989135Y388760D01*
X989237Y388821D01*
X989277Y388860D01*
X989323Y388891D01*
X989403Y388980D01*
X989489Y389062D01*
X989519Y389109D01*
X989556Y389150D01*
X989614Y389255D01*
X989679Y389354D01*
X989698Y389406D01*
X989725Y389455D01*
X989757Y389570D01*
X989798Y389682D01*
X989805Y389737D01*
X989820Y389790D01*
X989838Y390015D01*
X989839Y390028D01*
X989839Y390031D01*
X989839Y390034D01*
X989839Y422766D01*
X989833Y422821D01*
X989835Y422876D01*
X989813Y422994D01*
X989799Y423112D01*
X989781Y423164D01*
X989770Y423219D01*
X989722Y423328D01*
X989682Y423440D01*
X989652Y423487D01*
X989629Y423537D01*
X989558Y423633D01*
X989493Y423733D01*
X989453Y423771D01*
X989420Y423816D01*
X989328Y423892D01*
X989242Y423975D01*
X989195Y424003D01*
X989152Y424039D01*
X989045Y424093D01*
X988943Y424154D01*
X988890Y424171D01*
X988841Y424196D01*
X988725Y424224D01*
X988611Y424260D01*
X988556Y424265D01*
X988502Y424278D01*
X988383Y424278D01*
X988264Y424288D01*
X988209Y424280D01*
X988154Y424280D01*
X988037Y424254D01*
X987919Y424236D01*
X987868Y424216D01*
X987814Y424204D01*
X987706Y424152D01*
X987595Y424108D01*
X987550Y424076D01*
X987500Y424052D01*
X987407Y423977D01*
X987309Y423909D01*
X987272Y423868D01*
X987229Y423833D01*
X987156Y423739D01*
X987076Y423650D01*
X987049Y423601D01*
X987015Y423558D01*
X986965Y423449D01*
X986907Y423345D01*
X986892Y423292D01*
X986869Y423241D01*
X986836Y423105D01*
X986375Y421686D01*
X985721Y420403D01*
X984875Y419239D01*
X983857Y418221D01*
X982693Y417375D01*
X981410Y416721D01*
X980042Y416276D01*
X979931Y416259D01*
X979931Y431292D01*
X979928Y431318D01*
X979930Y431344D01*
X979908Y431491D01*
X979891Y431638D01*
X979883Y431663D01*
X979879Y431689D01*
X979836Y431796D01*
X979857Y431872D01*
X979902Y432013D01*
X979904Y432039D01*
X979912Y432064D01*
X979931Y432308D01*
X979931Y447341D01*
X980042Y447324D01*
X981410Y446879D01*
X982693Y446225D01*
X983857Y445379D01*
X984875Y444361D01*
X985721Y443197D01*
X986375Y441914D01*
X986830Y440515D01*
X986833Y440488D01*
X986873Y440376D01*
X986905Y440261D01*
X986931Y440212D01*
X986950Y440160D01*
X987015Y440060D01*
X987072Y439955D01*
X987109Y439914D01*
X987139Y439867D01*
X987225Y439784D01*
X987305Y439695D01*
X987350Y439664D01*
X987390Y439625D01*
X987492Y439564D01*
X987590Y439495D01*
X987641Y439475D01*
X987689Y439446D01*
X987803Y439410D01*
X987913Y439365D01*
X987968Y439357D01*
X988021Y439340D01*
X988140Y439330D01*
X988258Y439312D01*
X988313Y439316D01*
X988368Y439312D01*
X988486Y439330D01*
X988605Y439339D01*
X988658Y439355D01*
X988713Y439364D01*
X988824Y439408D01*
X988938Y439444D01*
X988985Y439472D01*
X989037Y439492D01*
X989135Y439560D01*
X989237Y439621D01*
X989277Y439660D01*
X989323Y439691D01*
X989403Y439780D01*
X989489Y439863D01*
X989519Y439909D01*
X989556Y439950D01*
X989614Y440054D01*
X989679Y440155D01*
X989698Y440207D01*
X989725Y440255D01*
X989757Y440370D01*
X989798Y440482D01*
X989805Y440537D01*
X989820Y440591D01*
X989838Y440816D01*
X989839Y440828D01*
X989839Y440831D01*
X989839Y440834D01*
X989839Y473566D01*
X989833Y473621D01*
X989835Y473676D01*
X989813Y473794D01*
X989799Y473912D01*
X989781Y473964D01*
X989770Y474019D01*
X989722Y474128D01*
X989682Y474240D01*
X989652Y474287D01*
X989629Y474337D01*
X989558Y474433D01*
X989493Y474533D01*
X989453Y474571D01*
X989420Y474616D01*
X989328Y474692D01*
X989242Y474775D01*
X989195Y474803D01*
X989152Y474839D01*
X989045Y474893D01*
X988943Y474954D01*
X988890Y474971D01*
X988841Y474996D01*
X988725Y475024D01*
X988611Y475060D01*
X988556Y475065D01*
X988502Y475078D01*
X988383Y475078D01*
X988264Y475088D01*
X988209Y475080D01*
X988154Y475080D01*
X988037Y475054D01*
X987919Y475036D01*
X987868Y475016D01*
X987814Y475004D01*
X987706Y474952D01*
X987595Y474908D01*
X987550Y474876D01*
X987500Y474852D01*
X987407Y474777D01*
X987309Y474709D01*
X987272Y474668D01*
X987229Y474633D01*
X987156Y474539D01*
X987076Y474450D01*
X987049Y474401D01*
X987015Y474358D01*
X986965Y474249D01*
X986907Y474145D01*
X986892Y474092D01*
X986869Y474041D01*
X986836Y473905D01*
X986375Y472486D01*
X985721Y471203D01*
X984875Y470039D01*
X983857Y469021D01*
X982693Y468175D01*
X981410Y467521D01*
X980042Y467076D01*
X979931Y467059D01*
X979931Y482092D01*
X979928Y482118D01*
X979930Y482144D01*
X979908Y482291D01*
X979891Y482438D01*
X979883Y482463D01*
X979879Y482489D01*
X979836Y482596D01*
X979857Y482672D01*
X979902Y482813D01*
X979904Y482839D01*
X979912Y482864D01*
X979931Y483108D01*
X979931Y498141D01*
X980042Y498124D01*
X981410Y497679D01*
X982693Y497025D01*
X983857Y496179D01*
X984875Y495161D01*
X985721Y493997D01*
X986375Y492714D01*
X986830Y491315D01*
X986833Y491288D01*
X986873Y491176D01*
X986905Y491061D01*
X986931Y491012D01*
X986950Y490960D01*
X987015Y490860D01*
X987072Y490755D01*
X987109Y490714D01*
X987139Y490667D01*
X987225Y490584D01*
X987305Y490495D01*
X987350Y490464D01*
X987390Y490425D01*
X987492Y490364D01*
X987590Y490295D01*
X987641Y490275D01*
X987689Y490246D01*
X987803Y490210D01*
X987913Y490165D01*
X987968Y490157D01*
X988021Y490140D01*
X988140Y490130D01*
X988258Y490112D01*
X988313Y490116D01*
X988368Y490112D01*
X988486Y490130D01*
X988605Y490139D01*
X988658Y490155D01*
X988713Y490164D01*
X988824Y490208D01*
X988938Y490244D01*
X988985Y490272D01*
X989037Y490292D01*
X989135Y490360D01*
X989237Y490421D01*
X989277Y490460D01*
X989323Y490491D01*
X989403Y490580D01*
X989489Y490663D01*
X989519Y490709D01*
X989556Y490750D01*
X989614Y490854D01*
X989679Y490955D01*
X989698Y491007D01*
X989725Y491055D01*
X989757Y491170D01*
X989798Y491282D01*
X989805Y491337D01*
X989820Y491391D01*
X989838Y491616D01*
X989839Y491628D01*
X989839Y491631D01*
X989839Y491634D01*
X989839Y788316D01*
X989836Y788342D01*
X989838Y788368D01*
X989816Y788515D01*
X989799Y788662D01*
X989791Y788687D01*
X989787Y788713D01*
X989732Y788851D01*
X989682Y788990D01*
X989668Y789012D01*
X989658Y789037D01*
X989573Y789158D01*
X989493Y789283D01*
X989474Y789301D01*
X989459Y789323D01*
X989349Y789422D01*
X989242Y789525D01*
X989220Y789539D01*
X989200Y789556D01*
X989070Y789628D01*
X988943Y789704D01*
X988918Y789712D01*
X988895Y789725D01*
X988752Y789765D01*
X988611Y789810D01*
X988585Y789812D01*
X988560Y789820D01*
X988316Y789839D01*
X11684Y789839D01*
X11658Y789836D01*
X11632Y789838D01*
X11485Y789816D01*
X11338Y789799D01*
X11313Y789791D01*
X11287Y789787D01*
X11149Y789732D01*
X11010Y789682D01*
X10988Y789668D01*
X10963Y789658D01*
X10842Y789573D01*
X10717Y789493D01*
X10699Y789474D01*
X10677Y789459D01*
X10578Y789349D01*
X10475Y789242D01*
X10461Y789220D01*
X10444Y789200D01*
X10372Y789070D01*
X10296Y788943D01*
X10288Y788918D01*
X10275Y788895D01*
X10235Y788752D01*
X10190Y788611D01*
X10188Y788585D01*
X10180Y788560D01*
X10161Y788316D01*
X10161Y11684D01*
X10164Y11658D01*
X10162Y11632D01*
X10184Y11485D01*
X10201Y11338D01*
X10209Y11313D01*
X10213Y11287D01*
X10268Y11149D01*
X10318Y11010D01*
X10332Y10988D01*
X10342Y10963D01*
X10427Y10842D01*
X10507Y10717D01*
X10526Y10699D01*
X10541Y10677D01*
X10651Y10578D01*
X10758Y10475D01*
X10780Y10461D01*
X10800Y10444D01*
X10930Y10372D01*
X11057Y10296D01*
X11082Y10288D01*
X11105Y10275D01*
X11248Y10235D01*
X11389Y10190D01*
X11415Y10188D01*
X11440Y10180D01*
X11684Y10161D01*
X988316Y10161D01*
X988342Y10164D01*
G37*
%LPC*%
G36*
X879819Y290739D02*
X879819Y290739D01*
X873674Y292386D01*
X868165Y295567D01*
X863667Y300065D01*
X860486Y305574D01*
X858839Y311719D01*
X858839Y318081D01*
X860486Y324226D01*
X863667Y329735D01*
X868165Y334233D01*
X873674Y337414D01*
X879819Y339061D01*
X882144Y339061D01*
X882244Y339072D01*
X882344Y339074D01*
X882416Y339092D01*
X882490Y339101D01*
X882585Y339134D01*
X882682Y339159D01*
X882748Y339193D01*
X882818Y339218D01*
X882903Y339273D01*
X882992Y339319D01*
X883049Y339367D01*
X883111Y339407D01*
X883181Y339479D01*
X883257Y339544D01*
X883302Y339604D01*
X883353Y339658D01*
X883405Y339744D01*
X883465Y339825D01*
X883494Y339893D01*
X883532Y339957D01*
X883563Y340053D01*
X883603Y340145D01*
X883616Y340218D01*
X883638Y340289D01*
X883646Y340389D01*
X883664Y340488D01*
X883660Y340562D01*
X883666Y340636D01*
X883651Y340736D01*
X883646Y340836D01*
X883626Y340907D01*
X883615Y340981D01*
X883578Y341074D01*
X883550Y341171D01*
X883513Y341236D01*
X883486Y341305D01*
X883429Y341387D01*
X883380Y341475D01*
X883314Y341551D01*
X883287Y341591D01*
X883261Y341615D01*
X883221Y341661D01*
X861530Y363353D01*
X859789Y367554D01*
X859789Y528034D01*
X859775Y528160D01*
X859768Y528286D01*
X859755Y528332D01*
X859749Y528380D01*
X859707Y528499D01*
X859672Y528621D01*
X859648Y528663D01*
X859632Y528709D01*
X859563Y528815D01*
X859502Y528925D01*
X859462Y528971D01*
X859443Y529001D01*
X859408Y529035D01*
X859384Y529063D01*
X859378Y529073D01*
X859371Y529078D01*
X859343Y529111D01*
X775491Y612963D01*
X775392Y613042D01*
X775298Y613126D01*
X775256Y613150D01*
X775218Y613180D01*
X775104Y613234D01*
X774993Y613295D01*
X774947Y613308D01*
X774903Y613329D01*
X774780Y613355D01*
X774658Y613390D01*
X774597Y613395D01*
X774563Y613402D01*
X774515Y613401D01*
X774414Y613409D01*
X640346Y613409D01*
X636145Y615150D01*
X605498Y645797D01*
X603757Y649998D01*
X603757Y697161D01*
X603755Y697181D01*
X603756Y697199D01*
X603743Y697291D01*
X603736Y697412D01*
X603723Y697459D01*
X603717Y697507D01*
X603705Y697542D01*
X603705Y697543D01*
X603701Y697552D01*
X603675Y697626D01*
X603640Y697747D01*
X603616Y697789D01*
X603600Y697835D01*
X603531Y697941D01*
X603470Y698051D01*
X603430Y698098D01*
X603411Y698128D01*
X603376Y698161D01*
X603311Y698238D01*
X600222Y701327D01*
X597534Y707815D01*
X597534Y739985D01*
X600222Y746473D01*
X605188Y751439D01*
X611676Y754127D01*
X618700Y754127D01*
X625188Y751439D01*
X630154Y746473D01*
X632842Y739985D01*
X632842Y707815D01*
X630154Y701327D01*
X627065Y698238D01*
X626986Y698139D01*
X626902Y698045D01*
X626878Y698003D01*
X626848Y697965D01*
X626794Y697851D01*
X626733Y697740D01*
X626720Y697693D01*
X626699Y697650D01*
X626673Y697526D01*
X626659Y697476D01*
X626648Y697442D01*
X626647Y697435D01*
X626638Y697404D01*
X626633Y697344D01*
X626626Y697309D01*
X626627Y697261D01*
X626619Y697161D01*
X626619Y657638D01*
X626633Y657512D01*
X626640Y657386D01*
X626653Y657340D01*
X626659Y657292D01*
X626701Y657173D01*
X626736Y657051D01*
X626760Y657009D01*
X626776Y656963D01*
X626845Y656857D01*
X626906Y656747D01*
X626946Y656701D01*
X626965Y656671D01*
X627000Y656637D01*
X627065Y656561D01*
X646909Y636717D01*
X647008Y636638D01*
X647102Y636554D01*
X647144Y636530D01*
X647182Y636500D01*
X647296Y636446D01*
X647407Y636385D01*
X647453Y636372D01*
X647497Y636351D01*
X647620Y636325D01*
X647742Y636290D01*
X647803Y636285D01*
X647837Y636278D01*
X647885Y636279D01*
X647986Y636271D01*
X712946Y636271D01*
X713046Y636282D01*
X713146Y636284D01*
X713219Y636302D01*
X713293Y636311D01*
X713387Y636344D01*
X713484Y636369D01*
X713551Y636403D01*
X713621Y636428D01*
X713705Y636483D01*
X713794Y636529D01*
X713851Y636577D01*
X713913Y636617D01*
X713983Y636689D01*
X714060Y636754D01*
X714104Y636814D01*
X714156Y636868D01*
X714207Y636954D01*
X714267Y637035D01*
X714296Y637103D01*
X714334Y637167D01*
X714365Y637262D01*
X714405Y637355D01*
X714418Y637428D01*
X714441Y637499D01*
X714449Y637599D01*
X714467Y637698D01*
X714463Y637772D01*
X714469Y637846D01*
X714454Y637946D01*
X714449Y638046D01*
X714428Y638117D01*
X714417Y638191D01*
X714380Y638284D01*
X714352Y638381D01*
X714316Y638446D01*
X714288Y638515D01*
X714231Y638597D01*
X714182Y638685D01*
X714117Y638761D01*
X714089Y638801D01*
X714063Y638825D01*
X714023Y638871D01*
X707098Y645797D01*
X705357Y649998D01*
X705357Y697161D01*
X705355Y697181D01*
X705356Y697199D01*
X705343Y697291D01*
X705336Y697412D01*
X705323Y697459D01*
X705317Y697507D01*
X705305Y697542D01*
X705305Y697543D01*
X705301Y697552D01*
X705275Y697626D01*
X705240Y697747D01*
X705216Y697789D01*
X705200Y697835D01*
X705131Y697941D01*
X705070Y698051D01*
X705030Y698098D01*
X705011Y698128D01*
X704976Y698161D01*
X704911Y698238D01*
X701822Y701327D01*
X699134Y707815D01*
X699134Y739985D01*
X701822Y746473D01*
X706788Y751439D01*
X713276Y754127D01*
X720300Y754127D01*
X726788Y751439D01*
X731754Y746473D01*
X734442Y739985D01*
X734442Y707815D01*
X731754Y701327D01*
X728665Y698238D01*
X728586Y698139D01*
X728502Y698045D01*
X728478Y698003D01*
X728448Y697965D01*
X728394Y697851D01*
X728333Y697740D01*
X728320Y697693D01*
X728299Y697650D01*
X728273Y697526D01*
X728259Y697476D01*
X728248Y697442D01*
X728247Y697435D01*
X728238Y697404D01*
X728233Y697344D01*
X728226Y697309D01*
X728227Y697261D01*
X728219Y697161D01*
X728219Y658114D01*
X728222Y658088D01*
X728220Y658062D01*
X728242Y657915D01*
X728259Y657768D01*
X728267Y657743D01*
X728271Y657717D01*
X728326Y657579D01*
X728376Y657440D01*
X728390Y657418D01*
X728400Y657393D01*
X728485Y657272D01*
X728565Y657147D01*
X728584Y657129D01*
X728599Y657107D01*
X728709Y657008D01*
X728816Y656905D01*
X728838Y656891D01*
X728858Y656874D01*
X728988Y656802D01*
X729115Y656726D01*
X729140Y656718D01*
X729163Y656705D01*
X729306Y656665D01*
X729447Y656620D01*
X729473Y656618D01*
X729498Y656610D01*
X729742Y656591D01*
X794754Y656591D01*
X798955Y654850D01*
X804357Y649449D01*
X804435Y649386D01*
X804508Y649316D01*
X804572Y649278D01*
X804630Y649232D01*
X804721Y649189D01*
X804807Y649138D01*
X804878Y649115D01*
X804945Y649083D01*
X805043Y649062D01*
X805139Y649031D01*
X805213Y649025D01*
X805286Y649010D01*
X805386Y649011D01*
X805486Y649003D01*
X805560Y649014D01*
X805634Y649016D01*
X805731Y649040D01*
X805831Y649055D01*
X805900Y649082D01*
X805972Y649101D01*
X806062Y649147D01*
X806155Y649184D01*
X806216Y649226D01*
X806282Y649260D01*
X806359Y649325D01*
X806441Y649383D01*
X806491Y649438D01*
X806547Y649486D01*
X806607Y649567D01*
X806674Y649641D01*
X806710Y649707D01*
X806755Y649766D01*
X806794Y649859D01*
X806843Y649946D01*
X806863Y650018D01*
X806893Y650086D01*
X806910Y650185D01*
X806938Y650282D01*
X806946Y650382D01*
X806954Y650429D01*
X806952Y650465D01*
X806957Y650526D01*
X806957Y697161D01*
X806955Y697181D01*
X806956Y697199D01*
X806943Y697291D01*
X806936Y697412D01*
X806923Y697459D01*
X806917Y697507D01*
X806905Y697542D01*
X806905Y697543D01*
X806901Y697552D01*
X806875Y697626D01*
X806840Y697747D01*
X806816Y697789D01*
X806800Y697835D01*
X806731Y697941D01*
X806670Y698051D01*
X806630Y698098D01*
X806611Y698128D01*
X806576Y698161D01*
X806511Y698238D01*
X803422Y701327D01*
X800734Y707815D01*
X800734Y739985D01*
X803422Y746473D01*
X808388Y751439D01*
X814876Y754127D01*
X821900Y754127D01*
X828388Y751439D01*
X833354Y746473D01*
X836042Y739985D01*
X836042Y707815D01*
X833354Y701327D01*
X830265Y698238D01*
X830186Y698139D01*
X830102Y698045D01*
X830078Y698003D01*
X830048Y697965D01*
X829994Y697851D01*
X829933Y697740D01*
X829920Y697693D01*
X829899Y697650D01*
X829873Y697526D01*
X829859Y697476D01*
X829848Y697442D01*
X829847Y697435D01*
X829838Y697404D01*
X829833Y697344D01*
X829826Y697309D01*
X829827Y697261D01*
X829819Y697161D01*
X829819Y650018D01*
X829833Y649892D01*
X829840Y649766D01*
X829853Y649720D01*
X829859Y649672D01*
X829901Y649553D01*
X829936Y649431D01*
X829960Y649389D01*
X829976Y649343D01*
X830045Y649237D01*
X830106Y649127D01*
X830146Y649081D01*
X830165Y649051D01*
X830200Y649017D01*
X830265Y648941D01*
X856239Y622967D01*
X856317Y622904D01*
X856390Y622834D01*
X856454Y622796D01*
X856512Y622750D01*
X856603Y622707D01*
X856689Y622656D01*
X856760Y622633D01*
X856827Y622601D01*
X856925Y622580D01*
X857021Y622549D01*
X857095Y622543D01*
X857168Y622528D01*
X857268Y622529D01*
X857368Y622521D01*
X857442Y622532D01*
X857516Y622534D01*
X857613Y622558D01*
X857713Y622573D01*
X857782Y622600D01*
X857854Y622619D01*
X857944Y622665D01*
X858037Y622702D01*
X858098Y622744D01*
X858164Y622778D01*
X858241Y622843D01*
X858323Y622901D01*
X858373Y622956D01*
X858429Y623004D01*
X858489Y623085D01*
X858556Y623159D01*
X858592Y623225D01*
X858637Y623284D01*
X858676Y623377D01*
X858725Y623464D01*
X858745Y623536D01*
X858775Y623604D01*
X858792Y623703D01*
X858820Y623800D01*
X858828Y623900D01*
X858836Y623947D01*
X858834Y623983D01*
X858839Y624044D01*
X858839Y628081D01*
X860486Y634226D01*
X863667Y639735D01*
X868165Y644233D01*
X873674Y647414D01*
X879819Y649061D01*
X886181Y649061D01*
X892326Y647414D01*
X897835Y644233D01*
X902333Y639735D01*
X905514Y634226D01*
X907161Y628081D01*
X907161Y621719D01*
X905514Y615574D01*
X902333Y610065D01*
X897835Y605567D01*
X892326Y602386D01*
X886181Y600739D01*
X882144Y600739D01*
X882044Y600728D01*
X881944Y600726D01*
X881871Y600708D01*
X881797Y600699D01*
X881703Y600666D01*
X881606Y600641D01*
X881539Y600607D01*
X881469Y600582D01*
X881385Y600527D01*
X881296Y600481D01*
X881239Y600433D01*
X881177Y600393D01*
X881107Y600321D01*
X881030Y600256D01*
X880986Y600196D01*
X880934Y600142D01*
X880883Y600056D01*
X880823Y599975D01*
X880794Y599907D01*
X880756Y599843D01*
X880725Y599747D01*
X880685Y599655D01*
X880672Y599582D01*
X880649Y599511D01*
X880641Y599411D01*
X880623Y599312D01*
X880627Y599238D01*
X880621Y599164D01*
X880636Y599064D01*
X880641Y598964D01*
X880662Y598893D01*
X880673Y598819D01*
X880710Y598726D01*
X880738Y598629D01*
X880774Y598564D01*
X880802Y598495D01*
X880859Y598413D01*
X880908Y598325D01*
X880973Y598249D01*
X881001Y598209D01*
X881027Y598185D01*
X881067Y598139D01*
X913041Y566165D01*
X913068Y566137D01*
X913147Y566075D01*
X913220Y566004D01*
X913283Y565966D01*
X913341Y565920D01*
X913432Y565877D01*
X913519Y565826D01*
X913589Y565803D01*
X913656Y565771D01*
X913755Y565750D01*
X913851Y565719D01*
X913925Y565713D01*
X913997Y565698D01*
X914098Y565699D01*
X914198Y565691D01*
X914271Y565702D01*
X914345Y565704D01*
X914443Y565728D01*
X914543Y565743D01*
X914612Y565770D01*
X914683Y565788D01*
X914773Y565834D01*
X914867Y565872D01*
X914928Y565914D01*
X914993Y565948D01*
X915070Y566013D01*
X915153Y566071D01*
X915202Y566126D01*
X915259Y566174D01*
X915319Y566255D01*
X915386Y566329D01*
X915422Y566394D01*
X915466Y566454D01*
X915506Y566546D01*
X915555Y566634D01*
X915575Y566706D01*
X915604Y566774D01*
X915622Y566873D01*
X915650Y566970D01*
X915658Y567069D01*
X915666Y567117D01*
X915664Y567153D01*
X915669Y567214D01*
X915669Y692990D01*
X915661Y693066D01*
X915662Y693142D01*
X915641Y693238D01*
X915629Y693336D01*
X915604Y693408D01*
X915587Y693483D01*
X915545Y693571D01*
X915512Y693664D01*
X915470Y693728D01*
X915438Y693797D01*
X915376Y693874D01*
X915323Y693957D01*
X915268Y694010D01*
X915220Y694070D01*
X915143Y694131D01*
X915072Y694199D01*
X915007Y694238D01*
X914947Y694286D01*
X914813Y694354D01*
X914773Y694378D01*
X914755Y694384D01*
X914729Y694397D01*
X909988Y696361D01*
X905022Y701327D01*
X902334Y707815D01*
X902334Y739985D01*
X905022Y746473D01*
X909988Y751439D01*
X916476Y754127D01*
X923500Y754127D01*
X929988Y751439D01*
X934954Y746473D01*
X937642Y739985D01*
X937642Y715923D01*
X937642Y715921D01*
X937642Y715919D01*
X937662Y715748D01*
X937682Y715577D01*
X937682Y715575D01*
X937683Y715573D01*
X937758Y715340D01*
X938531Y713474D01*
X938531Y493671D01*
X938536Y493621D01*
X938534Y493570D01*
X938556Y493448D01*
X938571Y493325D01*
X938588Y493277D01*
X938597Y493228D01*
X938646Y493113D01*
X938688Y492996D01*
X938715Y492954D01*
X938735Y492908D01*
X938810Y492808D01*
X938877Y492704D01*
X938913Y492669D01*
X938943Y492628D01*
X939038Y492548D01*
X939128Y492461D01*
X939171Y492436D01*
X939209Y492403D01*
X939320Y492346D01*
X939427Y492283D01*
X939475Y492267D01*
X939520Y492244D01*
X939640Y492214D01*
X939759Y492176D01*
X939809Y492172D01*
X939858Y492160D01*
X939982Y492158D01*
X940106Y492148D01*
X940156Y492156D01*
X940206Y492155D01*
X940328Y492182D01*
X940451Y492200D01*
X940498Y492219D01*
X940547Y492229D01*
X940659Y492283D01*
X940775Y492329D01*
X940816Y492358D01*
X940862Y492379D01*
X940959Y492457D01*
X941061Y492528D01*
X941095Y492565D01*
X941134Y492597D01*
X941211Y492694D01*
X941294Y492787D01*
X941319Y492831D01*
X941350Y492870D01*
X941461Y493088D01*
X942594Y495823D01*
X945881Y499110D01*
X950176Y500889D01*
X954824Y500889D01*
X959119Y499110D01*
X962406Y495823D01*
X964185Y491528D01*
X964185Y473672D01*
X962406Y469377D01*
X959119Y466090D01*
X954824Y464311D01*
X950176Y464311D01*
X945881Y466090D01*
X942594Y469377D01*
X941207Y472725D01*
X941159Y472813D01*
X941119Y472905D01*
X941074Y472965D01*
X941038Y473030D01*
X940971Y473104D01*
X940911Y473185D01*
X940854Y473233D01*
X940804Y473288D01*
X940721Y473345D01*
X940645Y473410D01*
X940578Y473444D01*
X940517Y473486D01*
X940424Y473523D01*
X940334Y473569D01*
X940262Y473587D01*
X940193Y473614D01*
X940094Y473629D01*
X939996Y473653D01*
X939922Y473654D01*
X939848Y473665D01*
X939748Y473657D01*
X939648Y473658D01*
X939575Y473642D01*
X939501Y473636D01*
X939405Y473605D01*
X939307Y473584D01*
X939240Y473552D01*
X939169Y473529D01*
X939083Y473477D01*
X938992Y473434D01*
X938934Y473388D01*
X938871Y473349D01*
X938798Y473279D01*
X938720Y473217D01*
X938674Y473158D01*
X938621Y473106D01*
X938566Y473022D01*
X938504Y472943D01*
X938458Y472854D01*
X938432Y472813D01*
X938420Y472779D01*
X938393Y472725D01*
X937006Y469377D01*
X933719Y466090D01*
X929424Y464311D01*
X924776Y464311D01*
X920317Y466158D01*
X920172Y466200D01*
X920029Y466245D01*
X920005Y466247D01*
X919982Y466254D01*
X919831Y466261D01*
X919682Y466273D01*
X919658Y466270D01*
X919634Y466271D01*
X919486Y466244D01*
X919337Y466222D01*
X919315Y466213D01*
X919291Y466208D01*
X919153Y466148D01*
X919013Y466093D01*
X918993Y466079D01*
X918971Y466069D01*
X918850Y465980D01*
X918727Y465894D01*
X918711Y465876D01*
X918691Y465862D01*
X918594Y465747D01*
X918494Y465635D01*
X918482Y465614D01*
X918466Y465595D01*
X918398Y465462D01*
X918325Y465330D01*
X918319Y465307D01*
X918308Y465285D01*
X918271Y465140D01*
X918230Y464995D01*
X918228Y464965D01*
X918223Y464947D01*
X918223Y464900D01*
X918211Y464751D01*
X918211Y449649D01*
X918228Y449500D01*
X918240Y449350D01*
X918248Y449327D01*
X918251Y449303D01*
X918301Y449162D01*
X918347Y449018D01*
X918360Y448998D01*
X918368Y448975D01*
X918450Y448848D01*
X918527Y448720D01*
X918544Y448702D01*
X918557Y448682D01*
X918666Y448577D01*
X918770Y448470D01*
X918790Y448457D01*
X918808Y448440D01*
X918937Y448363D01*
X919063Y448281D01*
X919086Y448273D01*
X919107Y448261D01*
X919250Y448215D01*
X919392Y448165D01*
X919416Y448162D01*
X919439Y448155D01*
X919588Y448143D01*
X919738Y448126D01*
X919762Y448129D01*
X919786Y448127D01*
X919934Y448149D01*
X920084Y448167D01*
X920112Y448176D01*
X920131Y448178D01*
X920174Y448196D01*
X920317Y448242D01*
X924776Y450089D01*
X929424Y450089D01*
X933719Y448310D01*
X937006Y445023D01*
X938393Y441675D01*
X938441Y441587D01*
X938482Y441495D01*
X938526Y441435D01*
X938562Y441370D01*
X938629Y441296D01*
X938689Y441215D01*
X938746Y441167D01*
X938796Y441112D01*
X938879Y441055D01*
X938955Y440990D01*
X939022Y440956D01*
X939083Y440914D01*
X939176Y440877D01*
X939266Y440831D01*
X939338Y440813D01*
X939407Y440786D01*
X939506Y440771D01*
X939604Y440747D01*
X939678Y440746D01*
X939752Y440735D01*
X939852Y440743D01*
X939952Y440742D01*
X940025Y440758D01*
X940099Y440764D01*
X940195Y440795D01*
X940293Y440816D01*
X940360Y440848D01*
X940431Y440871D01*
X940517Y440923D01*
X940608Y440966D01*
X940666Y441012D01*
X940729Y441051D01*
X940802Y441121D01*
X940880Y441183D01*
X940926Y441242D01*
X940979Y441294D01*
X941034Y441378D01*
X941096Y441457D01*
X941142Y441546D01*
X941168Y441587D01*
X941180Y441621D01*
X941207Y441675D01*
X942594Y445023D01*
X945881Y448310D01*
X950176Y450089D01*
X954824Y450089D01*
X959119Y448310D01*
X962406Y445023D01*
X964185Y440728D01*
X964185Y422872D01*
X962406Y418577D01*
X959119Y415290D01*
X954824Y413511D01*
X950176Y413511D01*
X945881Y415290D01*
X942594Y418577D01*
X941207Y421925D01*
X941159Y422013D01*
X941119Y422105D01*
X941074Y422165D01*
X941038Y422230D01*
X940971Y422304D01*
X940911Y422385D01*
X940854Y422433D01*
X940804Y422488D01*
X940721Y422545D01*
X940645Y422610D01*
X940578Y422644D01*
X940517Y422686D01*
X940424Y422723D01*
X940334Y422769D01*
X940262Y422787D01*
X940193Y422814D01*
X940094Y422829D01*
X939996Y422853D01*
X939922Y422854D01*
X939848Y422865D01*
X939748Y422857D01*
X939648Y422858D01*
X939575Y422842D01*
X939501Y422836D01*
X939405Y422805D01*
X939307Y422784D01*
X939240Y422752D01*
X939169Y422729D01*
X939083Y422677D01*
X938992Y422634D01*
X938934Y422588D01*
X938871Y422549D01*
X938798Y422479D01*
X938720Y422417D01*
X938674Y422358D01*
X938621Y422306D01*
X938566Y422222D01*
X938504Y422143D01*
X938458Y422054D01*
X938432Y422013D01*
X938420Y421979D01*
X938393Y421925D01*
X937006Y418577D01*
X933719Y415290D01*
X929424Y413511D01*
X924776Y413511D01*
X920481Y415290D01*
X917194Y418577D01*
X916841Y419429D01*
X916804Y419496D01*
X916776Y419567D01*
X916720Y419648D01*
X916672Y419734D01*
X916621Y419790D01*
X916577Y419853D01*
X916504Y419919D01*
X916438Y419992D01*
X916375Y420035D01*
X916318Y420086D01*
X916232Y420134D01*
X916151Y420190D01*
X916080Y420218D01*
X916013Y420255D01*
X915918Y420282D01*
X915827Y420318D01*
X915751Y420329D01*
X915678Y420350D01*
X915529Y420362D01*
X915482Y420369D01*
X915463Y420367D01*
X915434Y420369D01*
X912909Y420369D01*
X912809Y420358D01*
X912709Y420356D01*
X912637Y420338D01*
X912563Y420329D01*
X912468Y420296D01*
X912371Y420271D01*
X912305Y420237D01*
X912235Y420212D01*
X912150Y420157D01*
X912061Y420111D01*
X912004Y420063D01*
X911942Y420023D01*
X911872Y419951D01*
X911796Y419886D01*
X911751Y419826D01*
X911700Y419772D01*
X911648Y419686D01*
X911588Y419605D01*
X911559Y419537D01*
X911521Y419473D01*
X911490Y419377D01*
X911450Y419285D01*
X911437Y419212D01*
X911415Y419141D01*
X911406Y419041D01*
X911389Y418942D01*
X911393Y418868D01*
X911387Y418794D01*
X911401Y418694D01*
X911407Y418594D01*
X911427Y418523D01*
X911438Y418449D01*
X911475Y418356D01*
X911503Y418259D01*
X911540Y418194D01*
X911567Y418125D01*
X911624Y418043D01*
X911673Y417955D01*
X911738Y417879D01*
X911766Y417839D01*
X911792Y417815D01*
X911832Y417769D01*
X919010Y410590D01*
X920751Y406389D01*
X920751Y399901D01*
X920768Y399752D01*
X920780Y399602D01*
X920788Y399579D01*
X920791Y399555D01*
X920841Y399414D01*
X920887Y399270D01*
X920900Y399250D01*
X920908Y399227D01*
X920990Y399100D01*
X921067Y398972D01*
X921084Y398954D01*
X921097Y398934D01*
X921205Y398829D01*
X921310Y398722D01*
X921330Y398709D01*
X921348Y398692D01*
X921477Y398615D01*
X921603Y398534D01*
X921626Y398525D01*
X921647Y398513D01*
X921790Y398467D01*
X921932Y398417D01*
X921956Y398414D01*
X921979Y398407D01*
X922128Y398395D01*
X922278Y398378D01*
X922302Y398381D01*
X922326Y398379D01*
X922475Y398401D01*
X922624Y398419D01*
X922652Y398428D01*
X922671Y398431D01*
X922715Y398448D01*
X922857Y398494D01*
X924776Y399289D01*
X929424Y399289D01*
X933719Y397510D01*
X937006Y394223D01*
X938393Y390875D01*
X938441Y390787D01*
X938482Y390695D01*
X938526Y390635D01*
X938562Y390570D01*
X938629Y390496D01*
X938689Y390415D01*
X938746Y390367D01*
X938796Y390312D01*
X938879Y390255D01*
X938955Y390190D01*
X939022Y390156D01*
X939083Y390114D01*
X939176Y390077D01*
X939266Y390031D01*
X939338Y390013D01*
X939407Y389986D01*
X939506Y389971D01*
X939604Y389947D01*
X939678Y389946D01*
X939752Y389935D01*
X939852Y389943D01*
X939952Y389942D01*
X940025Y389958D01*
X940099Y389964D01*
X940195Y389995D01*
X940293Y390016D01*
X940360Y390048D01*
X940431Y390071D01*
X940517Y390123D01*
X940608Y390166D01*
X940666Y390212D01*
X940729Y390251D01*
X940802Y390321D01*
X940880Y390383D01*
X940926Y390442D01*
X940979Y390494D01*
X941034Y390578D01*
X941096Y390657D01*
X941142Y390746D01*
X941168Y390787D01*
X941180Y390821D01*
X941207Y390875D01*
X942594Y394223D01*
X945881Y397510D01*
X950176Y399289D01*
X954824Y399289D01*
X959119Y397510D01*
X962406Y394223D01*
X964185Y389928D01*
X964185Y372072D01*
X962406Y367777D01*
X959119Y364490D01*
X954824Y362711D01*
X950176Y362711D01*
X945881Y364490D01*
X942594Y367777D01*
X941207Y371125D01*
X941159Y371213D01*
X941119Y371305D01*
X941074Y371365D01*
X941038Y371430D01*
X940971Y371504D01*
X940911Y371585D01*
X940854Y371633D01*
X940804Y371688D01*
X940721Y371745D01*
X940645Y371810D01*
X940578Y371844D01*
X940517Y371886D01*
X940424Y371923D01*
X940334Y371969D01*
X940262Y371987D01*
X940193Y372014D01*
X940093Y372029D01*
X939996Y372053D01*
X939922Y372054D01*
X939848Y372065D01*
X939748Y372057D01*
X939648Y372058D01*
X939575Y372042D01*
X939501Y372036D01*
X939405Y372005D01*
X939307Y371984D01*
X939240Y371952D01*
X939169Y371929D01*
X939083Y371877D01*
X938992Y371834D01*
X938934Y371788D01*
X938871Y371749D01*
X938798Y371679D01*
X938720Y371617D01*
X938674Y371558D01*
X938621Y371506D01*
X938566Y371422D01*
X938504Y371343D01*
X938458Y371254D01*
X938432Y371213D01*
X938420Y371179D01*
X938393Y371125D01*
X937006Y367777D01*
X933719Y364490D01*
X929424Y362711D01*
X924776Y362711D01*
X920481Y364490D01*
X918388Y366583D01*
X918289Y366662D01*
X918195Y366746D01*
X918153Y366770D01*
X918115Y366800D01*
X918001Y366854D01*
X917890Y366915D01*
X917844Y366928D01*
X917800Y366949D01*
X917677Y366975D01*
X917555Y367010D01*
X917494Y367015D01*
X917459Y367022D01*
X917411Y367021D01*
X917311Y367029D01*
X907046Y367029D01*
X902845Y368770D01*
X899630Y371985D01*
X897889Y376186D01*
X897889Y398750D01*
X897875Y398875D01*
X897868Y399001D01*
X897855Y399048D01*
X897849Y399096D01*
X897807Y399215D01*
X897772Y399336D01*
X897748Y399378D01*
X897732Y399424D01*
X897663Y399530D01*
X897602Y399640D01*
X897562Y399687D01*
X897543Y399717D01*
X897508Y399750D01*
X897443Y399827D01*
X885251Y412019D01*
X885173Y412081D01*
X885100Y412151D01*
X885036Y412189D01*
X884978Y412235D01*
X884887Y412278D01*
X884801Y412330D01*
X884730Y412352D01*
X884663Y412384D01*
X884565Y412405D01*
X884469Y412436D01*
X884395Y412442D01*
X884322Y412458D01*
X884222Y412456D01*
X884122Y412464D01*
X884048Y412453D01*
X883974Y412452D01*
X883877Y412427D01*
X883777Y412412D01*
X883708Y412385D01*
X883636Y412367D01*
X883546Y412321D01*
X883453Y412284D01*
X883392Y412241D01*
X883326Y412207D01*
X883249Y412142D01*
X883167Y412085D01*
X883117Y412029D01*
X883061Y411981D01*
X883001Y411900D01*
X882934Y411826D01*
X882898Y411761D01*
X882853Y411701D01*
X882814Y411609D01*
X882765Y411521D01*
X882745Y411449D01*
X882715Y411381D01*
X882698Y411282D01*
X882670Y411185D01*
X882662Y411085D01*
X882654Y411038D01*
X882656Y411002D01*
X882651Y410942D01*
X882651Y375193D01*
X882665Y375068D01*
X882672Y374942D01*
X882685Y374895D01*
X882691Y374847D01*
X882733Y374728D01*
X882768Y374607D01*
X882792Y374565D01*
X882808Y374519D01*
X882877Y374413D01*
X882938Y374303D01*
X882978Y374256D01*
X882997Y374226D01*
X883032Y374193D01*
X883097Y374116D01*
X914585Y342628D01*
X914703Y342535D01*
X914818Y342437D01*
X914839Y342426D01*
X914858Y342411D01*
X914994Y342347D01*
X915128Y342279D01*
X915151Y342273D01*
X915173Y342262D01*
X915320Y342231D01*
X915466Y342195D01*
X915490Y342194D01*
X915514Y342189D01*
X915664Y342192D01*
X915815Y342189D01*
X915838Y342195D01*
X915862Y342195D01*
X916008Y342232D01*
X916155Y342264D01*
X916177Y342274D01*
X916200Y342280D01*
X916334Y342349D01*
X916470Y342414D01*
X916489Y342429D01*
X916510Y342440D01*
X916625Y342537D01*
X916742Y342631D01*
X916757Y342650D01*
X916776Y342666D01*
X916865Y342786D01*
X916958Y342904D01*
X916971Y342930D01*
X916983Y342946D01*
X917002Y342989D01*
X917070Y343122D01*
X917194Y343423D01*
X920481Y346710D01*
X924776Y348489D01*
X929424Y348489D01*
X933719Y346710D01*
X937006Y343423D01*
X938393Y340075D01*
X938427Y340013D01*
X938438Y339985D01*
X938449Y339969D01*
X938482Y339895D01*
X938526Y339835D01*
X938562Y339770D01*
X938629Y339696D01*
X938689Y339615D01*
X938746Y339567D01*
X938796Y339512D01*
X938879Y339455D01*
X938955Y339390D01*
X939022Y339356D01*
X939083Y339314D01*
X939176Y339277D01*
X939266Y339231D01*
X939338Y339213D01*
X939407Y339186D01*
X939506Y339171D01*
X939604Y339147D01*
X939678Y339146D01*
X939752Y339135D01*
X939852Y339143D01*
X939952Y339142D01*
X940025Y339158D01*
X940099Y339164D01*
X940195Y339195D01*
X940293Y339216D01*
X940360Y339248D01*
X940431Y339271D01*
X940517Y339323D01*
X940608Y339366D01*
X940666Y339412D01*
X940729Y339451D01*
X940802Y339521D01*
X940880Y339583D01*
X940926Y339642D01*
X940979Y339694D01*
X941034Y339778D01*
X941096Y339857D01*
X941142Y339946D01*
X941168Y339987D01*
X941180Y340021D01*
X941207Y340075D01*
X942594Y343423D01*
X945881Y346710D01*
X950176Y348489D01*
X954824Y348489D01*
X959119Y346710D01*
X962406Y343423D01*
X964185Y339128D01*
X964185Y321272D01*
X962406Y316977D01*
X959119Y313690D01*
X954824Y311911D01*
X950176Y311911D01*
X945881Y313690D01*
X942594Y316977D01*
X941207Y320325D01*
X941159Y320413D01*
X941119Y320505D01*
X941074Y320565D01*
X941038Y320630D01*
X940971Y320704D01*
X940911Y320785D01*
X940854Y320833D01*
X940804Y320888D01*
X940721Y320945D01*
X940645Y321010D01*
X940578Y321044D01*
X940517Y321086D01*
X940424Y321123D01*
X940334Y321169D01*
X940262Y321187D01*
X940193Y321214D01*
X940093Y321229D01*
X939996Y321253D01*
X939922Y321254D01*
X939848Y321265D01*
X939748Y321257D01*
X939648Y321258D01*
X939575Y321242D01*
X939501Y321236D01*
X939405Y321205D01*
X939307Y321184D01*
X939240Y321152D01*
X939169Y321129D01*
X939083Y321077D01*
X938992Y321034D01*
X938934Y320988D01*
X938871Y320949D01*
X938798Y320879D01*
X938720Y320817D01*
X938674Y320758D01*
X938621Y320706D01*
X938566Y320622D01*
X938504Y320543D01*
X938458Y320454D01*
X938432Y320413D01*
X938420Y320379D01*
X938393Y320325D01*
X937006Y316977D01*
X933719Y313690D01*
X929424Y311911D01*
X924776Y311911D01*
X920481Y313690D01*
X917194Y316977D01*
X916841Y317829D01*
X916804Y317896D01*
X916776Y317967D01*
X916720Y318048D01*
X916672Y318134D01*
X916621Y318190D01*
X916577Y318253D01*
X916504Y318319D01*
X916438Y318392D01*
X916375Y318435D01*
X916318Y318486D01*
X916232Y318534D01*
X916151Y318590D01*
X916080Y318618D01*
X916013Y318655D01*
X915918Y318682D01*
X915827Y318718D01*
X915751Y318729D01*
X915678Y318750D01*
X915529Y318762D01*
X915482Y318769D01*
X915463Y318767D01*
X915434Y318769D01*
X908684Y318769D01*
X908658Y318766D01*
X908632Y318768D01*
X908485Y318746D01*
X908338Y318729D01*
X908313Y318721D01*
X908287Y318717D01*
X908149Y318662D01*
X908010Y318612D01*
X907988Y318598D01*
X907963Y318588D01*
X907842Y318503D01*
X907717Y318423D01*
X907699Y318404D01*
X907677Y318389D01*
X907578Y318279D01*
X907475Y318172D01*
X907461Y318150D01*
X907444Y318130D01*
X907372Y318000D01*
X907296Y317873D01*
X907288Y317848D01*
X907275Y317825D01*
X907235Y317682D01*
X907190Y317541D01*
X907188Y317515D01*
X907180Y317490D01*
X907161Y317246D01*
X907161Y311719D01*
X905514Y305574D01*
X902333Y300065D01*
X897835Y295567D01*
X892326Y292386D01*
X886181Y290739D01*
X879819Y290739D01*
G37*
%LPD*%
%LPC*%
G36*
X263142Y186324D02*
X263142Y186324D01*
X257307Y188741D01*
X252841Y193207D01*
X250424Y199042D01*
X250424Y205358D01*
X252841Y211193D01*
X257307Y215659D01*
X263142Y218076D01*
X269458Y218076D01*
X275293Y215659D01*
X276875Y214077D01*
X276974Y213998D01*
X277068Y213914D01*
X277110Y213890D01*
X277148Y213860D01*
X277262Y213806D01*
X277373Y213745D01*
X277419Y213732D01*
X277463Y213711D01*
X277586Y213685D01*
X277708Y213650D01*
X277769Y213645D01*
X277804Y213638D01*
X277852Y213639D01*
X277952Y213631D01*
X400034Y213631D01*
X400160Y213645D01*
X400286Y213652D01*
X400332Y213665D01*
X400380Y213671D01*
X400499Y213713D01*
X400621Y213748D01*
X400663Y213772D01*
X400709Y213788D01*
X400815Y213857D01*
X400925Y213918D01*
X400971Y213958D01*
X401001Y213977D01*
X401035Y214012D01*
X401111Y214077D01*
X516043Y329009D01*
X516112Y329095D01*
X516133Y329117D01*
X516138Y329126D01*
X516206Y329202D01*
X516230Y329244D01*
X516260Y329282D01*
X516314Y329396D01*
X516375Y329507D01*
X516388Y329553D01*
X516409Y329597D01*
X516435Y329720D01*
X516470Y329842D01*
X516475Y329903D01*
X516482Y329937D01*
X516481Y329985D01*
X516489Y330086D01*
X516489Y377642D01*
X518230Y381844D01*
X588290Y451904D01*
X592492Y453645D01*
X640048Y453645D01*
X640174Y453659D01*
X640300Y453666D01*
X640346Y453679D01*
X640394Y453685D01*
X640513Y453727D01*
X640635Y453762D01*
X640677Y453786D01*
X640723Y453802D01*
X640829Y453871D01*
X640939Y453932D01*
X640985Y453972D01*
X641015Y453991D01*
X641049Y454026D01*
X641125Y454091D01*
X691671Y504637D01*
X691734Y504715D01*
X691804Y504788D01*
X691842Y504852D01*
X691888Y504910D01*
X691931Y505001D01*
X691982Y505087D01*
X692005Y505158D01*
X692037Y505225D01*
X692058Y505323D01*
X692089Y505419D01*
X692095Y505493D01*
X692110Y505566D01*
X692109Y505666D01*
X692117Y505766D01*
X692106Y505840D01*
X692104Y505914D01*
X692080Y506011D01*
X692065Y506111D01*
X692038Y506180D01*
X692019Y506252D01*
X691973Y506342D01*
X691936Y506435D01*
X691894Y506496D01*
X691860Y506562D01*
X691795Y506639D01*
X691737Y506721D01*
X691682Y506771D01*
X691634Y506827D01*
X691553Y506887D01*
X691479Y506954D01*
X691413Y506990D01*
X691354Y507035D01*
X691261Y507074D01*
X691174Y507123D01*
X691102Y507143D01*
X691034Y507173D01*
X690935Y507190D01*
X690838Y507218D01*
X690738Y507226D01*
X690691Y507234D01*
X690655Y507232D01*
X690594Y507237D01*
X680224Y507237D01*
X674177Y513284D01*
X674157Y513300D01*
X674140Y513320D01*
X674020Y513408D01*
X673904Y513500D01*
X673880Y513512D01*
X673859Y513527D01*
X673723Y513586D01*
X673589Y513649D01*
X673563Y513655D01*
X673539Y513665D01*
X673393Y513691D01*
X673248Y513723D01*
X673222Y513722D01*
X673196Y513727D01*
X673048Y513719D01*
X672900Y513717D01*
X672874Y513710D01*
X672848Y513709D01*
X672706Y513668D01*
X672562Y513632D01*
X672539Y513620D01*
X672513Y513612D01*
X672384Y513540D01*
X672252Y513472D01*
X672232Y513455D01*
X672209Y513442D01*
X672023Y513284D01*
X665976Y507237D01*
X654824Y507237D01*
X648777Y513284D01*
X648757Y513300D01*
X648740Y513320D01*
X648620Y513408D01*
X648504Y513500D01*
X648480Y513512D01*
X648459Y513527D01*
X648323Y513586D01*
X648189Y513649D01*
X648163Y513655D01*
X648139Y513665D01*
X647993Y513691D01*
X647848Y513723D01*
X647822Y513722D01*
X647796Y513727D01*
X647648Y513719D01*
X647500Y513717D01*
X647474Y513710D01*
X647448Y513709D01*
X647306Y513668D01*
X647162Y513632D01*
X647139Y513620D01*
X647113Y513612D01*
X646984Y513540D01*
X646852Y513472D01*
X646832Y513455D01*
X646809Y513442D01*
X646623Y513284D01*
X640576Y507237D01*
X629424Y507237D01*
X623377Y513284D01*
X623357Y513300D01*
X623340Y513320D01*
X623220Y513408D01*
X623104Y513500D01*
X623080Y513512D01*
X623059Y513527D01*
X622923Y513586D01*
X622789Y513649D01*
X622763Y513655D01*
X622739Y513665D01*
X622593Y513691D01*
X622448Y513723D01*
X622422Y513722D01*
X622396Y513727D01*
X622248Y513719D01*
X622100Y513717D01*
X622074Y513710D01*
X622048Y513709D01*
X621906Y513668D01*
X621762Y513632D01*
X621739Y513620D01*
X621713Y513612D01*
X621584Y513540D01*
X621452Y513472D01*
X621432Y513455D01*
X621409Y513442D01*
X621223Y513284D01*
X615176Y507237D01*
X604024Y507237D01*
X597977Y513284D01*
X597957Y513300D01*
X597940Y513320D01*
X597820Y513408D01*
X597704Y513500D01*
X597680Y513512D01*
X597659Y513527D01*
X597523Y513586D01*
X597389Y513649D01*
X597363Y513655D01*
X597339Y513665D01*
X597193Y513691D01*
X597048Y513723D01*
X597022Y513722D01*
X596996Y513727D01*
X596848Y513719D01*
X596700Y513717D01*
X596674Y513710D01*
X596648Y513709D01*
X596506Y513668D01*
X596362Y513632D01*
X596339Y513620D01*
X596313Y513612D01*
X596184Y513540D01*
X596052Y513472D01*
X596032Y513455D01*
X596009Y513442D01*
X595823Y513284D01*
X589776Y507237D01*
X578624Y507237D01*
X570737Y515124D01*
X570737Y526276D01*
X578624Y534163D01*
X589776Y534163D01*
X595823Y528116D01*
X595843Y528100D01*
X595860Y528080D01*
X595980Y527992D01*
X596096Y527900D01*
X596120Y527888D01*
X596141Y527873D01*
X596277Y527814D01*
X596411Y527751D01*
X596437Y527745D01*
X596461Y527735D01*
X596607Y527709D01*
X596752Y527677D01*
X596778Y527678D01*
X596804Y527673D01*
X596952Y527681D01*
X597100Y527683D01*
X597126Y527690D01*
X597152Y527691D01*
X597294Y527732D01*
X597438Y527768D01*
X597461Y527780D01*
X597487Y527788D01*
X597616Y527860D01*
X597748Y527928D01*
X597768Y527945D01*
X597791Y527958D01*
X597977Y528116D01*
X604024Y534163D01*
X615176Y534163D01*
X621223Y528116D01*
X621243Y528100D01*
X621260Y528080D01*
X621380Y527992D01*
X621496Y527900D01*
X621520Y527888D01*
X621541Y527873D01*
X621677Y527814D01*
X621811Y527751D01*
X621837Y527745D01*
X621861Y527735D01*
X622007Y527709D01*
X622152Y527677D01*
X622178Y527678D01*
X622204Y527673D01*
X622352Y527681D01*
X622500Y527683D01*
X622526Y527690D01*
X622552Y527691D01*
X622694Y527732D01*
X622838Y527768D01*
X622861Y527780D01*
X622887Y527788D01*
X623016Y527860D01*
X623148Y527928D01*
X623168Y527945D01*
X623191Y527958D01*
X623377Y528116D01*
X629424Y534163D01*
X640576Y534163D01*
X646623Y528116D01*
X646643Y528100D01*
X646660Y528080D01*
X646780Y527992D01*
X646896Y527900D01*
X646920Y527888D01*
X646941Y527873D01*
X647077Y527814D01*
X647211Y527751D01*
X647237Y527745D01*
X647261Y527735D01*
X647407Y527709D01*
X647552Y527677D01*
X647578Y527678D01*
X647604Y527673D01*
X647752Y527681D01*
X647900Y527683D01*
X647926Y527690D01*
X647952Y527691D01*
X648094Y527732D01*
X648238Y527768D01*
X648261Y527780D01*
X648287Y527788D01*
X648416Y527860D01*
X648548Y527928D01*
X648568Y527945D01*
X648591Y527958D01*
X648777Y528116D01*
X654824Y534163D01*
X665976Y534163D01*
X672023Y528116D01*
X672043Y528100D01*
X672060Y528080D01*
X672180Y527992D01*
X672296Y527900D01*
X672320Y527888D01*
X672341Y527873D01*
X672477Y527814D01*
X672611Y527751D01*
X672637Y527745D01*
X672661Y527735D01*
X672807Y527709D01*
X672952Y527677D01*
X672978Y527678D01*
X673004Y527673D01*
X673152Y527681D01*
X673300Y527683D01*
X673326Y527690D01*
X673352Y527691D01*
X673494Y527732D01*
X673638Y527768D01*
X673661Y527780D01*
X673687Y527788D01*
X673816Y527860D01*
X673948Y527928D01*
X673968Y527945D01*
X673991Y527958D01*
X674177Y528116D01*
X680224Y534163D01*
X691376Y534163D01*
X697423Y528116D01*
X697443Y528100D01*
X697460Y528080D01*
X697580Y527992D01*
X697696Y527900D01*
X697720Y527888D01*
X697741Y527873D01*
X697877Y527814D01*
X698011Y527751D01*
X698037Y527745D01*
X698061Y527735D01*
X698207Y527709D01*
X698352Y527677D01*
X698378Y527678D01*
X698404Y527673D01*
X698552Y527681D01*
X698700Y527683D01*
X698726Y527690D01*
X698752Y527691D01*
X698894Y527732D01*
X699038Y527768D01*
X699061Y527780D01*
X699087Y527788D01*
X699216Y527860D01*
X699348Y527928D01*
X699368Y527945D01*
X699391Y527958D01*
X699577Y528116D01*
X705624Y534163D01*
X716776Y534163D01*
X722823Y528116D01*
X722843Y528100D01*
X722860Y528080D01*
X722980Y527992D01*
X723096Y527900D01*
X723120Y527888D01*
X723141Y527873D01*
X723277Y527814D01*
X723411Y527751D01*
X723437Y527745D01*
X723461Y527735D01*
X723607Y527709D01*
X723752Y527677D01*
X723778Y527678D01*
X723804Y527673D01*
X723952Y527681D01*
X724100Y527683D01*
X724126Y527690D01*
X724152Y527691D01*
X724294Y527732D01*
X724438Y527768D01*
X724461Y527780D01*
X724487Y527788D01*
X724616Y527860D01*
X724748Y527928D01*
X724768Y527945D01*
X724791Y527958D01*
X724977Y528116D01*
X731024Y534163D01*
X742176Y534163D01*
X748223Y528116D01*
X748243Y528100D01*
X748260Y528080D01*
X748380Y527992D01*
X748496Y527900D01*
X748520Y527888D01*
X748541Y527873D01*
X748677Y527814D01*
X748811Y527751D01*
X748837Y527745D01*
X748861Y527735D01*
X749007Y527709D01*
X749152Y527677D01*
X749178Y527678D01*
X749204Y527673D01*
X749352Y527681D01*
X749500Y527683D01*
X749526Y527690D01*
X749552Y527691D01*
X749694Y527732D01*
X749838Y527768D01*
X749861Y527780D01*
X749887Y527788D01*
X750016Y527860D01*
X750148Y527928D01*
X750168Y527945D01*
X750191Y527958D01*
X750377Y528116D01*
X756424Y534163D01*
X767576Y534163D01*
X775463Y526276D01*
X775463Y515124D01*
X774329Y513990D01*
X774313Y513970D01*
X774293Y513953D01*
X774205Y513833D01*
X774113Y513717D01*
X774102Y513694D01*
X774086Y513672D01*
X774027Y513536D01*
X773964Y513402D01*
X773958Y513376D01*
X773948Y513352D01*
X773922Y513206D01*
X773891Y513061D01*
X773891Y513035D01*
X773886Y513009D01*
X773894Y512861D01*
X773896Y512713D01*
X773903Y512688D01*
X773904Y512661D01*
X773945Y512519D01*
X773981Y512375D01*
X773993Y512352D01*
X774001Y512327D01*
X774073Y512197D01*
X774141Y512065D01*
X774158Y512045D01*
X774171Y512022D01*
X774329Y511836D01*
X840524Y445641D01*
X842265Y441440D01*
X842265Y320456D01*
X840524Y316255D01*
X837095Y312825D01*
X836977Y312707D01*
X836898Y312608D01*
X836814Y312515D01*
X836790Y312472D01*
X836760Y312434D01*
X836706Y312320D01*
X836645Y312210D01*
X836632Y312163D01*
X836611Y312119D01*
X836585Y311996D01*
X836550Y311874D01*
X836545Y311813D01*
X836538Y311779D01*
X836539Y311731D01*
X836531Y311630D01*
X836531Y213852D01*
X836545Y213726D01*
X836552Y213600D01*
X836565Y213554D01*
X836571Y213506D01*
X836613Y213387D01*
X836648Y213265D01*
X836672Y213223D01*
X836688Y213178D01*
X836757Y213071D01*
X836818Y212961D01*
X836858Y212915D01*
X836877Y212885D01*
X836912Y212851D01*
X836977Y212775D01*
X838559Y211193D01*
X840976Y205358D01*
X840976Y199042D01*
X838559Y193207D01*
X834093Y188741D01*
X828258Y186324D01*
X821942Y186324D01*
X816107Y188741D01*
X811641Y193207D01*
X809224Y199042D01*
X809224Y205358D01*
X811641Y211193D01*
X813223Y212775D01*
X813302Y212874D01*
X813386Y212968D01*
X813410Y213010D01*
X813440Y213048D01*
X813494Y213162D01*
X813555Y213273D01*
X813568Y213319D01*
X813589Y213363D01*
X813615Y213486D01*
X813650Y213608D01*
X813655Y213669D01*
X813662Y213704D01*
X813661Y213752D01*
X813669Y213852D01*
X813669Y316992D01*
X813666Y317018D01*
X813668Y317044D01*
X813646Y317191D01*
X813629Y317338D01*
X813621Y317363D01*
X813617Y317389D01*
X813562Y317527D01*
X813512Y317666D01*
X813498Y317688D01*
X813488Y317713D01*
X813403Y317834D01*
X813323Y317959D01*
X813304Y317977D01*
X813289Y317999D01*
X813179Y318098D01*
X813072Y318201D01*
X813050Y318215D01*
X813030Y318232D01*
X812900Y318304D01*
X812773Y318380D01*
X812748Y318388D01*
X812725Y318401D01*
X812582Y318441D01*
X812441Y318486D01*
X812415Y318488D01*
X812390Y318496D01*
X812146Y318515D01*
X807960Y318515D01*
X801115Y325360D01*
X801115Y335040D01*
X807960Y341885D01*
X817880Y341885D01*
X817906Y341888D01*
X817932Y341886D01*
X818079Y341908D01*
X818226Y341925D01*
X818251Y341933D01*
X818277Y341937D01*
X818415Y341992D01*
X818554Y342042D01*
X818576Y342056D01*
X818601Y342066D01*
X818722Y342151D01*
X818847Y342231D01*
X818865Y342250D01*
X818887Y342265D01*
X818986Y342375D01*
X819089Y342482D01*
X819103Y342504D01*
X819120Y342524D01*
X819192Y342654D01*
X819268Y342781D01*
X819276Y342806D01*
X819289Y342829D01*
X819329Y342972D01*
X819374Y343113D01*
X819376Y343139D01*
X819384Y343164D01*
X819403Y343408D01*
X819403Y433800D01*
X819389Y433926D01*
X819382Y434052D01*
X819369Y434098D01*
X819363Y434146D01*
X819321Y434265D01*
X819286Y434387D01*
X819262Y434429D01*
X819246Y434475D01*
X819177Y434581D01*
X819116Y434691D01*
X819076Y434737D01*
X819057Y434767D01*
X819022Y434801D01*
X818957Y434877D01*
X755739Y498095D01*
X752310Y501525D01*
X750961Y504780D01*
X750937Y504824D01*
X750920Y504871D01*
X750852Y504976D01*
X750792Y505085D01*
X750758Y505122D01*
X750731Y505164D01*
X750641Y505251D01*
X750558Y505343D01*
X750516Y505371D01*
X750480Y505406D01*
X750373Y505470D01*
X750271Y505541D01*
X750224Y505559D01*
X750181Y505585D01*
X750063Y505623D01*
X749947Y505669D01*
X749897Y505676D01*
X749849Y505691D01*
X749725Y505701D01*
X749602Y505719D01*
X749552Y505715D01*
X749502Y505719D01*
X749379Y505701D01*
X749255Y505691D01*
X749207Y505675D01*
X749157Y505668D01*
X749042Y505622D01*
X748923Y505583D01*
X748880Y505557D01*
X748833Y505539D01*
X748731Y505468D01*
X748625Y505404D01*
X748588Y505369D01*
X748547Y505340D01*
X748464Y505248D01*
X748375Y505161D01*
X748347Y505119D01*
X748314Y505081D01*
X748254Y504972D01*
X748186Y504868D01*
X748169Y504820D01*
X748145Y504776D01*
X748111Y504656D01*
X748070Y504539D01*
X748064Y504489D01*
X748050Y504441D01*
X748031Y504197D01*
X748031Y493026D01*
X746290Y488825D01*
X672209Y414744D01*
X668008Y413003D01*
X622808Y413003D01*
X622782Y413000D01*
X622756Y413002D01*
X622609Y412980D01*
X622462Y412963D01*
X622437Y412955D01*
X622411Y412951D01*
X622273Y412896D01*
X622134Y412846D01*
X622112Y412832D01*
X622087Y412822D01*
X621966Y412737D01*
X621841Y412657D01*
X621823Y412638D01*
X621801Y412623D01*
X621702Y412513D01*
X621599Y412406D01*
X621585Y412384D01*
X621568Y412364D01*
X621496Y412234D01*
X621420Y412107D01*
X621412Y412082D01*
X621399Y412059D01*
X621359Y411916D01*
X621314Y411775D01*
X621312Y411749D01*
X621304Y411724D01*
X621285Y411480D01*
X621285Y401560D01*
X614440Y394715D01*
X604760Y394715D01*
X597746Y401730D01*
X597725Y401746D01*
X597708Y401766D01*
X597589Y401854D01*
X597473Y401946D01*
X597449Y401958D01*
X597428Y401973D01*
X597292Y402032D01*
X597157Y402095D01*
X597132Y402101D01*
X597108Y402111D01*
X596962Y402137D01*
X596817Y402169D01*
X596791Y402168D01*
X596765Y402173D01*
X596616Y402165D01*
X596468Y402163D01*
X596443Y402156D01*
X596417Y402155D01*
X596274Y402114D01*
X596130Y402078D01*
X596107Y402066D01*
X596082Y402058D01*
X595953Y401986D01*
X595820Y401918D01*
X595800Y401901D01*
X595778Y401888D01*
X595591Y401730D01*
X557577Y363715D01*
X557498Y363616D01*
X557414Y363522D01*
X557390Y363480D01*
X557360Y363442D01*
X557306Y363328D01*
X557245Y363217D01*
X557232Y363171D01*
X557211Y363127D01*
X557185Y363004D01*
X557150Y362882D01*
X557145Y362821D01*
X557138Y362786D01*
X557139Y362738D01*
X557131Y362638D01*
X557131Y213852D01*
X557145Y213726D01*
X557152Y213600D01*
X557165Y213554D01*
X557171Y213506D01*
X557213Y213387D01*
X557248Y213265D01*
X557272Y213223D01*
X557288Y213178D01*
X557357Y213071D01*
X557418Y212961D01*
X557458Y212915D01*
X557477Y212885D01*
X557512Y212851D01*
X557577Y212775D01*
X559159Y211193D01*
X561576Y205358D01*
X561576Y199042D01*
X559159Y193207D01*
X554693Y188741D01*
X548858Y186324D01*
X542542Y186324D01*
X536707Y188741D01*
X532241Y193207D01*
X529824Y199042D01*
X529824Y205358D01*
X532241Y211193D01*
X533823Y212775D01*
X533902Y212874D01*
X533986Y212968D01*
X534010Y213010D01*
X534040Y213048D01*
X534094Y213162D01*
X534155Y213273D01*
X534168Y213319D01*
X534189Y213363D01*
X534215Y213486D01*
X534250Y213608D01*
X534255Y213669D01*
X534262Y213704D01*
X534261Y213752D01*
X534269Y213852D01*
X534269Y311226D01*
X534258Y311326D01*
X534256Y311426D01*
X534238Y311499D01*
X534229Y311573D01*
X534196Y311667D01*
X534171Y311764D01*
X534137Y311831D01*
X534112Y311901D01*
X534057Y311985D01*
X534011Y312074D01*
X533963Y312131D01*
X533923Y312193D01*
X533851Y312263D01*
X533786Y312340D01*
X533726Y312384D01*
X533672Y312436D01*
X533586Y312487D01*
X533505Y312547D01*
X533437Y312576D01*
X533373Y312614D01*
X533277Y312645D01*
X533185Y312685D01*
X533112Y312698D01*
X533041Y312721D01*
X532941Y312729D01*
X532842Y312747D01*
X532768Y312743D01*
X532694Y312749D01*
X532594Y312734D01*
X532494Y312729D01*
X532423Y312708D01*
X532349Y312697D01*
X532256Y312660D01*
X532159Y312632D01*
X532094Y312596D01*
X532025Y312568D01*
X531943Y312511D01*
X531855Y312462D01*
X531779Y312397D01*
X531739Y312369D01*
X531715Y312343D01*
X531669Y312303D01*
X411875Y192510D01*
X407674Y190769D01*
X277952Y190769D01*
X277826Y190755D01*
X277700Y190748D01*
X277654Y190735D01*
X277606Y190729D01*
X277487Y190687D01*
X277365Y190652D01*
X277323Y190628D01*
X277278Y190612D01*
X277171Y190543D01*
X277061Y190482D01*
X277015Y190442D01*
X276985Y190423D01*
X276951Y190388D01*
X276875Y190323D01*
X275293Y188741D01*
X269458Y186324D01*
X263142Y186324D01*
G37*
%LPD*%
%LPC*%
G36*
X249160Y369315D02*
X249160Y369315D01*
X242315Y376160D01*
X242315Y385840D01*
X249098Y392623D01*
X249114Y392643D01*
X249134Y392660D01*
X249223Y392780D01*
X249315Y392896D01*
X249326Y392920D01*
X249342Y392941D01*
X249400Y393077D01*
X249464Y393211D01*
X249469Y393237D01*
X249480Y393261D01*
X249506Y393407D01*
X249537Y393552D01*
X249537Y393578D01*
X249541Y393604D01*
X249534Y393752D01*
X249531Y393900D01*
X249525Y393926D01*
X249523Y393952D01*
X249482Y394094D01*
X249446Y394238D01*
X249434Y394261D01*
X249427Y394287D01*
X249355Y394416D01*
X249287Y394548D01*
X249270Y394568D01*
X249257Y394591D01*
X249098Y394777D01*
X242315Y401560D01*
X242315Y411240D01*
X249098Y418023D01*
X249114Y418043D01*
X249134Y418060D01*
X249223Y418180D01*
X249315Y418296D01*
X249326Y418320D01*
X249342Y418341D01*
X249400Y418477D01*
X249464Y418611D01*
X249469Y418637D01*
X249480Y418661D01*
X249506Y418807D01*
X249537Y418952D01*
X249537Y418978D01*
X249541Y419004D01*
X249534Y419152D01*
X249531Y419300D01*
X249525Y419326D01*
X249523Y419352D01*
X249482Y419494D01*
X249446Y419638D01*
X249434Y419661D01*
X249427Y419687D01*
X249355Y419816D01*
X249287Y419948D01*
X249270Y419968D01*
X249257Y419991D01*
X249098Y420177D01*
X242315Y426960D01*
X242315Y436640D01*
X249098Y443423D01*
X249114Y443443D01*
X249134Y443460D01*
X249223Y443580D01*
X249315Y443696D01*
X249326Y443720D01*
X249342Y443741D01*
X249400Y443877D01*
X249464Y444011D01*
X249469Y444037D01*
X249480Y444061D01*
X249506Y444207D01*
X249537Y444352D01*
X249537Y444378D01*
X249541Y444404D01*
X249534Y444552D01*
X249531Y444700D01*
X249525Y444726D01*
X249523Y444752D01*
X249482Y444894D01*
X249446Y445038D01*
X249434Y445061D01*
X249427Y445087D01*
X249355Y445216D01*
X249287Y445348D01*
X249270Y445368D01*
X249257Y445391D01*
X249098Y445577D01*
X242315Y452360D01*
X242315Y462040D01*
X245933Y465658D01*
X246012Y465757D01*
X246096Y465851D01*
X246120Y465893D01*
X246150Y465931D01*
X246204Y466045D01*
X246265Y466156D01*
X246278Y466202D01*
X246299Y466246D01*
X246325Y466369D01*
X246360Y466491D01*
X246365Y466552D01*
X246372Y466587D01*
X246371Y466635D01*
X246379Y466735D01*
X246379Y500114D01*
X248120Y504315D01*
X295785Y551980D01*
X299986Y553721D01*
X358090Y553721D01*
X358190Y553732D01*
X358290Y553734D01*
X358363Y553752D01*
X358437Y553761D01*
X358531Y553794D01*
X358628Y553819D01*
X358695Y553853D01*
X358765Y553878D01*
X358849Y553933D01*
X358938Y553979D01*
X358995Y554027D01*
X359057Y554067D01*
X359127Y554139D01*
X359204Y554204D01*
X359248Y554264D01*
X359300Y554318D01*
X359351Y554404D01*
X359411Y554485D01*
X359440Y554553D01*
X359478Y554617D01*
X359509Y554713D01*
X359549Y554805D01*
X359562Y554878D01*
X359585Y554949D01*
X359593Y555049D01*
X359611Y555148D01*
X359607Y555222D01*
X359613Y555296D01*
X359598Y555396D01*
X359593Y555496D01*
X359572Y555567D01*
X359561Y555641D01*
X359524Y555734D01*
X359496Y555831D01*
X359460Y555896D01*
X359432Y555965D01*
X359375Y556047D01*
X359326Y556135D01*
X359261Y556211D01*
X359233Y556251D01*
X359207Y556275D01*
X359167Y556321D01*
X355599Y559889D01*
X355599Y570411D01*
X363039Y577851D01*
X373561Y577851D01*
X381001Y570411D01*
X381001Y559889D01*
X377433Y556321D01*
X377370Y556243D01*
X377300Y556170D01*
X377262Y556106D01*
X377216Y556048D01*
X377173Y555957D01*
X377122Y555871D01*
X377099Y555800D01*
X377067Y555733D01*
X377046Y555635D01*
X377015Y555539D01*
X377009Y555465D01*
X376994Y555392D01*
X376995Y555292D01*
X376987Y555192D01*
X376998Y555118D01*
X377000Y555044D01*
X377024Y554947D01*
X377039Y554847D01*
X377067Y554778D01*
X377085Y554706D01*
X377131Y554616D01*
X377168Y554523D01*
X377210Y554462D01*
X377244Y554396D01*
X377309Y554319D01*
X377367Y554237D01*
X377422Y554187D01*
X377470Y554131D01*
X377551Y554071D01*
X377625Y554004D01*
X377691Y553968D01*
X377750Y553923D01*
X377843Y553884D01*
X377931Y553835D01*
X378002Y553815D01*
X378070Y553785D01*
X378169Y553768D01*
X378266Y553740D01*
X378366Y553732D01*
X378413Y553724D01*
X378449Y553726D01*
X378510Y553721D01*
X519144Y553721D01*
X519270Y553735D01*
X519396Y553742D01*
X519442Y553755D01*
X519490Y553761D01*
X519609Y553803D01*
X519731Y553838D01*
X519773Y553862D01*
X519819Y553878D01*
X519925Y553947D01*
X520035Y554008D01*
X520081Y554048D01*
X520111Y554067D01*
X520145Y554102D01*
X520221Y554167D01*
X583753Y617699D01*
X583832Y617798D01*
X583916Y617892D01*
X583940Y617934D01*
X583970Y617972D01*
X584024Y618086D01*
X584085Y618197D01*
X584098Y618243D01*
X584119Y618287D01*
X584145Y618410D01*
X584180Y618532D01*
X584185Y618593D01*
X584192Y618627D01*
X584191Y618675D01*
X584199Y618776D01*
X584199Y625824D01*
X584185Y625950D01*
X584178Y626076D01*
X584165Y626122D01*
X584159Y626170D01*
X584117Y626289D01*
X584082Y626411D01*
X584058Y626453D01*
X584042Y626499D01*
X583973Y626605D01*
X583912Y626715D01*
X583872Y626761D01*
X583853Y626791D01*
X583818Y626825D01*
X583753Y626901D01*
X583524Y627130D01*
X583489Y627159D01*
X583458Y627193D01*
X583352Y627267D01*
X583251Y627347D01*
X583210Y627366D01*
X583173Y627393D01*
X583053Y627441D01*
X582936Y627496D01*
X582892Y627505D01*
X582849Y627522D01*
X582722Y627542D01*
X582596Y627569D01*
X582550Y627568D01*
X582505Y627575D01*
X582376Y627565D01*
X582247Y627563D01*
X582203Y627552D01*
X582157Y627549D01*
X582034Y627510D01*
X581909Y627478D01*
X581869Y627457D01*
X581825Y627444D01*
X581818Y627439D01*
X570016Y627439D01*
X569990Y627436D01*
X569964Y627438D01*
X569817Y627416D01*
X569670Y627399D01*
X569645Y627391D01*
X569619Y627387D01*
X569482Y627332D01*
X569342Y627282D01*
X569320Y627268D01*
X569295Y627258D01*
X569174Y627173D01*
X569049Y627093D01*
X569031Y627074D01*
X569009Y627059D01*
X568910Y626949D01*
X568807Y626842D01*
X568793Y626820D01*
X568776Y626800D01*
X568704Y626670D01*
X568628Y626543D01*
X568620Y626518D01*
X568607Y626495D01*
X568567Y626352D01*
X568522Y626211D01*
X568520Y626185D01*
X568513Y626160D01*
X568493Y625916D01*
X568493Y625407D01*
X567984Y625407D01*
X567958Y625404D01*
X567932Y625406D01*
X567785Y625384D01*
X567638Y625367D01*
X567613Y625358D01*
X567587Y625354D01*
X567449Y625300D01*
X567310Y625250D01*
X567288Y625235D01*
X567263Y625226D01*
X567142Y625141D01*
X567017Y625061D01*
X566999Y625042D01*
X566977Y625027D01*
X566878Y624917D01*
X566775Y624810D01*
X566761Y624787D01*
X566744Y624768D01*
X566672Y624638D01*
X566596Y624511D01*
X566588Y624486D01*
X566575Y624463D01*
X566535Y624320D01*
X566490Y624179D01*
X566487Y624153D01*
X566480Y624128D01*
X566461Y623884D01*
X566461Y613215D01*
X566204Y613255D01*
X564417Y613836D01*
X562743Y614689D01*
X561222Y615794D01*
X559894Y617122D01*
X559044Y618291D01*
X558980Y618362D01*
X558923Y618438D01*
X558862Y618490D01*
X558809Y618548D01*
X558730Y618602D01*
X558657Y618664D01*
X558586Y618700D01*
X558521Y618744D01*
X558432Y618779D01*
X558346Y618822D01*
X558270Y618842D01*
X558196Y618870D01*
X558101Y618883D01*
X558008Y618906D01*
X557929Y618908D01*
X557851Y618919D01*
X557756Y618910D01*
X557660Y618912D01*
X557582Y618895D01*
X557504Y618888D01*
X557413Y618858D01*
X557319Y618837D01*
X557248Y618803D01*
X557173Y618778D01*
X557091Y618729D01*
X557005Y618687D01*
X556943Y618638D01*
X556875Y618597D01*
X556807Y618530D01*
X556732Y618470D01*
X556683Y618408D01*
X556627Y618352D01*
X556576Y618272D01*
X556516Y618197D01*
X556467Y618100D01*
X556440Y618058D01*
X556429Y618027D01*
X556405Y617979D01*
X555874Y616698D01*
X551802Y612626D01*
X546480Y610421D01*
X540720Y610421D01*
X535398Y612626D01*
X531977Y616047D01*
X531957Y616063D01*
X531940Y616083D01*
X531820Y616171D01*
X531704Y616264D01*
X531680Y616275D01*
X531659Y616290D01*
X531523Y616349D01*
X531389Y616412D01*
X531363Y616418D01*
X531339Y616428D01*
X531193Y616455D01*
X531048Y616486D01*
X531022Y616485D01*
X530996Y616490D01*
X530848Y616482D01*
X530700Y616480D01*
X530674Y616473D01*
X530648Y616472D01*
X530506Y616431D01*
X530362Y616395D01*
X530339Y616383D01*
X530313Y616376D01*
X530184Y616303D01*
X530052Y616235D01*
X530032Y616218D01*
X530009Y616205D01*
X529823Y616047D01*
X526402Y612626D01*
X521080Y610421D01*
X515320Y610421D01*
X509998Y612626D01*
X506577Y616047D01*
X506557Y616063D01*
X506540Y616083D01*
X506420Y616171D01*
X506304Y616264D01*
X506280Y616275D01*
X506259Y616290D01*
X506123Y616349D01*
X505989Y616412D01*
X505963Y616418D01*
X505939Y616428D01*
X505793Y616455D01*
X505648Y616486D01*
X505622Y616485D01*
X505596Y616490D01*
X505448Y616482D01*
X505300Y616480D01*
X505274Y616473D01*
X505248Y616472D01*
X505106Y616431D01*
X504962Y616395D01*
X504939Y616383D01*
X504913Y616376D01*
X504784Y616303D01*
X504652Y616235D01*
X504632Y616218D01*
X504609Y616205D01*
X504423Y616047D01*
X501002Y612626D01*
X495680Y610421D01*
X489920Y610421D01*
X484598Y612626D01*
X481177Y616047D01*
X481157Y616063D01*
X481140Y616083D01*
X481020Y616171D01*
X480904Y616264D01*
X480880Y616275D01*
X480859Y616290D01*
X480723Y616349D01*
X480589Y616412D01*
X480563Y616418D01*
X480539Y616428D01*
X480393Y616455D01*
X480248Y616486D01*
X480222Y616485D01*
X480196Y616490D01*
X480048Y616482D01*
X479900Y616480D01*
X479874Y616473D01*
X479848Y616472D01*
X479706Y616431D01*
X479562Y616395D01*
X479539Y616383D01*
X479513Y616376D01*
X479384Y616303D01*
X479252Y616235D01*
X479232Y616218D01*
X479209Y616205D01*
X479023Y616047D01*
X475602Y612626D01*
X470280Y610421D01*
X464520Y610421D01*
X459198Y612626D01*
X455777Y616047D01*
X455757Y616063D01*
X455740Y616083D01*
X455620Y616171D01*
X455504Y616264D01*
X455480Y616275D01*
X455459Y616290D01*
X455323Y616349D01*
X455189Y616412D01*
X455163Y616418D01*
X455139Y616428D01*
X454993Y616455D01*
X454848Y616486D01*
X454822Y616485D01*
X454796Y616490D01*
X454648Y616482D01*
X454500Y616480D01*
X454474Y616473D01*
X454448Y616472D01*
X454306Y616431D01*
X454162Y616395D01*
X454139Y616383D01*
X454113Y616376D01*
X453984Y616303D01*
X453852Y616235D01*
X453832Y616218D01*
X453809Y616205D01*
X453623Y616047D01*
X450202Y612626D01*
X444880Y610421D01*
X439120Y610421D01*
X433798Y612626D01*
X430377Y616047D01*
X430357Y616063D01*
X430340Y616083D01*
X430220Y616171D01*
X430104Y616264D01*
X430080Y616275D01*
X430059Y616290D01*
X429923Y616349D01*
X429789Y616412D01*
X429763Y616418D01*
X429739Y616428D01*
X429593Y616455D01*
X429448Y616486D01*
X429422Y616485D01*
X429396Y616490D01*
X429248Y616482D01*
X429100Y616480D01*
X429074Y616473D01*
X429048Y616472D01*
X428906Y616431D01*
X428762Y616395D01*
X428739Y616383D01*
X428713Y616376D01*
X428584Y616303D01*
X428452Y616235D01*
X428432Y616218D01*
X428409Y616205D01*
X428223Y616047D01*
X424802Y612626D01*
X419480Y610421D01*
X413720Y610421D01*
X408398Y612626D01*
X404977Y616047D01*
X404957Y616063D01*
X404940Y616083D01*
X404820Y616171D01*
X404704Y616264D01*
X404680Y616275D01*
X404659Y616290D01*
X404523Y616349D01*
X404389Y616412D01*
X404363Y616418D01*
X404339Y616428D01*
X404193Y616455D01*
X404048Y616486D01*
X404022Y616485D01*
X403996Y616490D01*
X403848Y616482D01*
X403700Y616480D01*
X403674Y616473D01*
X403648Y616472D01*
X403506Y616431D01*
X403362Y616395D01*
X403339Y616383D01*
X403313Y616376D01*
X403184Y616303D01*
X403052Y616235D01*
X403032Y616218D01*
X403009Y616205D01*
X402823Y616047D01*
X399402Y612626D01*
X394080Y610421D01*
X388320Y610421D01*
X382998Y612626D01*
X379577Y616047D01*
X379557Y616063D01*
X379540Y616083D01*
X379420Y616171D01*
X379304Y616264D01*
X379280Y616275D01*
X379259Y616290D01*
X379123Y616349D01*
X378989Y616412D01*
X378963Y616418D01*
X378939Y616428D01*
X378793Y616455D01*
X378648Y616486D01*
X378622Y616485D01*
X378596Y616490D01*
X378448Y616482D01*
X378300Y616480D01*
X378274Y616473D01*
X378248Y616472D01*
X378106Y616431D01*
X377962Y616395D01*
X377939Y616383D01*
X377913Y616376D01*
X377784Y616303D01*
X377652Y616235D01*
X377632Y616218D01*
X377609Y616205D01*
X377423Y616047D01*
X374002Y612626D01*
X368680Y610421D01*
X362920Y610421D01*
X357598Y612626D01*
X354177Y616047D01*
X354157Y616063D01*
X354140Y616083D01*
X354020Y616171D01*
X353904Y616264D01*
X353880Y616275D01*
X353859Y616290D01*
X353723Y616349D01*
X353589Y616412D01*
X353563Y616418D01*
X353539Y616428D01*
X353393Y616455D01*
X353248Y616486D01*
X353222Y616485D01*
X353196Y616490D01*
X353048Y616482D01*
X352900Y616480D01*
X352874Y616473D01*
X352848Y616472D01*
X352706Y616431D01*
X352562Y616395D01*
X352539Y616383D01*
X352513Y616376D01*
X352384Y616303D01*
X352252Y616235D01*
X352232Y616218D01*
X352209Y616205D01*
X352023Y616047D01*
X348602Y612626D01*
X343280Y610421D01*
X337520Y610421D01*
X332198Y612626D01*
X328777Y616047D01*
X328757Y616063D01*
X328740Y616083D01*
X328620Y616171D01*
X328504Y616264D01*
X328480Y616275D01*
X328459Y616290D01*
X328323Y616349D01*
X328189Y616412D01*
X328163Y616418D01*
X328139Y616428D01*
X327993Y616455D01*
X327848Y616486D01*
X327822Y616485D01*
X327796Y616490D01*
X327648Y616482D01*
X327500Y616480D01*
X327474Y616473D01*
X327448Y616472D01*
X327306Y616431D01*
X327162Y616395D01*
X327139Y616383D01*
X327113Y616376D01*
X326984Y616303D01*
X326852Y616235D01*
X326832Y616218D01*
X326809Y616205D01*
X326623Y616047D01*
X323202Y612626D01*
X317880Y610421D01*
X312120Y610421D01*
X306798Y612626D01*
X302726Y616698D01*
X302195Y617979D01*
X302149Y618062D01*
X302111Y618150D01*
X302064Y618214D01*
X302026Y618283D01*
X301962Y618354D01*
X301905Y618431D01*
X301845Y618483D01*
X301792Y618542D01*
X301713Y618596D01*
X301640Y618658D01*
X301570Y618695D01*
X301505Y618740D01*
X301416Y618775D01*
X301331Y618819D01*
X301254Y618839D01*
X301181Y618868D01*
X301086Y618882D01*
X300994Y618905D01*
X300914Y618907D01*
X300836Y618918D01*
X300741Y618910D01*
X300645Y618912D01*
X300568Y618896D01*
X300489Y618889D01*
X300398Y618860D01*
X300304Y618840D01*
X300233Y618807D01*
X300157Y618782D01*
X300075Y618733D01*
X299989Y618693D01*
X299926Y618644D01*
X299858Y618603D01*
X299790Y618536D01*
X299715Y618477D01*
X299644Y618394D01*
X299608Y618360D01*
X299591Y618332D01*
X299556Y618291D01*
X298706Y617122D01*
X297378Y615794D01*
X295857Y614689D01*
X294183Y613836D01*
X292396Y613255D01*
X292139Y613215D01*
X292139Y623884D01*
X292136Y623910D01*
X292138Y623936D01*
X292116Y624083D01*
X292099Y624230D01*
X292091Y624255D01*
X292087Y624281D01*
X292032Y624418D01*
X291982Y624558D01*
X291968Y624580D01*
X291958Y624605D01*
X291873Y624726D01*
X291793Y624851D01*
X291774Y624869D01*
X291759Y624891D01*
X291743Y624905D01*
X291825Y624990D01*
X291839Y625013D01*
X291856Y625032D01*
X291928Y625162D01*
X292004Y625289D01*
X292012Y625314D01*
X292025Y625337D01*
X292065Y625480D01*
X292110Y625621D01*
X292112Y625647D01*
X292120Y625672D01*
X292139Y625916D01*
X292139Y636585D01*
X292396Y636545D01*
X294183Y635964D01*
X295857Y635111D01*
X297378Y634006D01*
X298706Y632678D01*
X299556Y631509D01*
X299620Y631438D01*
X299677Y631362D01*
X299738Y631310D01*
X299791Y631252D01*
X299870Y631198D01*
X299943Y631136D01*
X300014Y631100D01*
X300079Y631056D01*
X300168Y631021D01*
X300254Y630978D01*
X300330Y630959D01*
X300404Y630930D01*
X300499Y630917D01*
X300592Y630894D01*
X300671Y630892D01*
X300749Y630881D01*
X300844Y630890D01*
X300940Y630888D01*
X301018Y630905D01*
X301096Y630912D01*
X301187Y630942D01*
X301281Y630963D01*
X301352Y630997D01*
X301427Y631022D01*
X301509Y631071D01*
X301595Y631113D01*
X301657Y631162D01*
X301725Y631203D01*
X301793Y631270D01*
X301868Y631330D01*
X301917Y631392D01*
X301973Y631448D01*
X302025Y631528D01*
X302084Y631603D01*
X302133Y631700D01*
X302160Y631742D01*
X302170Y631773D01*
X302195Y631821D01*
X302726Y633102D01*
X306798Y637174D01*
X312120Y639379D01*
X317880Y639379D01*
X323202Y637174D01*
X326623Y633753D01*
X326643Y633737D01*
X326660Y633717D01*
X326780Y633629D01*
X326896Y633536D01*
X326920Y633525D01*
X326941Y633510D01*
X327077Y633451D01*
X327211Y633388D01*
X327237Y633382D01*
X327261Y633372D01*
X327407Y633345D01*
X327552Y633314D01*
X327578Y633315D01*
X327604Y633310D01*
X327752Y633318D01*
X327900Y633320D01*
X327926Y633327D01*
X327952Y633328D01*
X328094Y633369D01*
X328238Y633405D01*
X328261Y633417D01*
X328287Y633424D01*
X328416Y633497D01*
X328548Y633565D01*
X328568Y633582D01*
X328591Y633595D01*
X328777Y633753D01*
X332198Y637174D01*
X337520Y639379D01*
X343280Y639379D01*
X348602Y637174D01*
X352023Y633753D01*
X352043Y633737D01*
X352060Y633717D01*
X352180Y633629D01*
X352296Y633536D01*
X352320Y633525D01*
X352341Y633510D01*
X352477Y633451D01*
X352611Y633388D01*
X352637Y633382D01*
X352661Y633372D01*
X352807Y633345D01*
X352952Y633314D01*
X352978Y633315D01*
X353004Y633310D01*
X353152Y633318D01*
X353300Y633320D01*
X353326Y633327D01*
X353352Y633328D01*
X353494Y633369D01*
X353638Y633405D01*
X353661Y633417D01*
X353687Y633424D01*
X353816Y633497D01*
X353948Y633565D01*
X353968Y633582D01*
X353991Y633595D01*
X354177Y633753D01*
X357598Y637174D01*
X362920Y639379D01*
X368680Y639379D01*
X374002Y637174D01*
X377423Y633753D01*
X377443Y633737D01*
X377460Y633717D01*
X377580Y633629D01*
X377696Y633536D01*
X377720Y633525D01*
X377741Y633510D01*
X377877Y633451D01*
X378011Y633388D01*
X378037Y633382D01*
X378061Y633372D01*
X378207Y633345D01*
X378352Y633314D01*
X378378Y633315D01*
X378404Y633310D01*
X378552Y633318D01*
X378700Y633320D01*
X378726Y633327D01*
X378752Y633328D01*
X378894Y633369D01*
X379038Y633405D01*
X379061Y633417D01*
X379087Y633424D01*
X379216Y633497D01*
X379348Y633565D01*
X379368Y633582D01*
X379391Y633595D01*
X379577Y633753D01*
X382998Y637174D01*
X388320Y639379D01*
X389798Y639379D01*
X389898Y639390D01*
X389999Y639392D01*
X390071Y639410D01*
X390145Y639419D01*
X390239Y639452D01*
X390337Y639477D01*
X390403Y639511D01*
X390473Y639536D01*
X390557Y639591D01*
X390646Y639637D01*
X390703Y639685D01*
X390765Y639725D01*
X390835Y639797D01*
X390912Y639862D01*
X390956Y639922D01*
X391008Y639976D01*
X391059Y640062D01*
X391119Y640143D01*
X391148Y640211D01*
X391186Y640275D01*
X391217Y640370D01*
X391257Y640463D01*
X391270Y640536D01*
X391293Y640607D01*
X391301Y640707D01*
X391319Y640806D01*
X391315Y640880D01*
X391321Y640954D01*
X391306Y641053D01*
X391301Y641154D01*
X391280Y641225D01*
X391269Y641299D01*
X391232Y641392D01*
X391204Y641489D01*
X391168Y641554D01*
X391140Y641623D01*
X391083Y641705D01*
X391034Y641793D01*
X390969Y641869D01*
X390941Y641909D01*
X390915Y641933D01*
X390875Y641979D01*
X390145Y642709D01*
X339627Y693227D01*
X339528Y693306D01*
X339434Y693390D01*
X339392Y693414D01*
X339354Y693444D01*
X339240Y693498D01*
X339129Y693559D01*
X339083Y693572D01*
X339039Y693593D01*
X338916Y693619D01*
X338794Y693654D01*
X338733Y693659D01*
X338699Y693666D01*
X338651Y693665D01*
X338550Y693673D01*
X332276Y693673D01*
X325788Y696361D01*
X320822Y701327D01*
X318134Y707815D01*
X318134Y739985D01*
X320822Y746473D01*
X325788Y751439D01*
X332276Y754127D01*
X339300Y754127D01*
X345788Y751439D01*
X350754Y746473D01*
X353442Y739985D01*
X353442Y712375D01*
X353445Y712350D01*
X353443Y712327D01*
X353457Y712230D01*
X353463Y712123D01*
X353476Y712077D01*
X353482Y712029D01*
X353492Y712001D01*
X353494Y711982D01*
X353527Y711900D01*
X353559Y711788D01*
X353583Y711746D01*
X353599Y711700D01*
X353618Y711672D01*
X353623Y711658D01*
X353668Y711593D01*
X353729Y711484D01*
X353769Y711438D01*
X353788Y711408D01*
X353816Y711381D01*
X353822Y711372D01*
X353833Y711362D01*
X353888Y711298D01*
X357951Y707234D01*
X357971Y707218D01*
X357988Y707199D01*
X358108Y707110D01*
X358224Y707017D01*
X358248Y707007D01*
X358268Y706991D01*
X358405Y706932D01*
X358540Y706869D01*
X358565Y706863D01*
X358588Y706853D01*
X358735Y706826D01*
X358880Y706795D01*
X358906Y706796D01*
X358931Y706791D01*
X359080Y706799D01*
X359229Y706801D01*
X359253Y706807D01*
X359279Y706809D01*
X359422Y706850D01*
X359567Y706886D01*
X359589Y706898D01*
X359614Y706905D01*
X359744Y706977D01*
X359876Y707046D01*
X359896Y707062D01*
X359918Y707075D01*
X360028Y707175D01*
X360142Y707272D01*
X360157Y707292D01*
X360176Y707309D01*
X360260Y707432D01*
X360349Y707552D01*
X360359Y707575D01*
X360374Y707596D01*
X360428Y707736D01*
X360487Y707872D01*
X360492Y707897D01*
X360501Y707921D01*
X360522Y708068D01*
X360549Y708215D01*
X360547Y708241D01*
X360551Y708266D01*
X360539Y708510D01*
X360298Y710336D01*
X360298Y720853D01*
X372365Y720853D01*
X372365Y696457D01*
X372247Y696459D01*
X372222Y696454D01*
X372196Y696454D01*
X372051Y696417D01*
X371906Y696386D01*
X371883Y696375D01*
X371858Y696369D01*
X371725Y696300D01*
X371591Y696236D01*
X371571Y696221D01*
X371548Y696209D01*
X371435Y696112D01*
X371318Y696020D01*
X371302Y696000D01*
X371283Y695983D01*
X371194Y695863D01*
X371102Y695746D01*
X371091Y695723D01*
X371076Y695703D01*
X371017Y695566D01*
X370953Y695431D01*
X370948Y695406D01*
X370938Y695383D01*
X370911Y695236D01*
X370880Y695090D01*
X370881Y695065D01*
X370876Y695040D01*
X370884Y694891D01*
X370886Y694742D01*
X370893Y694717D01*
X370894Y694692D01*
X370935Y694549D01*
X370972Y694404D01*
X370983Y694381D01*
X370990Y694357D01*
X371063Y694227D01*
X371132Y694094D01*
X371148Y694075D01*
X371161Y694053D01*
X371319Y693866D01*
X404339Y660847D01*
X404438Y660768D01*
X404532Y660684D01*
X404574Y660660D01*
X404612Y660630D01*
X404726Y660576D01*
X404837Y660515D01*
X404883Y660502D01*
X404927Y660481D01*
X405050Y660455D01*
X405172Y660420D01*
X405233Y660415D01*
X405267Y660408D01*
X405315Y660409D01*
X405416Y660401D01*
X580124Y660401D01*
X584325Y658660D01*
X605320Y637665D01*
X607061Y633464D01*
X607061Y611136D01*
X605320Y606935D01*
X530985Y532600D01*
X529071Y531807D01*
X528939Y531733D01*
X528806Y531665D01*
X528788Y531649D01*
X528766Y531637D01*
X528655Y531536D01*
X528541Y531439D01*
X528526Y531419D01*
X528508Y531403D01*
X528423Y531279D01*
X528333Y531159D01*
X528324Y531137D01*
X528310Y531117D01*
X528255Y530976D01*
X528195Y530839D01*
X528191Y530815D01*
X528182Y530792D01*
X528160Y530644D01*
X528134Y530496D01*
X528135Y530471D01*
X528131Y530448D01*
X528144Y530297D01*
X528152Y530148D01*
X528158Y530124D01*
X528160Y530100D01*
X528207Y529957D01*
X528248Y529813D01*
X528260Y529792D01*
X528267Y529769D01*
X528345Y529640D01*
X528418Y529509D01*
X528437Y529486D01*
X528447Y529470D01*
X528480Y529436D01*
X528577Y529322D01*
X529783Y528116D01*
X529803Y528100D01*
X529820Y528080D01*
X529940Y527992D01*
X530056Y527900D01*
X530080Y527888D01*
X530101Y527873D01*
X530237Y527814D01*
X530371Y527751D01*
X530397Y527745D01*
X530421Y527735D01*
X530567Y527709D01*
X530712Y527677D01*
X530738Y527678D01*
X530764Y527673D01*
X530912Y527681D01*
X531060Y527683D01*
X531086Y527690D01*
X531112Y527691D01*
X531255Y527732D01*
X531398Y527768D01*
X531421Y527780D01*
X531447Y527788D01*
X531576Y527860D01*
X531708Y527928D01*
X531728Y527945D01*
X531751Y527958D01*
X531937Y528116D01*
X537984Y534163D01*
X549136Y534163D01*
X557023Y526276D01*
X557023Y515124D01*
X549136Y507237D01*
X537984Y507237D01*
X531937Y513284D01*
X531917Y513300D01*
X531900Y513320D01*
X531780Y513408D01*
X531664Y513500D01*
X531640Y513512D01*
X531619Y513527D01*
X531483Y513586D01*
X531349Y513649D01*
X531323Y513655D01*
X531299Y513665D01*
X531153Y513691D01*
X531008Y513723D01*
X530982Y513722D01*
X530956Y513727D01*
X530808Y513719D01*
X530660Y513717D01*
X530634Y513710D01*
X530608Y513709D01*
X530466Y513668D01*
X530322Y513632D01*
X530299Y513620D01*
X530273Y513612D01*
X530144Y513540D01*
X530012Y513472D01*
X529992Y513455D01*
X529969Y513442D01*
X529783Y513284D01*
X523736Y507237D01*
X512584Y507237D01*
X506537Y513284D01*
X506517Y513300D01*
X506500Y513320D01*
X506380Y513408D01*
X506264Y513500D01*
X506240Y513512D01*
X506219Y513527D01*
X506083Y513586D01*
X505949Y513649D01*
X505923Y513655D01*
X505899Y513665D01*
X505753Y513691D01*
X505608Y513723D01*
X505582Y513722D01*
X505556Y513727D01*
X505408Y513719D01*
X505260Y513717D01*
X505234Y513710D01*
X505208Y513709D01*
X505066Y513668D01*
X504922Y513632D01*
X504899Y513620D01*
X504873Y513612D01*
X504744Y513540D01*
X504612Y513472D01*
X504592Y513455D01*
X504569Y513442D01*
X504383Y513284D01*
X498336Y507237D01*
X487184Y507237D01*
X481137Y513284D01*
X481117Y513300D01*
X481100Y513320D01*
X480980Y513408D01*
X480864Y513500D01*
X480840Y513512D01*
X480819Y513527D01*
X480683Y513586D01*
X480549Y513649D01*
X480523Y513655D01*
X480499Y513665D01*
X480353Y513691D01*
X480208Y513723D01*
X480182Y513722D01*
X480156Y513727D01*
X480008Y513719D01*
X479860Y513717D01*
X479834Y513710D01*
X479808Y513709D01*
X479666Y513668D01*
X479522Y513632D01*
X479499Y513620D01*
X479473Y513612D01*
X479344Y513540D01*
X479212Y513472D01*
X479192Y513455D01*
X479169Y513442D01*
X478983Y513284D01*
X472936Y507237D01*
X461784Y507237D01*
X455737Y513284D01*
X455717Y513300D01*
X455700Y513320D01*
X455580Y513408D01*
X455464Y513500D01*
X455440Y513512D01*
X455419Y513527D01*
X455283Y513586D01*
X455149Y513649D01*
X455123Y513655D01*
X455099Y513665D01*
X454953Y513691D01*
X454808Y513723D01*
X454782Y513722D01*
X454756Y513727D01*
X454608Y513719D01*
X454460Y513717D01*
X454434Y513710D01*
X454408Y513709D01*
X454266Y513668D01*
X454122Y513632D01*
X454099Y513620D01*
X454073Y513612D01*
X453944Y513540D01*
X453812Y513472D01*
X453792Y513455D01*
X453769Y513442D01*
X453583Y513284D01*
X447536Y507237D01*
X436384Y507237D01*
X430337Y513284D01*
X430317Y513300D01*
X430300Y513320D01*
X430180Y513408D01*
X430064Y513500D01*
X430040Y513512D01*
X430019Y513527D01*
X429883Y513586D01*
X429749Y513649D01*
X429723Y513655D01*
X429699Y513665D01*
X429553Y513691D01*
X429408Y513723D01*
X429382Y513722D01*
X429356Y513727D01*
X429208Y513719D01*
X429060Y513717D01*
X429034Y513710D01*
X429008Y513709D01*
X428866Y513668D01*
X428722Y513632D01*
X428699Y513620D01*
X428673Y513612D01*
X428544Y513540D01*
X428412Y513472D01*
X428392Y513455D01*
X428369Y513442D01*
X428183Y513284D01*
X422136Y507237D01*
X410984Y507237D01*
X403141Y515080D01*
X403121Y515096D01*
X403104Y515116D01*
X402984Y515204D01*
X402868Y515296D01*
X402844Y515308D01*
X402823Y515323D01*
X402687Y515382D01*
X402553Y515445D01*
X402527Y515451D01*
X402503Y515461D01*
X402357Y515488D01*
X402212Y515519D01*
X402186Y515518D01*
X402160Y515523D01*
X402012Y515515D01*
X401864Y515513D01*
X401838Y515506D01*
X401812Y515505D01*
X401670Y515464D01*
X401526Y515428D01*
X401502Y515416D01*
X401477Y515408D01*
X401348Y515336D01*
X401216Y515268D01*
X401196Y515251D01*
X401173Y515238D01*
X400987Y515080D01*
X395684Y509777D01*
X393659Y509777D01*
X393659Y519724D01*
X393656Y519750D01*
X393658Y519776D01*
X393636Y519923D01*
X393619Y520070D01*
X393611Y520095D01*
X393607Y520121D01*
X393552Y520258D01*
X393502Y520398D01*
X393488Y520420D01*
X393478Y520445D01*
X393393Y520566D01*
X393313Y520691D01*
X393294Y520709D01*
X393279Y520731D01*
X393169Y520830D01*
X393062Y520933D01*
X393040Y520947D01*
X393020Y520964D01*
X392890Y521036D01*
X392763Y521112D01*
X392738Y521120D01*
X392715Y521133D01*
X392572Y521173D01*
X392431Y521218D01*
X392405Y521220D01*
X392380Y521227D01*
X392136Y521247D01*
X390184Y521247D01*
X390158Y521244D01*
X390132Y521246D01*
X389985Y521224D01*
X389838Y521207D01*
X389813Y521198D01*
X389787Y521194D01*
X389649Y521140D01*
X389510Y521090D01*
X389488Y521075D01*
X389463Y521066D01*
X389342Y520981D01*
X389217Y520901D01*
X389199Y520882D01*
X389177Y520867D01*
X389078Y520757D01*
X388975Y520650D01*
X388961Y520627D01*
X388944Y520608D01*
X388872Y520478D01*
X388796Y520351D01*
X388788Y520326D01*
X388775Y520303D01*
X388735Y520160D01*
X388690Y520019D01*
X388687Y519993D01*
X388680Y519968D01*
X388661Y519724D01*
X388661Y509777D01*
X386636Y509777D01*
X381333Y515080D01*
X381313Y515096D01*
X381296Y515116D01*
X381176Y515204D01*
X381060Y515296D01*
X381036Y515308D01*
X381015Y515323D01*
X380879Y515382D01*
X380745Y515445D01*
X380719Y515451D01*
X380695Y515461D01*
X380549Y515488D01*
X380404Y515519D01*
X380378Y515518D01*
X380352Y515523D01*
X380204Y515515D01*
X380056Y515513D01*
X380030Y515506D01*
X380004Y515505D01*
X379862Y515464D01*
X379718Y515428D01*
X379695Y515416D01*
X379669Y515408D01*
X379540Y515336D01*
X379408Y515268D01*
X379388Y515251D01*
X379365Y515238D01*
X379179Y515080D01*
X371336Y507237D01*
X360184Y507237D01*
X354137Y513284D01*
X354117Y513300D01*
X354100Y513320D01*
X353980Y513408D01*
X353864Y513500D01*
X353840Y513512D01*
X353819Y513527D01*
X353683Y513586D01*
X353549Y513649D01*
X353523Y513655D01*
X353499Y513665D01*
X353353Y513691D01*
X353208Y513723D01*
X353182Y513722D01*
X353156Y513727D01*
X353008Y513719D01*
X352860Y513717D01*
X352834Y513710D01*
X352808Y513709D01*
X352666Y513668D01*
X352522Y513632D01*
X352499Y513620D01*
X352473Y513612D01*
X352344Y513540D01*
X352212Y513472D01*
X352192Y513455D01*
X352169Y513442D01*
X351983Y513284D01*
X345936Y507237D01*
X334784Y507237D01*
X328737Y513284D01*
X328717Y513300D01*
X328700Y513320D01*
X328580Y513408D01*
X328464Y513500D01*
X328440Y513512D01*
X328419Y513527D01*
X328283Y513586D01*
X328149Y513649D01*
X328123Y513655D01*
X328099Y513665D01*
X327953Y513691D01*
X327808Y513723D01*
X327782Y513722D01*
X327756Y513727D01*
X327608Y513719D01*
X327460Y513717D01*
X327434Y513710D01*
X327408Y513709D01*
X327266Y513668D01*
X327122Y513632D01*
X327099Y513620D01*
X327073Y513612D01*
X326944Y513540D01*
X326812Y513472D01*
X326792Y513455D01*
X326769Y513442D01*
X326583Y513284D01*
X320536Y507237D01*
X309384Y507237D01*
X301497Y515124D01*
X301497Y521684D01*
X301486Y521784D01*
X301484Y521884D01*
X301466Y521957D01*
X301457Y522031D01*
X301424Y522125D01*
X301399Y522222D01*
X301365Y522289D01*
X301340Y522359D01*
X301285Y522443D01*
X301239Y522532D01*
X301191Y522589D01*
X301151Y522651D01*
X301079Y522721D01*
X301014Y522798D01*
X300954Y522842D01*
X300900Y522894D01*
X300814Y522945D01*
X300733Y523005D01*
X300665Y523034D01*
X300601Y523072D01*
X300505Y523103D01*
X300413Y523143D01*
X300340Y523156D01*
X300269Y523179D01*
X300169Y523187D01*
X300070Y523205D01*
X299996Y523201D01*
X299922Y523207D01*
X299822Y523192D01*
X299722Y523187D01*
X299651Y523166D01*
X299577Y523155D01*
X299484Y523118D01*
X299387Y523090D01*
X299322Y523054D01*
X299253Y523026D01*
X299171Y522969D01*
X299083Y522920D01*
X299007Y522855D01*
X298967Y522827D01*
X298943Y522801D01*
X298897Y522761D01*
X269687Y493551D01*
X269608Y493452D01*
X269524Y493358D01*
X269500Y493316D01*
X269470Y493278D01*
X269416Y493164D01*
X269355Y493053D01*
X269342Y493007D01*
X269321Y492963D01*
X269295Y492840D01*
X269260Y492718D01*
X269255Y492657D01*
X269248Y492623D01*
X269249Y492575D01*
X269241Y492474D01*
X269241Y463201D01*
X269245Y463162D01*
X269256Y462985D01*
X269447Y461646D01*
X269288Y461025D01*
X269279Y460957D01*
X269260Y460891D01*
X269247Y460720D01*
X269241Y460680D01*
X269242Y460667D01*
X269241Y460647D01*
X269241Y460006D01*
X268723Y458756D01*
X268712Y458719D01*
X268655Y458551D01*
X268319Y457240D01*
X267934Y456728D01*
X267900Y456669D01*
X267857Y456615D01*
X267779Y456463D01*
X267759Y456427D01*
X267755Y456414D01*
X267746Y456397D01*
X267501Y455805D01*
X266544Y454848D01*
X266520Y454818D01*
X266402Y454685D01*
X265989Y454135D01*
X265980Y454119D01*
X265968Y454105D01*
X265892Y453968D01*
X265814Y453834D01*
X265808Y453816D01*
X265799Y453800D01*
X265757Y453649D01*
X265711Y453501D01*
X265709Y453482D01*
X265704Y453464D01*
X265685Y453221D01*
X265685Y452360D01*
X258902Y445577D01*
X258886Y445557D01*
X258866Y445540D01*
X258777Y445420D01*
X258685Y445304D01*
X258674Y445280D01*
X258658Y445259D01*
X258600Y445123D01*
X258536Y444989D01*
X258531Y444963D01*
X258520Y444939D01*
X258494Y444793D01*
X258463Y444648D01*
X258463Y444622D01*
X258459Y444596D01*
X258466Y444448D01*
X258469Y444300D01*
X258475Y444274D01*
X258477Y444248D01*
X258518Y444106D01*
X258554Y443962D01*
X258566Y443938D01*
X258573Y443913D01*
X258645Y443784D01*
X258713Y443652D01*
X258730Y443632D01*
X258743Y443609D01*
X258902Y443423D01*
X265685Y436640D01*
X265685Y426960D01*
X258902Y420177D01*
X258886Y420157D01*
X258866Y420140D01*
X258777Y420020D01*
X258685Y419904D01*
X258674Y419880D01*
X258658Y419859D01*
X258600Y419723D01*
X258536Y419589D01*
X258531Y419563D01*
X258520Y419539D01*
X258494Y419393D01*
X258463Y419248D01*
X258463Y419222D01*
X258459Y419196D01*
X258466Y419048D01*
X258469Y418900D01*
X258475Y418874D01*
X258477Y418848D01*
X258518Y418706D01*
X258554Y418562D01*
X258566Y418538D01*
X258573Y418513D01*
X258646Y418384D01*
X258713Y418252D01*
X258730Y418232D01*
X258743Y418209D01*
X258902Y418023D01*
X265685Y411240D01*
X265685Y401560D01*
X258902Y394777D01*
X258886Y394757D01*
X258866Y394740D01*
X258777Y394620D01*
X258685Y394504D01*
X258674Y394480D01*
X258658Y394459D01*
X258600Y394323D01*
X258536Y394189D01*
X258531Y394163D01*
X258520Y394139D01*
X258494Y393993D01*
X258463Y393848D01*
X258463Y393822D01*
X258459Y393796D01*
X258466Y393648D01*
X258469Y393500D01*
X258475Y393474D01*
X258477Y393448D01*
X258518Y393306D01*
X258554Y393162D01*
X258566Y393138D01*
X258573Y393113D01*
X258645Y392984D01*
X258713Y392852D01*
X258730Y392832D01*
X258743Y392809D01*
X258902Y392623D01*
X265685Y385840D01*
X265685Y376160D01*
X258840Y369315D01*
X249160Y369315D01*
G37*
%LPD*%
%LPC*%
G36*
X122160Y369315D02*
X122160Y369315D01*
X115315Y376160D01*
X115315Y385840D01*
X122098Y392623D01*
X122114Y392643D01*
X122134Y392660D01*
X122223Y392780D01*
X122315Y392896D01*
X122326Y392920D01*
X122342Y392941D01*
X122400Y393077D01*
X122464Y393211D01*
X122469Y393237D01*
X122480Y393261D01*
X122506Y393407D01*
X122537Y393552D01*
X122537Y393578D01*
X122541Y393604D01*
X122534Y393752D01*
X122531Y393900D01*
X122525Y393926D01*
X122523Y393952D01*
X122482Y394094D01*
X122446Y394238D01*
X122434Y394261D01*
X122427Y394287D01*
X122355Y394416D01*
X122287Y394548D01*
X122270Y394568D01*
X122257Y394591D01*
X122098Y394777D01*
X115315Y401560D01*
X115315Y411240D01*
X122098Y418023D01*
X122114Y418043D01*
X122134Y418060D01*
X122223Y418180D01*
X122315Y418296D01*
X122326Y418320D01*
X122342Y418341D01*
X122400Y418477D01*
X122464Y418611D01*
X122469Y418637D01*
X122480Y418661D01*
X122506Y418807D01*
X122537Y418952D01*
X122537Y418978D01*
X122541Y419004D01*
X122534Y419152D01*
X122531Y419300D01*
X122525Y419326D01*
X122523Y419352D01*
X122482Y419494D01*
X122446Y419638D01*
X122434Y419661D01*
X122427Y419687D01*
X122355Y419816D01*
X122287Y419948D01*
X122270Y419968D01*
X122257Y419991D01*
X122098Y420177D01*
X115315Y426960D01*
X115315Y436640D01*
X122098Y443423D01*
X122114Y443443D01*
X122134Y443460D01*
X122223Y443580D01*
X122315Y443696D01*
X122326Y443720D01*
X122342Y443741D01*
X122400Y443877D01*
X122464Y444011D01*
X122469Y444037D01*
X122480Y444061D01*
X122506Y444207D01*
X122537Y444352D01*
X122537Y444378D01*
X122541Y444404D01*
X122534Y444552D01*
X122531Y444700D01*
X122525Y444726D01*
X122523Y444752D01*
X122482Y444894D01*
X122446Y445038D01*
X122434Y445061D01*
X122427Y445087D01*
X122355Y445216D01*
X122287Y445348D01*
X122270Y445368D01*
X122257Y445391D01*
X122098Y445577D01*
X115315Y452360D01*
X115315Y454628D01*
X115301Y454754D01*
X115294Y454880D01*
X115281Y454927D01*
X115275Y454975D01*
X115233Y455093D01*
X115198Y455215D01*
X115174Y455257D01*
X115158Y455303D01*
X115089Y455409D01*
X115028Y455519D01*
X114988Y455565D01*
X114969Y455595D01*
X114934Y455629D01*
X114869Y455705D01*
X114769Y455805D01*
X114075Y457481D01*
X114056Y457515D01*
X114030Y457579D01*
X113219Y459202D01*
X113207Y459373D01*
X113184Y459493D01*
X113170Y459615D01*
X113150Y459678D01*
X113143Y459715D01*
X113124Y459758D01*
X113095Y459848D01*
X113029Y460006D01*
X113029Y461820D01*
X113025Y461859D01*
X113025Y461928D01*
X112897Y463738D01*
X112951Y463900D01*
X112976Y464020D01*
X113010Y464138D01*
X113015Y464204D01*
X113023Y464241D01*
X113022Y464288D01*
X113029Y464382D01*
X113029Y464554D01*
X113724Y466230D01*
X113734Y466267D01*
X113761Y466331D01*
X114335Y468052D01*
X114447Y468181D01*
X114516Y468283D01*
X114592Y468379D01*
X114623Y468438D01*
X114644Y468469D01*
X114661Y468513D01*
X114704Y468596D01*
X114769Y468755D01*
X116052Y470038D01*
X116077Y470069D01*
X116126Y470117D01*
X117314Y471487D01*
X117468Y471564D01*
X117571Y471631D01*
X117677Y471691D01*
X117728Y471733D01*
X117760Y471754D01*
X117792Y471788D01*
X117864Y471849D01*
X201483Y555469D01*
X201562Y555568D01*
X201646Y555662D01*
X201670Y555704D01*
X201700Y555742D01*
X201754Y555856D01*
X201815Y555967D01*
X201828Y556013D01*
X201849Y556057D01*
X201875Y556180D01*
X201910Y556302D01*
X201915Y556363D01*
X201922Y556397D01*
X201921Y556445D01*
X201929Y556546D01*
X201929Y612763D01*
X201918Y612862D01*
X201916Y612963D01*
X201898Y613035D01*
X201889Y613109D01*
X201856Y613204D01*
X201831Y613301D01*
X201797Y613367D01*
X201772Y613437D01*
X201717Y613521D01*
X201671Y613611D01*
X201623Y613667D01*
X201583Y613730D01*
X201511Y613800D01*
X201446Y613876D01*
X201386Y613920D01*
X201332Y613972D01*
X201246Y614024D01*
X201165Y614083D01*
X201097Y614113D01*
X201033Y614151D01*
X200938Y614181D01*
X200845Y614221D01*
X200772Y614234D01*
X200701Y614257D01*
X200601Y614265D01*
X200502Y614283D01*
X200428Y614279D01*
X200354Y614285D01*
X200255Y614270D01*
X200154Y614265D01*
X200083Y614244D01*
X200009Y614233D01*
X199916Y614196D01*
X199819Y614168D01*
X199754Y614132D01*
X199685Y614105D01*
X199603Y614047D01*
X199515Y613998D01*
X199439Y613933D01*
X199399Y613906D01*
X199375Y613879D01*
X199329Y613840D01*
X198958Y613469D01*
X198379Y613134D01*
X197733Y612961D01*
X190539Y612961D01*
X190539Y623884D01*
X190536Y623910D01*
X190538Y623936D01*
X190516Y624083D01*
X190499Y624230D01*
X190491Y624255D01*
X190487Y624281D01*
X190432Y624418D01*
X190382Y624558D01*
X190368Y624580D01*
X190358Y624605D01*
X190273Y624726D01*
X190193Y624851D01*
X190174Y624869D01*
X190159Y624891D01*
X190143Y624905D01*
X190225Y624990D01*
X190239Y625013D01*
X190256Y625032D01*
X190328Y625162D01*
X190404Y625289D01*
X190412Y625314D01*
X190425Y625337D01*
X190465Y625480D01*
X190510Y625621D01*
X190512Y625647D01*
X190520Y625672D01*
X190539Y625916D01*
X190539Y636839D01*
X197733Y636839D01*
X198379Y636666D01*
X198958Y636331D01*
X199431Y635858D01*
X199766Y635279D01*
X199830Y635038D01*
X199858Y634967D01*
X199877Y634894D01*
X199922Y634805D01*
X199958Y634713D01*
X200001Y634651D01*
X200036Y634584D01*
X200100Y634508D01*
X200157Y634427D01*
X200213Y634376D01*
X200262Y634318D01*
X200342Y634260D01*
X200415Y634193D01*
X200481Y634156D01*
X200542Y634111D01*
X200633Y634072D01*
X200720Y634024D01*
X200793Y634003D01*
X200862Y633973D01*
X200960Y633956D01*
X201055Y633929D01*
X201131Y633925D01*
X201205Y633912D01*
X201304Y633917D01*
X201403Y633912D01*
X201478Y633926D01*
X201553Y633929D01*
X201648Y633957D01*
X201746Y633975D01*
X201815Y634005D01*
X201888Y634026D01*
X201975Y634074D01*
X202065Y634114D01*
X202126Y634159D01*
X202192Y634196D01*
X202307Y634294D01*
X202345Y634322D01*
X202357Y634336D01*
X202379Y634355D01*
X205198Y637174D01*
X210520Y639379D01*
X216280Y639379D01*
X221602Y637174D01*
X225023Y633753D01*
X225043Y633737D01*
X225060Y633717D01*
X225180Y633629D01*
X225296Y633536D01*
X225320Y633525D01*
X225341Y633510D01*
X225477Y633451D01*
X225611Y633388D01*
X225637Y633382D01*
X225661Y633372D01*
X225807Y633345D01*
X225952Y633314D01*
X225978Y633315D01*
X226004Y633310D01*
X226152Y633318D01*
X226300Y633320D01*
X226326Y633327D01*
X226352Y633328D01*
X226494Y633369D01*
X226638Y633405D01*
X226661Y633417D01*
X226687Y633424D01*
X226816Y633497D01*
X226948Y633565D01*
X226968Y633582D01*
X226991Y633595D01*
X227177Y633753D01*
X230598Y637174D01*
X235920Y639379D01*
X241680Y639379D01*
X247002Y637174D01*
X250423Y633753D01*
X250443Y633737D01*
X250460Y633717D01*
X250580Y633629D01*
X250696Y633536D01*
X250720Y633525D01*
X250741Y633510D01*
X250877Y633451D01*
X251011Y633388D01*
X251037Y633382D01*
X251061Y633372D01*
X251207Y633345D01*
X251352Y633314D01*
X251378Y633315D01*
X251404Y633310D01*
X251552Y633318D01*
X251700Y633320D01*
X251726Y633327D01*
X251752Y633328D01*
X251894Y633369D01*
X252038Y633405D01*
X252061Y633417D01*
X252087Y633424D01*
X252216Y633497D01*
X252348Y633565D01*
X252368Y633582D01*
X252391Y633595D01*
X252577Y633753D01*
X255998Y637174D01*
X261320Y639379D01*
X267080Y639379D01*
X272402Y637174D01*
X276474Y633102D01*
X277005Y631821D01*
X277051Y631738D01*
X277089Y631650D01*
X277136Y631586D01*
X277174Y631517D01*
X277238Y631446D01*
X277295Y631369D01*
X277355Y631317D01*
X277408Y631258D01*
X277487Y631204D01*
X277560Y631142D01*
X277630Y631105D01*
X277695Y631060D01*
X277784Y631025D01*
X277869Y630981D01*
X277946Y630961D01*
X278019Y630932D01*
X278114Y630918D01*
X278206Y630895D01*
X278286Y630893D01*
X278364Y630882D01*
X278459Y630890D01*
X278555Y630888D01*
X278632Y630904D01*
X278711Y630911D01*
X278802Y630940D01*
X278896Y630960D01*
X278967Y630993D01*
X279043Y631018D01*
X279125Y631067D01*
X279211Y631107D01*
X279274Y631156D01*
X279342Y631197D01*
X279410Y631264D01*
X279485Y631323D01*
X279556Y631406D01*
X279592Y631440D01*
X279609Y631468D01*
X279644Y631509D01*
X280494Y632678D01*
X281822Y634006D01*
X283343Y635111D01*
X285017Y635964D01*
X286804Y636545D01*
X287061Y636585D01*
X287061Y625916D01*
X287064Y625890D01*
X287062Y625864D01*
X287084Y625717D01*
X287101Y625570D01*
X287109Y625545D01*
X287113Y625519D01*
X287168Y625382D01*
X287218Y625242D01*
X287232Y625220D01*
X287242Y625195D01*
X287327Y625074D01*
X287407Y624949D01*
X287426Y624931D01*
X287441Y624909D01*
X287457Y624895D01*
X287375Y624810D01*
X287361Y624787D01*
X287344Y624768D01*
X287272Y624638D01*
X287196Y624511D01*
X287188Y624486D01*
X287175Y624463D01*
X287135Y624320D01*
X287090Y624179D01*
X287087Y624153D01*
X287080Y624128D01*
X287061Y623884D01*
X287061Y613215D01*
X286804Y613255D01*
X285017Y613836D01*
X283343Y614689D01*
X281822Y615794D01*
X280494Y617122D01*
X279644Y618291D01*
X279580Y618362D01*
X279523Y618438D01*
X279462Y618490D01*
X279409Y618548D01*
X279330Y618602D01*
X279257Y618664D01*
X279186Y618700D01*
X279121Y618744D01*
X279032Y618779D01*
X278946Y618822D01*
X278870Y618841D01*
X278796Y618870D01*
X278701Y618883D01*
X278608Y618906D01*
X278529Y618908D01*
X278451Y618919D01*
X278356Y618910D01*
X278260Y618912D01*
X278182Y618895D01*
X278104Y618888D01*
X278013Y618858D01*
X277919Y618837D01*
X277848Y618803D01*
X277773Y618778D01*
X277691Y618729D01*
X277605Y618687D01*
X277543Y618638D01*
X277475Y618597D01*
X277407Y618530D01*
X277332Y618470D01*
X277283Y618408D01*
X277227Y618352D01*
X277175Y618272D01*
X277116Y618197D01*
X277067Y618100D01*
X277040Y618058D01*
X277030Y618027D01*
X277005Y617979D01*
X276474Y616698D01*
X272402Y612626D01*
X267080Y610421D01*
X261320Y610421D01*
X255998Y612626D01*
X252577Y616047D01*
X252557Y616063D01*
X252540Y616083D01*
X252420Y616171D01*
X252304Y616264D01*
X252280Y616275D01*
X252259Y616290D01*
X252123Y616349D01*
X251989Y616412D01*
X251963Y616418D01*
X251939Y616428D01*
X251793Y616455D01*
X251648Y616486D01*
X251622Y616485D01*
X251596Y616490D01*
X251448Y616482D01*
X251300Y616480D01*
X251274Y616473D01*
X251248Y616472D01*
X251106Y616431D01*
X250962Y616395D01*
X250939Y616383D01*
X250913Y616376D01*
X250784Y616303D01*
X250652Y616235D01*
X250632Y616218D01*
X250609Y616205D01*
X250423Y616047D01*
X247002Y612626D01*
X241680Y610421D01*
X235920Y610421D01*
X230598Y612626D01*
X227391Y615833D01*
X227313Y615895D01*
X227240Y615965D01*
X227176Y616003D01*
X227118Y616050D01*
X227027Y616092D01*
X226941Y616144D01*
X226870Y616167D01*
X226803Y616198D01*
X226705Y616220D01*
X226609Y616250D01*
X226535Y616256D01*
X226462Y616272D01*
X226362Y616270D01*
X226262Y616278D01*
X226188Y616267D01*
X226114Y616266D01*
X226017Y616241D01*
X225917Y616226D01*
X225848Y616199D01*
X225776Y616181D01*
X225687Y616135D01*
X225593Y616098D01*
X225532Y616055D01*
X225466Y616021D01*
X225390Y615956D01*
X225307Y615899D01*
X225257Y615844D01*
X225201Y615795D01*
X225141Y615715D01*
X225074Y615640D01*
X225038Y615575D01*
X224993Y615515D01*
X224954Y615423D01*
X224905Y615335D01*
X224885Y615263D01*
X224855Y615195D01*
X224838Y615096D01*
X224810Y615000D01*
X224802Y614900D01*
X224794Y614852D01*
X224796Y614816D01*
X224791Y614756D01*
X224791Y548906D01*
X223050Y544705D01*
X139131Y460785D01*
X139052Y460686D01*
X138968Y460593D01*
X138944Y460550D01*
X138914Y460512D01*
X138860Y460398D01*
X138799Y460287D01*
X138786Y460241D01*
X138765Y460197D01*
X138739Y460074D01*
X138704Y459952D01*
X138699Y459891D01*
X138692Y459857D01*
X138693Y459809D01*
X138685Y459708D01*
X138685Y452360D01*
X131902Y445577D01*
X131886Y445557D01*
X131866Y445540D01*
X131777Y445420D01*
X131685Y445304D01*
X131674Y445280D01*
X131658Y445259D01*
X131600Y445123D01*
X131536Y444989D01*
X131531Y444963D01*
X131520Y444939D01*
X131494Y444793D01*
X131463Y444648D01*
X131463Y444622D01*
X131459Y444596D01*
X131466Y444448D01*
X131469Y444300D01*
X131475Y444274D01*
X131477Y444248D01*
X131518Y444106D01*
X131554Y443962D01*
X131566Y443938D01*
X131573Y443913D01*
X131645Y443784D01*
X131713Y443652D01*
X131730Y443632D01*
X131743Y443609D01*
X131902Y443423D01*
X138685Y436640D01*
X138685Y426960D01*
X131902Y420177D01*
X131886Y420157D01*
X131866Y420140D01*
X131777Y420020D01*
X131685Y419904D01*
X131674Y419880D01*
X131658Y419859D01*
X131600Y419723D01*
X131536Y419589D01*
X131531Y419563D01*
X131520Y419539D01*
X131494Y419393D01*
X131463Y419248D01*
X131463Y419222D01*
X131459Y419196D01*
X131466Y419048D01*
X131469Y418900D01*
X131475Y418874D01*
X131477Y418848D01*
X131518Y418706D01*
X131554Y418562D01*
X131566Y418538D01*
X131573Y418513D01*
X131646Y418384D01*
X131713Y418252D01*
X131730Y418232D01*
X131743Y418209D01*
X131902Y418023D01*
X138685Y411240D01*
X138685Y401560D01*
X131902Y394777D01*
X131886Y394757D01*
X131866Y394740D01*
X131777Y394620D01*
X131685Y394504D01*
X131674Y394480D01*
X131658Y394459D01*
X131600Y394323D01*
X131536Y394189D01*
X131531Y394163D01*
X131520Y394139D01*
X131494Y393993D01*
X131463Y393848D01*
X131463Y393822D01*
X131459Y393796D01*
X131466Y393648D01*
X131469Y393500D01*
X131475Y393474D01*
X131477Y393448D01*
X131518Y393306D01*
X131554Y393162D01*
X131566Y393138D01*
X131573Y393113D01*
X131645Y392984D01*
X131713Y392852D01*
X131730Y392832D01*
X131743Y392809D01*
X131902Y392623D01*
X138685Y385840D01*
X138685Y376160D01*
X131840Y369315D01*
X122160Y369315D01*
G37*
%LPD*%
%LPC*%
G36*
X116924Y110005D02*
X116924Y110005D01*
X114418Y112003D01*
X114294Y112081D01*
X114172Y112163D01*
X114146Y112173D01*
X114122Y112188D01*
X113983Y112236D01*
X113846Y112288D01*
X113819Y112292D01*
X113793Y112301D01*
X113646Y112315D01*
X113501Y112335D01*
X113473Y112333D01*
X113446Y112336D01*
X113301Y112317D01*
X113154Y112303D01*
X113128Y112294D01*
X113100Y112291D01*
X112963Y112239D01*
X112824Y112193D01*
X112800Y112178D01*
X112774Y112168D01*
X112652Y112087D01*
X112527Y112010D01*
X112502Y111987D01*
X112484Y111975D01*
X112451Y111939D01*
X112347Y111844D01*
X111357Y110767D01*
X107829Y109219D01*
X103976Y109219D01*
X100224Y110865D01*
X100136Y110893D01*
X100052Y110929D01*
X99970Y110944D01*
X99891Y110968D01*
X99800Y110974D01*
X99709Y110991D01*
X99626Y110987D01*
X99544Y110992D01*
X99453Y110978D01*
X99361Y110973D01*
X99281Y110950D01*
X99200Y110937D01*
X99114Y110902D01*
X99026Y110876D01*
X98954Y110836D01*
X98877Y110805D01*
X98802Y110751D01*
X98722Y110706D01*
X98634Y110632D01*
X98593Y110603D01*
X98573Y110580D01*
X98535Y110548D01*
X98096Y110109D01*
X95949Y109219D01*
X84593Y109219D01*
X83039Y109863D01*
X82917Y109898D01*
X82798Y109940D01*
X82750Y109946D01*
X82703Y109959D01*
X82577Y109965D01*
X82452Y109979D01*
X82403Y109974D01*
X82355Y109976D01*
X82231Y109953D01*
X82105Y109938D01*
X82048Y109920D01*
X82012Y109913D01*
X81968Y109894D01*
X81873Y109863D01*
X80318Y109219D01*
X68962Y109219D01*
X66815Y110109D01*
X66417Y110506D01*
X66327Y110578D01*
X66242Y110657D01*
X66191Y110686D01*
X66144Y110723D01*
X66040Y110772D01*
X65940Y110830D01*
X65883Y110847D01*
X65829Y110872D01*
X65716Y110896D01*
X65606Y110929D01*
X65546Y110933D01*
X65488Y110945D01*
X65373Y110943D01*
X65258Y110950D01*
X65199Y110940D01*
X65140Y110939D01*
X65028Y110911D01*
X64914Y110892D01*
X64859Y110869D01*
X64802Y110854D01*
X64699Y110802D01*
X64593Y110757D01*
X64530Y110714D01*
X64492Y110695D01*
X64458Y110666D01*
X64390Y110620D01*
X63619Y110005D01*
X59009Y108953D01*
X54399Y110005D01*
X53627Y110620D01*
X53530Y110681D01*
X53437Y110750D01*
X53382Y110774D01*
X53332Y110805D01*
X53223Y110842D01*
X53117Y110888D01*
X53058Y110899D01*
X53002Y110918D01*
X52887Y110929D01*
X52774Y110950D01*
X52714Y110947D01*
X52655Y110953D01*
X52541Y110938D01*
X52426Y110932D01*
X52369Y110915D01*
X52310Y110908D01*
X52202Y110867D01*
X52091Y110835D01*
X52039Y110806D01*
X51983Y110785D01*
X51888Y110721D01*
X51787Y110665D01*
X51728Y110615D01*
X51693Y110592D01*
X51663Y110560D01*
X51600Y110506D01*
X51203Y110109D01*
X49055Y109219D01*
X37700Y109219D01*
X35552Y110109D01*
X33909Y111752D01*
X33019Y113900D01*
X33019Y116224D01*
X33909Y118372D01*
X35552Y120015D01*
X35571Y120023D01*
X35585Y120031D01*
X35600Y120035D01*
X35737Y120115D01*
X35875Y120192D01*
X35887Y120203D01*
X35901Y120211D01*
X36016Y120320D01*
X36133Y120426D01*
X36143Y120440D01*
X36154Y120451D01*
X36241Y120582D01*
X36332Y120713D01*
X36337Y120728D01*
X36346Y120742D01*
X36401Y120890D01*
X36459Y121037D01*
X36462Y121053D01*
X36467Y121068D01*
X36487Y121225D01*
X36510Y121382D01*
X36509Y121398D01*
X36511Y121414D01*
X36494Y121570D01*
X36481Y121729D01*
X36476Y121745D01*
X36475Y121761D01*
X36423Y121910D01*
X36374Y122061D01*
X36366Y122075D01*
X36360Y122090D01*
X36276Y122224D01*
X36194Y122360D01*
X36183Y122371D01*
X36175Y122385D01*
X36062Y122496D01*
X35952Y122609D01*
X35938Y122618D01*
X35926Y122630D01*
X35722Y122764D01*
X35026Y123148D01*
X33574Y124963D01*
X32927Y127196D01*
X33183Y129506D01*
X34304Y131542D01*
X39087Y135368D01*
X39165Y135446D01*
X39249Y135518D01*
X39287Y135569D01*
X39332Y135615D01*
X39390Y135709D01*
X39456Y135798D01*
X39481Y135857D01*
X39515Y135912D01*
X39550Y136017D01*
X39594Y136118D01*
X39605Y136181D01*
X39626Y136242D01*
X39636Y136352D01*
X39655Y136461D01*
X39652Y136525D01*
X39658Y136589D01*
X39643Y136699D01*
X39638Y136809D01*
X39620Y136871D01*
X39611Y136935D01*
X39571Y137038D01*
X39541Y137144D01*
X39510Y137200D01*
X39487Y137260D01*
X39425Y137352D01*
X39371Y137448D01*
X39316Y137512D01*
X39291Y137549D01*
X39261Y137577D01*
X39250Y137590D01*
X39245Y137597D01*
X39240Y137602D01*
X39212Y137634D01*
X38424Y138422D01*
X37535Y140570D01*
X37535Y151196D01*
X37526Y151272D01*
X37527Y151348D01*
X37506Y151444D01*
X37495Y151542D01*
X37469Y151614D01*
X37453Y151689D01*
X37411Y151777D01*
X37377Y151870D01*
X37336Y151934D01*
X37303Y152003D01*
X37242Y152080D01*
X37188Y152163D01*
X37133Y152216D01*
X37086Y152276D01*
X37009Y152337D01*
X36938Y152405D01*
X36872Y152444D01*
X36812Y152492D01*
X36679Y152560D01*
X36639Y152584D01*
X36621Y152590D01*
X36594Y152603D01*
X35552Y153035D01*
X33909Y154678D01*
X33019Y156826D01*
X33019Y159150D01*
X33909Y161298D01*
X35552Y162941D01*
X37700Y163831D01*
X49055Y163831D01*
X51203Y162941D01*
X52846Y161298D01*
X53652Y159352D01*
X53689Y159286D01*
X53717Y159215D01*
X53774Y159134D01*
X53821Y159048D01*
X53873Y158991D01*
X53916Y158928D01*
X53989Y158863D01*
X54056Y158790D01*
X54118Y158746D01*
X54175Y158695D01*
X54261Y158647D01*
X54342Y158591D01*
X54413Y158563D01*
X54480Y158526D01*
X54575Y158500D01*
X54666Y158464D01*
X54742Y158452D01*
X54816Y158432D01*
X54964Y158420D01*
X55011Y158413D01*
X55030Y158414D01*
X55059Y158412D01*
X59458Y158412D01*
X62432Y156695D01*
X62581Y156630D01*
X62732Y156563D01*
X62742Y156561D01*
X62752Y156557D01*
X62912Y156527D01*
X63074Y156496D01*
X63084Y156496D01*
X63095Y156494D01*
X63258Y156502D01*
X63422Y156508D01*
X63432Y156511D01*
X63443Y156512D01*
X63600Y156557D01*
X63759Y156600D01*
X63770Y156605D01*
X63778Y156608D01*
X63805Y156623D01*
X63978Y156708D01*
X66869Y158445D01*
X69200Y158411D01*
X72537Y158364D01*
X72968Y158170D01*
X73015Y158155D01*
X73059Y158132D01*
X73180Y158102D01*
X73300Y158064D01*
X73349Y158060D01*
X73397Y158048D01*
X73522Y158046D01*
X73647Y158037D01*
X73696Y158044D01*
X73745Y158043D01*
X73868Y158070D01*
X73992Y158089D01*
X74038Y158107D01*
X74086Y158118D01*
X74199Y158171D01*
X74315Y158218D01*
X74356Y158246D01*
X74401Y158267D01*
X74499Y158345D01*
X74601Y158417D01*
X74634Y158454D01*
X74673Y158485D01*
X74751Y158583D01*
X74834Y158676D01*
X74858Y158719D01*
X74889Y158758D01*
X75000Y158976D01*
X75962Y161298D01*
X77606Y162941D01*
X79753Y163831D01*
X82077Y163831D01*
X84225Y162941D01*
X85868Y161298D01*
X86758Y159150D01*
X86758Y158987D01*
X86767Y158912D01*
X86766Y158835D01*
X86787Y158739D01*
X86798Y158641D01*
X86824Y158569D01*
X86840Y158495D01*
X86882Y158406D01*
X86915Y158313D01*
X86957Y158249D01*
X86990Y158180D01*
X87051Y158103D01*
X87104Y158020D01*
X87159Y157967D01*
X87207Y157907D01*
X87284Y157847D01*
X87355Y157778D01*
X87421Y157739D01*
X87481Y157692D01*
X87614Y157623D01*
X87654Y157599D01*
X87672Y157593D01*
X87698Y157580D01*
X87837Y157523D01*
X89481Y155879D01*
X89939Y154773D01*
X89963Y154729D01*
X89980Y154682D01*
X90048Y154577D01*
X90108Y154469D01*
X90142Y154431D01*
X90169Y154389D01*
X90259Y154303D01*
X90342Y154211D01*
X90384Y154182D01*
X90420Y154147D01*
X90527Y154083D01*
X90629Y154012D01*
X90676Y153994D01*
X90719Y153968D01*
X90837Y153930D01*
X90953Y153885D01*
X91003Y153877D01*
X91051Y153862D01*
X91175Y153852D01*
X91298Y153834D01*
X91348Y153838D01*
X91398Y153834D01*
X91521Y153852D01*
X91645Y153863D01*
X91693Y153878D01*
X91743Y153886D01*
X91859Y153932D01*
X91977Y153970D01*
X92020Y153996D01*
X92067Y154014D01*
X92169Y154085D01*
X92276Y154149D01*
X92312Y154185D01*
X92353Y154213D01*
X92436Y154305D01*
X92526Y154392D01*
X92553Y154435D01*
X92587Y154472D01*
X92647Y154581D01*
X92714Y154686D01*
X92731Y154733D01*
X92755Y154777D01*
X92789Y154897D01*
X92830Y155014D01*
X92836Y155064D01*
X92850Y155112D01*
X92869Y155356D01*
X92869Y156909D01*
X95403Y161297D01*
X99791Y163831D01*
X100859Y163831D01*
X100860Y163831D01*
X102325Y163831D01*
X104372Y163831D01*
X108282Y162527D01*
X108297Y162518D01*
X108372Y162463D01*
X108448Y162431D01*
X108518Y162389D01*
X108607Y162362D01*
X108692Y162325D01*
X108773Y162311D01*
X108851Y162286D01*
X108944Y162280D01*
X109035Y162263D01*
X109117Y162268D01*
X109199Y162262D01*
X109291Y162277D01*
X109383Y162281D01*
X109462Y162304D01*
X109543Y162317D01*
X109629Y162352D01*
X109718Y162378D01*
X109790Y162418D01*
X109866Y162449D01*
X109941Y162503D01*
X110022Y162548D01*
X110109Y162622D01*
X110150Y162651D01*
X110170Y162674D01*
X110209Y162707D01*
X110443Y162941D01*
X112591Y163831D01*
X114915Y163831D01*
X117063Y162941D01*
X118706Y161298D01*
X119136Y160259D01*
X119185Y160171D01*
X119225Y160079D01*
X119270Y160019D01*
X119306Y159954D01*
X119373Y159880D01*
X119433Y159799D01*
X119490Y159751D01*
X119540Y159696D01*
X119622Y159639D01*
X119699Y159574D01*
X119765Y159540D01*
X119827Y159498D01*
X119920Y159461D01*
X120009Y159415D01*
X120081Y159397D01*
X120151Y159370D01*
X120250Y159355D01*
X120348Y159331D01*
X120422Y159330D01*
X120496Y159319D01*
X120596Y159328D01*
X120696Y159326D01*
X120769Y159342D01*
X120843Y159348D01*
X120938Y159379D01*
X121037Y159400D01*
X121104Y159432D01*
X121174Y159455D01*
X121260Y159507D01*
X121351Y159550D01*
X121409Y159597D01*
X121473Y159635D01*
X121545Y159705D01*
X121624Y159767D01*
X121670Y159826D01*
X121723Y159878D01*
X121777Y159962D01*
X121840Y160041D01*
X121885Y160131D01*
X121911Y160171D01*
X121923Y160205D01*
X121951Y160259D01*
X122381Y161298D01*
X124025Y162941D01*
X126172Y163831D01*
X129400Y163831D01*
X131547Y162941D01*
X133191Y161298D01*
X133997Y159352D01*
X134034Y159285D01*
X134062Y159215D01*
X134118Y159134D01*
X134166Y159048D01*
X134217Y158991D01*
X134261Y158928D01*
X134334Y158863D01*
X134400Y158790D01*
X134463Y158746D01*
X134520Y158695D01*
X134606Y158647D01*
X134687Y158591D01*
X134758Y158563D01*
X134825Y158526D01*
X134920Y158500D01*
X135011Y158464D01*
X135087Y158452D01*
X135160Y158432D01*
X135309Y158420D01*
X135356Y158413D01*
X135375Y158414D01*
X135404Y158412D01*
X140414Y158412D01*
X140483Y158395D01*
X140531Y158394D01*
X140579Y158386D01*
X140705Y158392D01*
X140831Y158390D01*
X140879Y158400D01*
X140927Y158403D01*
X141048Y158437D01*
X141172Y158464D01*
X141216Y158485D01*
X141262Y158499D01*
X141372Y158560D01*
X141486Y158614D01*
X141524Y158644D01*
X141567Y158668D01*
X141660Y158753D01*
X141759Y158831D01*
X141789Y158870D01*
X141825Y158902D01*
X141897Y159006D01*
X141975Y159105D01*
X142003Y159160D01*
X142023Y159189D01*
X142041Y159234D01*
X142086Y159323D01*
X142904Y161298D01*
X144548Y162941D01*
X146695Y163831D01*
X149020Y163831D01*
X151167Y162941D01*
X152811Y161298D01*
X153784Y158947D01*
X153845Y158837D01*
X153899Y158724D01*
X153930Y158685D01*
X153954Y158642D01*
X154038Y158549D01*
X154116Y158451D01*
X154155Y158421D01*
X154188Y158384D01*
X154291Y158313D01*
X154390Y158235D01*
X154434Y158214D01*
X154474Y158186D01*
X154591Y158140D01*
X154705Y158087D01*
X154753Y158076D01*
X154799Y158058D01*
X154923Y158040D01*
X155046Y158014D01*
X155095Y158015D01*
X155143Y158008D01*
X155269Y158018D01*
X155394Y158020D01*
X155442Y158032D01*
X155491Y158036D01*
X155610Y158075D01*
X155732Y158106D01*
X155788Y158132D01*
X155822Y158144D01*
X155863Y158168D01*
X155953Y158211D01*
X156483Y158516D01*
X156524Y158536D01*
X156617Y158569D01*
X156681Y158611D01*
X156750Y158644D01*
X156827Y158705D01*
X156910Y158758D01*
X156963Y158813D01*
X157022Y158861D01*
X157083Y158938D01*
X157152Y159009D01*
X157191Y159075D01*
X157238Y159135D01*
X157307Y159268D01*
X157331Y159308D01*
X157336Y159326D01*
X157350Y159352D01*
X158156Y161298D01*
X159799Y162941D01*
X161947Y163831D01*
X164271Y163831D01*
X166418Y162941D01*
X168062Y161298D01*
X168951Y159150D01*
X168951Y140570D01*
X168147Y138628D01*
X168140Y138603D01*
X168128Y138579D01*
X168092Y138436D01*
X168051Y138293D01*
X168050Y138267D01*
X168044Y138241D01*
X168042Y138093D01*
X168035Y137945D01*
X168039Y137919D01*
X168039Y137893D01*
X168070Y137748D01*
X168097Y137602D01*
X168108Y137578D01*
X168113Y137552D01*
X168177Y137418D01*
X168236Y137282D01*
X168252Y137261D01*
X168263Y137238D01*
X168355Y137121D01*
X168444Y137003D01*
X168464Y136986D01*
X168480Y136965D01*
X168597Y136873D01*
X168710Y136777D01*
X168733Y136765D01*
X168754Y136749D01*
X168972Y136638D01*
X169856Y136271D01*
X171500Y134628D01*
X172389Y132480D01*
X172389Y122428D01*
X172392Y122402D01*
X172390Y122376D01*
X172412Y122229D01*
X172429Y122082D01*
X172438Y122057D01*
X172442Y122031D01*
X172497Y121893D01*
X172547Y121754D01*
X172561Y121732D01*
X172571Y121707D01*
X172655Y121586D01*
X172736Y121461D01*
X172755Y121443D01*
X172770Y121421D01*
X172880Y121322D01*
X172986Y121219D01*
X173009Y121205D01*
X173028Y121188D01*
X173158Y121116D01*
X173286Y121040D01*
X173311Y121032D01*
X173334Y121019D01*
X173476Y120979D01*
X173618Y120934D01*
X173644Y120932D01*
X173669Y120924D01*
X173913Y120905D01*
X174934Y120905D01*
X177081Y120015D01*
X178725Y118372D01*
X179614Y116224D01*
X179614Y113900D01*
X178725Y111752D01*
X177081Y110109D01*
X174934Y109219D01*
X165384Y109219D01*
X163326Y110072D01*
X163205Y110106D01*
X163086Y110149D01*
X163038Y110154D01*
X162991Y110167D01*
X162865Y110174D01*
X162739Y110188D01*
X162691Y110182D01*
X162643Y110184D01*
X162519Y110162D01*
X162393Y110147D01*
X162336Y110128D01*
X162300Y110122D01*
X162256Y110103D01*
X162161Y110072D01*
X160103Y109219D01*
X152464Y109219D01*
X148884Y111286D01*
X148746Y111346D01*
X148609Y111410D01*
X148586Y111415D01*
X148565Y111424D01*
X148416Y111451D01*
X148268Y111483D01*
X148245Y111483D01*
X148222Y111487D01*
X148071Y111479D01*
X147920Y111476D01*
X147897Y111471D01*
X147874Y111469D01*
X147728Y111428D01*
X147582Y111391D01*
X147557Y111379D01*
X147539Y111373D01*
X147498Y111351D01*
X147361Y111286D01*
X143782Y109219D01*
X138280Y109219D01*
X136132Y110109D01*
X134489Y111752D01*
X133599Y113900D01*
X133599Y114085D01*
X133598Y114092D01*
X133599Y114100D01*
X133578Y114266D01*
X133559Y114431D01*
X133557Y114438D01*
X133556Y114446D01*
X133498Y114601D01*
X133442Y114759D01*
X133438Y114766D01*
X133435Y114773D01*
X133344Y114911D01*
X133253Y115052D01*
X133247Y115057D01*
X133243Y115064D01*
X133123Y115178D01*
X133002Y115294D01*
X132996Y115298D01*
X132990Y115303D01*
X132846Y115388D01*
X132703Y115473D01*
X132696Y115475D01*
X132690Y115479D01*
X132530Y115529D01*
X132371Y115579D01*
X132364Y115580D01*
X132357Y115582D01*
X132189Y115594D01*
X132024Y115607D01*
X132017Y115606D01*
X132009Y115607D01*
X131844Y115580D01*
X131679Y115556D01*
X131672Y115553D01*
X131665Y115552D01*
X131511Y115489D01*
X131355Y115427D01*
X131349Y115423D01*
X131342Y115420D01*
X131206Y115323D01*
X131069Y115228D01*
X131064Y115222D01*
X131058Y115218D01*
X130947Y115093D01*
X130836Y114969D01*
X130832Y114963D01*
X130827Y114957D01*
X130704Y114746D01*
X129840Y112953D01*
X126144Y110005D01*
X121534Y108953D01*
X116924Y110005D01*
G37*
%LPD*%
%LPC*%
G36*
X629424Y24637D02*
X629424Y24637D01*
X621537Y32524D01*
X621537Y43676D01*
X629424Y51563D01*
X640576Y51563D01*
X646623Y45516D01*
X646643Y45500D01*
X646660Y45480D01*
X646780Y45392D01*
X646896Y45300D01*
X646920Y45288D01*
X646941Y45273D01*
X647077Y45214D01*
X647211Y45151D01*
X647237Y45145D01*
X647261Y45135D01*
X647407Y45109D01*
X647552Y45077D01*
X647578Y45078D01*
X647604Y45073D01*
X647752Y45081D01*
X647900Y45083D01*
X647926Y45090D01*
X647952Y45091D01*
X648094Y45132D01*
X648238Y45168D01*
X648261Y45180D01*
X648287Y45188D01*
X648416Y45260D01*
X648548Y45328D01*
X648568Y45345D01*
X648591Y45358D01*
X648777Y45516D01*
X654824Y51563D01*
X665976Y51563D01*
X672023Y45516D01*
X672043Y45500D01*
X672060Y45480D01*
X672180Y45392D01*
X672296Y45300D01*
X672320Y45288D01*
X672341Y45273D01*
X672477Y45214D01*
X672611Y45151D01*
X672637Y45145D01*
X672661Y45135D01*
X672807Y45109D01*
X672952Y45077D01*
X672978Y45078D01*
X673004Y45073D01*
X673152Y45081D01*
X673300Y45083D01*
X673326Y45090D01*
X673352Y45091D01*
X673494Y45132D01*
X673638Y45168D01*
X673661Y45180D01*
X673687Y45188D01*
X673816Y45260D01*
X673948Y45328D01*
X673968Y45345D01*
X673991Y45358D01*
X674177Y45516D01*
X680224Y51563D01*
X691376Y51563D01*
X697423Y45516D01*
X697443Y45500D01*
X697460Y45480D01*
X697580Y45392D01*
X697696Y45300D01*
X697720Y45288D01*
X697741Y45273D01*
X697877Y45214D01*
X698011Y45151D01*
X698037Y45145D01*
X698061Y45135D01*
X698207Y45109D01*
X698352Y45077D01*
X698378Y45078D01*
X698404Y45073D01*
X698552Y45081D01*
X698700Y45083D01*
X698726Y45090D01*
X698752Y45091D01*
X698894Y45132D01*
X699038Y45168D01*
X699061Y45180D01*
X699087Y45188D01*
X699216Y45260D01*
X699348Y45328D01*
X699368Y45345D01*
X699391Y45358D01*
X699577Y45516D01*
X705624Y51563D01*
X716776Y51563D01*
X722823Y45516D01*
X722843Y45500D01*
X722860Y45480D01*
X722980Y45392D01*
X723096Y45300D01*
X723120Y45288D01*
X723141Y45273D01*
X723277Y45214D01*
X723411Y45151D01*
X723437Y45145D01*
X723461Y45135D01*
X723607Y45109D01*
X723752Y45077D01*
X723778Y45078D01*
X723804Y45073D01*
X723952Y45081D01*
X724100Y45083D01*
X724126Y45090D01*
X724152Y45091D01*
X724294Y45132D01*
X724438Y45168D01*
X724461Y45180D01*
X724487Y45188D01*
X724616Y45260D01*
X724748Y45328D01*
X724768Y45345D01*
X724791Y45358D01*
X724977Y45516D01*
X731024Y51563D01*
X742176Y51563D01*
X748223Y45516D01*
X748243Y45500D01*
X748260Y45480D01*
X748380Y45392D01*
X748496Y45300D01*
X748520Y45288D01*
X748541Y45273D01*
X748677Y45214D01*
X748811Y45151D01*
X748837Y45145D01*
X748861Y45135D01*
X749007Y45109D01*
X749152Y45077D01*
X749178Y45078D01*
X749204Y45073D01*
X749352Y45081D01*
X749500Y45083D01*
X749526Y45090D01*
X749552Y45091D01*
X749694Y45132D01*
X749838Y45168D01*
X749861Y45180D01*
X749887Y45188D01*
X750016Y45260D01*
X750148Y45328D01*
X750168Y45345D01*
X750191Y45358D01*
X750377Y45516D01*
X756424Y51563D01*
X767576Y51563D01*
X775463Y43676D01*
X775463Y32524D01*
X767576Y24637D01*
X756424Y24637D01*
X750377Y30684D01*
X750357Y30700D01*
X750340Y30720D01*
X750220Y30808D01*
X750104Y30900D01*
X750080Y30912D01*
X750059Y30927D01*
X749923Y30986D01*
X749789Y31049D01*
X749763Y31055D01*
X749739Y31065D01*
X749593Y31091D01*
X749448Y31123D01*
X749422Y31122D01*
X749396Y31127D01*
X749248Y31119D01*
X749100Y31117D01*
X749074Y31110D01*
X749048Y31109D01*
X748906Y31068D01*
X748762Y31032D01*
X748739Y31020D01*
X748713Y31012D01*
X748584Y30940D01*
X748452Y30872D01*
X748432Y30855D01*
X748409Y30842D01*
X748223Y30684D01*
X742176Y24637D01*
X731024Y24637D01*
X724977Y30684D01*
X724957Y30700D01*
X724940Y30720D01*
X724820Y30808D01*
X724704Y30900D01*
X724680Y30912D01*
X724659Y30927D01*
X724523Y30986D01*
X724389Y31049D01*
X724363Y31055D01*
X724339Y31065D01*
X724193Y31091D01*
X724048Y31123D01*
X724022Y31122D01*
X723996Y31127D01*
X723848Y31119D01*
X723700Y31117D01*
X723674Y31110D01*
X723648Y31109D01*
X723506Y31068D01*
X723362Y31032D01*
X723339Y31020D01*
X723313Y31012D01*
X723184Y30940D01*
X723052Y30872D01*
X723032Y30855D01*
X723009Y30842D01*
X722823Y30684D01*
X716776Y24637D01*
X705624Y24637D01*
X699577Y30684D01*
X699557Y30700D01*
X699540Y30720D01*
X699420Y30808D01*
X699304Y30900D01*
X699280Y30912D01*
X699259Y30927D01*
X699123Y30986D01*
X698989Y31049D01*
X698963Y31055D01*
X698939Y31065D01*
X698793Y31091D01*
X698648Y31123D01*
X698622Y31122D01*
X698596Y31127D01*
X698448Y31119D01*
X698300Y31117D01*
X698274Y31110D01*
X698248Y31109D01*
X698106Y31068D01*
X697962Y31032D01*
X697939Y31020D01*
X697913Y31012D01*
X697784Y30940D01*
X697652Y30872D01*
X697632Y30855D01*
X697609Y30842D01*
X697423Y30684D01*
X691376Y24637D01*
X680224Y24637D01*
X674177Y30684D01*
X674157Y30700D01*
X674140Y30720D01*
X674020Y30808D01*
X673904Y30900D01*
X673880Y30912D01*
X673859Y30927D01*
X673723Y30986D01*
X673589Y31049D01*
X673563Y31055D01*
X673539Y31065D01*
X673393Y31091D01*
X673248Y31123D01*
X673222Y31122D01*
X673196Y31127D01*
X673048Y31119D01*
X672900Y31117D01*
X672874Y31110D01*
X672848Y31109D01*
X672706Y31068D01*
X672562Y31032D01*
X672539Y31020D01*
X672513Y31012D01*
X672384Y30940D01*
X672252Y30872D01*
X672232Y30855D01*
X672209Y30842D01*
X672023Y30684D01*
X665976Y24637D01*
X654824Y24637D01*
X648777Y30684D01*
X648757Y30700D01*
X648740Y30720D01*
X648620Y30808D01*
X648504Y30900D01*
X648480Y30912D01*
X648459Y30927D01*
X648323Y30986D01*
X648189Y31049D01*
X648163Y31055D01*
X648139Y31065D01*
X647993Y31091D01*
X647848Y31123D01*
X647822Y31122D01*
X647796Y31127D01*
X647648Y31119D01*
X647500Y31117D01*
X647474Y31110D01*
X647448Y31109D01*
X647306Y31068D01*
X647162Y31032D01*
X647139Y31020D01*
X647113Y31012D01*
X646984Y30940D01*
X646852Y30872D01*
X646832Y30855D01*
X646809Y30842D01*
X646623Y30684D01*
X640576Y24637D01*
X629424Y24637D01*
G37*
%LPD*%
%LPC*%
G36*
X400824Y24637D02*
X400824Y24637D01*
X392937Y32524D01*
X392937Y43676D01*
X400824Y51563D01*
X411976Y51563D01*
X418023Y45516D01*
X418043Y45500D01*
X418060Y45480D01*
X418180Y45392D01*
X418296Y45300D01*
X418320Y45288D01*
X418341Y45273D01*
X418477Y45214D01*
X418611Y45151D01*
X418637Y45145D01*
X418661Y45135D01*
X418807Y45109D01*
X418952Y45077D01*
X418978Y45078D01*
X419004Y45073D01*
X419152Y45081D01*
X419300Y45083D01*
X419326Y45090D01*
X419352Y45091D01*
X419494Y45132D01*
X419638Y45168D01*
X419661Y45180D01*
X419687Y45188D01*
X419816Y45260D01*
X419948Y45328D01*
X419968Y45345D01*
X419991Y45358D01*
X420177Y45516D01*
X426224Y51563D01*
X437376Y51563D01*
X443423Y45516D01*
X443443Y45500D01*
X443460Y45480D01*
X443580Y45392D01*
X443696Y45300D01*
X443720Y45288D01*
X443741Y45273D01*
X443877Y45214D01*
X444011Y45151D01*
X444037Y45145D01*
X444061Y45135D01*
X444207Y45109D01*
X444352Y45077D01*
X444378Y45078D01*
X444404Y45073D01*
X444552Y45081D01*
X444700Y45083D01*
X444726Y45090D01*
X444752Y45091D01*
X444894Y45132D01*
X445038Y45168D01*
X445061Y45180D01*
X445087Y45188D01*
X445216Y45260D01*
X445348Y45328D01*
X445368Y45345D01*
X445391Y45358D01*
X445577Y45516D01*
X451624Y51563D01*
X462776Y51563D01*
X468823Y45516D01*
X468843Y45500D01*
X468860Y45480D01*
X468980Y45392D01*
X469096Y45300D01*
X469120Y45288D01*
X469141Y45273D01*
X469277Y45214D01*
X469411Y45151D01*
X469437Y45145D01*
X469461Y45135D01*
X469607Y45109D01*
X469752Y45077D01*
X469778Y45078D01*
X469804Y45073D01*
X469952Y45081D01*
X470100Y45083D01*
X470126Y45090D01*
X470152Y45091D01*
X470294Y45132D01*
X470438Y45168D01*
X470461Y45180D01*
X470487Y45188D01*
X470616Y45260D01*
X470748Y45328D01*
X470768Y45345D01*
X470791Y45358D01*
X470977Y45516D01*
X477024Y51563D01*
X488176Y51563D01*
X494223Y45516D01*
X494243Y45500D01*
X494260Y45480D01*
X494380Y45392D01*
X494496Y45300D01*
X494520Y45288D01*
X494541Y45273D01*
X494677Y45214D01*
X494811Y45151D01*
X494837Y45145D01*
X494861Y45135D01*
X495007Y45109D01*
X495152Y45077D01*
X495178Y45078D01*
X495204Y45073D01*
X495352Y45081D01*
X495500Y45083D01*
X495526Y45090D01*
X495552Y45091D01*
X495694Y45132D01*
X495838Y45168D01*
X495861Y45180D01*
X495887Y45188D01*
X496016Y45260D01*
X496148Y45328D01*
X496168Y45345D01*
X496191Y45358D01*
X496377Y45516D01*
X502424Y51563D01*
X513576Y51563D01*
X521419Y43720D01*
X521439Y43704D01*
X521456Y43684D01*
X521576Y43596D01*
X521692Y43504D01*
X521716Y43492D01*
X521737Y43477D01*
X521873Y43418D01*
X522007Y43355D01*
X522033Y43349D01*
X522057Y43339D01*
X522203Y43312D01*
X522348Y43281D01*
X522374Y43282D01*
X522400Y43277D01*
X522548Y43285D01*
X522696Y43287D01*
X522722Y43294D01*
X522748Y43295D01*
X522890Y43336D01*
X523034Y43372D01*
X523058Y43384D01*
X523083Y43392D01*
X523212Y43464D01*
X523344Y43532D01*
X523364Y43549D01*
X523387Y43562D01*
X523573Y43720D01*
X528876Y49023D01*
X530901Y49023D01*
X530901Y39076D01*
X530902Y39061D01*
X530902Y39050D01*
X530903Y39041D01*
X530902Y39024D01*
X530924Y38877D01*
X530941Y38730D01*
X530949Y38705D01*
X530953Y38679D01*
X531008Y38542D01*
X531058Y38402D01*
X531072Y38380D01*
X531082Y38355D01*
X531167Y38234D01*
X531247Y38109D01*
X531260Y38097D01*
X531215Y38050D01*
X531201Y38027D01*
X531184Y38008D01*
X531112Y37878D01*
X531036Y37751D01*
X531028Y37726D01*
X531015Y37703D01*
X530975Y37560D01*
X530930Y37419D01*
X530927Y37393D01*
X530920Y37368D01*
X530901Y37124D01*
X530901Y27177D01*
X528876Y27177D01*
X523573Y32480D01*
X523553Y32496D01*
X523536Y32516D01*
X523416Y32604D01*
X523300Y32696D01*
X523276Y32708D01*
X523255Y32723D01*
X523119Y32782D01*
X522985Y32845D01*
X522959Y32851D01*
X522935Y32861D01*
X522789Y32888D01*
X522644Y32919D01*
X522618Y32918D01*
X522592Y32923D01*
X522444Y32915D01*
X522296Y32913D01*
X522270Y32906D01*
X522244Y32905D01*
X522102Y32864D01*
X521958Y32828D01*
X521935Y32816D01*
X521909Y32808D01*
X521780Y32736D01*
X521648Y32668D01*
X521628Y32651D01*
X521605Y32638D01*
X521419Y32480D01*
X513576Y24637D01*
X502424Y24637D01*
X496377Y30684D01*
X496357Y30700D01*
X496340Y30720D01*
X496220Y30808D01*
X496104Y30900D01*
X496080Y30912D01*
X496059Y30927D01*
X495923Y30986D01*
X495789Y31049D01*
X495763Y31055D01*
X495739Y31065D01*
X495593Y31091D01*
X495448Y31123D01*
X495422Y31122D01*
X495396Y31127D01*
X495248Y31119D01*
X495100Y31117D01*
X495074Y31110D01*
X495048Y31109D01*
X494906Y31068D01*
X494762Y31032D01*
X494739Y31020D01*
X494713Y31012D01*
X494584Y30940D01*
X494452Y30872D01*
X494432Y30855D01*
X494409Y30842D01*
X494223Y30684D01*
X488176Y24637D01*
X477024Y24637D01*
X470977Y30684D01*
X470957Y30700D01*
X470940Y30720D01*
X470820Y30808D01*
X470704Y30900D01*
X470680Y30912D01*
X470659Y30927D01*
X470523Y30986D01*
X470389Y31049D01*
X470363Y31055D01*
X470339Y31065D01*
X470193Y31091D01*
X470048Y31123D01*
X470022Y31122D01*
X469996Y31127D01*
X469848Y31119D01*
X469700Y31117D01*
X469674Y31110D01*
X469648Y31109D01*
X469506Y31068D01*
X469362Y31032D01*
X469339Y31020D01*
X469313Y31012D01*
X469184Y30940D01*
X469052Y30872D01*
X469032Y30855D01*
X469009Y30842D01*
X468823Y30684D01*
X462776Y24637D01*
X451624Y24637D01*
X445577Y30684D01*
X445557Y30700D01*
X445540Y30720D01*
X445420Y30808D01*
X445304Y30900D01*
X445280Y30912D01*
X445259Y30927D01*
X445123Y30986D01*
X444989Y31049D01*
X444963Y31055D01*
X444939Y31065D01*
X444793Y31091D01*
X444648Y31123D01*
X444622Y31122D01*
X444596Y31127D01*
X444448Y31119D01*
X444300Y31117D01*
X444274Y31110D01*
X444248Y31109D01*
X444106Y31068D01*
X443962Y31032D01*
X443939Y31020D01*
X443913Y31012D01*
X443784Y30940D01*
X443652Y30872D01*
X443632Y30855D01*
X443609Y30842D01*
X443423Y30684D01*
X437376Y24637D01*
X426224Y24637D01*
X420177Y30684D01*
X420157Y30700D01*
X420140Y30720D01*
X420020Y30808D01*
X419904Y30900D01*
X419880Y30912D01*
X419859Y30927D01*
X419723Y30986D01*
X419589Y31049D01*
X419563Y31055D01*
X419539Y31065D01*
X419393Y31091D01*
X419248Y31123D01*
X419222Y31122D01*
X419196Y31127D01*
X419048Y31119D01*
X418900Y31117D01*
X418874Y31110D01*
X418848Y31109D01*
X418706Y31068D01*
X418562Y31032D01*
X418539Y31020D01*
X418513Y31012D01*
X418384Y30940D01*
X418252Y30872D01*
X418232Y30855D01*
X418209Y30842D01*
X418023Y30684D01*
X411976Y24637D01*
X400824Y24637D01*
G37*
%LPD*%
%LPC*%
G36*
X27476Y693673D02*
X27476Y693673D01*
X20988Y696361D01*
X16022Y701327D01*
X13334Y707815D01*
X13334Y739985D01*
X16022Y746473D01*
X20988Y751439D01*
X27476Y754127D01*
X34500Y754127D01*
X40988Y751439D01*
X45954Y746473D01*
X48642Y739985D01*
X48642Y707815D01*
X45954Y701327D01*
X40988Y696361D01*
X34500Y693673D01*
X27476Y693673D01*
G37*
%LPD*%
%LPC*%
G36*
X651300Y693673D02*
X651300Y693673D01*
X644812Y696361D01*
X639846Y701327D01*
X637158Y707815D01*
X637158Y739985D01*
X639846Y746473D01*
X644812Y751439D01*
X651300Y754127D01*
X658324Y754127D01*
X664812Y751439D01*
X669778Y746473D01*
X672466Y739985D01*
X672466Y707815D01*
X669778Y701327D01*
X664812Y696361D01*
X658324Y693673D01*
X651300Y693673D01*
G37*
%LPD*%
%LPC*%
G36*
X854500Y693673D02*
X854500Y693673D01*
X848012Y696361D01*
X843046Y701327D01*
X840358Y707815D01*
X840358Y739985D01*
X843046Y746473D01*
X848012Y751439D01*
X854500Y754127D01*
X861524Y754127D01*
X868012Y751439D01*
X872978Y746473D01*
X875666Y739985D01*
X875666Y707815D01*
X872978Y701327D01*
X868012Y696361D01*
X861524Y693673D01*
X854500Y693673D01*
G37*
%LPD*%
%LPC*%
G36*
X230676Y693673D02*
X230676Y693673D01*
X224188Y696361D01*
X219222Y701327D01*
X216534Y707815D01*
X216534Y739985D01*
X219222Y746473D01*
X224188Y751439D01*
X230676Y754127D01*
X237700Y754127D01*
X244188Y751439D01*
X249154Y746473D01*
X251842Y739985D01*
X251842Y707815D01*
X249154Y701327D01*
X244188Y696361D01*
X237700Y693673D01*
X230676Y693673D01*
G37*
%LPD*%
%LPC*%
G36*
X129076Y693673D02*
X129076Y693673D01*
X122588Y696361D01*
X117622Y701327D01*
X114934Y707815D01*
X114934Y739985D01*
X117622Y746473D01*
X122588Y751439D01*
X129076Y754127D01*
X136100Y754127D01*
X142588Y751439D01*
X147554Y746473D01*
X150242Y739985D01*
X150242Y707815D01*
X147554Y701327D01*
X142588Y696361D01*
X136100Y693673D01*
X129076Y693673D01*
G37*
%LPD*%
%LPC*%
G36*
X956100Y693673D02*
X956100Y693673D01*
X949612Y696361D01*
X944646Y701327D01*
X941958Y707815D01*
X941958Y739985D01*
X944646Y746473D01*
X949612Y751439D01*
X956100Y754127D01*
X963124Y754127D01*
X969612Y751439D01*
X974578Y746473D01*
X977266Y739985D01*
X977266Y707815D01*
X974578Y701327D01*
X969612Y696361D01*
X963124Y693673D01*
X956100Y693673D01*
G37*
%LPD*%
%LPC*%
G36*
X752900Y693673D02*
X752900Y693673D01*
X746412Y696361D01*
X741446Y701327D01*
X738758Y707815D01*
X738758Y739985D01*
X741446Y746473D01*
X746412Y751439D01*
X752900Y754127D01*
X759924Y754127D01*
X766412Y751439D01*
X771378Y746473D01*
X774066Y739985D01*
X774066Y707815D01*
X771378Y701327D01*
X766412Y696361D01*
X759924Y693673D01*
X752900Y693673D01*
G37*
%LPD*%
%LPC*%
G36*
X129819Y600739D02*
X129819Y600739D01*
X123674Y602386D01*
X118165Y605567D01*
X113667Y610065D01*
X110486Y615574D01*
X108839Y621719D01*
X108839Y628081D01*
X110486Y634226D01*
X113667Y639735D01*
X118165Y644233D01*
X123674Y647414D01*
X129819Y649061D01*
X136181Y649061D01*
X142326Y647414D01*
X147835Y644233D01*
X152333Y639735D01*
X155514Y634226D01*
X157161Y628081D01*
X157161Y621719D01*
X155514Y615574D01*
X152333Y610065D01*
X147835Y605567D01*
X142326Y602386D01*
X136181Y600739D01*
X129819Y600739D01*
G37*
%LPD*%
%LPC*%
G36*
X129819Y290739D02*
X129819Y290739D01*
X123674Y292386D01*
X118165Y295567D01*
X113667Y300065D01*
X110486Y305574D01*
X108839Y311719D01*
X108839Y318081D01*
X110486Y324226D01*
X113667Y329735D01*
X118165Y334233D01*
X123674Y337414D01*
X129819Y339061D01*
X136181Y339061D01*
X142326Y337414D01*
X147835Y334233D01*
X152333Y329735D01*
X155514Y324226D01*
X157161Y318081D01*
X157161Y311719D01*
X155514Y305574D01*
X152333Y300065D01*
X147835Y295567D01*
X142326Y292386D01*
X136181Y290739D01*
X129819Y290739D01*
G37*
%LPD*%
%LPC*%
G36*
X441519Y711707D02*
X441519Y711707D01*
X436011Y713989D01*
X431795Y718205D01*
X429513Y723713D01*
X429513Y749487D01*
X431795Y754995D01*
X436011Y759211D01*
X441519Y761493D01*
X447481Y761493D01*
X452989Y759211D01*
X457205Y754995D01*
X459487Y749487D01*
X459487Y723713D01*
X457205Y718205D01*
X452989Y713989D01*
X447481Y711707D01*
X441519Y711707D01*
G37*
%LPD*%
%LPC*%
G36*
X533213Y696213D02*
X533213Y696213D01*
X527705Y698495D01*
X523489Y702711D01*
X521207Y708219D01*
X521207Y714181D01*
X523489Y719689D01*
X527705Y723905D01*
X533213Y726187D01*
X558987Y726187D01*
X564495Y723905D01*
X568711Y719689D01*
X570993Y714181D01*
X570993Y708219D01*
X568711Y702711D01*
X564495Y698495D01*
X558987Y696213D01*
X533213Y696213D01*
G37*
%LPD*%
%LPC*%
G36*
X263142Y61324D02*
X263142Y61324D01*
X257307Y63741D01*
X252841Y68207D01*
X250424Y74042D01*
X250424Y80358D01*
X252841Y86193D01*
X257307Y90659D01*
X263142Y93076D01*
X269458Y93076D01*
X275293Y90659D01*
X279759Y86193D01*
X282176Y80358D01*
X282176Y74042D01*
X279759Y68207D01*
X275293Y63741D01*
X269458Y61324D01*
X263142Y61324D01*
G37*
%LPD*%
%LPC*%
G36*
X492542Y61324D02*
X492542Y61324D01*
X486707Y63741D01*
X482241Y68207D01*
X479824Y74042D01*
X479824Y80358D01*
X482241Y86193D01*
X486707Y90659D01*
X492542Y93076D01*
X498858Y93076D01*
X504693Y90659D01*
X509159Y86193D01*
X511576Y80358D01*
X511576Y74042D01*
X509159Y68207D01*
X504693Y63741D01*
X498858Y61324D01*
X492542Y61324D01*
G37*
%LPD*%
%LPC*%
G36*
X542542Y61324D02*
X542542Y61324D01*
X536707Y63741D01*
X532241Y68207D01*
X529824Y74042D01*
X529824Y80358D01*
X532241Y86193D01*
X536707Y90659D01*
X542542Y93076D01*
X548858Y93076D01*
X554693Y90659D01*
X559159Y86193D01*
X561576Y80358D01*
X561576Y74042D01*
X559159Y68207D01*
X554693Y63741D01*
X548858Y61324D01*
X542542Y61324D01*
G37*
%LPD*%
%LPC*%
G36*
X821942Y61324D02*
X821942Y61324D01*
X816107Y63741D01*
X811641Y68207D01*
X809224Y74042D01*
X809224Y80358D01*
X811641Y86193D01*
X816107Y90659D01*
X821942Y93076D01*
X828258Y93076D01*
X834093Y90659D01*
X838559Y86193D01*
X840976Y80358D01*
X840976Y74042D01*
X838559Y68207D01*
X834093Y63741D01*
X828258Y61324D01*
X821942Y61324D01*
G37*
%LPD*%
%LPC*%
G36*
X213142Y61324D02*
X213142Y61324D01*
X207307Y63741D01*
X202841Y68207D01*
X200424Y74042D01*
X200424Y80358D01*
X202841Y86193D01*
X207307Y90659D01*
X213142Y93076D01*
X219458Y93076D01*
X225293Y90659D01*
X229759Y86193D01*
X232176Y80358D01*
X232176Y74042D01*
X229759Y68207D01*
X225293Y63741D01*
X219458Y61324D01*
X213142Y61324D01*
G37*
%LPD*%
%LPC*%
G36*
X771942Y61324D02*
X771942Y61324D01*
X766107Y63741D01*
X761641Y68207D01*
X759224Y74042D01*
X759224Y80358D01*
X761641Y86193D01*
X766107Y90659D01*
X771942Y93076D01*
X778258Y93076D01*
X784093Y90659D01*
X788559Y86193D01*
X790976Y80358D01*
X790976Y74042D01*
X788559Y68207D01*
X784093Y63741D01*
X778258Y61324D01*
X771942Y61324D01*
G37*
%LPD*%
%LPC*%
G36*
X578624Y24637D02*
X578624Y24637D01*
X570781Y32480D01*
X570761Y32496D01*
X570744Y32516D01*
X570624Y32604D01*
X570508Y32696D01*
X570484Y32708D01*
X570463Y32723D01*
X570327Y32782D01*
X570193Y32845D01*
X570167Y32851D01*
X570143Y32861D01*
X569997Y32888D01*
X569852Y32919D01*
X569826Y32918D01*
X569800Y32923D01*
X569652Y32915D01*
X569504Y32913D01*
X569478Y32906D01*
X569452Y32905D01*
X569310Y32864D01*
X569166Y32828D01*
X569142Y32816D01*
X569117Y32808D01*
X568988Y32736D01*
X568856Y32668D01*
X568836Y32651D01*
X568813Y32638D01*
X568627Y32480D01*
X563324Y27177D01*
X561299Y27177D01*
X561299Y37124D01*
X561296Y37150D01*
X561298Y37176D01*
X561276Y37323D01*
X561259Y37470D01*
X561251Y37495D01*
X561247Y37521D01*
X561192Y37658D01*
X561142Y37798D01*
X561128Y37820D01*
X561118Y37845D01*
X561033Y37966D01*
X560953Y38091D01*
X560940Y38103D01*
X560985Y38150D01*
X560999Y38173D01*
X561016Y38192D01*
X561088Y38322D01*
X561164Y38449D01*
X561172Y38474D01*
X561185Y38497D01*
X561225Y38640D01*
X561270Y38781D01*
X561272Y38807D01*
X561280Y38832D01*
X561299Y39076D01*
X561299Y49023D01*
X563324Y49023D01*
X568627Y43720D01*
X568647Y43704D01*
X568664Y43684D01*
X568784Y43596D01*
X568900Y43504D01*
X568924Y43492D01*
X568945Y43477D01*
X569081Y43418D01*
X569215Y43355D01*
X569241Y43349D01*
X569265Y43339D01*
X569411Y43312D01*
X569556Y43281D01*
X569582Y43282D01*
X569608Y43277D01*
X569756Y43285D01*
X569904Y43287D01*
X569930Y43294D01*
X569956Y43295D01*
X570098Y43336D01*
X570242Y43372D01*
X570265Y43384D01*
X570291Y43392D01*
X570420Y43464D01*
X570552Y43532D01*
X570572Y43549D01*
X570595Y43562D01*
X570781Y43720D01*
X578624Y51563D01*
X589776Y51563D01*
X597663Y43676D01*
X597663Y32524D01*
X589776Y24637D01*
X578624Y24637D01*
G37*
%LPD*%
%LPC*%
G36*
X591639Y552449D02*
X591639Y552449D01*
X584199Y559889D01*
X584199Y570411D01*
X591639Y577851D01*
X602161Y577851D01*
X609601Y570411D01*
X609601Y559889D01*
X602161Y552449D01*
X591639Y552449D01*
G37*
%LPD*%
%LPC*%
G36*
X630160Y369315D02*
X630160Y369315D01*
X623315Y376160D01*
X623315Y385840D01*
X630160Y392685D01*
X639840Y392685D01*
X646685Y385840D01*
X646685Y376160D01*
X639840Y369315D01*
X630160Y369315D01*
G37*
%LPD*%
%LPC*%
G36*
X655560Y343915D02*
X655560Y343915D01*
X648715Y350760D01*
X648715Y360440D01*
X655560Y367285D01*
X665240Y367285D01*
X672085Y360440D01*
X672085Y350760D01*
X665240Y343915D01*
X655560Y343915D01*
G37*
%LPD*%
%LPC*%
G36*
X680960Y318515D02*
X680960Y318515D01*
X674115Y325360D01*
X674115Y335040D01*
X680960Y341885D01*
X690640Y341885D01*
X697485Y335040D01*
X697485Y325360D01*
X690640Y318515D01*
X680960Y318515D01*
G37*
%LPD*%
%LPC*%
G36*
X782560Y343915D02*
X782560Y343915D01*
X775715Y350760D01*
X775715Y360440D01*
X782560Y367285D01*
X792240Y367285D01*
X799085Y360440D01*
X799085Y350760D01*
X792240Y343915D01*
X782560Y343915D01*
G37*
%LPD*%
%LPC*%
G36*
X731760Y394715D02*
X731760Y394715D01*
X724915Y401560D01*
X724915Y411240D01*
X731760Y418085D01*
X741440Y418085D01*
X748285Y411240D01*
X748285Y401560D01*
X741440Y394715D01*
X731760Y394715D01*
G37*
%LPD*%
%LPC*%
G36*
X757160Y369315D02*
X757160Y369315D01*
X750315Y376160D01*
X750315Y385840D01*
X757160Y392685D01*
X766840Y392685D01*
X773685Y385840D01*
X773685Y376160D01*
X766840Y369315D01*
X757160Y369315D01*
G37*
%LPD*%
%LPC*%
G36*
X175259Y726947D02*
X175259Y726947D01*
X175259Y751303D01*
X177080Y750815D01*
X178911Y750057D01*
X180627Y749066D01*
X182199Y747861D01*
X183600Y746460D01*
X184805Y744888D01*
X185796Y743172D01*
X186554Y741341D01*
X187067Y739428D01*
X187326Y737464D01*
X187326Y726947D01*
X175259Y726947D01*
G37*
%LPD*%
%LPC*%
G36*
X276859Y726947D02*
X276859Y726947D01*
X276859Y751303D01*
X278680Y750815D01*
X280511Y750057D01*
X282227Y749066D01*
X283799Y747861D01*
X285200Y746460D01*
X286405Y744888D01*
X287396Y743172D01*
X288154Y741341D01*
X288667Y739428D01*
X288926Y737464D01*
X288926Y726947D01*
X276859Y726947D01*
G37*
%LPD*%
%LPC*%
G36*
X378459Y726947D02*
X378459Y726947D01*
X378459Y751303D01*
X380280Y750815D01*
X382111Y750057D01*
X383827Y749066D01*
X385399Y747861D01*
X386800Y746460D01*
X388005Y744888D01*
X388996Y743172D01*
X389754Y741341D01*
X390267Y739428D01*
X390526Y737464D01*
X390526Y726947D01*
X378459Y726947D01*
G37*
%LPD*%
%LPC*%
G36*
X73659Y726947D02*
X73659Y726947D01*
X73659Y751303D01*
X75480Y750815D01*
X77311Y750057D01*
X79027Y749066D01*
X80599Y747861D01*
X82000Y746460D01*
X83205Y744888D01*
X84196Y743172D01*
X84954Y741341D01*
X85467Y739428D01*
X85726Y737464D01*
X85726Y726947D01*
X73659Y726947D01*
G37*
%LPD*%
%LPC*%
G36*
X276859Y720853D02*
X276859Y720853D01*
X288926Y720853D01*
X288926Y710336D01*
X288667Y708372D01*
X288154Y706459D01*
X287396Y704628D01*
X286405Y702912D01*
X286199Y702643D01*
X286199Y702642D01*
X286198Y702642D01*
X285200Y701340D01*
X283799Y699939D01*
X282227Y698734D01*
X280511Y697743D01*
X278680Y696985D01*
X276859Y696497D01*
X276859Y720853D01*
G37*
%LPD*%
%LPC*%
G36*
X175259Y720853D02*
X175259Y720853D01*
X187326Y720853D01*
X187326Y710336D01*
X187067Y708372D01*
X186554Y706459D01*
X185796Y704628D01*
X184805Y702912D01*
X184599Y702643D01*
X184599Y702642D01*
X184598Y702642D01*
X183600Y701340D01*
X182199Y699939D01*
X180627Y698734D01*
X178911Y697743D01*
X177080Y696985D01*
X175259Y696497D01*
X175259Y720853D01*
G37*
%LPD*%
%LPC*%
G36*
X378459Y720853D02*
X378459Y720853D01*
X390526Y720853D01*
X390526Y710336D01*
X390267Y708372D01*
X389754Y706459D01*
X388996Y704628D01*
X388005Y702912D01*
X387799Y702643D01*
X387799Y702642D01*
X387798Y702642D01*
X386800Y701340D01*
X385399Y699939D01*
X383827Y698734D01*
X382111Y697743D01*
X380280Y696985D01*
X378459Y696497D01*
X378459Y720853D01*
G37*
%LPD*%
%LPC*%
G36*
X73659Y720853D02*
X73659Y720853D01*
X85726Y720853D01*
X85726Y710336D01*
X85467Y708372D01*
X84954Y706459D01*
X84196Y704628D01*
X83205Y702912D01*
X82999Y702643D01*
X82999Y702642D01*
X82998Y702642D01*
X82000Y701340D01*
X80599Y699939D01*
X79027Y698734D01*
X77311Y697743D01*
X75480Y696985D01*
X73659Y696497D01*
X73659Y720853D01*
G37*
%LPD*%
%LPC*%
G36*
X258698Y726947D02*
X258698Y726947D01*
X258698Y737464D01*
X258957Y739428D01*
X259470Y741341D01*
X260228Y743172D01*
X261219Y744888D01*
X261277Y744964D01*
X262424Y746460D01*
X263825Y747861D01*
X265397Y749066D01*
X267113Y750057D01*
X268944Y750815D01*
X270765Y751303D01*
X270765Y726947D01*
X258698Y726947D01*
G37*
%LPD*%
%LPC*%
G36*
X360298Y726947D02*
X360298Y726947D01*
X360298Y737464D01*
X360557Y739428D01*
X361070Y741341D01*
X361828Y743172D01*
X362819Y744888D01*
X362877Y744964D01*
X364024Y746460D01*
X365425Y747861D01*
X366997Y749066D01*
X368713Y750057D01*
X370544Y750815D01*
X372365Y751303D01*
X372365Y726947D01*
X360298Y726947D01*
G37*
%LPD*%
%LPC*%
G36*
X55498Y726947D02*
X55498Y726947D01*
X55498Y737464D01*
X55757Y739428D01*
X56270Y741341D01*
X57028Y743172D01*
X58019Y744888D01*
X58077Y744964D01*
X59224Y746460D01*
X60625Y747861D01*
X62197Y749066D01*
X63913Y750057D01*
X65744Y750815D01*
X67565Y751303D01*
X67565Y726947D01*
X55498Y726947D01*
G37*
%LPD*%
%LPC*%
G36*
X157098Y726947D02*
X157098Y726947D01*
X157098Y737464D01*
X157357Y739428D01*
X157870Y741341D01*
X158628Y743172D01*
X159619Y744888D01*
X159677Y744964D01*
X160824Y746460D01*
X162225Y747861D01*
X163797Y749066D01*
X165513Y750057D01*
X167344Y750815D01*
X169165Y751303D01*
X169165Y726947D01*
X157098Y726947D01*
G37*
%LPD*%
%LPC*%
G36*
X268944Y696985D02*
X268944Y696985D01*
X267113Y697743D01*
X265397Y698734D01*
X263825Y699939D01*
X262424Y701340D01*
X261219Y702912D01*
X260228Y704628D01*
X259470Y706459D01*
X258957Y708372D01*
X258698Y710336D01*
X258698Y720853D01*
X270765Y720853D01*
X270765Y696497D01*
X268944Y696985D01*
G37*
%LPD*%
%LPC*%
G36*
X167344Y696985D02*
X167344Y696985D01*
X165513Y697743D01*
X163797Y698734D01*
X162225Y699939D01*
X160824Y701340D01*
X159619Y702912D01*
X158628Y704628D01*
X157870Y706459D01*
X157357Y708372D01*
X157098Y710336D01*
X157098Y720853D01*
X169165Y720853D01*
X169165Y696497D01*
X167344Y696985D01*
G37*
%LPD*%
%LPC*%
G36*
X65744Y696985D02*
X65744Y696985D01*
X63913Y697743D01*
X62197Y698734D01*
X60625Y699939D01*
X59224Y701340D01*
X58019Y702912D01*
X57028Y704628D01*
X56270Y706459D01*
X55757Y708372D01*
X55498Y710336D01*
X55498Y720853D01*
X67565Y720853D01*
X67565Y696497D01*
X65744Y696985D01*
G37*
%LPD*%
%LPC*%
G36*
X549147Y765047D02*
X549147Y765047D01*
X549147Y774447D01*
X556986Y774447D01*
X558921Y774140D01*
X560784Y773535D01*
X562530Y772645D01*
X564114Y771494D01*
X565500Y770108D01*
X566651Y768524D01*
X567541Y766778D01*
X568103Y765047D01*
X549147Y765047D01*
G37*
%LPD*%
%LPC*%
G36*
X524097Y765047D02*
X524097Y765047D01*
X524659Y766778D01*
X525549Y768524D01*
X526700Y770108D01*
X528086Y771494D01*
X529670Y772645D01*
X531416Y773535D01*
X533279Y774140D01*
X535214Y774447D01*
X543053Y774447D01*
X543053Y765047D01*
X524097Y765047D01*
G37*
%LPD*%
%LPC*%
G36*
X549147Y749553D02*
X549147Y749553D01*
X549147Y758953D01*
X568103Y758953D01*
X567541Y757222D01*
X566651Y755476D01*
X565500Y753892D01*
X564114Y752506D01*
X562530Y751355D01*
X560784Y750465D01*
X558921Y749860D01*
X556986Y749553D01*
X549147Y749553D01*
G37*
%LPD*%
%LPC*%
G36*
X535214Y749553D02*
X535214Y749553D01*
X533279Y749860D01*
X531416Y750465D01*
X529670Y751355D01*
X528086Y752506D01*
X526700Y753892D01*
X525549Y755476D01*
X524659Y757222D01*
X524097Y758953D01*
X543053Y758953D01*
X543053Y749553D01*
X535214Y749553D01*
G37*
%LPD*%
%LPC*%
G36*
X176061Y627439D02*
X176061Y627439D01*
X176061Y634633D01*
X176234Y635279D01*
X176569Y635858D01*
X177042Y636331D01*
X177621Y636666D01*
X178267Y636839D01*
X185461Y636839D01*
X185461Y627439D01*
X176061Y627439D01*
G37*
%LPD*%
%LPC*%
G36*
X178267Y612961D02*
X178267Y612961D01*
X177621Y613134D01*
X177042Y613469D01*
X176569Y613942D01*
X176234Y614521D01*
X176061Y615167D01*
X176061Y622361D01*
X185461Y622361D01*
X185461Y612961D01*
X178267Y612961D01*
G37*
%LPD*%
%LPC*%
G36*
X968755Y383031D02*
X968755Y383031D01*
X968755Y388324D01*
X968980Y389746D01*
X969425Y391114D01*
X970079Y392397D01*
X970925Y393561D01*
X971943Y394579D01*
X973107Y395425D01*
X974390Y396079D01*
X975758Y396524D01*
X975869Y396541D01*
X975869Y383031D01*
X968755Y383031D01*
G37*
%LPD*%
%LPC*%
G36*
X968755Y433831D02*
X968755Y433831D01*
X968755Y439124D01*
X968980Y440546D01*
X969425Y441914D01*
X970079Y443197D01*
X970925Y444361D01*
X971943Y445379D01*
X973107Y446225D01*
X974390Y446879D01*
X975758Y447324D01*
X975869Y447341D01*
X975869Y433831D01*
X968755Y433831D01*
G37*
%LPD*%
%LPC*%
G36*
X968755Y332231D02*
X968755Y332231D01*
X968755Y337524D01*
X968980Y338946D01*
X969425Y340314D01*
X970079Y341597D01*
X970925Y342761D01*
X971943Y343779D01*
X973107Y344625D01*
X974390Y345279D01*
X975758Y345724D01*
X975869Y345741D01*
X975869Y332231D01*
X968755Y332231D01*
G37*
%LPD*%
%LPC*%
G36*
X968755Y484631D02*
X968755Y484631D01*
X968755Y489924D01*
X968980Y491346D01*
X969425Y492714D01*
X970079Y493997D01*
X970925Y495161D01*
X971943Y496179D01*
X973107Y497025D01*
X974390Y497679D01*
X975758Y498124D01*
X975869Y498141D01*
X975869Y484631D01*
X968755Y484631D01*
G37*
%LPD*%
%LPC*%
G36*
X975758Y314676D02*
X975758Y314676D01*
X974390Y315121D01*
X973107Y315775D01*
X971943Y316621D01*
X970925Y317639D01*
X970079Y318803D01*
X969425Y320086D01*
X968980Y321454D01*
X968755Y322876D01*
X968755Y328169D01*
X975869Y328169D01*
X975869Y314659D01*
X975758Y314676D01*
G37*
%LPD*%
%LPC*%
G36*
X975758Y467076D02*
X975758Y467076D01*
X974390Y467521D01*
X973107Y468175D01*
X971943Y469021D01*
X970925Y470039D01*
X970079Y471203D01*
X969425Y472486D01*
X968980Y473854D01*
X968755Y475276D01*
X968755Y480569D01*
X975869Y480569D01*
X975869Y467059D01*
X975758Y467076D01*
G37*
%LPD*%
%LPC*%
G36*
X975758Y365476D02*
X975758Y365476D01*
X974390Y365921D01*
X973107Y366575D01*
X971943Y367421D01*
X970925Y368439D01*
X970079Y369603D01*
X969425Y370886D01*
X968980Y372254D01*
X968755Y373676D01*
X968755Y378969D01*
X975869Y378969D01*
X975869Y365459D01*
X975758Y365476D01*
G37*
%LPD*%
%LPC*%
G36*
X975758Y416276D02*
X975758Y416276D01*
X974390Y416721D01*
X973107Y417375D01*
X971943Y418221D01*
X970925Y419239D01*
X970079Y420403D01*
X969425Y421686D01*
X968980Y423054D01*
X968755Y424476D01*
X968755Y429769D01*
X975869Y429769D01*
X975869Y416259D01*
X975758Y416276D01*
G37*
%LPD*%
%LPC*%
G36*
X219299Y205199D02*
X219299Y205199D01*
X219299Y215227D01*
X219423Y215207D01*
X221419Y214559D01*
X223289Y213606D01*
X224988Y212372D01*
X226472Y210888D01*
X227706Y209189D01*
X228659Y207319D01*
X229307Y205323D01*
X229327Y205199D01*
X219299Y205199D01*
G37*
%LPD*%
%LPC*%
G36*
X498699Y205199D02*
X498699Y205199D01*
X498699Y215227D01*
X498823Y215207D01*
X500819Y214559D01*
X502689Y213606D01*
X504388Y212372D01*
X505872Y210888D01*
X507106Y209189D01*
X508059Y207319D01*
X508707Y205323D01*
X508727Y205199D01*
X498699Y205199D01*
G37*
%LPD*%
%LPC*%
G36*
X778099Y205199D02*
X778099Y205199D01*
X778099Y215227D01*
X778223Y215207D01*
X780219Y214559D01*
X782089Y213606D01*
X783788Y212372D01*
X785272Y210888D01*
X786506Y209189D01*
X787459Y207319D01*
X788107Y205323D01*
X788127Y205199D01*
X778099Y205199D01*
G37*
%LPD*%
%LPC*%
G36*
X219299Y199201D02*
X219299Y199201D01*
X229327Y199201D01*
X229307Y199077D01*
X228659Y197081D01*
X227706Y195211D01*
X226472Y193512D01*
X224988Y192028D01*
X223289Y190794D01*
X221419Y189841D01*
X219423Y189193D01*
X219299Y189173D01*
X219299Y199201D01*
G37*
%LPD*%
%LPC*%
G36*
X482673Y205199D02*
X482673Y205199D01*
X482693Y205323D01*
X483341Y207319D01*
X484294Y209189D01*
X485528Y210888D01*
X487012Y212372D01*
X488711Y213606D01*
X490581Y214559D01*
X492577Y215207D01*
X492701Y215227D01*
X492701Y205199D01*
X482673Y205199D01*
G37*
%LPD*%
%LPC*%
G36*
X498699Y199201D02*
X498699Y199201D01*
X508727Y199201D01*
X508707Y199077D01*
X508059Y197081D01*
X507106Y195211D01*
X505872Y193512D01*
X504388Y192028D01*
X502689Y190794D01*
X500819Y189841D01*
X498823Y189193D01*
X498699Y189173D01*
X498699Y199201D01*
G37*
%LPD*%
%LPC*%
G36*
X778099Y199201D02*
X778099Y199201D01*
X788127Y199201D01*
X788107Y199077D01*
X787459Y197081D01*
X786506Y195211D01*
X785272Y193512D01*
X783788Y192028D01*
X782089Y190794D01*
X780219Y189841D01*
X778223Y189193D01*
X778099Y189173D01*
X778099Y199201D01*
G37*
%LPD*%
%LPC*%
G36*
X203273Y205199D02*
X203273Y205199D01*
X203293Y205323D01*
X203941Y207319D01*
X204894Y209189D01*
X206128Y210888D01*
X207612Y212372D01*
X209311Y213606D01*
X211181Y214559D01*
X213177Y215207D01*
X213301Y215227D01*
X213301Y205199D01*
X203273Y205199D01*
G37*
%LPD*%
%LPC*%
G36*
X762073Y205199D02*
X762073Y205199D01*
X762093Y205323D01*
X762741Y207319D01*
X763694Y209189D01*
X764928Y210888D01*
X766412Y212372D01*
X768111Y213606D01*
X769981Y214559D01*
X771977Y215207D01*
X772101Y215227D01*
X772101Y205199D01*
X762073Y205199D01*
G37*
%LPD*%
%LPC*%
G36*
X213177Y189193D02*
X213177Y189193D01*
X211181Y189841D01*
X209311Y190794D01*
X207612Y192028D01*
X206128Y193512D01*
X204894Y195211D01*
X203941Y197081D01*
X203293Y199077D01*
X203273Y199201D01*
X213301Y199201D01*
X213301Y189173D01*
X213177Y189193D01*
G37*
%LPD*%
%LPC*%
G36*
X771977Y189193D02*
X771977Y189193D01*
X769981Y189841D01*
X768111Y190794D01*
X766412Y192028D01*
X764928Y193512D01*
X763694Y195211D01*
X762741Y197081D01*
X762093Y199077D01*
X762073Y199201D01*
X772101Y199201D01*
X772101Y189173D01*
X771977Y189193D01*
G37*
%LPD*%
%LPC*%
G36*
X492577Y189193D02*
X492577Y189193D01*
X490581Y189841D01*
X488711Y190794D01*
X487012Y192028D01*
X485528Y193512D01*
X484294Y195211D01*
X483341Y197081D01*
X482693Y199077D01*
X482673Y199201D01*
X492701Y199201D01*
X492701Y189173D01*
X492577Y189193D01*
G37*
%LPD*%
%LPC*%
G36*
X571539Y622361D02*
X571539Y622361D01*
X580685Y622361D01*
X580645Y622104D01*
X580064Y620317D01*
X579211Y618643D01*
X578106Y617122D01*
X576778Y615794D01*
X575257Y614689D01*
X573583Y613836D01*
X571796Y613255D01*
X571539Y613215D01*
X571539Y622361D01*
G37*
%LPD*%
%LPC*%
G36*
X535899Y40599D02*
X535899Y40599D01*
X535899Y49023D01*
X537924Y49023D01*
X544323Y42624D01*
X544323Y40599D01*
X535899Y40599D01*
G37*
%LPD*%
%LPC*%
G36*
X547877Y40599D02*
X547877Y40599D01*
X547877Y42624D01*
X554276Y49023D01*
X556301Y49023D01*
X556301Y40599D01*
X547877Y40599D01*
G37*
%LPD*%
%LPC*%
G36*
X535899Y27177D02*
X535899Y27177D01*
X535899Y35601D01*
X544323Y35601D01*
X544323Y33576D01*
X537924Y27177D01*
X535899Y27177D01*
G37*
%LPD*%
%LPC*%
G36*
X554276Y27177D02*
X554276Y27177D01*
X547877Y33576D01*
X547877Y35601D01*
X556301Y35601D01*
X556301Y27177D01*
X554276Y27177D01*
G37*
%LPD*%
%LPC*%
G36*
X375411Y723899D02*
X375411Y723899D01*
X375411Y723901D01*
X375413Y723901D01*
X375413Y723899D01*
X375411Y723899D01*
G37*
%LPD*%
%LPC*%
G36*
X546099Y761999D02*
X546099Y761999D01*
X546099Y762001D01*
X546101Y762001D01*
X546101Y761999D01*
X546099Y761999D01*
G37*
%LPD*%
%LPC*%
G36*
X273811Y723899D02*
X273811Y723899D01*
X273811Y723901D01*
X273813Y723901D01*
X273813Y723899D01*
X273811Y723899D01*
G37*
%LPD*%
%LPC*%
G36*
X172211Y723899D02*
X172211Y723899D01*
X172211Y723901D01*
X172213Y723901D01*
X172213Y723899D01*
X172211Y723899D01*
G37*
%LPD*%
%LPC*%
G36*
X70611Y723899D02*
X70611Y723899D01*
X70611Y723901D01*
X70613Y723901D01*
X70613Y723899D01*
X70611Y723899D01*
G37*
%LPD*%
D10*
X43378Y141732D02*
X43378Y157988D01*
X47893Y157988D02*
X38862Y157988D01*
X56022Y141732D02*
X60537Y141732D01*
X56022Y141732D02*
X55921Y141734D01*
X55820Y141740D01*
X55719Y141749D01*
X55618Y141762D01*
X55518Y141779D01*
X55419Y141800D01*
X55321Y141824D01*
X55224Y141852D01*
X55127Y141884D01*
X55032Y141919D01*
X54939Y141958D01*
X54847Y142000D01*
X54756Y142046D01*
X54668Y142095D01*
X54581Y142147D01*
X54496Y142203D01*
X54413Y142261D01*
X54333Y142323D01*
X54255Y142388D01*
X54179Y142455D01*
X54106Y142525D01*
X54036Y142598D01*
X53969Y142674D01*
X53904Y142752D01*
X53842Y142832D01*
X53784Y142915D01*
X53728Y143000D01*
X53676Y143087D01*
X53627Y143175D01*
X53581Y143266D01*
X53539Y143358D01*
X53500Y143451D01*
X53465Y143546D01*
X53433Y143643D01*
X53405Y143740D01*
X53381Y143838D01*
X53360Y143937D01*
X53343Y144037D01*
X53330Y144138D01*
X53321Y144239D01*
X53315Y144340D01*
X53313Y144441D01*
X53312Y144441D02*
X53312Y148957D01*
X53313Y148957D02*
X53315Y149076D01*
X53321Y149196D01*
X53331Y149315D01*
X53345Y149433D01*
X53362Y149552D01*
X53384Y149669D01*
X53409Y149786D01*
X53439Y149901D01*
X53472Y150016D01*
X53509Y150130D01*
X53549Y150242D01*
X53594Y150353D01*
X53642Y150462D01*
X53693Y150570D01*
X53748Y150676D01*
X53807Y150780D01*
X53869Y150882D01*
X53934Y150982D01*
X54003Y151080D01*
X54075Y151176D01*
X54150Y151269D01*
X54227Y151359D01*
X54308Y151447D01*
X54392Y151532D01*
X54479Y151614D01*
X54568Y151694D01*
X54660Y151770D01*
X54754Y151844D01*
X54851Y151914D01*
X54949Y151981D01*
X55050Y152045D01*
X55154Y152105D01*
X55259Y152162D01*
X55366Y152215D01*
X55474Y152265D01*
X55584Y152311D01*
X55696Y152353D01*
X55809Y152392D01*
X55923Y152427D01*
X56038Y152458D01*
X56155Y152486D01*
X56272Y152509D01*
X56389Y152529D01*
X56508Y152545D01*
X56627Y152557D01*
X56746Y152565D01*
X56865Y152569D01*
X56985Y152569D01*
X57104Y152565D01*
X57223Y152557D01*
X57342Y152545D01*
X57461Y152529D01*
X57578Y152509D01*
X57695Y152486D01*
X57812Y152458D01*
X57927Y152427D01*
X58041Y152392D01*
X58154Y152353D01*
X58266Y152311D01*
X58376Y152265D01*
X58484Y152215D01*
X58591Y152162D01*
X58696Y152105D01*
X58800Y152045D01*
X58901Y151981D01*
X58999Y151914D01*
X59096Y151844D01*
X59190Y151770D01*
X59282Y151694D01*
X59371Y151614D01*
X59458Y151532D01*
X59542Y151447D01*
X59623Y151359D01*
X59700Y151269D01*
X59775Y151176D01*
X59847Y151080D01*
X59916Y150982D01*
X59981Y150882D01*
X60043Y150780D01*
X60102Y150676D01*
X60157Y150570D01*
X60208Y150462D01*
X60256Y150353D01*
X60301Y150242D01*
X60341Y150130D01*
X60378Y150016D01*
X60411Y149901D01*
X60441Y149786D01*
X60466Y149669D01*
X60488Y149552D01*
X60505Y149433D01*
X60519Y149315D01*
X60529Y149196D01*
X60535Y149076D01*
X60537Y148957D01*
X60537Y147151D01*
X53312Y147151D01*
X68214Y148054D02*
X72729Y146248D01*
X68214Y148054D02*
X68126Y148091D01*
X68040Y148132D01*
X67955Y148176D01*
X67872Y148224D01*
X67792Y148275D01*
X67713Y148329D01*
X67637Y148387D01*
X67563Y148447D01*
X67491Y148511D01*
X67423Y148577D01*
X67357Y148647D01*
X67294Y148718D01*
X67233Y148793D01*
X67176Y148869D01*
X67123Y148948D01*
X67072Y149029D01*
X67025Y149112D01*
X66981Y149197D01*
X66941Y149284D01*
X66904Y149372D01*
X66871Y149462D01*
X66841Y149553D01*
X66816Y149645D01*
X66794Y149738D01*
X66776Y149832D01*
X66761Y149926D01*
X66751Y150021D01*
X66745Y150117D01*
X66742Y150212D01*
X66743Y150308D01*
X66749Y150403D01*
X66758Y150499D01*
X66771Y150593D01*
X66787Y150687D01*
X66808Y150781D01*
X66833Y150873D01*
X66861Y150964D01*
X66893Y151054D01*
X66928Y151143D01*
X66967Y151230D01*
X67010Y151316D01*
X67056Y151400D01*
X67106Y151481D01*
X67158Y151561D01*
X67214Y151639D01*
X67274Y151714D01*
X67336Y151786D01*
X67401Y151856D01*
X67469Y151924D01*
X67539Y151988D01*
X67612Y152050D01*
X67688Y152108D01*
X67766Y152164D01*
X67846Y152216D01*
X67928Y152265D01*
X68012Y152310D01*
X68098Y152352D01*
X68185Y152391D01*
X68274Y152426D01*
X68365Y152457D01*
X68456Y152484D01*
X68549Y152508D01*
X68642Y152528D01*
X68736Y152544D01*
X68831Y152556D01*
X68926Y152565D01*
X69022Y152569D01*
X69117Y152570D01*
X69364Y152563D01*
X69610Y152551D01*
X69856Y152533D01*
X70102Y152508D01*
X70346Y152478D01*
X70590Y152442D01*
X70833Y152401D01*
X71075Y152353D01*
X71316Y152299D01*
X71555Y152240D01*
X71793Y152175D01*
X72029Y152104D01*
X72264Y152028D01*
X72497Y151946D01*
X72727Y151858D01*
X72955Y151765D01*
X73182Y151667D01*
X72730Y146247D02*
X72818Y146210D01*
X72904Y146169D01*
X72989Y146125D01*
X73072Y146077D01*
X73152Y146026D01*
X73231Y145972D01*
X73307Y145914D01*
X73381Y145854D01*
X73453Y145790D01*
X73521Y145724D01*
X73587Y145654D01*
X73650Y145583D01*
X73711Y145508D01*
X73768Y145432D01*
X73821Y145353D01*
X73872Y145272D01*
X73919Y145189D01*
X73963Y145104D01*
X74003Y145017D01*
X74040Y144929D01*
X74073Y144839D01*
X74103Y144748D01*
X74128Y144656D01*
X74150Y144563D01*
X74168Y144469D01*
X74183Y144375D01*
X74193Y144280D01*
X74199Y144184D01*
X74202Y144089D01*
X74201Y143993D01*
X74195Y143898D01*
X74186Y143802D01*
X74173Y143708D01*
X74157Y143614D01*
X74136Y143520D01*
X74111Y143428D01*
X74083Y143337D01*
X74051Y143247D01*
X74016Y143158D01*
X73977Y143071D01*
X73934Y142985D01*
X73888Y142901D01*
X73838Y142820D01*
X73786Y142740D01*
X73730Y142662D01*
X73670Y142587D01*
X73608Y142515D01*
X73543Y142445D01*
X73475Y142377D01*
X73405Y142313D01*
X73332Y142251D01*
X73256Y142193D01*
X73178Y142137D01*
X73098Y142085D01*
X73016Y142036D01*
X72932Y141991D01*
X72846Y141949D01*
X72759Y141910D01*
X72670Y141875D01*
X72579Y141844D01*
X72488Y141817D01*
X72395Y141793D01*
X72302Y141773D01*
X72208Y141757D01*
X72113Y141745D01*
X72018Y141736D01*
X71922Y141732D01*
X71827Y141731D01*
X71826Y141732D02*
X71464Y141741D01*
X71102Y141759D01*
X70741Y141786D01*
X70381Y141821D01*
X70021Y141864D01*
X69662Y141916D01*
X69305Y141977D01*
X68950Y142046D01*
X68596Y142123D01*
X68244Y142209D01*
X67894Y142303D01*
X67546Y142406D01*
X67201Y142516D01*
X66859Y142635D01*
X79109Y152569D02*
X84528Y152569D01*
X80915Y157988D02*
X80915Y144441D01*
X80916Y144441D02*
X80918Y144340D01*
X80924Y144239D01*
X80933Y144138D01*
X80946Y144037D01*
X80963Y143937D01*
X80984Y143838D01*
X81008Y143740D01*
X81036Y143643D01*
X81068Y143546D01*
X81103Y143451D01*
X81142Y143358D01*
X81184Y143266D01*
X81230Y143175D01*
X81279Y143087D01*
X81331Y143000D01*
X81387Y142915D01*
X81445Y142832D01*
X81507Y142752D01*
X81572Y142674D01*
X81639Y142598D01*
X81709Y142525D01*
X81782Y142455D01*
X81858Y142388D01*
X81936Y142323D01*
X82016Y142261D01*
X82099Y142203D01*
X82184Y142147D01*
X82271Y142095D01*
X82359Y142046D01*
X82450Y142000D01*
X82542Y141958D01*
X82635Y141919D01*
X82730Y141884D01*
X82827Y141852D01*
X82924Y141824D01*
X83022Y141800D01*
X83121Y141779D01*
X83221Y141762D01*
X83322Y141749D01*
X83423Y141740D01*
X83524Y141734D01*
X83625Y141732D01*
X84528Y141732D01*
X103679Y141732D02*
X103797Y141734D01*
X103915Y141740D01*
X104033Y141749D01*
X104150Y141763D01*
X104267Y141780D01*
X104384Y141801D01*
X104499Y141826D01*
X104614Y141855D01*
X104728Y141888D01*
X104840Y141924D01*
X104951Y141964D01*
X105061Y142007D01*
X105170Y142054D01*
X105277Y142104D01*
X105382Y142159D01*
X105485Y142216D01*
X105586Y142277D01*
X105686Y142341D01*
X105783Y142408D01*
X105878Y142478D01*
X105970Y142552D01*
X106061Y142628D01*
X106148Y142708D01*
X106233Y142790D01*
X106315Y142875D01*
X106395Y142962D01*
X106471Y143053D01*
X106545Y143145D01*
X106615Y143240D01*
X106682Y143337D01*
X106746Y143437D01*
X106807Y143538D01*
X106864Y143641D01*
X106919Y143746D01*
X106969Y143853D01*
X107016Y143962D01*
X107059Y144072D01*
X107099Y144183D01*
X107135Y144295D01*
X107168Y144409D01*
X107197Y144524D01*
X107222Y144639D01*
X107243Y144756D01*
X107260Y144873D01*
X107274Y144990D01*
X107283Y145108D01*
X107289Y145226D01*
X107291Y145344D01*
X103679Y141732D02*
X103496Y141734D01*
X103314Y141741D01*
X103132Y141752D01*
X102950Y141767D01*
X102768Y141787D01*
X102587Y141810D01*
X102407Y141839D01*
X102227Y141871D01*
X102048Y141908D01*
X101871Y141949D01*
X101694Y141995D01*
X101518Y142044D01*
X101344Y142098D01*
X101170Y142156D01*
X100999Y142218D01*
X100829Y142284D01*
X100660Y142355D01*
X100493Y142429D01*
X100328Y142507D01*
X100165Y142589D01*
X100004Y142675D01*
X99845Y142765D01*
X99688Y142859D01*
X99534Y142956D01*
X99382Y143057D01*
X99232Y143162D01*
X99085Y143270D01*
X98941Y143381D01*
X98799Y143496D01*
X98660Y143615D01*
X98524Y143737D01*
X98391Y143862D01*
X98261Y143990D01*
X98713Y154376D02*
X98715Y154494D01*
X98721Y154612D01*
X98730Y154730D01*
X98744Y154847D01*
X98761Y154964D01*
X98782Y155081D01*
X98807Y155196D01*
X98836Y155311D01*
X98869Y155425D01*
X98905Y155537D01*
X98945Y155648D01*
X98988Y155758D01*
X99035Y155867D01*
X99085Y155974D01*
X99140Y156079D01*
X99197Y156182D01*
X99258Y156283D01*
X99322Y156383D01*
X99389Y156480D01*
X99459Y156575D01*
X99533Y156667D01*
X99609Y156758D01*
X99689Y156845D01*
X99771Y156930D01*
X99856Y157012D01*
X99943Y157092D01*
X100034Y157168D01*
X100126Y157242D01*
X100221Y157312D01*
X100318Y157379D01*
X100418Y157443D01*
X100519Y157504D01*
X100622Y157562D01*
X100727Y157616D01*
X100834Y157666D01*
X100943Y157713D01*
X101053Y157757D01*
X101164Y157796D01*
X101277Y157832D01*
X101390Y157865D01*
X101505Y157894D01*
X101620Y157919D01*
X101737Y157940D01*
X101854Y157957D01*
X101971Y157971D01*
X102089Y157980D01*
X102207Y157986D01*
X102325Y157988D01*
X102486Y157986D01*
X102648Y157980D01*
X102809Y157971D01*
X102970Y157957D01*
X103130Y157940D01*
X103290Y157919D01*
X103450Y157894D01*
X103609Y157865D01*
X103767Y157833D01*
X103924Y157797D01*
X104080Y157757D01*
X104236Y157713D01*
X104390Y157665D01*
X104543Y157614D01*
X104695Y157560D01*
X104846Y157501D01*
X104995Y157440D01*
X105142Y157374D01*
X105288Y157305D01*
X105433Y157233D01*
X105575Y157157D01*
X105716Y157078D01*
X105855Y156996D01*
X105991Y156910D01*
X106126Y156821D01*
X106259Y156729D01*
X106389Y156633D01*
X100518Y151215D02*
X100417Y151277D01*
X100317Y151342D01*
X100220Y151411D01*
X100125Y151483D01*
X100032Y151557D01*
X99942Y151635D01*
X99854Y151716D01*
X99769Y151799D01*
X99687Y151885D01*
X99608Y151974D01*
X99531Y152065D01*
X99458Y152159D01*
X99387Y152255D01*
X99320Y152353D01*
X99256Y152453D01*
X99195Y152556D01*
X99138Y152660D01*
X99084Y152766D01*
X99034Y152874D01*
X98987Y152983D01*
X98943Y153094D01*
X98903Y153206D01*
X98867Y153320D01*
X98835Y153434D01*
X98806Y153550D01*
X98781Y153666D01*
X98760Y153783D01*
X98743Y153901D01*
X98729Y154019D01*
X98720Y154138D01*
X98714Y154257D01*
X98712Y154376D01*
X105486Y148505D02*
X105587Y148443D01*
X105687Y148378D01*
X105784Y148309D01*
X105879Y148237D01*
X105972Y148163D01*
X106062Y148085D01*
X106150Y148004D01*
X106235Y147921D01*
X106317Y147835D01*
X106396Y147746D01*
X106473Y147655D01*
X106546Y147561D01*
X106617Y147465D01*
X106684Y147367D01*
X106748Y147267D01*
X106809Y147164D01*
X106866Y147060D01*
X106920Y146954D01*
X106970Y146846D01*
X107017Y146737D01*
X107061Y146626D01*
X107101Y146514D01*
X107137Y146400D01*
X107169Y146286D01*
X107198Y146170D01*
X107223Y146054D01*
X107244Y145937D01*
X107261Y145819D01*
X107275Y145701D01*
X107284Y145582D01*
X107290Y145463D01*
X107292Y145344D01*
X105486Y148505D02*
X100518Y151215D01*
X113753Y157988D02*
X113753Y141732D01*
X113753Y152569D02*
X118268Y152569D01*
X118372Y152567D01*
X118475Y152561D01*
X118579Y152551D01*
X118682Y152537D01*
X118784Y152519D01*
X118885Y152498D01*
X118986Y152472D01*
X119085Y152443D01*
X119184Y152410D01*
X119281Y152373D01*
X119376Y152332D01*
X119470Y152288D01*
X119562Y152240D01*
X119652Y152189D01*
X119741Y152134D01*
X119827Y152076D01*
X119910Y152014D01*
X119992Y151950D01*
X120070Y151882D01*
X120146Y151812D01*
X120220Y151739D01*
X120290Y151662D01*
X120358Y151584D01*
X120422Y151502D01*
X120484Y151419D01*
X120542Y151333D01*
X120597Y151244D01*
X120648Y151154D01*
X120696Y151062D01*
X120740Y150968D01*
X120781Y150873D01*
X120818Y150776D01*
X120851Y150677D01*
X120880Y150578D01*
X120906Y150477D01*
X120927Y150376D01*
X120945Y150274D01*
X120959Y150171D01*
X120969Y150067D01*
X120975Y149964D01*
X120977Y149860D01*
X120978Y149860D02*
X120978Y141732D01*
X127786Y141732D02*
X127786Y152569D01*
X127335Y157085D02*
X127335Y157988D01*
X128238Y157988D01*
X128238Y157085D01*
X127335Y157085D01*
X136783Y141732D02*
X141298Y141732D01*
X136783Y141732D02*
X136682Y141734D01*
X136581Y141740D01*
X136480Y141749D01*
X136379Y141762D01*
X136279Y141779D01*
X136180Y141800D01*
X136082Y141824D01*
X135985Y141852D01*
X135888Y141884D01*
X135793Y141919D01*
X135700Y141958D01*
X135608Y142000D01*
X135517Y142046D01*
X135429Y142095D01*
X135342Y142147D01*
X135257Y142203D01*
X135174Y142261D01*
X135094Y142323D01*
X135016Y142388D01*
X134940Y142455D01*
X134867Y142525D01*
X134797Y142598D01*
X134730Y142674D01*
X134665Y142752D01*
X134603Y142832D01*
X134545Y142915D01*
X134489Y143000D01*
X134437Y143087D01*
X134388Y143175D01*
X134342Y143266D01*
X134300Y143358D01*
X134261Y143451D01*
X134226Y143546D01*
X134194Y143643D01*
X134166Y143740D01*
X134142Y143838D01*
X134121Y143937D01*
X134104Y144037D01*
X134091Y144138D01*
X134082Y144239D01*
X134076Y144340D01*
X134074Y144441D01*
X134073Y144441D02*
X134073Y148957D01*
X134074Y148957D02*
X134076Y149076D01*
X134082Y149196D01*
X134092Y149315D01*
X134106Y149433D01*
X134123Y149552D01*
X134145Y149669D01*
X134170Y149786D01*
X134200Y149901D01*
X134233Y150016D01*
X134270Y150130D01*
X134310Y150242D01*
X134355Y150353D01*
X134403Y150462D01*
X134454Y150570D01*
X134509Y150676D01*
X134568Y150780D01*
X134630Y150882D01*
X134695Y150982D01*
X134764Y151080D01*
X134836Y151176D01*
X134911Y151269D01*
X134988Y151359D01*
X135069Y151447D01*
X135153Y151532D01*
X135240Y151614D01*
X135329Y151694D01*
X135421Y151770D01*
X135515Y151844D01*
X135612Y151914D01*
X135710Y151981D01*
X135811Y152045D01*
X135915Y152105D01*
X136020Y152162D01*
X136127Y152215D01*
X136235Y152265D01*
X136345Y152311D01*
X136457Y152353D01*
X136570Y152392D01*
X136684Y152427D01*
X136799Y152458D01*
X136916Y152486D01*
X137033Y152509D01*
X137150Y152529D01*
X137269Y152545D01*
X137388Y152557D01*
X137507Y152565D01*
X137626Y152569D01*
X137746Y152569D01*
X137865Y152565D01*
X137984Y152557D01*
X138103Y152545D01*
X138222Y152529D01*
X138339Y152509D01*
X138456Y152486D01*
X138573Y152458D01*
X138688Y152427D01*
X138802Y152392D01*
X138915Y152353D01*
X139027Y152311D01*
X139137Y152265D01*
X139245Y152215D01*
X139352Y152162D01*
X139457Y152105D01*
X139561Y152045D01*
X139662Y151981D01*
X139760Y151914D01*
X139857Y151844D01*
X139951Y151770D01*
X140043Y151694D01*
X140132Y151614D01*
X140219Y151532D01*
X140303Y151447D01*
X140384Y151359D01*
X140461Y151269D01*
X140536Y151176D01*
X140608Y151080D01*
X140677Y150982D01*
X140742Y150882D01*
X140804Y150780D01*
X140863Y150676D01*
X140918Y150570D01*
X140969Y150462D01*
X141017Y150353D01*
X141062Y150242D01*
X141102Y150130D01*
X141139Y150016D01*
X141172Y149901D01*
X141202Y149786D01*
X141227Y149669D01*
X141249Y149552D01*
X141266Y149433D01*
X141280Y149315D01*
X141290Y149196D01*
X141296Y149076D01*
X141298Y148957D01*
X141298Y147151D01*
X134073Y147151D01*
X147857Y144441D02*
X147857Y157988D01*
X147858Y144441D02*
X147860Y144340D01*
X147866Y144239D01*
X147875Y144138D01*
X147888Y144037D01*
X147905Y143937D01*
X147926Y143838D01*
X147950Y143740D01*
X147978Y143643D01*
X148010Y143546D01*
X148045Y143451D01*
X148084Y143358D01*
X148126Y143266D01*
X148172Y143175D01*
X148221Y143087D01*
X148273Y143000D01*
X148329Y142915D01*
X148387Y142832D01*
X148449Y142752D01*
X148514Y142674D01*
X148581Y142598D01*
X148651Y142525D01*
X148724Y142455D01*
X148800Y142388D01*
X148878Y142323D01*
X148958Y142261D01*
X149041Y142203D01*
X149126Y142147D01*
X149213Y142095D01*
X149301Y142046D01*
X149392Y142000D01*
X149484Y141958D01*
X149577Y141919D01*
X149672Y141884D01*
X149769Y141852D01*
X149866Y141824D01*
X149964Y141800D01*
X150063Y141779D01*
X150163Y141762D01*
X150264Y141749D01*
X150365Y141740D01*
X150466Y141734D01*
X150567Y141732D01*
X163109Y141732D02*
X163109Y157988D01*
X163109Y141732D02*
X158593Y141732D01*
X158492Y141734D01*
X158391Y141740D01*
X158290Y141749D01*
X158189Y141762D01*
X158089Y141779D01*
X157990Y141800D01*
X157892Y141824D01*
X157795Y141852D01*
X157698Y141884D01*
X157603Y141919D01*
X157510Y141958D01*
X157418Y142000D01*
X157327Y142046D01*
X157239Y142095D01*
X157152Y142147D01*
X157067Y142203D01*
X156984Y142261D01*
X156904Y142323D01*
X156826Y142388D01*
X156750Y142455D01*
X156677Y142525D01*
X156607Y142598D01*
X156540Y142674D01*
X156475Y142752D01*
X156413Y142832D01*
X156355Y142915D01*
X156299Y143000D01*
X156247Y143087D01*
X156198Y143175D01*
X156152Y143266D01*
X156110Y143358D01*
X156071Y143451D01*
X156036Y143546D01*
X156004Y143643D01*
X155976Y143740D01*
X155952Y143838D01*
X155931Y143937D01*
X155914Y144037D01*
X155901Y144138D01*
X155892Y144239D01*
X155886Y144340D01*
X155884Y144441D01*
X155884Y149860D01*
X155886Y149961D01*
X155892Y150062D01*
X155901Y150163D01*
X155914Y150264D01*
X155931Y150364D01*
X155952Y150463D01*
X155976Y150561D01*
X156004Y150658D01*
X156036Y150755D01*
X156071Y150850D01*
X156110Y150943D01*
X156152Y151035D01*
X156198Y151126D01*
X156247Y151215D01*
X156299Y151301D01*
X156355Y151386D01*
X156413Y151469D01*
X156475Y151549D01*
X156540Y151627D01*
X156607Y151703D01*
X156677Y151776D01*
X156750Y151846D01*
X156826Y151913D01*
X156904Y151978D01*
X156984Y152040D01*
X157067Y152098D01*
X157152Y152154D01*
X157239Y152206D01*
X157327Y152255D01*
X157418Y152301D01*
X157510Y152343D01*
X157603Y152382D01*
X157698Y152417D01*
X157795Y152449D01*
X157892Y152477D01*
X157990Y152501D01*
X158089Y152522D01*
X158189Y152539D01*
X158290Y152552D01*
X158391Y152561D01*
X158492Y152567D01*
X158593Y152569D01*
X163109Y152569D01*
X43378Y131318D02*
X38862Y127706D01*
X43378Y131318D02*
X43378Y115062D01*
X47893Y115062D02*
X38862Y115062D01*
X54493Y119578D02*
X54495Y119711D01*
X54501Y119843D01*
X54511Y119975D01*
X54524Y120107D01*
X54542Y120239D01*
X54563Y120369D01*
X54588Y120500D01*
X54617Y120629D01*
X54650Y120757D01*
X54686Y120885D01*
X54726Y121011D01*
X54770Y121136D01*
X54818Y121260D01*
X54869Y121382D01*
X54924Y121503D01*
X54982Y121622D01*
X55044Y121740D01*
X55109Y121855D01*
X55178Y121969D01*
X55249Y122080D01*
X55325Y122189D01*
X55403Y122296D01*
X55484Y122401D01*
X55569Y122503D01*
X55656Y122603D01*
X55746Y122700D01*
X55839Y122795D01*
X55935Y122886D01*
X56033Y122975D01*
X56134Y123061D01*
X56238Y123144D01*
X56344Y123224D01*
X56452Y123300D01*
X56562Y123374D01*
X56675Y123444D01*
X56789Y123511D01*
X56906Y123574D01*
X57024Y123634D01*
X57144Y123691D01*
X57266Y123744D01*
X57389Y123793D01*
X57513Y123839D01*
X57639Y123881D01*
X57766Y123919D01*
X57894Y123954D01*
X58023Y123985D01*
X58152Y124012D01*
X58283Y124035D01*
X58414Y124055D01*
X58546Y124070D01*
X58678Y124082D01*
X58810Y124090D01*
X58943Y124094D01*
X59075Y124094D01*
X59208Y124090D01*
X59340Y124082D01*
X59472Y124070D01*
X59604Y124055D01*
X59735Y124035D01*
X59866Y124012D01*
X59995Y123985D01*
X60124Y123954D01*
X60252Y123919D01*
X60379Y123881D01*
X60505Y123839D01*
X60629Y123793D01*
X60752Y123744D01*
X60874Y123691D01*
X60994Y123634D01*
X61112Y123574D01*
X61229Y123511D01*
X61343Y123444D01*
X61456Y123374D01*
X61566Y123300D01*
X61674Y123224D01*
X61780Y123144D01*
X61884Y123061D01*
X61985Y122975D01*
X62083Y122886D01*
X62179Y122795D01*
X62272Y122700D01*
X62362Y122603D01*
X62449Y122503D01*
X62534Y122401D01*
X62615Y122296D01*
X62693Y122189D01*
X62769Y122080D01*
X62840Y121969D01*
X62909Y121855D01*
X62974Y121740D01*
X63036Y121622D01*
X63094Y121503D01*
X63149Y121382D01*
X63200Y121260D01*
X63248Y121136D01*
X63292Y121011D01*
X63332Y120885D01*
X63368Y120757D01*
X63401Y120629D01*
X63430Y120500D01*
X63455Y120369D01*
X63476Y120239D01*
X63494Y120107D01*
X63507Y119975D01*
X63517Y119843D01*
X63523Y119711D01*
X63525Y119578D01*
X63523Y119445D01*
X63517Y119313D01*
X63507Y119181D01*
X63494Y119049D01*
X63476Y118917D01*
X63455Y118787D01*
X63430Y118656D01*
X63401Y118527D01*
X63368Y118399D01*
X63332Y118271D01*
X63292Y118145D01*
X63248Y118020D01*
X63200Y117896D01*
X63149Y117774D01*
X63094Y117653D01*
X63036Y117534D01*
X62974Y117416D01*
X62909Y117301D01*
X62840Y117187D01*
X62769Y117076D01*
X62693Y116967D01*
X62615Y116860D01*
X62534Y116755D01*
X62449Y116653D01*
X62362Y116553D01*
X62272Y116456D01*
X62179Y116361D01*
X62083Y116270D01*
X61985Y116181D01*
X61884Y116095D01*
X61780Y116012D01*
X61674Y115932D01*
X61566Y115856D01*
X61456Y115782D01*
X61343Y115712D01*
X61229Y115645D01*
X61112Y115582D01*
X60994Y115522D01*
X60874Y115465D01*
X60752Y115412D01*
X60629Y115363D01*
X60505Y115317D01*
X60379Y115275D01*
X60252Y115237D01*
X60124Y115202D01*
X59995Y115171D01*
X59866Y115144D01*
X59735Y115121D01*
X59604Y115101D01*
X59472Y115086D01*
X59340Y115074D01*
X59208Y115066D01*
X59075Y115062D01*
X58943Y115062D01*
X58810Y115066D01*
X58678Y115074D01*
X58546Y115086D01*
X58414Y115101D01*
X58283Y115121D01*
X58152Y115144D01*
X58023Y115171D01*
X57894Y115202D01*
X57766Y115237D01*
X57639Y115275D01*
X57513Y115317D01*
X57389Y115363D01*
X57266Y115412D01*
X57144Y115465D01*
X57024Y115522D01*
X56906Y115582D01*
X56789Y115645D01*
X56675Y115712D01*
X56562Y115782D01*
X56452Y115856D01*
X56344Y115932D01*
X56238Y116012D01*
X56134Y116095D01*
X56033Y116181D01*
X55935Y116270D01*
X55839Y116361D01*
X55746Y116456D01*
X55656Y116553D01*
X55569Y116653D01*
X55484Y116755D01*
X55403Y116860D01*
X55325Y116967D01*
X55249Y117076D01*
X55178Y117187D01*
X55109Y117301D01*
X55044Y117416D01*
X54982Y117534D01*
X54924Y117653D01*
X54869Y117774D01*
X54818Y117896D01*
X54770Y118020D01*
X54726Y118145D01*
X54686Y118271D01*
X54650Y118399D01*
X54617Y118527D01*
X54588Y118656D01*
X54563Y118787D01*
X54542Y118917D01*
X54524Y119049D01*
X54511Y119181D01*
X54501Y119313D01*
X54495Y119445D01*
X54493Y119578D01*
X55397Y127706D02*
X55399Y127825D01*
X55405Y127945D01*
X55415Y128064D01*
X55429Y128182D01*
X55446Y128301D01*
X55468Y128418D01*
X55493Y128535D01*
X55523Y128650D01*
X55556Y128765D01*
X55593Y128879D01*
X55633Y128991D01*
X55678Y129102D01*
X55726Y129211D01*
X55777Y129319D01*
X55832Y129425D01*
X55891Y129529D01*
X55953Y129631D01*
X56018Y129731D01*
X56087Y129829D01*
X56159Y129925D01*
X56234Y130018D01*
X56311Y130108D01*
X56392Y130196D01*
X56476Y130281D01*
X56563Y130363D01*
X56652Y130443D01*
X56744Y130519D01*
X56838Y130593D01*
X56935Y130663D01*
X57033Y130730D01*
X57134Y130794D01*
X57238Y130854D01*
X57343Y130911D01*
X57450Y130964D01*
X57558Y131014D01*
X57668Y131060D01*
X57780Y131102D01*
X57893Y131141D01*
X58007Y131176D01*
X58122Y131207D01*
X58239Y131235D01*
X58356Y131258D01*
X58473Y131278D01*
X58592Y131294D01*
X58711Y131306D01*
X58830Y131314D01*
X58949Y131318D01*
X59069Y131318D01*
X59188Y131314D01*
X59307Y131306D01*
X59426Y131294D01*
X59545Y131278D01*
X59662Y131258D01*
X59779Y131235D01*
X59896Y131207D01*
X60011Y131176D01*
X60125Y131141D01*
X60238Y131102D01*
X60350Y131060D01*
X60460Y131014D01*
X60568Y130964D01*
X60675Y130911D01*
X60780Y130854D01*
X60884Y130794D01*
X60985Y130730D01*
X61083Y130663D01*
X61180Y130593D01*
X61274Y130519D01*
X61366Y130443D01*
X61455Y130363D01*
X61542Y130281D01*
X61626Y130196D01*
X61707Y130108D01*
X61784Y130018D01*
X61859Y129925D01*
X61931Y129829D01*
X62000Y129731D01*
X62065Y129631D01*
X62127Y129529D01*
X62186Y129425D01*
X62241Y129319D01*
X62292Y129211D01*
X62340Y129102D01*
X62385Y128991D01*
X62425Y128879D01*
X62462Y128765D01*
X62495Y128650D01*
X62525Y128535D01*
X62550Y128418D01*
X62572Y128301D01*
X62589Y128182D01*
X62603Y128064D01*
X62613Y127945D01*
X62619Y127825D01*
X62621Y127706D01*
X62619Y127587D01*
X62613Y127467D01*
X62603Y127348D01*
X62589Y127230D01*
X62572Y127111D01*
X62550Y126994D01*
X62525Y126877D01*
X62495Y126762D01*
X62462Y126647D01*
X62425Y126533D01*
X62385Y126421D01*
X62340Y126310D01*
X62292Y126201D01*
X62241Y126093D01*
X62186Y125987D01*
X62127Y125883D01*
X62065Y125781D01*
X62000Y125681D01*
X61931Y125583D01*
X61859Y125487D01*
X61784Y125394D01*
X61707Y125304D01*
X61626Y125216D01*
X61542Y125131D01*
X61455Y125049D01*
X61366Y124969D01*
X61274Y124893D01*
X61180Y124819D01*
X61083Y124749D01*
X60985Y124682D01*
X60884Y124618D01*
X60780Y124558D01*
X60675Y124501D01*
X60568Y124448D01*
X60460Y124398D01*
X60350Y124352D01*
X60238Y124310D01*
X60125Y124271D01*
X60011Y124236D01*
X59896Y124205D01*
X59779Y124177D01*
X59662Y124154D01*
X59545Y124134D01*
X59426Y124118D01*
X59307Y124106D01*
X59188Y124098D01*
X59069Y124094D01*
X58949Y124094D01*
X58830Y124098D01*
X58711Y124106D01*
X58592Y124118D01*
X58473Y124134D01*
X58356Y124154D01*
X58239Y124177D01*
X58122Y124205D01*
X58007Y124236D01*
X57893Y124271D01*
X57780Y124310D01*
X57668Y124352D01*
X57558Y124398D01*
X57450Y124448D01*
X57343Y124501D01*
X57238Y124558D01*
X57134Y124618D01*
X57033Y124682D01*
X56935Y124749D01*
X56838Y124819D01*
X56744Y124893D01*
X56652Y124969D01*
X56563Y125049D01*
X56476Y125131D01*
X56392Y125216D01*
X56311Y125304D01*
X56234Y125394D01*
X56159Y125487D01*
X56087Y125583D01*
X56018Y125681D01*
X55953Y125781D01*
X55891Y125883D01*
X55832Y125987D01*
X55777Y126093D01*
X55726Y126201D01*
X55678Y126310D01*
X55633Y126421D01*
X55593Y126533D01*
X55556Y126647D01*
X55523Y126762D01*
X55493Y126877D01*
X55468Y126994D01*
X55446Y127111D01*
X55429Y127230D01*
X55415Y127348D01*
X55405Y127467D01*
X55399Y127587D01*
X55397Y127706D01*
X70124Y127706D02*
X74640Y131318D01*
X74640Y115062D01*
X70124Y115062D02*
X79156Y115062D01*
X85756Y127706D02*
X90271Y131318D01*
X90271Y115062D01*
X85756Y115062D02*
X94787Y115062D01*
X101387Y123190D02*
X101391Y123510D01*
X101402Y123829D01*
X101421Y124149D01*
X101448Y124467D01*
X101482Y124785D01*
X101524Y125102D01*
X101574Y125418D01*
X101631Y125733D01*
X101695Y126046D01*
X101767Y126358D01*
X101846Y126668D01*
X101933Y126975D01*
X102027Y127281D01*
X102128Y127584D01*
X102237Y127885D01*
X102352Y128183D01*
X102475Y128479D01*
X102605Y128771D01*
X102742Y129060D01*
X102741Y129061D02*
X102780Y129169D01*
X102823Y129276D01*
X102869Y129381D01*
X102920Y129485D01*
X102973Y129587D01*
X103030Y129687D01*
X103091Y129785D01*
X103155Y129880D01*
X103222Y129974D01*
X103293Y130065D01*
X103366Y130154D01*
X103443Y130240D01*
X103522Y130323D01*
X103604Y130404D01*
X103689Y130482D01*
X103777Y130556D01*
X103867Y130628D01*
X103959Y130696D01*
X104054Y130762D01*
X104151Y130824D01*
X104250Y130882D01*
X104352Y130938D01*
X104454Y130989D01*
X104559Y131037D01*
X104665Y131082D01*
X104773Y131123D01*
X104882Y131160D01*
X104992Y131193D01*
X105104Y131222D01*
X105216Y131248D01*
X105329Y131270D01*
X105443Y131287D01*
X105557Y131301D01*
X105672Y131311D01*
X105787Y131317D01*
X105902Y131319D01*
X105902Y131318D02*
X106017Y131316D01*
X106132Y131310D01*
X106247Y131300D01*
X106361Y131286D01*
X106475Y131269D01*
X106588Y131247D01*
X106700Y131221D01*
X106812Y131192D01*
X106922Y131159D01*
X107031Y131122D01*
X107139Y131081D01*
X107245Y131036D01*
X107350Y130988D01*
X107452Y130937D01*
X107553Y130881D01*
X107653Y130823D01*
X107750Y130761D01*
X107844Y130696D01*
X107937Y130627D01*
X108027Y130555D01*
X108115Y130481D01*
X108200Y130403D01*
X108282Y130322D01*
X108361Y130239D01*
X108438Y130153D01*
X108511Y130064D01*
X108582Y129973D01*
X108649Y129879D01*
X108713Y129784D01*
X108774Y129686D01*
X108831Y129586D01*
X108884Y129484D01*
X108935Y129380D01*
X108981Y129275D01*
X109024Y129168D01*
X109063Y129060D01*
X109200Y128771D01*
X109330Y128479D01*
X109453Y128183D01*
X109568Y127885D01*
X109677Y127584D01*
X109778Y127281D01*
X109872Y126975D01*
X109959Y126668D01*
X110038Y126358D01*
X110110Y126046D01*
X110174Y125733D01*
X110231Y125418D01*
X110281Y125102D01*
X110323Y124785D01*
X110357Y124467D01*
X110384Y124149D01*
X110403Y123829D01*
X110414Y123510D01*
X110418Y123190D01*
X101387Y123190D02*
X101391Y122870D01*
X101402Y122551D01*
X101421Y122231D01*
X101448Y121913D01*
X101482Y121595D01*
X101524Y121278D01*
X101574Y120962D01*
X101631Y120647D01*
X101695Y120334D01*
X101767Y120022D01*
X101846Y119712D01*
X101933Y119405D01*
X102027Y119099D01*
X102128Y118796D01*
X102237Y118495D01*
X102352Y118197D01*
X102475Y117901D01*
X102605Y117609D01*
X102742Y117320D01*
X102741Y117320D02*
X102780Y117212D01*
X102823Y117105D01*
X102869Y117000D01*
X102920Y116896D01*
X102973Y116794D01*
X103030Y116694D01*
X103091Y116596D01*
X103155Y116501D01*
X103222Y116407D01*
X103293Y116316D01*
X103366Y116227D01*
X103443Y116141D01*
X103522Y116058D01*
X103604Y115977D01*
X103689Y115899D01*
X103777Y115825D01*
X103867Y115753D01*
X103960Y115684D01*
X104054Y115619D01*
X104151Y115557D01*
X104251Y115499D01*
X104352Y115443D01*
X104454Y115392D01*
X104559Y115344D01*
X104665Y115299D01*
X104773Y115258D01*
X104882Y115221D01*
X104992Y115188D01*
X105104Y115159D01*
X105216Y115133D01*
X105329Y115111D01*
X105443Y115094D01*
X105557Y115080D01*
X105672Y115070D01*
X105787Y115064D01*
X105902Y115062D01*
X109063Y117320D02*
X109200Y117609D01*
X109330Y117901D01*
X109453Y118197D01*
X109568Y118495D01*
X109677Y118796D01*
X109778Y119099D01*
X109872Y119405D01*
X109959Y119712D01*
X110038Y120022D01*
X110110Y120334D01*
X110174Y120647D01*
X110231Y120962D01*
X110281Y121278D01*
X110323Y121595D01*
X110357Y121913D01*
X110384Y122231D01*
X110403Y122551D01*
X110414Y122870D01*
X110418Y123190D01*
X109063Y117320D02*
X109024Y117212D01*
X108981Y117105D01*
X108935Y117000D01*
X108884Y116896D01*
X108831Y116794D01*
X108774Y116694D01*
X108713Y116596D01*
X108649Y116501D01*
X108582Y116407D01*
X108511Y116316D01*
X108438Y116227D01*
X108361Y116141D01*
X108282Y116058D01*
X108200Y115977D01*
X108115Y115899D01*
X108027Y115825D01*
X107937Y115753D01*
X107844Y115684D01*
X107750Y115619D01*
X107653Y115557D01*
X107553Y115499D01*
X107452Y115443D01*
X107349Y115392D01*
X107245Y115344D01*
X107139Y115299D01*
X107031Y115258D01*
X106922Y115221D01*
X106812Y115188D01*
X106700Y115159D01*
X106588Y115133D01*
X106475Y115111D01*
X106361Y115094D01*
X106247Y115080D01*
X106132Y115070D01*
X106017Y115064D01*
X105902Y115062D01*
X102290Y118674D02*
X109515Y127706D01*
X117018Y119578D02*
X117020Y119711D01*
X117026Y119843D01*
X117036Y119975D01*
X117049Y120107D01*
X117067Y120239D01*
X117088Y120369D01*
X117113Y120500D01*
X117142Y120629D01*
X117175Y120757D01*
X117211Y120885D01*
X117251Y121011D01*
X117295Y121136D01*
X117343Y121260D01*
X117394Y121382D01*
X117449Y121503D01*
X117507Y121622D01*
X117569Y121740D01*
X117634Y121855D01*
X117703Y121969D01*
X117774Y122080D01*
X117850Y122189D01*
X117928Y122296D01*
X118009Y122401D01*
X118094Y122503D01*
X118181Y122603D01*
X118271Y122700D01*
X118364Y122795D01*
X118460Y122886D01*
X118558Y122975D01*
X118659Y123061D01*
X118763Y123144D01*
X118869Y123224D01*
X118977Y123300D01*
X119087Y123374D01*
X119200Y123444D01*
X119314Y123511D01*
X119431Y123574D01*
X119549Y123634D01*
X119669Y123691D01*
X119791Y123744D01*
X119914Y123793D01*
X120038Y123839D01*
X120164Y123881D01*
X120291Y123919D01*
X120419Y123954D01*
X120548Y123985D01*
X120677Y124012D01*
X120808Y124035D01*
X120939Y124055D01*
X121071Y124070D01*
X121203Y124082D01*
X121335Y124090D01*
X121468Y124094D01*
X121600Y124094D01*
X121733Y124090D01*
X121865Y124082D01*
X121997Y124070D01*
X122129Y124055D01*
X122260Y124035D01*
X122391Y124012D01*
X122520Y123985D01*
X122649Y123954D01*
X122777Y123919D01*
X122904Y123881D01*
X123030Y123839D01*
X123154Y123793D01*
X123277Y123744D01*
X123399Y123691D01*
X123519Y123634D01*
X123637Y123574D01*
X123754Y123511D01*
X123868Y123444D01*
X123981Y123374D01*
X124091Y123300D01*
X124199Y123224D01*
X124305Y123144D01*
X124409Y123061D01*
X124510Y122975D01*
X124608Y122886D01*
X124704Y122795D01*
X124797Y122700D01*
X124887Y122603D01*
X124974Y122503D01*
X125059Y122401D01*
X125140Y122296D01*
X125218Y122189D01*
X125294Y122080D01*
X125365Y121969D01*
X125434Y121855D01*
X125499Y121740D01*
X125561Y121622D01*
X125619Y121503D01*
X125674Y121382D01*
X125725Y121260D01*
X125773Y121136D01*
X125817Y121011D01*
X125857Y120885D01*
X125893Y120757D01*
X125926Y120629D01*
X125955Y120500D01*
X125980Y120369D01*
X126001Y120239D01*
X126019Y120107D01*
X126032Y119975D01*
X126042Y119843D01*
X126048Y119711D01*
X126050Y119578D01*
X126048Y119445D01*
X126042Y119313D01*
X126032Y119181D01*
X126019Y119049D01*
X126001Y118917D01*
X125980Y118787D01*
X125955Y118656D01*
X125926Y118527D01*
X125893Y118399D01*
X125857Y118271D01*
X125817Y118145D01*
X125773Y118020D01*
X125725Y117896D01*
X125674Y117774D01*
X125619Y117653D01*
X125561Y117534D01*
X125499Y117416D01*
X125434Y117301D01*
X125365Y117187D01*
X125294Y117076D01*
X125218Y116967D01*
X125140Y116860D01*
X125059Y116755D01*
X124974Y116653D01*
X124887Y116553D01*
X124797Y116456D01*
X124704Y116361D01*
X124608Y116270D01*
X124510Y116181D01*
X124409Y116095D01*
X124305Y116012D01*
X124199Y115932D01*
X124091Y115856D01*
X123981Y115782D01*
X123868Y115712D01*
X123754Y115645D01*
X123637Y115582D01*
X123519Y115522D01*
X123399Y115465D01*
X123277Y115412D01*
X123154Y115363D01*
X123030Y115317D01*
X122904Y115275D01*
X122777Y115237D01*
X122649Y115202D01*
X122520Y115171D01*
X122391Y115144D01*
X122260Y115121D01*
X122129Y115101D01*
X121997Y115086D01*
X121865Y115074D01*
X121733Y115066D01*
X121600Y115062D01*
X121468Y115062D01*
X121335Y115066D01*
X121203Y115074D01*
X121071Y115086D01*
X120939Y115101D01*
X120808Y115121D01*
X120677Y115144D01*
X120548Y115171D01*
X120419Y115202D01*
X120291Y115237D01*
X120164Y115275D01*
X120038Y115317D01*
X119914Y115363D01*
X119791Y115412D01*
X119669Y115465D01*
X119549Y115522D01*
X119431Y115582D01*
X119314Y115645D01*
X119200Y115712D01*
X119087Y115782D01*
X118977Y115856D01*
X118869Y115932D01*
X118763Y116012D01*
X118659Y116095D01*
X118558Y116181D01*
X118460Y116270D01*
X118364Y116361D01*
X118271Y116456D01*
X118181Y116553D01*
X118094Y116653D01*
X118009Y116755D01*
X117928Y116860D01*
X117850Y116967D01*
X117774Y117076D01*
X117703Y117187D01*
X117634Y117301D01*
X117569Y117416D01*
X117507Y117534D01*
X117449Y117653D01*
X117394Y117774D01*
X117343Y117896D01*
X117295Y118020D01*
X117251Y118145D01*
X117211Y118271D01*
X117175Y118399D01*
X117142Y118527D01*
X117113Y118656D01*
X117088Y118787D01*
X117067Y118917D01*
X117049Y119049D01*
X117036Y119181D01*
X117026Y119313D01*
X117020Y119445D01*
X117018Y119578D01*
X117922Y127706D02*
X117924Y127825D01*
X117930Y127945D01*
X117940Y128064D01*
X117954Y128182D01*
X117971Y128301D01*
X117993Y128418D01*
X118018Y128535D01*
X118048Y128650D01*
X118081Y128765D01*
X118118Y128879D01*
X118158Y128991D01*
X118203Y129102D01*
X118251Y129211D01*
X118302Y129319D01*
X118357Y129425D01*
X118416Y129529D01*
X118478Y129631D01*
X118543Y129731D01*
X118612Y129829D01*
X118684Y129925D01*
X118759Y130018D01*
X118836Y130108D01*
X118917Y130196D01*
X119001Y130281D01*
X119088Y130363D01*
X119177Y130443D01*
X119269Y130519D01*
X119363Y130593D01*
X119460Y130663D01*
X119558Y130730D01*
X119659Y130794D01*
X119763Y130854D01*
X119868Y130911D01*
X119975Y130964D01*
X120083Y131014D01*
X120193Y131060D01*
X120305Y131102D01*
X120418Y131141D01*
X120532Y131176D01*
X120647Y131207D01*
X120764Y131235D01*
X120881Y131258D01*
X120998Y131278D01*
X121117Y131294D01*
X121236Y131306D01*
X121355Y131314D01*
X121474Y131318D01*
X121594Y131318D01*
X121713Y131314D01*
X121832Y131306D01*
X121951Y131294D01*
X122070Y131278D01*
X122187Y131258D01*
X122304Y131235D01*
X122421Y131207D01*
X122536Y131176D01*
X122650Y131141D01*
X122763Y131102D01*
X122875Y131060D01*
X122985Y131014D01*
X123093Y130964D01*
X123200Y130911D01*
X123305Y130854D01*
X123409Y130794D01*
X123510Y130730D01*
X123608Y130663D01*
X123705Y130593D01*
X123799Y130519D01*
X123891Y130443D01*
X123980Y130363D01*
X124067Y130281D01*
X124151Y130196D01*
X124232Y130108D01*
X124309Y130018D01*
X124384Y129925D01*
X124456Y129829D01*
X124525Y129731D01*
X124590Y129631D01*
X124652Y129529D01*
X124711Y129425D01*
X124766Y129319D01*
X124817Y129211D01*
X124865Y129102D01*
X124910Y128991D01*
X124950Y128879D01*
X124987Y128765D01*
X125020Y128650D01*
X125050Y128535D01*
X125075Y128418D01*
X125097Y128301D01*
X125114Y128182D01*
X125128Y128064D01*
X125138Y127945D01*
X125144Y127825D01*
X125146Y127706D01*
X125144Y127587D01*
X125138Y127467D01*
X125128Y127348D01*
X125114Y127230D01*
X125097Y127111D01*
X125075Y126994D01*
X125050Y126877D01*
X125020Y126762D01*
X124987Y126647D01*
X124950Y126533D01*
X124910Y126421D01*
X124865Y126310D01*
X124817Y126201D01*
X124766Y126093D01*
X124711Y125987D01*
X124652Y125883D01*
X124590Y125781D01*
X124525Y125681D01*
X124456Y125583D01*
X124384Y125487D01*
X124309Y125394D01*
X124232Y125304D01*
X124151Y125216D01*
X124067Y125131D01*
X123980Y125049D01*
X123891Y124969D01*
X123799Y124893D01*
X123705Y124819D01*
X123608Y124749D01*
X123510Y124682D01*
X123409Y124618D01*
X123305Y124558D01*
X123200Y124501D01*
X123093Y124448D01*
X122985Y124398D01*
X122875Y124352D01*
X122763Y124310D01*
X122650Y124271D01*
X122536Y124236D01*
X122421Y124205D01*
X122304Y124177D01*
X122187Y124154D01*
X122070Y124134D01*
X121951Y124118D01*
X121832Y124106D01*
X121713Y124098D01*
X121594Y124094D01*
X121474Y124094D01*
X121355Y124098D01*
X121236Y124106D01*
X121117Y124118D01*
X120998Y124134D01*
X120881Y124154D01*
X120764Y124177D01*
X120647Y124205D01*
X120532Y124236D01*
X120418Y124271D01*
X120305Y124310D01*
X120193Y124352D01*
X120083Y124398D01*
X119975Y124448D01*
X119868Y124501D01*
X119763Y124558D01*
X119659Y124618D01*
X119558Y124682D01*
X119460Y124749D01*
X119363Y124819D01*
X119269Y124893D01*
X119177Y124969D01*
X119088Y125049D01*
X119001Y125131D01*
X118917Y125216D01*
X118836Y125304D01*
X118759Y125394D01*
X118684Y125487D01*
X118612Y125583D01*
X118543Y125681D01*
X118478Y125781D01*
X118416Y125883D01*
X118357Y125987D01*
X118302Y126093D01*
X118251Y126201D01*
X118203Y126310D01*
X118158Y126421D01*
X118118Y126533D01*
X118081Y126647D01*
X118048Y126762D01*
X118018Y126877D01*
X117993Y126994D01*
X117971Y127111D01*
X117954Y127230D01*
X117940Y127348D01*
X117930Y127467D01*
X117924Y127587D01*
X117922Y127706D01*
X144861Y131318D02*
X144861Y118674D01*
X144860Y118674D02*
X144858Y118556D01*
X144852Y118438D01*
X144843Y118320D01*
X144829Y118203D01*
X144812Y118086D01*
X144791Y117969D01*
X144766Y117854D01*
X144737Y117739D01*
X144704Y117625D01*
X144668Y117513D01*
X144628Y117402D01*
X144585Y117292D01*
X144538Y117183D01*
X144488Y117076D01*
X144433Y116971D01*
X144376Y116868D01*
X144315Y116767D01*
X144251Y116667D01*
X144184Y116570D01*
X144114Y116475D01*
X144040Y116383D01*
X143964Y116292D01*
X143884Y116205D01*
X143802Y116120D01*
X143717Y116038D01*
X143630Y115958D01*
X143539Y115882D01*
X143447Y115808D01*
X143352Y115738D01*
X143255Y115671D01*
X143155Y115607D01*
X143054Y115546D01*
X142951Y115489D01*
X142846Y115434D01*
X142739Y115384D01*
X142630Y115337D01*
X142520Y115294D01*
X142409Y115254D01*
X142297Y115218D01*
X142183Y115185D01*
X142068Y115156D01*
X141953Y115131D01*
X141836Y115110D01*
X141719Y115093D01*
X141602Y115079D01*
X141484Y115070D01*
X141366Y115064D01*
X141248Y115062D01*
X139442Y115062D01*
X154876Y121384D02*
X158940Y121384D01*
X154876Y121384D02*
X154764Y121382D01*
X154653Y121376D01*
X154542Y121366D01*
X154431Y121353D01*
X154321Y121335D01*
X154212Y121313D01*
X154103Y121288D01*
X153995Y121259D01*
X153889Y121226D01*
X153783Y121189D01*
X153679Y121149D01*
X153577Y121105D01*
X153476Y121057D01*
X153377Y121006D01*
X153279Y120951D01*
X153184Y120893D01*
X153091Y120832D01*
X153000Y120767D01*
X152911Y120699D01*
X152825Y120628D01*
X152742Y120555D01*
X152661Y120478D01*
X152582Y120398D01*
X152507Y120316D01*
X152435Y120231D01*
X152365Y120144D01*
X152299Y120054D01*
X152236Y119962D01*
X152176Y119867D01*
X152120Y119771D01*
X152067Y119673D01*
X152018Y119573D01*
X151972Y119471D01*
X151930Y119368D01*
X151891Y119263D01*
X151856Y119157D01*
X151825Y119050D01*
X151798Y118942D01*
X151774Y118833D01*
X151755Y118723D01*
X151739Y118613D01*
X151727Y118502D01*
X151719Y118390D01*
X151715Y118279D01*
X151715Y118167D01*
X151719Y118056D01*
X151727Y117944D01*
X151739Y117833D01*
X151755Y117723D01*
X151774Y117613D01*
X151798Y117504D01*
X151825Y117396D01*
X151856Y117289D01*
X151891Y117183D01*
X151930Y117078D01*
X151972Y116975D01*
X152018Y116873D01*
X152067Y116773D01*
X152120Y116675D01*
X152176Y116579D01*
X152236Y116484D01*
X152299Y116392D01*
X152365Y116302D01*
X152435Y116215D01*
X152507Y116130D01*
X152582Y116048D01*
X152661Y115968D01*
X152742Y115891D01*
X152825Y115818D01*
X152911Y115747D01*
X153000Y115679D01*
X153091Y115614D01*
X153184Y115553D01*
X153279Y115495D01*
X153377Y115440D01*
X153476Y115389D01*
X153577Y115341D01*
X153679Y115297D01*
X153783Y115257D01*
X153889Y115220D01*
X153995Y115187D01*
X154103Y115158D01*
X154212Y115133D01*
X154321Y115111D01*
X154431Y115093D01*
X154542Y115080D01*
X154653Y115070D01*
X154764Y115064D01*
X154876Y115062D01*
X158940Y115062D01*
X158940Y123190D01*
X158938Y123291D01*
X158932Y123392D01*
X158923Y123493D01*
X158910Y123594D01*
X158893Y123694D01*
X158872Y123793D01*
X158848Y123891D01*
X158820Y123988D01*
X158788Y124085D01*
X158753Y124180D01*
X158714Y124273D01*
X158672Y124365D01*
X158626Y124456D01*
X158577Y124545D01*
X158525Y124631D01*
X158469Y124716D01*
X158411Y124799D01*
X158349Y124879D01*
X158284Y124957D01*
X158217Y125033D01*
X158147Y125106D01*
X158074Y125176D01*
X157998Y125243D01*
X157920Y125308D01*
X157840Y125370D01*
X157757Y125428D01*
X157672Y125484D01*
X157586Y125536D01*
X157497Y125585D01*
X157406Y125631D01*
X157314Y125673D01*
X157221Y125712D01*
X157126Y125747D01*
X157029Y125779D01*
X156932Y125807D01*
X156834Y125831D01*
X156735Y125852D01*
X156635Y125869D01*
X156534Y125882D01*
X156433Y125891D01*
X156332Y125897D01*
X156231Y125899D01*
X152619Y125899D01*
X166547Y131318D02*
X166547Y115062D01*
X173772Y115062D01*
D11*
X70612Y711327D02*
X70612Y736473D01*
X30988Y736473D02*
X30988Y711327D01*
X172212Y711327D02*
X172212Y736473D01*
X132588Y736473D02*
X132588Y711327D01*
X273812Y711327D02*
X273812Y736473D01*
X234188Y736473D02*
X234188Y711327D01*
X375412Y711327D02*
X375412Y736473D01*
X335788Y736473D02*
X335788Y711327D01*
D12*
X444500Y726694D02*
X444500Y746506D01*
X536194Y711200D02*
X556006Y711200D01*
X556006Y762000D02*
X536194Y762000D01*
D11*
X654812Y736473D02*
X654812Y711327D01*
X615188Y711327D02*
X615188Y736473D01*
X756412Y736473D02*
X756412Y711327D01*
X716788Y711327D02*
X716788Y736473D01*
X858012Y736473D02*
X858012Y711327D01*
X818388Y711327D02*
X818388Y736473D01*
X959612Y736473D02*
X959612Y711327D01*
X919988Y711327D02*
X919988Y736473D01*
D13*
X188000Y624900D03*
D14*
X213400Y624900D03*
X238800Y624900D03*
X264200Y624900D03*
X289600Y624900D03*
X315000Y624900D03*
X340400Y624900D03*
X365800Y624900D03*
X391200Y624900D03*
X416600Y624900D03*
X442000Y624900D03*
X467400Y624900D03*
X492800Y624900D03*
X518200Y624900D03*
X543600Y624900D03*
X569000Y624900D03*
D15*
X368300Y565150D03*
X596900Y565150D03*
D16*
X609600Y406400D03*
X736600Y406400D03*
X635000Y381000D03*
X762000Y381000D03*
X660400Y355600D03*
X787400Y355600D03*
X685800Y330200D03*
X812800Y330200D03*
D17*
X254000Y381000D03*
X127000Y381000D03*
X254000Y406400D03*
X127000Y406400D03*
X254000Y431800D03*
X127000Y431800D03*
X254000Y457200D03*
X127000Y457200D03*
D18*
X216300Y77200D03*
X266300Y77200D03*
X266300Y202200D03*
X216300Y202200D03*
X495700Y77200D03*
X545700Y77200D03*
X545700Y202200D03*
X495700Y202200D03*
X775100Y77200D03*
X825100Y77200D03*
X825100Y202200D03*
X775100Y202200D03*
D19*
X952500Y475996D02*
X952500Y489204D01*
X927100Y489204D02*
X927100Y475996D01*
X977900Y475996D02*
X977900Y489204D01*
X952500Y438404D02*
X952500Y425196D01*
X927100Y425196D02*
X927100Y438404D01*
X977900Y438404D02*
X977900Y425196D01*
X952500Y387604D02*
X952500Y374396D01*
X927100Y374396D02*
X927100Y387604D01*
X977900Y387604D02*
X977900Y374396D01*
X952500Y336804D02*
X952500Y323596D01*
X927100Y323596D02*
X927100Y336804D01*
X977900Y336804D02*
X977900Y323596D01*
D20*
X660400Y520700D03*
X635000Y38100D03*
X685800Y520700D03*
X711200Y520700D03*
X736600Y520700D03*
X762000Y520700D03*
X635000Y520700D03*
X609600Y520700D03*
X584200Y520700D03*
X543560Y520700D03*
X518160Y520700D03*
X492760Y520700D03*
X467360Y520700D03*
X441960Y520700D03*
X416560Y520700D03*
X391160Y520700D03*
X365760Y520700D03*
X660400Y38100D03*
X685800Y38100D03*
X711200Y38100D03*
X736600Y38100D03*
X762000Y38100D03*
X584200Y38100D03*
X558800Y38100D03*
X533400Y38100D03*
X508000Y38100D03*
X482600Y38100D03*
X457200Y38100D03*
X340360Y520700D03*
X314960Y520700D03*
X431800Y38100D03*
X406400Y38100D03*
D21*
X711200Y508000D02*
X711200Y520700D01*
X405400Y202200D02*
X266300Y202200D01*
X645414Y442214D02*
X711200Y508000D01*
X645414Y442214D02*
X594765Y442214D01*
X527920Y324720D02*
X405400Y202200D01*
X527920Y375369D02*
X594765Y442214D01*
X527920Y375369D02*
X527920Y324720D01*
X736600Y495300D02*
X736600Y520700D01*
X736600Y495300D02*
X665734Y424434D01*
X602130Y424434D01*
X545700Y368004D01*
X545700Y202200D01*
X825100Y202200D02*
X825100Y316996D01*
X830834Y322730D01*
X830834Y439166D01*
X762000Y508000D01*
X762000Y520700D01*
X186690Y684530D02*
X186690Y711200D01*
X186690Y684530D02*
X186690Y675640D01*
X186690Y631190D01*
X186690Y711200D02*
X177800Y720090D01*
X186690Y631190D02*
X188000Y624900D01*
X177800Y720090D02*
X172212Y723900D01*
X88900Y720090D02*
X71120Y720090D01*
X88900Y720090D02*
X124460Y684530D01*
X186690Y684530D01*
X71120Y720090D02*
X70612Y723900D01*
X293370Y702310D02*
X293370Y675640D01*
X293370Y631190D01*
X293370Y702310D02*
X275590Y720090D01*
X293370Y631190D02*
X289600Y624900D01*
X275590Y720090D02*
X273812Y723900D01*
X373380Y728980D02*
X373380Y737870D01*
X346710Y764540D01*
X328930Y764540D01*
X284480Y720090D01*
X373380Y728980D02*
X375412Y723900D01*
X284480Y720090D02*
X273812Y723900D01*
X462280Y764540D02*
X542290Y764540D01*
X462280Y764540D02*
X453390Y773430D01*
X400050Y773430D01*
X373380Y746760D01*
X542290Y764540D02*
X546100Y762000D01*
X373380Y746760D02*
X375412Y723900D01*
X293370Y675640D02*
X186690Y675640D01*
X391160Y520700D02*
X391160Y373380D01*
X226695Y208915D02*
X222250Y204470D01*
X226695Y208915D02*
X306705Y288925D01*
X391160Y373380D01*
X222250Y204470D02*
X216300Y202200D01*
X977900Y330200D02*
X977900Y381000D01*
X977900Y431800D02*
X977900Y482600D01*
X977900Y431800D02*
X977900Y381000D01*
X551180Y35560D02*
X533400Y35560D01*
X533400Y38100D01*
X551180Y35560D02*
X558800Y38100D01*
X560070Y44450D02*
X560070Y53340D01*
X568960Y62230D01*
X568960Y124460D01*
X564515Y128905D02*
X497840Y195580D01*
X564515Y128905D02*
X568960Y124460D01*
X560070Y44450D02*
X558800Y38100D01*
X497840Y195580D02*
X495700Y202200D01*
X631190Y195580D02*
X773430Y195580D01*
X631190Y195580D02*
X564515Y128905D01*
X773430Y195580D02*
X775100Y202200D01*
X257810Y177800D02*
X226695Y208915D01*
X257810Y177800D02*
X471170Y177800D01*
X488950Y195580D01*
X495700Y202200D01*
X293370Y560070D02*
X293370Y622300D01*
X293370Y560070D02*
X231140Y497840D01*
X231140Y364490D01*
X306705Y288925D01*
X293370Y622300D02*
X289600Y624900D01*
X914400Y723900D02*
X927100Y711200D01*
X919988Y723900D02*
X914400Y723900D01*
X927100Y711200D02*
X927100Y482600D01*
X818388Y644652D02*
X818388Y723900D01*
X906780Y431800D02*
X927100Y431800D01*
X906780Y556260D02*
X818388Y644652D01*
X906780Y556260D02*
X906780Y431800D01*
X716788Y652272D02*
X716788Y723900D01*
X723900Y645160D02*
X792480Y645160D01*
X889000Y548640D01*
X889000Y424435D01*
X909320Y404115D02*
X909320Y378460D01*
X909320Y404115D02*
X889000Y424435D01*
X909320Y378460D02*
X924560Y378460D01*
X927100Y381000D01*
X723900Y645160D02*
X716788Y652272D01*
X615188Y652272D02*
X615188Y723900D01*
X642620Y624840D02*
X779780Y624840D01*
X871220Y533400D01*
X871220Y369828D01*
X910848Y330200D02*
X927100Y330200D01*
X642620Y624840D02*
X615188Y652272D01*
X871220Y369828D02*
X910848Y330200D01*
X337820Y711200D02*
X337820Y720090D01*
X337820Y711200D02*
X400050Y648970D01*
X577850Y648970D01*
X595630Y631190D01*
X595630Y613410D01*
X524510Y542290D01*
X302260Y542290D01*
X257810Y497840D01*
X257810Y462280D01*
X337820Y720090D02*
X335788Y723900D01*
X257810Y462280D02*
X254000Y457200D01*
X213360Y551180D02*
X213360Y622300D01*
X213360Y551180D02*
X124460Y462280D01*
X213360Y622300D02*
X213400Y624900D01*
X124460Y462280D02*
X127000Y457200D01*
M02*
