G04 EAGLE Gerber RS-274X export*
G75*
%MOMM*%
%FSLAX34Y34*%
%LPD*%
%IN*%
%IPPOS*%
%AMOC8*
5,1,8,0,0,1.08239X$1,22.5*%
G01*
%ADD10C,0.254000*%


D10*
X0Y0D02*
X1000000Y0D01*
X1000000Y800000D01*
X0Y800000D01*
X0Y0D01*
X147000Y624400D02*
X146929Y623403D01*
X146786Y622413D01*
X146574Y621436D01*
X146292Y620476D01*
X145943Y619539D01*
X145527Y618629D01*
X145048Y617752D01*
X144507Y616910D01*
X143908Y616110D01*
X143253Y615354D01*
X142546Y614647D01*
X141790Y613992D01*
X140990Y613393D01*
X140148Y612852D01*
X139271Y612373D01*
X138361Y611957D01*
X137424Y611608D01*
X136465Y611326D01*
X135487Y611114D01*
X134498Y610971D01*
X133500Y610900D01*
X132500Y610900D01*
X131503Y610971D01*
X130513Y611114D01*
X129536Y611326D01*
X128576Y611608D01*
X127639Y611957D01*
X126729Y612373D01*
X125852Y612852D01*
X125010Y613393D01*
X124210Y613992D01*
X123454Y614647D01*
X122747Y615354D01*
X122092Y616110D01*
X121493Y616910D01*
X120952Y617752D01*
X120473Y618629D01*
X120057Y619539D01*
X119708Y620476D01*
X119426Y621436D01*
X119214Y622413D01*
X119071Y623403D01*
X119000Y624400D01*
X119000Y625400D01*
X119071Y626398D01*
X119214Y627387D01*
X119426Y628365D01*
X119708Y629324D01*
X120057Y630261D01*
X120473Y631171D01*
X120952Y632048D01*
X121493Y632890D01*
X122092Y633690D01*
X122747Y634446D01*
X123454Y635153D01*
X124210Y635808D01*
X125010Y636407D01*
X125852Y636948D01*
X126729Y637427D01*
X127639Y637843D01*
X128576Y638192D01*
X129536Y638474D01*
X130513Y638686D01*
X131503Y638829D01*
X132500Y638900D01*
X133500Y638900D01*
X134498Y638829D01*
X135487Y638686D01*
X136465Y638474D01*
X137424Y638192D01*
X138361Y637843D01*
X139271Y637427D01*
X140148Y636948D01*
X140990Y636407D01*
X141790Y635808D01*
X142546Y635153D01*
X143253Y634446D01*
X143908Y633690D01*
X144507Y632890D01*
X145048Y632048D01*
X145527Y631171D01*
X145943Y630261D01*
X146292Y629324D01*
X146574Y628365D01*
X146786Y627387D01*
X146929Y626398D01*
X147000Y625400D01*
X147000Y624400D01*
X147000Y314400D02*
X146929Y313403D01*
X146786Y312413D01*
X146574Y311436D01*
X146292Y310476D01*
X145943Y309539D01*
X145527Y308629D01*
X145048Y307752D01*
X144507Y306910D01*
X143908Y306110D01*
X143253Y305354D01*
X142546Y304647D01*
X141790Y303992D01*
X140990Y303393D01*
X140148Y302852D01*
X139271Y302373D01*
X138361Y301957D01*
X137424Y301608D01*
X136465Y301326D01*
X135487Y301114D01*
X134498Y300971D01*
X133500Y300900D01*
X132500Y300900D01*
X131503Y300971D01*
X130513Y301114D01*
X129536Y301326D01*
X128576Y301608D01*
X127639Y301957D01*
X126729Y302373D01*
X125852Y302852D01*
X125010Y303393D01*
X124210Y303992D01*
X123454Y304647D01*
X122747Y305354D01*
X122092Y306110D01*
X121493Y306910D01*
X120952Y307752D01*
X120473Y308629D01*
X120057Y309539D01*
X119708Y310476D01*
X119426Y311436D01*
X119214Y312413D01*
X119071Y313403D01*
X119000Y314400D01*
X119000Y315400D01*
X119071Y316398D01*
X119214Y317387D01*
X119426Y318365D01*
X119708Y319324D01*
X120057Y320261D01*
X120473Y321171D01*
X120952Y322048D01*
X121493Y322890D01*
X122092Y323690D01*
X122747Y324446D01*
X123454Y325153D01*
X124210Y325808D01*
X125010Y326407D01*
X125852Y326948D01*
X126729Y327427D01*
X127639Y327843D01*
X128576Y328192D01*
X129536Y328474D01*
X130513Y328686D01*
X131503Y328829D01*
X132500Y328900D01*
X133500Y328900D01*
X134498Y328829D01*
X135487Y328686D01*
X136465Y328474D01*
X137424Y328192D01*
X138361Y327843D01*
X139271Y327427D01*
X140148Y326948D01*
X140990Y326407D01*
X141790Y325808D01*
X142546Y325153D01*
X143253Y324446D01*
X143908Y323690D01*
X144507Y322890D01*
X145048Y322048D01*
X145527Y321171D01*
X145943Y320261D01*
X146292Y319324D01*
X146574Y318365D01*
X146786Y317387D01*
X146929Y316398D01*
X147000Y315400D01*
X147000Y314400D01*
X897000Y624400D02*
X896929Y623403D01*
X896786Y622413D01*
X896574Y621436D01*
X896292Y620476D01*
X895943Y619539D01*
X895527Y618629D01*
X895048Y617752D01*
X894507Y616910D01*
X893908Y616110D01*
X893253Y615354D01*
X892546Y614647D01*
X891790Y613992D01*
X890990Y613393D01*
X890148Y612852D01*
X889271Y612373D01*
X888361Y611957D01*
X887424Y611608D01*
X886465Y611326D01*
X885487Y611114D01*
X884498Y610971D01*
X883500Y610900D01*
X882500Y610900D01*
X881503Y610971D01*
X880513Y611114D01*
X879536Y611326D01*
X878576Y611608D01*
X877639Y611957D01*
X876729Y612373D01*
X875852Y612852D01*
X875010Y613393D01*
X874210Y613992D01*
X873454Y614647D01*
X872747Y615354D01*
X872092Y616110D01*
X871493Y616910D01*
X870952Y617752D01*
X870473Y618629D01*
X870057Y619539D01*
X869708Y620476D01*
X869426Y621436D01*
X869214Y622413D01*
X869071Y623403D01*
X869000Y624400D01*
X869000Y625400D01*
X869071Y626398D01*
X869214Y627387D01*
X869426Y628365D01*
X869708Y629324D01*
X870057Y630261D01*
X870473Y631171D01*
X870952Y632048D01*
X871493Y632890D01*
X872092Y633690D01*
X872747Y634446D01*
X873454Y635153D01*
X874210Y635808D01*
X875010Y636407D01*
X875852Y636948D01*
X876729Y637427D01*
X877639Y637843D01*
X878576Y638192D01*
X879536Y638474D01*
X880513Y638686D01*
X881503Y638829D01*
X882500Y638900D01*
X883500Y638900D01*
X884498Y638829D01*
X885487Y638686D01*
X886465Y638474D01*
X887424Y638192D01*
X888361Y637843D01*
X889271Y637427D01*
X890148Y636948D01*
X890990Y636407D01*
X891790Y635808D01*
X892546Y635153D01*
X893253Y634446D01*
X893908Y633690D01*
X894507Y632890D01*
X895048Y632048D01*
X895527Y631171D01*
X895943Y630261D01*
X896292Y629324D01*
X896574Y628365D01*
X896786Y627387D01*
X896929Y626398D01*
X897000Y625400D01*
X897000Y624400D01*
X897000Y314400D02*
X896929Y313403D01*
X896786Y312413D01*
X896574Y311436D01*
X896292Y310476D01*
X895943Y309539D01*
X895527Y308629D01*
X895048Y307752D01*
X894507Y306910D01*
X893908Y306110D01*
X893253Y305354D01*
X892546Y304647D01*
X891790Y303992D01*
X890990Y303393D01*
X890148Y302852D01*
X889271Y302373D01*
X888361Y301957D01*
X887424Y301608D01*
X886465Y301326D01*
X885487Y301114D01*
X884498Y300971D01*
X883500Y300900D01*
X882500Y300900D01*
X881503Y300971D01*
X880513Y301114D01*
X879536Y301326D01*
X878576Y301608D01*
X877639Y301957D01*
X876729Y302373D01*
X875852Y302852D01*
X875010Y303393D01*
X874210Y303992D01*
X873454Y304647D01*
X872747Y305354D01*
X872092Y306110D01*
X871493Y306910D01*
X870952Y307752D01*
X870473Y308629D01*
X870057Y309539D01*
X869708Y310476D01*
X869426Y311436D01*
X869214Y312413D01*
X869071Y313403D01*
X869000Y314400D01*
X869000Y315400D01*
X869071Y316398D01*
X869214Y317387D01*
X869426Y318365D01*
X869708Y319324D01*
X870057Y320261D01*
X870473Y321171D01*
X870952Y322048D01*
X871493Y322890D01*
X872092Y323690D01*
X872747Y324446D01*
X873454Y325153D01*
X874210Y325808D01*
X875010Y326407D01*
X875852Y326948D01*
X876729Y327427D01*
X877639Y327843D01*
X878576Y328192D01*
X879536Y328474D01*
X880513Y328686D01*
X881503Y328829D01*
X882500Y328900D01*
X883500Y328900D01*
X884498Y328829D01*
X885487Y328686D01*
X886465Y328474D01*
X887424Y328192D01*
X888361Y327843D01*
X889271Y327427D01*
X890148Y326948D01*
X890990Y326407D01*
X891790Y325808D01*
X892546Y325153D01*
X893253Y324446D01*
X893908Y323690D01*
X894507Y322890D01*
X895048Y322048D01*
X895527Y321171D01*
X895943Y320261D01*
X896292Y319324D01*
X896574Y318365D01*
X896786Y317387D01*
X896929Y316398D01*
X897000Y315400D01*
X897000Y314400D01*
M02*
