G04 EAGLE Gerber RS-274X export*
G75*
%MOMM*%
%FSLAX34Y34*%
%LPD*%
%INSoldermask Top*%
%IPNEG*%
%AMOC8*
5,1,8,0,0,1.08239X$1,22.5*%
G01*
%ADD10C,2.717800*%
%ADD11C,2.184400*%
%ADD12R,2.082800X2.082800*%
%ADD13C,2.082800*%
%ADD14C,3.003200*%
%ADD15P,1.869504X8X22.500000*%
%ADD16P,1.649562X8X22.500000*%
%ADD17P,1.649562X8X202.500000*%
%ADD18C,2.362200*%
%ADD19C,1.524000*%
%ADD20P,2.034460X8X22.500000*%


D10*
X70612Y711327D02*
X70612Y736473D01*
X30988Y736473D02*
X30988Y711327D01*
X172212Y711327D02*
X172212Y736473D01*
X132588Y736473D02*
X132588Y711327D01*
X273812Y711327D02*
X273812Y736473D01*
X234188Y736473D02*
X234188Y711327D01*
X375412Y711327D02*
X375412Y736473D01*
X335788Y736473D02*
X335788Y711327D01*
D11*
X444500Y726694D02*
X444500Y746506D01*
X536194Y711200D02*
X556006Y711200D01*
X556006Y762000D02*
X536194Y762000D01*
D10*
X654812Y736473D02*
X654812Y711327D01*
X615188Y711327D02*
X615188Y736473D01*
X756412Y736473D02*
X756412Y711327D01*
X716788Y711327D02*
X716788Y736473D01*
X858012Y736473D02*
X858012Y711327D01*
X818388Y711327D02*
X818388Y736473D01*
X959612Y736473D02*
X959612Y711327D01*
X919988Y711327D02*
X919988Y736473D01*
D12*
X188000Y624900D03*
D13*
X213400Y624900D03*
X238800Y624900D03*
X264200Y624900D03*
X289600Y624900D03*
X315000Y624900D03*
X340400Y624900D03*
X365800Y624900D03*
X391200Y624900D03*
X416600Y624900D03*
X442000Y624900D03*
X467400Y624900D03*
X492800Y624900D03*
X518200Y624900D03*
X543600Y624900D03*
X569000Y624900D03*
D14*
X133000Y624900D03*
X133000Y314900D03*
X883000Y624900D03*
X883000Y314900D03*
D15*
X368300Y565150D03*
X596900Y565150D03*
D16*
X609600Y406400D03*
X736600Y406400D03*
X635000Y381000D03*
X762000Y381000D03*
X660400Y355600D03*
X787400Y355600D03*
X685800Y330200D03*
X812800Y330200D03*
D17*
X254000Y381000D03*
X127000Y381000D03*
X254000Y406400D03*
X127000Y406400D03*
X254000Y431800D03*
X127000Y431800D03*
X254000Y457200D03*
X127000Y457200D03*
D18*
X216300Y77200D03*
X266300Y77200D03*
X266300Y202200D03*
X216300Y202200D03*
X495700Y77200D03*
X545700Y77200D03*
X545700Y202200D03*
X495700Y202200D03*
X775100Y77200D03*
X825100Y77200D03*
X825100Y202200D03*
X775100Y202200D03*
D19*
X952500Y475996D02*
X952500Y489204D01*
X927100Y489204D02*
X927100Y475996D01*
X977900Y475996D02*
X977900Y489204D01*
X952500Y438404D02*
X952500Y425196D01*
X927100Y425196D02*
X927100Y438404D01*
X977900Y438404D02*
X977900Y425196D01*
X952500Y387604D02*
X952500Y374396D01*
X927100Y374396D02*
X927100Y387604D01*
X977900Y387604D02*
X977900Y374396D01*
X952500Y336804D02*
X952500Y323596D01*
X927100Y323596D02*
X927100Y336804D01*
X977900Y336804D02*
X977900Y323596D01*
D20*
X660400Y520700D03*
X635000Y38100D03*
X685800Y520700D03*
X711200Y520700D03*
X736600Y520700D03*
X762000Y520700D03*
X635000Y520700D03*
X609600Y520700D03*
X584200Y520700D03*
X543560Y520700D03*
X518160Y520700D03*
X492760Y520700D03*
X467360Y520700D03*
X441960Y520700D03*
X416560Y520700D03*
X391160Y520700D03*
X365760Y520700D03*
X660400Y38100D03*
X685800Y38100D03*
X711200Y38100D03*
X736600Y38100D03*
X762000Y38100D03*
X584200Y38100D03*
X558800Y38100D03*
X533400Y38100D03*
X508000Y38100D03*
X482600Y38100D03*
X457200Y38100D03*
X340360Y520700D03*
X314960Y520700D03*
X431800Y38100D03*
X406400Y38100D03*
M02*
