M48
;GenerationSoftware,Autodesk,EAGLE,9.2.0*%
;CreationDate,2018-11-08T11:02:19Z*%
FMAT,2
ICI,OFF
METRIC,TZ,000.000
T7C0.813
T6C1.000
T5C1.016
T4C1.200
T3C1.321
T2C1.676
T1C2.800
%
G90
M71
T1
X13300Y62490
X13300Y31490
X88300Y62490
X88300Y31490
T2
X7061Y72390
X3099Y72390
X17221Y72390
X13259Y72390
X27381Y72390
X23419Y72390
X37541Y72390
X33579Y72390
X65481Y72390
X61519Y72390
X75641Y72390
X71679Y72390
X85801Y72390
X81839Y72390
X95961Y72390
X91999Y72390
T3
X44450Y73660
X54610Y71120
X54610Y76200
T4
X54570Y20220
X54570Y7720
X49570Y7720
X21630Y20220
X82510Y7720
X26630Y20220
X26630Y7720
X21630Y7720
X77510Y20220
X82510Y20220
X77510Y7720
X49570Y20220
T5
X18800Y62490
X21340Y62490
X23880Y62490
X56900Y62490
X36830Y56515
X28960Y62490
X31500Y62490
X34040Y62490
X36580Y62490
X39120Y62490
X41660Y62490
X26420Y62490
X44200Y62490
X46740Y62490
X49280Y62490
X51820Y62490
X54360Y62490
X59690Y56515
T6
X31496Y52070
X43180Y3810
X40640Y3810
X66040Y3810
X66040Y52070
X63500Y3810
X68580Y52070
X71120Y52070
X73660Y52070
X76200Y52070
X63500Y52070
X60960Y52070
X58420Y52070
X54356Y52070
X51816Y52070
X49276Y52070
X46736Y52070
X44196Y52070
X41656Y52070
X39116Y52070
X36576Y52070
X68580Y3810
X71120Y3810
X73660Y3810
X76200Y3810
X58420Y3810
X55880Y3810
X53340Y3810
X50800Y3810
X48260Y3810
X45720Y3810
X34036Y52070
T7
X60960Y40640
X73660Y40640
X63500Y38100
X81280Y33020
X68580Y33020
X78740Y35560
X66040Y35560
X76200Y38100
X95250Y48260
X92710Y48260
X97790Y48260
X95250Y43180
X92710Y43180
X12700Y45720
X97790Y43180
X95250Y38100
X92710Y38100
X97790Y38100
X95250Y33020
X92710Y33020
X97790Y33020
X25400Y45720
X12700Y43180
X25400Y43180
X12700Y40640
X25400Y40640
X12700Y38100
X25400Y38100
M30